<svg width="89" height="88" viewBox="0 0 89 88" fill="none" xmlns="http://www.w3.org/2000/svg">
<path d="M44.3334 81.5H3.70837C2.87957 81.5 2.08472 81.1708 1.49867 80.5847C0.912614 79.9987 0.583374 79.2038 0.583374 78.375V72.125C0.583374 71.2962 0.912614 70.5013 1.49867 69.9153C2.08472 69.3292 2.87957 69 3.70837 69H44.3334V81.5Z" fill="#C80A50"/>
<path d="M14.8444 69C21.7162 76.6672 31.6897 81.5 42.7709 81.5V69H14.8444Z" fill="#A00028"/>
<path d="M19.3334 44H6.83337C6.83337 23.3219 23.6568 6.5 44.3334 6.5V19C30.549 19 19.3334 30.2156 19.3334 44Z" fill="#239FFD"/>
<path d="M44.3334 81.5C23.6568 81.5 6.83337 64.6781 6.83337 44H19.3334C19.3334 57.7844 30.549 69 44.3334 69V81.5ZM44.3334 69H72.4584V81.5H44.3334V69Z" fill="#00A0C8"/>
<path d="M10.874 57.1469C11.46 57.7327 12.2547 58.0618 13.0834 58.0618C13.912 58.0618 14.7067 57.7327 15.2927 57.1469L20.5943 51.8453C19.7572 49.3145 19.3314 46.6657 19.3334 44H6.83337C6.83337 47.6969 7.37087 51.2688 8.37244 54.6453L10.874 57.1469ZM77.7928 30.8531C77.2067 30.2673 76.412 29.9382 75.5834 29.9382C74.7547 29.9382 73.96 30.2673 73.374 30.8531L68.0724 36.1547C68.8896 38.6234 69.3334 41.2609 69.3334 44H81.8334C81.8363 40.3959 81.3179 36.8104 80.2943 33.3547L77.7928 30.8531Z" fill="#0082AA"/>
<path d="M47.4583 6.62969V3.37501C47.4582 2.75704 47.2748 2.15298 46.9314 1.6392C46.5881 1.12542 46.1 0.724981 45.5291 0.488512C44.9582 0.252043 44.3299 0.190159 43.7238 0.310682C43.1177 0.431206 42.561 0.728726 42.1239 1.16563L32.7489 10.5406C32.1631 11.1267 31.834 11.9214 31.834 12.75C31.834 13.5786 32.1631 14.3734 32.7489 14.9594L42.1239 24.3344C42.5605 24.7724 43.1174 25.0707 43.7239 25.1915C44.3304 25.3122 44.9592 25.2499 45.5302 25.0125C46.1011 24.7758 46.589 24.3751 46.9322 23.8612C47.2754 23.3472 47.4585 22.743 47.4583 22.125V19.1953C59.7739 20.7375 69.3333 31.2734 69.3333 44H81.8333C81.8333 24.375 66.6786 8.22344 47.4583 6.62969Z" fill="#00A0C8"/>
<path d="M25.3458 42.8047C25.1094 42.2335 24.7088 41.7453 24.1948 41.4018C23.6808 41.0583 23.0765 40.875 22.4583 40.875H3.70832C3.09035 40.8751 2.48629 41.0585 1.97251 41.4019C1.45873 41.7453 1.05829 42.2333 0.821825 42.8042C0.585356 43.3751 0.523472 44.0034 0.643995 44.6095C0.764519 45.2156 1.06204 45.7723 1.49894 46.2094L10.8739 55.5844C11.4849 56.1953 12.2833 56.5 13.0833 56.5C13.8833 56.5 14.6818 56.1953 15.2927 55.5844L24.6677 46.2094C25.1047 45.7725 25.4023 45.2159 25.523 44.6099C25.6437 44.0038 25.5821 43.3757 25.3458 42.8047Z" fill="#239FFD"/>
<path d="M81.7037 47.125H84.9584C85.5763 47.1249 86.1804 46.9415 86.6942 46.5981C87.208 46.2547 87.6084 45.7667 87.8449 45.1958C88.0813 44.6249 88.1432 43.9966 88.0227 43.3905C87.9022 42.7844 87.6047 42.2277 87.1678 41.7906L77.7928 32.4156C77.2067 31.8298 76.412 31.5007 75.5834 31.5007C74.7547 31.5007 73.96 31.8298 73.374 32.4156L63.999 41.7906C63.5621 42.2277 63.2646 42.7844 63.1441 43.3905C63.0235 43.9966 63.0854 44.6249 63.3219 45.1958C63.5584 45.7667 63.9588 46.2547 64.4726 46.5981C64.9863 46.9415 65.5904 47.1249 66.2084 47.125H69.1381C67.5959 59.4406 57.0599 69 44.3334 69H72.2599C77.7108 62.9344 81.0274 55.2519 81.7037 47.125Z" fill="#239FFD"/>
<path d="M58.3959 40.875H57.5927C56.9068 40.875 56.3334 40.4187 56.1006 39.7734C55.966 39.399 55.8132 39.0314 55.6427 38.6719C55.349 38.0516 55.4334 37.3203 55.9178 36.8359L56.4865 36.2672C56.6317 36.1222 56.7469 35.95 56.8256 35.7605C56.9042 35.5709 56.9446 35.3677 56.9446 35.1625C56.9446 34.9573 56.9042 34.7541 56.8256 34.5645C56.7469 34.375 56.6317 34.2028 56.4865 34.0578L54.2771 31.8484C54.1321 31.7032 53.9599 31.588 53.7704 31.5094C53.5808 31.4308 53.3776 31.3903 53.1724 31.3903C52.9672 31.3903 52.764 31.4308 52.5745 31.5094C52.3849 31.588 52.2127 31.7032 52.0678 31.8484L51.499 32.4172C51.0131 32.9031 50.2834 32.9859 49.6631 32.6922C49.3032 32.5226 48.9356 32.3699 48.5615 32.2344C47.9146 32.0016 47.4584 31.4266 47.4584 30.7406V29.9375C47.4584 29.5231 47.2938 29.1257 47.0007 28.8326C46.7077 28.5396 46.3103 28.375 45.8959 28.375H42.7709C42.3565 28.375 41.959 28.5396 41.666 28.8326C41.373 29.1257 41.2084 29.5231 41.2084 29.9375V30.7406C41.2084 31.4266 40.7521 32 40.1068 32.2328C39.7324 32.3673 39.3647 32.5201 39.0052 32.6906C38.3849 32.9844 37.6537 32.9 37.1693 32.4156L36.6006 31.8469C36.4556 31.7016 36.2834 31.5864 36.0938 31.5078C35.9043 31.4292 35.7011 31.3887 35.4959 31.3887C35.2907 31.3887 35.0875 31.4292 34.8979 31.5078C34.7084 31.5864 34.5362 31.7016 34.3912 31.8469L32.1818 34.0562C32.0366 34.2012 31.9214 34.3734 31.8428 34.563C31.7641 34.7525 31.7237 34.9557 31.7237 35.1609C31.7237 35.3661 31.7641 35.5693 31.8428 35.7589C31.9214 35.9484 32.0366 36.1206 32.1818 36.2656L32.7506 36.8344C33.2365 37.3203 33.3193 38.05 33.0256 38.6703C32.856 39.0302 32.7032 39.3978 32.5677 39.7719C32.3349 40.4188 31.7599 40.875 31.074 40.875H30.2709C29.8565 40.875 29.459 41.0396 29.166 41.3326C28.873 41.6257 28.7084 42.0231 28.7084 42.4375V45.5625C28.7084 45.9769 28.873 46.3743 29.166 46.6674C29.459 46.9604 29.8565 47.125 30.2709 47.125H31.074C31.7599 47.125 32.3334 47.5813 32.5662 48.2266C32.7021 48.6031 32.8537 48.9703 33.024 49.3281C33.3177 49.9484 33.2334 50.6797 32.749 51.1641L32.1802 51.7328C32.035 51.8778 31.9198 52.05 31.8412 52.2395C31.7626 52.4291 31.7221 52.6323 31.7221 52.8375C31.7221 53.0427 31.7626 53.2459 31.8412 53.4355C31.9198 53.625 32.035 53.7972 32.1802 53.9422L34.3896 56.1516C34.5346 56.2968 34.7068 56.412 34.8964 56.4906C35.0859 56.5692 35.2891 56.6097 35.4943 56.6097C35.6995 56.6097 35.9027 56.5692 36.0923 56.4906C36.2818 56.412 36.454 56.2968 36.599 56.1516L37.1677 55.5828C37.6537 55.0969 38.3834 55.0141 39.0037 55.3078C39.3615 55.4766 39.7303 55.6297 40.1053 55.7656C40.7521 55.9984 41.2084 56.5734 41.2084 57.2594V58.0625C41.2084 58.4769 41.373 58.8743 41.666 59.1674C41.959 59.4604 42.3565 59.625 42.7709 59.625H45.8959C46.3103 59.625 46.7077 59.4604 47.0007 59.1674C47.2938 58.8743 47.4584 58.4769 47.4584 58.0625V57.2594C47.4584 56.5734 47.9146 56 48.5599 55.7672C48.9365 55.6312 49.3037 55.4797 49.6615 55.3094C50.2818 55.0156 51.0131 55.1 51.4974 55.5844L52.0662 56.1531C52.2112 56.2984 52.3834 56.4136 52.5729 56.4922C52.7625 56.5708 52.9657 56.6113 53.1709 56.6113C53.3761 56.6113 53.5793 56.5708 53.7688 56.4922C53.9584 56.4136 54.1306 56.2984 54.2756 56.1531L56.4849 53.9437C56.6302 53.7988 56.7454 53.6266 56.824 53.437C56.9026 53.2475 56.9431 53.0443 56.9431 52.8391C56.9431 52.6339 56.9026 52.4307 56.824 52.2411C56.7454 52.0515 56.6302 51.8794 56.4849 51.7344L55.9162 51.1656C55.4302 50.6797 55.3474 49.95 55.6412 49.3297C55.8099 48.9719 55.9631 48.6031 56.099 48.2281C56.3318 47.5813 56.9068 47.125 57.5927 47.125H58.3959C58.8103 47.125 59.2077 46.9604 59.5007 46.6674C59.7938 46.3743 59.9584 45.9769 59.9584 45.5625V42.4375C59.9584 42.0231 59.7938 41.6257 59.5007 41.3326C59.2077 41.0396 58.8103 40.875 58.3959 40.875ZM44.3334 50.25C42.6758 50.25 41.0861 49.5915 39.914 48.4194C38.7419 47.2473 38.0834 45.6576 38.0834 44C38.0834 42.3424 38.7419 40.7527 39.914 39.5806C41.0861 38.4085 42.6758 37.75 44.3334 37.75C45.991 37.75 47.5807 38.4085 48.7528 39.5806C49.9249 40.7527 50.5834 42.3424 50.5834 44C50.5834 45.6576 49.9249 47.2473 48.7528 48.4194C47.5807 49.5915 45.991 50.25 44.3334 50.25Z" fill="#C80A50"/>
<path d="M87.1678 73.0406L77.7928 63.6656C77.3557 63.2287 76.799 62.9312 76.1929 62.8107C75.5867 62.6902 74.9585 62.752 74.3876 62.9885C73.8166 63.225 73.3286 63.6254 72.9852 64.1392C72.6419 64.653 72.4585 65.257 72.4584 65.875V69H44.3334V81.5H72.4584V84.625C72.4585 85.243 72.6419 85.847 72.9852 86.3608C73.3286 86.8746 73.8166 87.275 74.3876 87.5115C74.9585 87.748 75.5867 87.8099 76.1929 87.6893C76.799 87.5688 77.3557 87.2713 77.7928 86.8344L87.1678 77.4594C87.7536 76.8734 88.0827 76.0786 88.0827 75.25C88.0827 74.4214 87.7536 73.6267 87.1678 73.0406Z" fill="#00A0C8"/>
</svg>
