<svg width="101" height="100" viewBox="0 0 101 100" fill="none" xmlns="http://www.w3.org/2000/svg">
<g clip-path="url(#clip0_1_6726)">
<path d="M35.3949 77.4689C35.2096 77.3985 35.0123 77.3653 34.8142 77.3711C34.6161 77.3769 34.4211 77.4218 34.2403 77.503C34.0596 77.5842 33.8966 77.7002 33.7606 77.8445C33.6247 77.9887 33.5185 78.1583 33.4482 78.3435L31.224 84.1965C31.1524 84.382 31.1182 84.5797 31.1233 84.7785C31.1284 84.9772 31.1728 85.173 31.2538 85.3545C31.3348 85.5361 31.4509 85.6998 31.5954 85.8364C31.7399 85.9729 31.9099 86.0796 32.0958 86.1502C32.2816 86.2208 32.4796 86.254 32.6783 86.2479C32.877 86.2418 33.0725 86.1964 33.2536 86.1145C33.4348 86.0326 33.5979 85.9157 33.7338 85.7705C33.8696 85.6253 33.9754 85.4547 34.045 85.2685L36.2693 79.4156C36.3397 79.2304 36.373 79.0331 36.3671 78.835C36.3613 78.6369 36.3165 78.4419 36.2353 78.2611C36.1541 78.0804 36.0381 77.9174 35.8939 77.7814C35.7497 77.6455 35.5801 77.5393 35.3949 77.4689ZM41.4241 61.6035C41.05 61.4614 40.6348 61.4737 40.2697 61.6377C39.9046 61.8017 39.6197 62.104 39.4775 62.4781L35.7292 72.3414C35.6588 72.5266 35.6256 72.7239 35.6315 72.922C35.6373 73.1201 35.6821 73.3151 35.7634 73.4959C35.8446 73.6766 35.9606 73.8396 36.1048 73.9756C36.249 74.1115 36.4186 74.2177 36.6038 74.2881C36.7891 74.3585 36.9864 74.3917 37.1845 74.3858C37.3826 74.38 37.5775 74.3352 37.7583 74.2539C37.9391 74.1727 38.1021 74.0567 38.238 73.9125C38.3739 73.7683 38.4801 73.5987 38.5505 73.4135L42.2988 63.5502C42.3692 63.3649 42.4024 63.1676 42.3965 62.9696C42.3907 62.7715 42.3459 62.5765 42.2647 62.3957C42.1834 62.2149 42.0674 62.0519 41.9232 61.916C41.779 61.7801 41.6094 61.6739 41.4241 61.6035ZM19.957 57.3512L8.28294 65.6852C7.96153 65.9194 7.74557 66.271 7.682 66.6636C7.61844 67.0562 7.71242 67.458 7.9435 67.7817C8.17459 68.1054 8.5241 68.3248 8.91606 68.3922C9.30801 68.4596 9.71073 68.3695 10.0367 68.1416L21.7107 59.8076C22.0321 59.5734 22.2481 59.2217 22.3116 58.8291C22.3752 58.4366 22.2812 58.0347 22.0501 57.711C21.819 57.3874 21.4695 57.168 21.0776 57.1006C20.6856 57.0332 20.2829 57.1233 19.957 57.3512ZM21.7607 14.4326L10.68 6.38848C10.5196 6.27204 10.3379 6.18834 10.1452 6.14214C9.95247 6.09594 9.75254 6.08815 9.55681 6.11922C9.16152 6.18196 8.80735 6.39917 8.5722 6.72305C8.45577 6.88342 8.37206 7.06515 8.32586 7.25787C8.27966 7.45058 8.27187 7.65052 8.30294 7.84624C8.36569 8.24154 8.58289 8.59571 8.90677 8.83086L19.9874 16.875C20.1477 16.9916 20.3295 17.0754 20.5222 17.1217C20.715 17.168 20.9149 17.1759 21.1107 17.1448C21.3065 17.1137 21.4942 17.0443 21.6632 16.9406C21.8321 16.8369 21.9789 16.7009 22.0952 16.5404C22.3304 16.2165 22.4272 15.8125 22.3645 15.4172C22.3017 15.0219 22.0845 14.6678 21.7607 14.4326ZM93.4031 6.70547C93.2878 6.54423 93.1419 6.40729 92.9737 6.30248C92.8054 6.19766 92.6182 6.12701 92.4227 6.09458C92.2272 6.06215 92.0272 6.06857 91.8341 6.11347C91.6411 6.15836 91.4587 6.24086 91.2976 6.35625L79.6156 14.7145C79.297 14.95 79.0838 15.3013 79.0221 15.6926C78.9603 16.084 79.0549 16.4839 79.2854 16.8061C79.5159 17.1283 79.8639 17.3469 80.2542 17.4148C80.6445 17.4827 81.0458 17.3944 81.3716 17.1689L93.0536 8.81074C93.2148 8.69547 93.3518 8.54957 93.4566 8.38138C93.5614 8.21318 93.632 8.02599 93.6645 7.83049C93.6969 7.63498 93.6905 7.43501 93.6457 7.24197C93.6008 7.04894 93.5184 6.86663 93.4031 6.70547ZM77.7216 62.8967C77.5836 62.7534 77.4187 62.6388 77.2363 62.5594C77.0538 62.4801 76.8575 62.4376 76.6586 62.4344C76.4597 62.4312 76.2622 62.4674 76.0773 62.5408C75.8924 62.6143 75.7239 62.7235 75.5814 62.8623C75.4389 63.0011 75.3252 63.1667 75.2469 63.3496C75.1687 63.5325 75.1273 63.7291 75.1253 63.928C75.1233 64.1269 75.1606 64.3243 75.2351 64.5087C75.3096 64.6931 75.4199 64.861 75.5595 65.0027L86.9519 76.6988C87.0924 76.8433 87.2605 76.9582 87.4462 77.0365C87.6319 77.1149 87.8314 77.1551 88.0329 77.1549C88.3297 77.1547 88.6198 77.0671 88.867 76.903C89.1142 76.7389 89.3075 76.5056 89.4228 76.2322C89.5382 75.9588 89.5704 75.6575 89.5154 75.3659C89.4604 75.0743 89.3207 74.8054 89.1138 74.5928L77.7216 62.8967Z" fill="#A4E7FF"/>
<path d="M5.34992 74.3162C7.93638 74.3162 10.0331 72.2195 10.0331 69.633C10.0331 67.0465 7.93638 64.9498 5.34992 64.9498C2.76346 64.9498 0.666718 67.0465 0.666718 69.633C0.666718 72.2195 2.76346 74.3162 5.34992 74.3162Z" fill="#FBF198"/>
<path d="M91.3001 83.6828C93.8866 83.6828 95.9833 81.5861 95.9833 78.9996C95.9833 76.4131 93.8866 74.3164 91.3001 74.3164C88.7137 74.3164 86.6169 76.4131 86.6169 78.9996C86.6169 81.5861 88.7137 83.6828 91.3001 83.6828Z" fill="#4F45E2"/>
<path d="M6.00422 9.54277C8.59068 9.54277 10.6874 7.44603 10.6874 4.85956C10.6874 2.2731 8.59068 0.176361 6.00422 0.176361C3.41776 0.176361 1.32101 2.2731 1.32101 4.85956C1.32101 7.44603 3.41776 9.54277 6.00422 9.54277Z" fill="#4F45E2"/>
<path d="M95.9835 9.54277C98.57 9.54277 100.667 7.44603 100.667 4.85956C100.667 2.2731 98.57 0.176361 95.9835 0.176361C93.3971 0.176361 91.3003 2.2731 91.3003 4.85956C91.3003 7.44603 93.3971 9.54277 95.9835 9.54277Z" fill="#FBF198"/>
<path d="M29.8413 99.9412C34.1819 99.9412 37.7007 96.4224 37.7007 92.0818C37.7007 87.7412 34.1819 84.2224 29.8413 84.2224C25.5007 84.2224 21.982 87.7412 21.982 92.0818C21.982 96.4224 25.5007 99.9412 29.8413 99.9412Z" fill="#4F45E2"/>
<path d="M79.8538 60.558C80.919 58.8146 80.6976 56.5064 79.189 54.998L75.4923 51.3014C75.2854 51.095 75.1489 50.8286 75.1023 50.54C75.0558 50.2515 75.1016 49.9557 75.2331 49.6947C75.8569 48.4632 76.3865 47.1862 76.8173 45.8746C76.909 45.5974 77.0858 45.3562 77.3226 45.1855C77.5594 45.0147 77.8441 44.923 78.136 44.9234H83.362C85.8628 44.9234 87.8899 42.8961 87.8899 40.3955V34.1685C87.8899 31.668 85.8628 29.6406 83.362 29.6406H78.1362C77.8443 29.6411 77.5596 29.5493 77.3228 29.3785C77.086 29.2077 76.9092 28.9665 76.8175 28.6893C76.3866 27.3778 75.8569 26.1008 75.2331 24.8693C75.1015 24.6084 75.0556 24.3125 75.1022 24.024C75.1487 23.7354 75.2853 23.469 75.4923 23.2627L79.189 19.566C80.9571 17.7978 80.9571 14.9308 79.189 13.1625L74.7858 8.75976C73.0177 6.99159 70.1507 6.99159 68.3823 8.75976L64.6857 12.4564C64.4794 12.6634 64.2129 12.7999 63.9244 12.8464C63.6359 12.8929 63.3401 12.8471 63.0792 12.7154C61.8477 12.0916 60.5707 11.562 59.2591 11.1312C58.9819 11.0395 58.7407 10.8627 58.5699 10.6259C58.3992 10.3891 58.3074 10.1045 58.3079 9.81249V4.58671C58.3087 3.99198 58.1919 3.40295 57.9643 2.85349C57.7368 2.30402 57.4028 1.80495 56.9817 1.38495L56.803 1.40331C56.8376 1.37343 56.871 1.34237 56.9056 1.31249C56.0646 0.506754 54.9446 0.0575094 53.78 0.0587795H47.553C45.0524 0.0587795 43.0251 2.08593 43.0251 4.58671V9.81249C43.0256 10.1045 42.9339 10.3891 42.7631 10.6259C42.5923 10.8627 42.3511 11.0395 42.0739 11.1312C40.7624 11.5621 39.4854 12.0917 38.2538 12.7154C37.9929 12.8471 37.697 12.8929 37.4085 12.8464C37.12 12.7999 36.8535 12.6634 36.6472 12.4564L32.9507 8.75976C32.1343 7.94106 31.0346 7.46733 29.8788 7.43651L24.9189 12.9842L29.8413 36.1748L43.9575 58.3545L62.4872 60.599L73.6728 64.0605L79.8538 60.558Z" fill="#68A2DF"/>
<path d="M73.5052 61.0072C48.9054 61.0072 28.9632 41.065 28.9632 16.4652C28.9617 13.4334 29.2685 10.4094 29.8788 7.43963C28.6771 7.40545 27.4646 7.84237 26.5474 8.75956L22.1442 13.1627C20.3761 14.931 20.3761 17.7978 22.1442 19.5662L25.8409 23.2629C26.0479 23.4692 26.1844 23.7356 26.2309 24.0241C26.2774 24.3126 26.2316 24.6084 26.0999 24.8693C25.4762 26.1008 24.9466 27.3778 24.5157 28.6892C24.4241 28.9665 24.2472 29.2077 24.0104 29.3785C23.7736 29.5493 23.489 29.6411 23.197 29.6406H17.9712C15.4704 29.6406 13.4433 31.6678 13.4433 34.1685V40.3955C13.4433 42.8963 15.4704 44.9234 17.9712 44.9234H23.197C23.4889 44.923 23.7736 45.0147 24.0104 45.1854C24.2472 45.3562 24.424 45.5974 24.5157 45.8746C24.9466 47.1861 25.4762 48.4631 26.0999 49.6947C26.2315 49.9556 26.2774 50.2515 26.2309 50.54C26.1844 50.8285 26.0479 51.095 25.8409 51.3013L22.1442 54.998C20.3761 56.7662 20.3761 59.6332 22.1442 61.4014L26.5474 65.8045C28.3155 67.5726 31.1825 67.5726 32.9507 65.8045L36.6474 62.1078C36.8537 61.9008 37.1201 61.7643 37.4086 61.7178C37.6971 61.6713 37.9929 61.7172 38.2538 61.8488C39.4854 62.4725 40.7624 63.0021 42.0739 63.433C42.3511 63.5247 42.5923 63.7015 42.7631 63.9383C42.9339 64.1751 43.0256 64.4598 43.0251 64.7517V69.9775C43.0251 72.4781 45.0523 74.5055 47.553 74.5055H53.7802C54.9445 74.5068 56.0641 74.0578 56.905 73.2525L56.9067 73.2527C57.3503 72.8304 57.7032 72.3222 57.9441 71.7592C58.185 71.1961 58.3089 70.59 58.3081 69.9775V64.7517C58.3076 64.4598 58.3993 64.1751 58.5701 63.9383C58.7409 63.7015 58.9821 63.5247 59.2593 63.433C60.5708 63.0021 61.8478 62.4725 63.0794 61.8488C63.3403 61.7172 63.6361 61.6713 63.9247 61.7179C64.2132 61.7644 64.4796 61.901 64.6858 62.108L68.3825 65.8047C70.1507 67.5728 73.0177 67.5728 74.786 65.8047L79.1892 61.4016C79.4422 61.1468 79.6638 60.8627 79.8495 60.5555C77.7481 60.8558 75.628 61.0067 73.5052 61.0072Z" fill="#4F45E2"/>
<path d="M41.2681 28.34C41.131 27.9807 40.8877 27.6717 40.5708 27.454C40.2538 27.2362 39.878 27.1201 39.4935 27.1211H39.4915C39.1079 27.1206 38.7332 27.2365 38.4169 27.4536C38.1007 27.6706 37.8577 27.9786 37.7202 28.3367L31.2226 45.3972C31.1504 45.5828 31.1157 45.7807 31.1204 45.9797C31.1251 46.1787 31.1691 46.3748 31.2499 46.5567C31.3307 46.7386 31.4467 46.9028 31.5913 47.0396C31.7358 47.1765 31.9059 47.2835 32.092 47.3543C32.278 47.4252 32.4762 47.4585 32.6751 47.4524C32.8741 47.4463 33.0699 47.4009 33.2512 47.3188C33.4326 47.2368 33.5959 47.1196 33.7317 46.9742C33.8676 46.8287 33.9734 46.6578 34.0429 46.4713L35.2909 43.1943H43.6478L44.8829 46.4672C44.9913 46.7541 45.1844 47.0013 45.4367 47.1757C45.6889 47.3502 45.9883 47.4437 46.295 47.4437C46.472 47.4437 46.6521 47.4123 46.8275 47.3461C47.0129 47.2761 47.1827 47.1703 47.3273 47.0347C47.4718 46.8991 47.5882 46.7364 47.6698 46.5558C47.7515 46.3752 47.7967 46.1803 47.803 45.9822C47.8093 45.7841 47.7766 45.5868 47.7066 45.4013L41.2681 28.34ZM36.4406 40.1761L39.4888 32.1728L42.5091 40.1761H36.4406ZM68.7005 27.1209C68.3003 27.1209 67.9165 27.2799 67.6335 27.5628C67.3505 27.8458 67.1915 28.2297 67.1915 28.6299V45.9342C67.1915 46.3344 67.3505 46.7182 67.6335 47.0012C67.9165 47.2842 68.3003 47.4431 68.7005 47.4431C69.1007 47.4431 69.4845 47.2842 69.7675 47.0012C70.0505 46.7182 70.2095 46.3344 70.2095 45.9342V28.6299C70.2095 28.2297 70.0505 27.8458 69.7675 27.5628C69.4845 27.2799 69.1007 27.1209 68.7005 27.1209ZM57.4419 27.1209H52.6236C51.8124 27.1047 51.1005 27.8205 51.1146 28.6299V45.9342C51.1146 46.3344 51.2736 46.7182 51.5566 47.0012C51.8395 47.2842 52.2234 47.4431 52.6236 47.4431C53.0238 47.4431 53.4076 47.2842 53.6906 47.0012C53.9736 46.7182 54.1325 46.3344 54.1325 45.9342V39.9185C55.237 39.9125 56.6857 39.9056 57.4417 39.9056C61.0193 39.9056 63.9298 37.0381 63.9298 33.5133C63.9298 29.9885 61.0195 27.1209 57.4419 27.1209ZM57.4419 36.8875C56.6904 36.8875 55.2636 36.8943 54.1611 36.9002L54.1378 30.1388H57.4419C59.3228 30.1388 60.9118 31.684 60.9118 33.5131C60.9118 35.3424 59.3228 36.8875 57.4419 36.8875Z" fill="#F8F8FF"/>
</g>
<defs>
<clipPath id="clip0_1_6726">
<rect width="100" height="100" fill="white" transform="translate(0.666718)"/>
</clipPath>
</defs>
</svg>
