<svg width="101" height="84" viewBox="0 0 101 84" fill="none" xmlns="http://www.w3.org/2000/svg">
<path fill-rule="evenodd" clip-rule="evenodd" d="M81.3881 61.9219H72.2084C71.6224 61.9219 71.0365 61.3359 71.0365 60.75C71.0365 49.2266 61.8568 39.8516 50.3334 39.8516C38.8099 39.8516 29.6302 49.2266 29.6302 60.75C29.6302 61.3359 29.0443 61.9219 28.4584 61.9219H19.2787C8.73181 61.9219 0.333374 53.3281 0.333374 42.9766C0.333374 36.1406 4.04431 29.8906 10.099 26.375C10.8802 22.4688 13.0287 18.7578 16.1537 16.0234C19.474 13.0938 23.7709 11.5312 28.0677 11.5312C30.6068 11.5312 32.7552 11.9219 35.099 12.8984C37.4427 5.28125 44.474 0.203125 52.4818 0.203125C58.9271 0.203125 64.9818 3.52344 68.3021 8.99219C70.0599 8.60156 71.8177 8.21094 73.7709 8.21094C83.9271 8.21094 92.1302 16.6094 92.1302 26.7656V27.3516C97.2084 31.0625 100.333 36.7266 100.333 42.9766C100.333 53.3281 91.9349 61.9219 81.3881 61.9219Z" fill="#239FFD"/>
<path fill-rule="evenodd" clip-rule="evenodd" d="M74.5521 61.9219H72.2084C71.6224 61.9219 71.0365 61.3359 71.0365 60.75C71.0365 49.2266 61.8568 39.8516 50.3334 39.8516C38.8099 39.8516 29.6302 49.2266 29.6302 60.75C29.6302 61.3359 29.0443 61.9219 28.4584 61.9219H26.1146V60.75C26.1146 47.2734 36.8568 36.3359 50.3334 36.3359C63.8099 36.3359 74.5521 47.2734 74.5521 60.75V61.9219ZM93.3021 44.1484C92.7162 44.1484 92.1302 43.5625 92.1302 42.9766C92.1302 39.2656 90.3724 35.9453 87.2474 33.9922L84.3177 32.0391C83.9271 31.8438 83.7318 31.4531 83.7318 31.0625L83.9271 27.5469V26.7656C83.9271 21.1016 79.4349 16.4141 73.7709 16.4141C72.599 16.4141 71.4271 16.6094 70.2552 17L65.3724 18.7578C64.7865 18.9531 64.2006 18.7578 64.0052 18.3672L61.6615 13.875C59.7084 10.5547 56.3881 8.40625 52.4818 8.40625C47.7943 8.40625 43.6927 11.5312 42.5209 16.2188C42.5209 16.8047 41.7396 17.1953 41.1537 17C40.5677 16.8047 40.1771 16.2188 40.3724 15.6328C41.7396 9.96875 46.8177 6.0625 52.4818 6.0625C57.1693 6.0625 61.4662 8.60156 63.6146 12.7031L65.5677 16.2188L69.474 14.8516C70.8412 14.2656 72.2084 14.0703 73.7709 14.0703C80.6068 14.0703 86.2709 19.7344 86.2709 26.7656V27.7422L86.0756 30.4766L88.4193 32.0391C92.1302 34.3828 94.474 38.4844 94.474 42.9766C94.474 43.5625 93.8881 44.1484 93.3021 44.1484Z" fill="#4F45E2"/>
<path fill-rule="evenodd" clip-rule="evenodd" d="M50.3334 83.7969C37.6381 83.7969 27.2865 73.4453 27.2865 60.75C27.2865 47.8594 37.6381 37.5078 50.3334 37.5078C63.0287 37.5078 73.3802 47.8594 73.3802 60.75C73.3802 73.4453 63.0287 83.7969 50.3334 83.7969Z" fill="#FFC850"/>
<path fill-rule="evenodd" clip-rule="evenodd" d="M51.8959 76.7657C51.1146 76.7657 50.724 76.3751 50.724 75.7891C50.5287 75.0079 51.1146 74.6172 51.7006 74.4219C55.8022 74.2266 59.5131 72.0782 61.6615 68.3672C63.224 65.6329 63.6147 62.3126 62.8334 59.1876C62.0522 56.0626 60.099 53.5235 57.1693 51.961C54.435 50.2032 51.1146 49.8126 47.9896 50.5938C44.8646 51.5704 42.3256 53.5235 40.5678 56.2579C39.9818 57.4297 39.5912 58.7969 39.2006 59.9688C39.2006 60.7501 38.6146 61.1407 37.8334 60.9454C37.2475 60.9454 36.8568 60.1641 37.0521 59.5782C37.2475 58.0157 37.8334 56.4532 38.6146 55.086C40.5678 51.7657 43.6928 49.4219 47.4037 48.4454C51.1146 47.4688 55.0209 47.8594 58.3412 49.8126C61.6615 51.7657 64.2006 54.8907 65.1772 58.6016C66.1537 62.3126 65.5678 66.2188 63.6147 69.5391C61.2709 73.836 56.7787 76.5704 51.8959 76.7657Z" fill="white"/>
<path fill-rule="evenodd" clip-rule="evenodd" d="M38.0287 60.9454C37.8334 60.9454 37.638 60.9454 37.4427 60.7501C37.2474 60.7501 37.0521 60.3595 36.8568 59.9689L36.2709 53.5235C36.0755 52.9376 36.6615 52.3517 37.2474 52.3517C37.8334 52.1564 38.4193 52.7423 38.6146 53.3282L39.0052 58.211L43.4974 56.2579C44.0834 55.8673 44.8646 56.2579 45.0599 56.8439C45.2552 57.4298 45.0599 58.0157 44.474 58.4064L38.6146 60.9454H38.0287Z" fill="white"/>
</svg>
