<svg width="577" height="482" viewBox="0 0 577 482" fill="none" xmlns="http://www.w3.org/2000/svg">
<path opacity="0.95" d="M316.914 233.239H248.691C228.06 233.239 211.348 216.527 211.348 195.896V127.673C211.348 107.042 228.06 90.3301 248.691 90.3301H316.914C337.545 90.3301 354.257 107.042 354.257 127.673V195.896C354.326 216.527 337.545 233.239 316.914 233.239Z" fill="url(#paint0_linear_1_7384)"/>
<path d="M315.882 200.709H249.723V204.011H315.882V200.709Z" fill="#96BFE6"/>
<path d="M306.529 211.025H259.076V214.326H306.529V211.025Z" fill="#96BFE6"/>
<path opacity="0.95" d="M525.913 369.546H425.368C399.097 369.546 377.846 348.295 377.846 322.024V187.436C377.846 161.165 399.097 139.915 425.368 139.915H525.913C552.184 139.915 573.435 161.165 573.435 187.436V322.024C573.435 348.226 552.184 369.546 525.913 369.546Z" fill="url(#paint1_linear_1_7384)"/>
<path d="M482.036 275.328H466.493V278.216H482.036V275.328Z" fill="#4598E6"/>
<path d="M497.923 301.667H407.625V307.238H497.923V301.667Z" fill="#96BFE6"/>
<path d="M480.661 328.42H407.625V333.99H480.661V328.42Z" fill="#96BFE6"/>
<path d="M450.401 315.078H407.625V320.649H450.401V315.078Z" fill="#96BFE6"/>
<path d="M521.511 162.816V165.636H538.085V181.178H540.905V162.816H521.511ZM409.137 181.109H411.957V165.567H428.531V162.747H409.206V181.109H409.137ZM538.085 261.229V276.772H521.511V279.591H540.836V261.229H538.085ZM411.957 261.229H409.137V279.591H428.462V276.772H411.888V261.229H411.957Z" fill="#4598E6"/>
<path d="M532.102 334.403C522.955 334.403 515.528 326.976 515.528 317.829C515.528 308.682 522.955 301.255 532.102 301.255C541.249 301.255 548.676 308.682 548.676 317.829C548.676 326.976 541.249 334.403 532.102 334.403ZM532.102 304.487C524.744 304.487 518.76 310.47 518.76 317.829C518.76 325.187 524.744 331.171 532.102 331.171C539.461 331.171 545.444 325.187 545.444 317.829C545.444 310.47 539.461 304.487 532.102 304.487Z" fill="#4598E6"/>
<path d="M531.071 324.362L523.575 316.797L525.775 314.528L531.071 319.823L538.429 312.465L540.699 314.734L531.071 324.362Z" fill="#4598E6"/>
<path d="M273.587 476.005C421.869 476.005 542.075 470.37 542.075 463.42C542.075 456.469 421.869 450.834 273.587 450.834C125.306 450.834 5.1001 456.469 5.1001 463.42C5.1001 470.37 125.306 476.005 273.587 476.005Z" fill="#4F45E2"/>
<path opacity="0.95" d="M331.012 95.6255H234.662V178.29H331.012V95.6255Z" fill="url(#paint2_linear_1_7384)"/>
<path d="M319.596 145.967C316.433 137.576 308.799 133.725 305.223 132.487C303.916 132.075 301.646 131.318 299.239 130.562C294.907 129.186 290.162 127.604 290.162 127.604H275.169C275.169 127.604 269.942 129.324 264.441 131.249C259.351 133.038 253.987 134.963 252.199 135.857C248.417 137.714 242.09 151.193 240.783 152.706C240.095 153.532 237.207 158.758 234.318 164.604H250.48C252.199 161.647 253.506 159.377 253.506 159.377C253.506 159.377 254.537 161.647 255.775 164.604H307.561C308.386 161.165 308.868 156.833 308.868 156.833C308.868 156.833 311.618 160.615 314.644 164.604H329.568C325.923 158.621 321.384 150.712 319.596 145.967Z" fill="#385369"/>
<path d="M284.453 86.4099C284.453 86.4099 296.213 88.2667 294.425 106.629C292.637 124.991 282.321 123.478 281.565 123.478C280.877 123.478 271.18 123.822 270.424 101.402C270.424 101.402 270.08 84.8281 284.453 86.4099Z" fill="#EEA886"/>
<path d="M294.563 101.471C294.563 101.471 295.87 100.096 296.351 101.471C296.832 102.847 294.632 109.036 294.494 109.311C294.494 109.311 294.288 109.861 293.944 109.586C293.669 109.242 294.563 101.471 294.563 101.471Z" fill="#EEA886"/>
<path d="M270.699 101.196C270.699 101.196 269.461 99.8206 268.911 101.196C268.429 102.571 270.493 108.83 270.561 109.105C270.561 109.105 270.768 109.655 271.112 109.38C271.524 109.036 270.699 101.196 270.699 101.196Z" fill="#EEA886"/>
<path d="M294.563 104.291L292.912 106.56C292.912 106.56 292.981 101.609 292.706 100.852C292.431 100.096 292.018 97.7574 291.812 97.1384C291.606 96.5882 281.771 93.8373 273.037 97.9637C273.037 97.9637 273.45 101.471 272.556 101.815C271.731 102.159 272.143 107.592 272.143 107.592L270.768 106.01C270.768 106.01 268.636 91.9117 269.186 90.3987C269.736 88.9545 271.387 80.0829 289.199 85.3096C289.199 85.3096 294.769 84.1404 295.87 87.9917C296.97 91.843 294.563 104.291 294.563 104.291Z" fill="#434343"/>
<path d="M291.606 127.329L290.093 126.573C289.336 124.922 289.886 118.045 289.886 118.045C289.886 118.045 274.963 114.263 275.375 117.151C275.788 120.04 274.069 126.779 274.069 126.779L266.435 130.562C266.435 130.562 274.619 152.5 283.972 149.68C293.325 146.861 296.901 129.805 296.901 129.805L291.606 127.329Z" fill="#EEA886"/>
<path d="M275.651 120.383C275.651 120.383 278.058 123.478 282.253 123.478C285.004 123.478 286.998 122.722 289.68 120.04C289.68 120.04 288.511 125.129 282.253 125.61C282.253 125.61 277.714 126.16 275.651 120.383Z" fill="#A77860"/>
<path d="M232.53 193.97C232.53 193.97 241.127 198.165 238.995 209.65C236.863 221.135 235.9 222.648 238.307 227.118C240.714 231.588 243.534 250.707 241.333 254.352C239.201 257.997 214.787 238.466 211.417 222.029C208.048 205.661 213.549 198.371 215.544 195.62C217.469 192.938 224.897 190.119 232.53 193.97Z" fill="black"/>
<path d="M229.229 460.05H231.155V450.834C231.155 450.834 235.006 453.379 237.413 456.886C239.82 460.394 243.121 460.119 248.142 459.912C253.162 459.706 252.956 457.643 252.474 454.823C251.993 451.935 246.904 451.041 245.253 450.628C243.603 450.147 239.82 443.682 238.651 442.169C237.001 440.037 236.107 437.974 236.107 437.974C236.107 437.974 235.144 434.123 230.536 437.974C225.859 441.825 227.235 449.184 227.785 449.871C228.335 450.49 229.229 460.05 229.229 460.05Z" fill="#163342"/>
<path d="M239.064 450.628C240.783 451.729 245.322 450.628 245.322 450.628C244.015 448.978 236.175 437.905 236.175 437.905C231.43 435.154 229.505 438.937 229.505 438.937C231.499 439.556 237.345 449.528 239.064 450.628Z" fill="#EEA886"/>
<path d="M289.337 280.761C289.337 280.761 292.431 281.38 293.532 279.867C294.426 278.629 296.489 277.666 297.177 277.391C298.002 276.978 300.203 274.778 300.684 275.878C301.165 276.978 297.314 279.66 296.558 280.417C295.87 281.173 300.409 281.448 301.165 282.205C301.922 282.893 300.959 290.389 297.864 289.839C294.77 289.288 291.881 286.606 291.262 286.606C290.712 286.606 288.993 286.263 288.993 286.263L289.337 280.761Z" fill="#EEA886"/>
<path d="M300.477 281.861C300.477 281.861 309.83 284.268 310.312 284.956C310.793 285.643 310.656 286.125 309.762 285.918C308.868 285.712 300.684 283.855 300.684 283.855C300.684 283.855 311.275 288.601 311.756 289.013C312.031 289.288 311.825 290.251 311.343 290.182C310.862 290.114 300.133 286.056 300.133 286.056C300.133 286.056 310.037 290.457 310.312 291.008C310.587 291.489 310.105 292.314 309.349 292.039C308.592 291.764 299.171 288.188 299.171 288.188C299.171 288.188 306.185 291.833 306.185 292.452C306.185 292.796 305.979 293.69 304.26 292.658C302.472 291.627 298.07 289.701 298.07 289.701L300.477 281.861Z" fill="#EEA886"/>
<path d="M203.921 460.669H205.09V453.929C205.09 453.929 207.222 456.13 208.185 459.362C209.148 462.595 212.655 463.557 218.019 463.42C223.384 463.282 223.452 461.15 222.971 457.987C222.489 454.823 218.019 453.173 218.019 453.173C216.025 451.385 210.936 443.889 210.936 443.889C210.936 443.889 207.703 442.994 205.159 445.058C202.614 447.121 203.44 451.729 203.508 452.898C203.646 454.136 203.921 460.669 203.921 460.669Z" fill="#163342"/>
<path d="M207.635 299.673C207.635 299.673 201.308 307.926 199.588 317.76C197.869 327.595 200.62 360.468 200.551 365.282C200.482 370.096 195.943 382.2 196.837 391.278C197.731 400.425 201.308 445.814 201.308 445.814L211.073 443.889C211.073 443.889 210.523 397.605 211.073 393.754C211.623 389.902 212.793 375.942 212.999 374.36C213.205 372.778 227.303 331.377 227.303 324.294C227.235 317.279 222.971 288.119 207.635 299.673Z" fill="#1D3B54"/>
<path d="M239.545 302.905C239.545 302.905 249.999 342.725 251.237 348.295C252.474 353.797 254.263 358.336 254.263 360.743C254.263 366.176 252.268 374.91 252.268 374.91L238.995 438.318H226.341C226.341 438.318 233.356 400.287 233.562 392.86C233.768 385.432 239.476 374.841 238.376 371.678C237.276 368.514 220.22 332.134 220.22 332.134C220.22 332.134 207.36 291.352 239.545 302.905Z" fill="#1D3B54"/>
<path d="M218.088 453.173L211.004 443.889L205.228 445.058C205.228 445.058 206.809 449.184 209.56 452.348C212.93 456.061 218.088 453.173 218.088 453.173Z" fill="#EEA886"/>
<path d="M235.213 235.165C235.213 235.165 239.545 235.577 242.778 239.085C246.01 242.592 249.105 248.094 249.93 249.951C250.755 251.807 262.722 269.001 263.341 269.413C263.959 269.826 269.943 271.82 273.931 273.127C280.052 275.19 292.362 279.66 292.362 279.66L289.887 287.363C289.887 287.363 266.779 279.798 260.933 278.354C253.85 276.634 237.551 255.659 237.551 255.659C237.551 255.659 225.516 241.56 235.213 235.165Z" fill="#285173"/>
<path d="M227.716 232.139C227.716 232.139 233.287 234.752 235.212 235.165C237.138 235.577 244.634 245.343 246.01 248.85C247.316 252.426 246.01 257.722 243.327 264.049C240.645 270.307 243.19 272.439 241.952 278.698C240.714 284.956 241.127 308.407 241.333 311.915C241.539 315.422 205.09 320.649 197.869 314.322C197.869 314.322 202.752 293.208 208.529 287.157C209.767 285.85 209.629 277.185 208.804 274.984C207.978 272.783 198.35 256.622 198.35 256.622C198.35 256.622 197.663 240.185 201.858 236.953C205.503 234.133 215.406 233.101 217.194 232.482C218.913 231.932 224.071 231.657 227.716 232.139Z" fill="#FFBF55"/>
<path d="M230.398 225.743C230.398 225.743 230.261 227.256 230.054 229.319C229.986 230.144 229.917 231.038 229.848 232.001C229.642 234.752 229.435 237.778 229.573 239.291C229.573 239.291 223.796 245.068 217.194 232.483C217.194 232.483 219.945 227.325 217.882 220.241C215.75 213.226 230.398 225.743 230.398 225.743Z" fill="#EEA886"/>
<path d="M246.629 266.387C246.629 266.387 248.004 257.103 246.56 251.463C246.56 251.463 246.56 256.346 243.878 263.223L246.629 266.387Z" fill="#183C59"/>
<path d="M212.655 233.445C212.655 233.445 216.644 245.205 227.579 244.38C238.514 243.486 232.737 234.408 232.737 234.408C232.737 234.408 229.986 232.826 229.229 232.689C228.473 232.551 217.125 232.414 217.125 232.414L212.655 233.445Z" fill="#EEA886"/>
<path d="M232.805 234.408C232.805 234.408 238.513 250.294 238.513 266.387C238.513 282.549 238.995 308.888 240.989 317.141C242.984 325.463 248.692 351.183 248.692 351.183L253.162 348.845C253.162 348.845 242.433 307.857 241.608 304.9C240.783 301.942 242.227 270.72 242.984 268.106C243.74 265.493 247.041 253.871 246.491 250.638C245.872 246.581 242.021 240.529 235.9 235.371L232.805 234.408Z" fill="#285173"/>
<path d="M214.856 232.895C214.856 232.895 218.432 244.311 220.22 258.891C222.009 273.471 214.65 341.28 209.767 356.685L190.648 353.59C190.648 353.59 194.775 305.656 200.345 296.922C205.916 288.188 207.704 280.485 201.652 262.261C195.6 244.036 204.265 235.027 204.265 235.027C204.265 235.027 213.137 233.101 214.856 232.895Z" fill="#285173"/>
<path d="M235.419 281.311L212.311 321.336L186.59 306.481L208.735 265.837L235.419 281.311Z" fill="#616161"/>
<path d="M232.668 282.686L212.105 318.242L189.272 305.037L208.873 268.932L232.668 282.686Z" fill="#E0CEC7"/>
<path d="M225.034 279.454L226.478 276.978L217.263 271.614L215.475 273.952L225.034 279.454Z" fill="#616161"/>
<path d="M223.934 307.926C223.934 307.926 222.902 307.926 222.421 307.719C222.421 307.719 221.595 307.238 221.045 306.963C220.839 306.894 220.701 306.756 220.564 306.756C220.082 306.619 218.982 306.344 217.951 305.656C216.919 304.968 213.274 300.773 213.274 300.773L214.993 298.16L216.231 295.478C216.231 295.478 223.865 295.959 224.897 296.509C224.965 296.578 225.103 296.647 225.172 296.716C225.997 297.266 226.41 298.022 226.753 298.366C226.891 298.504 228.266 299.81 228.198 300.429C228.129 301.255 227.785 301.736 227.304 302.011C227.304 302.011 227.097 303.593 226.341 304.281C226.341 304.281 226.203 305.725 225.034 306.344C225.103 306.275 224.828 307.719 223.934 307.926Z" fill="#EEA886"/>
<path d="M208.254 235.165C208.254 235.165 201.239 233.17 197.181 240.873C193.124 248.644 193.192 251.945 192.642 255.727C192.161 259.304 189.823 269.069 189.616 270.032C189.41 271.064 184.183 283.03 186.59 287.225C188.997 291.42 213.274 303.868 213.136 304.762C212.999 305.725 217.331 295.409 217.331 295.409C217.331 295.409 207.497 289.907 205.847 288.257C203.233 285.506 197.731 282.549 198.832 279.179C200.138 275.19 204.196 261.711 205.09 259.716C206.122 257.722 214.168 237.709 208.254 235.165Z" fill="#285173"/>
<path d="M231.293 195.277C231.293 195.277 243.809 199.197 237.001 220.791C230.192 242.386 213.137 218.315 214.925 205.111C216.644 191.976 231.293 195.277 231.293 195.277Z" fill="#EEA987"/>
<path d="M238.239 207.862C238.239 207.862 232.049 213.983 221.596 214.739C221.596 214.739 217.607 219.416 217.263 221.273C217.263 221.273 207.979 205.455 219.395 195.964C230.88 186.474 242.434 203.942 238.239 207.862Z" fill="black"/>
<path d="M221.733 215.152C221.664 213.57 220.702 209.994 218.363 211.025C216.025 212.057 218.501 219.278 220.083 218.865C220.083 218.797 221.94 218.865 221.733 215.152Z" fill="#EEA987"/>
<path d="M230.054 229.319C229.986 230.144 229.917 231.038 229.848 232.001C229.848 232.001 224.346 231.657 220.633 223.473C220.839 223.817 224.897 229.731 230.054 229.319Z" fill="#A77860"/>
<path d="M93.0603 426.764C101.107 421.125 110.46 381.787 111.01 358.404C111.285 346.438 114.861 341.418 117.956 337.016C120.913 332.821 123.526 329.176 122.013 320.786C119.125 304.831 126.69 297.954 126.759 297.885L125.865 296.853C125.521 297.128 117.681 304.281 120.707 320.992C122.082 328.832 119.813 332.065 116.856 336.191C113.761 340.524 109.978 345.957 109.634 358.336C109.015 383.438 99.4561 420.575 92.235 425.664L93.0603 426.764Z" fill="url(#paint3_linear_1_7384)"/>
<path d="M76.2107 415.348C75.4542 413.629 74.6977 411.841 73.8037 409.984C69.196 400.287 65.1384 398.705 58.4675 396.092C56.8169 395.473 54.9601 394.716 52.8969 393.822C43.2688 389.49 45.1256 383.094 46.7762 377.454C46.9825 376.698 47.2576 375.873 47.4639 375.116C48.2892 371.815 46.7074 370.165 44.2316 367.62C42.3747 365.763 40.1053 363.425 38.3859 359.78C36.4603 355.791 37.4231 353.59 38.5923 352.49C41.0681 350.152 46.6386 350.633 52.0029 353.522C53.6534 354.416 55.0289 355.86 56.4731 357.373C59.8429 360.949 64.1068 365.35 74.7665 365.419C80.8873 365.419 84.1883 366.313 85.9076 368.239C87.8333 370.44 87.4894 373.741 87.008 378.28C86.8017 379.861 86.6641 381.649 86.5266 383.575C85.7701 395.129 92.5786 403.45 92.6473 403.519C96.7049 408.333 101.725 418.443 99.5933 424.563C98.6993 427.177 96.6361 428.759 93.5414 429.446C92.3035 429.721 91.2031 429.79 90.1715 429.79C82.5378 429.721 79.8557 423.532 76.2107 415.348ZM51.3151 354.622C46.5699 352.009 41.4807 351.527 39.4863 353.384C37.9733 354.828 38.661 357.304 39.5551 359.092C41.2056 362.6 43.3376 364.731 45.1944 366.588C47.739 369.202 49.8022 371.265 48.7706 375.322C48.5643 376.148 48.3579 376.904 48.0828 377.729C46.4323 383.369 44.9193 388.664 53.4471 392.516C55.4415 393.41 57.2983 394.166 58.9489 394.785C65.7573 397.467 70.2275 399.186 75.0416 409.365C75.9356 411.222 76.6921 413.01 77.5174 414.729C81.6437 424.151 84.1883 429.79 93.2663 428.002C95.8796 427.452 97.5302 426.145 98.2867 424.013C100.212 418.58 95.6045 409.021 91.6157 404.207C91.3407 403.863 84.3946 395.404 85.1511 383.369C85.2887 381.374 85.495 379.586 85.6326 378.005C86.114 373.809 86.4578 370.715 84.8761 368.995C83.4318 367.414 80.3371 366.657 74.6977 366.657C63.4879 366.588 59.0177 361.981 55.4415 358.198C53.9973 356.685 52.7594 355.447 51.3151 354.622Z" fill="url(#paint4_linear_1_7384)"/>
<path d="M93.2664 437.355L94.573 437.286C94.5043 436.048 92.8537 406.682 81.0249 398.086C68.0957 388.664 64.0381 378.555 62.1125 371.746C59.843 363.769 48.2205 361.568 47.6703 361.499L47.464 362.806C47.6015 362.806 58.8114 364.869 60.8058 372.09C62.8002 379.105 66.9953 389.489 80.2684 399.118C91.6158 407.439 93.2664 437.08 93.2664 437.355Z" fill="url(#paint5_linear_1_7384)"/>
<path d="M91.0656 443.957C88.3147 442.582 88.3834 437.011 88.521 428.621C88.7273 418.03 89.0024 403.45 83.4318 390.109C77.5174 375.873 82.8129 371.746 87.902 367.758C93.6101 363.287 98.9744 359.024 88.6585 339.836C83.9132 331.033 82.4002 325.05 83.9132 321.061C85.4262 317.141 89.6213 315.559 94.0228 313.978C101.656 311.158 110.391 307.994 109.221 291.764C108.878 286.813 109.428 283.718 111.078 282.136C112.798 280.417 115.342 280.623 118.368 280.829C122.838 281.173 127.928 281.517 132.329 275.74C132.81 274.296 137.005 261.436 142.095 259.235C143.126 258.753 144.227 258.753 145.189 259.235C148.697 260.885 150.691 262.88 151.379 265.287C152.548 269.482 149.522 274.158 145.946 279.66C140.375 288.257 134.048 297.954 140.582 309.507C149.247 324.775 144.639 330.139 138.312 337.567C134.667 341.83 130.61 346.645 127.859 354.485C125.658 360.812 129.441 366.795 133.085 372.64C137.624 379.93 142.37 387.495 132.398 394.029C115.961 404.826 99.7309 440.175 99.5246 440.519L99.4558 440.656L99.3182 440.725C96.2923 443.132 94.0915 444.232 92.441 444.232C91.8908 444.232 91.4782 444.164 91.0656 443.957ZM131.641 392.86C140.513 387.014 136.524 380.687 131.916 373.259C128.271 367.483 124.145 360.88 126.552 354.003C129.372 345.957 133.567 341.005 137.281 336.673C143.47 329.383 147.596 324.637 139.344 310.126C132.398 297.885 139.206 287.363 144.708 278.904C148.078 273.746 150.966 269.207 150.003 265.631C149.453 263.636 147.665 261.917 144.502 260.404C143.883 260.129 143.195 260.129 142.507 260.404C137.831 262.467 133.498 276.084 133.498 276.222L133.429 276.359L133.361 276.428C128.478 282.893 122.77 282.411 118.162 282.136C115.411 281.93 113.279 281.792 111.904 283.099C110.597 284.406 110.115 287.156 110.459 291.695C111.628 308.888 102.069 312.396 94.3666 315.216C90.034 316.797 86.3203 318.173 85.0136 321.543C83.6381 325.119 85.1511 330.758 89.6901 339.217C100.556 359.367 94.5042 364.181 88.5898 368.789C83.6381 372.64 79.0304 376.354 84.5322 389.627C90.1715 403.244 89.8964 417.961 89.7589 428.69C89.6213 436.049 89.5526 441.825 91.547 442.788C92.7161 443.407 94.9856 442.376 98.2866 439.831C99.6621 436.943 115.273 403.657 131.641 392.86Z" fill="url(#paint6_linear_1_7384)"/>
<path d="M65.0696 289.976C73.4599 287.088 71.6718 303.249 75.2479 315.216C78.7553 327.182 114.586 320.442 99.5933 350.358C84.601 380.274 118.643 360.33 108.465 386.464C98.2867 412.528 107.571 440.45 96.4986 433.366C85.4262 426.283 90.3091 393.41 78.7553 389.49C67.2703 385.57 65.4135 381.031 76.7609 370.44C88.1771 359.849 46.9137 349.258 57.092 327.87C67.2703 306.344 55.3727 293.277 65.0696 289.976Z" fill="url(#paint7_linear_1_7384)"/>
<path d="M92.6473 431.578C93.6789 427.108 102.688 387.77 94.2979 383.025C86.8705 378.83 87.0768 362.531 88.2459 347.195C89.2775 333.578 71.8093 327.182 71.0528 326.976L70.6402 328.214C70.8465 328.282 87.9021 334.472 86.9392 347.126C85.7701 362.944 85.6326 379.655 93.6789 384.263C100.075 387.839 94.1603 419.474 91.4094 431.303L92.6473 431.578Z" fill="white"/>
<path d="M124.214 417.549L112.247 462.939H85.5638L73.5974 417.549H124.214Z" fill="url(#paint8_linear_1_7384)"/>
<path d="M124.214 417.549C124.214 417.549 97.874 422.5 97.874 462.87H85.495L73.5286 417.549H124.214Z" fill="url(#paint9_linear_1_7384)"/>
<path opacity="0.95" d="M448.613 131.937H393.045C379.428 131.937 368.356 120.865 368.356 107.248V62.0645C368.356 48.4476 379.428 37.3752 393.045 37.3752H448.613C462.23 37.3752 473.302 48.4476 473.302 62.0645V107.248C473.371 120.865 462.299 131.937 448.613 131.937Z" fill="url(#paint10_linear_1_7384)"/>
<path d="M424.611 114.056H416.29V115.569H424.611V114.056Z" fill="#4598E6"/>
<path d="M427.981 29.0538C427.981 29.0538 434.721 32.7675 432.589 41.7767C430.457 50.8546 429.631 52.0238 431.351 55.6687C433.07 59.3136 434.583 74.6499 432.726 77.4695C430.869 80.2892 412.163 63.7838 410.1 50.5795C408.037 37.3753 412.713 31.8047 414.364 29.6728C416.014 27.6784 422.066 25.7527 427.981 29.0538Z" fill="#344052"/>
<path d="M440.566 103.947H433.414C433.07 100.371 432.726 97.9637 432.795 97.5511C432.932 96.9321 425.643 77.951 424.955 76.3692C424.267 74.7874 421.585 70.5923 421.241 66.6035C420.897 62.6147 426.055 61.033 426.055 61.033C433.07 62.2709 435.408 71.9678 435.408 71.9678C435.408 71.9678 438.366 91.5679 439.81 97.1384C440.291 98.5139 440.497 101.058 440.566 103.947Z" fill="#EEA886"/>
<path d="M436.99 76.713L426.262 81.252C426.262 81.252 416.427 56.8378 424.68 59.5887C432.864 62.2708 436.577 67.36 436.99 76.713Z" fill="#EB4747"/>
<path d="M434.583 88.1981C434.239 90.6052 433.001 99.2017 433.276 101.54C433.345 101.953 433.483 102.778 433.689 104.016H407.899C408.587 101.54 409.206 99.408 409.619 98.1701C410.857 94.0438 409.687 92.8747 409.069 89.5736C408.793 88.2669 407.968 85.7911 407.005 83.0402C406.662 82.0774 406.386 81.1146 406.043 80.1518C404.942 76.6444 404.392 73.0682 404.048 70.9363C402.466 61.0331 410.1 60.0703 410.1 60.0703C412.92 59.5201 417.871 58.0071 417.871 58.0071L425.643 59.5888C425.643 59.5888 426.399 59.8639 427.431 60.6892C427.981 61.1018 428.531 61.5832 429.15 62.2022C429.975 63.0962 431.695 65.572 433.345 68.3229C433.827 69.1482 434.377 70.0422 434.858 70.8675C436.44 73.6184 437.54 75.8191 437.54 78.2949C437.609 80.6332 434.927 85.7911 434.583 88.1981Z" fill="#EB4747"/>
<path d="M425.643 59.52C425.643 59.52 430.525 67.8414 428.669 68.4604C426.88 69.0793 417.321 67.0162 413.607 59.1073C413.676 59.1073 419.934 56.2877 425.643 59.52Z" fill="#EEA886"/>
<path d="M424.955 63.3023C424.955 63.3023 420.622 65.1592 416.702 59.1072C416.702 59.1072 417.734 52.2988 415.533 48.31C413.332 44.3899 425.23 53.0553 425.23 53.0553C425.23 53.0553 425.024 53.8805 424.817 55.0497C424.749 55.6686 424.611 56.3563 424.542 57.1128C424.473 57.7318 424.405 58.4195 424.405 59.1072C424.405 60.689 424.542 62.202 424.955 63.3023Z" fill="#EEA886"/>
<path d="M414.226 72.6555C413.332 77.1945 406.937 82.9714 406.937 82.9714C406.593 82.0086 406.318 81.0457 405.974 80.0829C410.444 77.2633 414.226 72.6555 414.226 72.6555Z" fill="#393D63"/>
<path d="M412.645 76.3005C412.232 77.951 410.375 94.869 410.581 95.4192C410.719 95.763 411.613 99.6831 412.507 104.016H404.186C403.36 101.196 402.81 98.9266 402.948 97.5511C403.498 91.843 401.572 73.6871 401.572 73.6871C401.572 73.6871 399.853 62.6836 408.931 61.3081C408.931 61.3081 414.295 61.9958 414.639 65.9846C414.983 70.0422 413.057 74.6499 412.645 76.3005Z" fill="#EEA886"/>
<path d="M400.885 78.6387L412.163 81.252C412.163 81.252 421.104 63.8526 413.057 60.6891C404.53 57.3193 398.821 69.0793 400.885 78.6387Z" fill="#EB4747"/>
<path d="M426.949 30.0167C426.949 30.0167 436.784 33.5929 430.525 50.5796C424.267 67.5664 411.613 47.6912 413.47 37.2378C415.464 26.8532 426.949 30.0167 426.949 30.0167Z" fill="#EEA987"/>
<path d="M432.038 40.3326C432.038 40.3326 426.881 44.9403 418.559 45.1466C418.559 45.1466 416.633 49.8919 416.29 51.3361C416.29 51.3361 408.037 37.2378 417.528 30.0855C426.949 23.0019 435.546 37.3754 432.038 40.3326Z" fill="#344052"/>
<path d="M419.659 46.2469C419.659 45.009 419.041 42.1205 417.115 42.8083C415.189 43.496 416.909 49.4104 418.146 49.1353C418.146 49.0666 419.659 49.2041 419.659 46.2469Z" fill="#EEA987"/>
<path d="M424.474 58.9011C419.866 57.5944 418.078 53.193 418.009 53.0554C421.791 57.9383 424.611 57.1818 424.611 57.1818C424.542 57.8695 424.542 58.2133 424.474 58.9011Z" fill="#A77860"/>
<path d="M445.793 54.4995V56.0125H454.665V64.334H456.178V54.4995H445.793ZM385.48 64.334H386.993V56.0125H395.864V54.4995H385.48V64.334ZM454.665 107.317V115.638H445.793V117.151H456.178V107.317H454.665ZM386.993 107.317H385.48V117.151H395.864V115.638H386.993V107.317Z" fill="#4598E6"/>
<path d="M288.373 184.754H277.232V186.818H288.373V184.754Z" fill="#4598E6"/>
<path d="M316.157 105.185V107.179H328.055V118.32H330.049V105.185H316.157ZM235.625 118.32H237.619V107.179H249.448V105.185H235.556V118.32H235.625ZM328.055 175.745V186.886H316.157V188.881H330.049V175.745H328.055ZM237.619 175.745H235.625V188.881H249.448V186.886H237.551V175.745H237.619Z" fill="#4598E6"/>
<path d="M531.346 259.991H521.925C521.718 259.647 521.581 259.303 521.512 259.028C518.692 252.426 504.319 237.296 504.319 237.296V237.365C504.319 237.365 504.319 237.434 504.319 237.503V237.571V237.64C503.7 239.841 500.811 250.844 499.367 259.922H435.684C435.546 259.097 435.34 258.272 435.134 257.515C434.584 255.246 434.171 253.045 433.896 250.913C433.896 250.776 433.896 250.707 433.896 250.569C433.827 250.157 433.827 249.813 433.758 249.4C433.208 243.692 433.621 239.291 433.621 238.878C433.415 239.291 432.177 243.967 430.457 249.813C429.563 252.976 428.463 256.553 427.431 259.854H412.37L431.214 205.386C431.626 205.042 436.509 202.704 440.085 200.985C443.73 199.265 448.132 196.721 452.121 194.52C454.184 193.42 456.041 192.388 457.76 191.631L458.035 191.494C460.786 190.256 462.574 189.431 462.574 189.431C462.643 189.431 463.055 189.362 463.743 189.293C467.594 188.949 479.492 187.78 483.481 187.574C483.825 187.574 484.1 187.574 484.306 187.505C484.512 187.505 484.65 187.505 484.719 187.505C485.2 187.505 487.676 188.399 490.908 189.637C491.046 189.706 491.183 189.706 491.252 189.775C491.39 189.843 491.527 189.912 491.733 189.912C492.009 190.05 492.284 190.118 492.559 190.256C493.109 190.462 493.728 190.737 494.347 190.944C494.553 191.013 494.759 191.081 494.966 191.219C501.43 193.763 508.789 196.927 510.577 198.234C511.746 199.059 515.322 205.867 519.518 214.258C524.057 228.837 529.558 249.675 531.346 259.991Z" fill="#DECBC4"/>
<path d="M484.65 185.855C484.512 194.383 467.938 199.128 467.938 199.128C467.938 199.128 460.992 190.463 462.643 189.637C463.261 189.293 463.537 187.987 463.605 186.543C463.674 185.167 463.605 183.654 463.537 182.691C463.468 182.072 463.468 181.728 463.468 181.728C463.468 181.728 465.806 179.253 468.832 176.227C474.128 171 481.349 164.329 481.349 167.011C481.349 167.149 481.349 167.286 481.28 167.493C479.973 173.407 484.65 185.855 484.65 185.855Z" fill="#EEA886"/>
<path d="M478.254 173.338C478.254 173.407 477.498 174.438 476.329 175.951C473.784 179.184 468.97 184.41 463.606 186.542C463.674 185.167 463.606 183.654 463.537 182.691C462.987 182.691 462.437 182.622 461.886 182.485C463.331 179.94 465.462 177.189 465.462 177.189L468.764 176.227L478.254 173.338Z" fill="#A77860"/>
<path d="M481.417 167.011C479.973 170.106 478.598 172.375 478.254 173.269C477.979 173.82 477.291 174.782 476.328 175.883C473.577 178.84 468.488 182.691 463.537 182.554C462.986 182.554 462.436 182.485 461.886 182.347C459.892 181.935 457.485 180.972 456.178 178.427C445.862 158.208 453.358 141.634 453.358 141.634C453.358 141.634 481.624 133.657 486.025 142.184C489.12 148.168 484.787 159.721 481.417 167.011Z" fill="#EEA886"/>
<path d="M453.29 141.703C453.29 141.703 450.676 141.565 449.988 136.545C449.37 131.593 450.676 130.287 450.676 130.287C450.676 130.287 462.368 125.404 466.563 124.785C470.758 124.166 481.074 123.547 483.481 126.298C483.481 126.298 489.326 124.922 490.977 134.688C493.521 150.162 482.311 165.154 482.311 165.154C482.311 165.154 482.38 155.045 480.18 153.738C477.979 152.431 476.053 155.595 476.053 155.595L471.514 156.42C471.514 156.42 478.46 141.497 470.139 140.946C461.749 140.259 458.035 142.528 453.29 141.703Z" fill="#E8734D"/>
<path d="M476.122 151.468C476.535 146.998 484.581 145.348 484.031 149.955C483.481 154.632 479.561 159.102 477.704 158.965C475.916 158.827 475.779 154.907 476.122 151.468Z" fill="#EEA886"/>
<path d="M523.231 214.877C520.618 206.486 518.348 199.815 517.317 199.128C515.529 197.89 501.568 194.039 494.966 191.425C494.759 191.356 494.553 191.288 494.347 191.15C493.728 190.944 493.177 190.669 492.559 190.462C492.283 190.325 492.008 190.256 491.733 190.119C491.596 190.05 491.458 189.981 491.252 189.981C491.114 189.912 490.977 189.912 490.908 189.844C490.289 190.531 487.263 193.97 483.618 199.197C476.741 208.893 467.869 224.711 469.245 239.222C469.657 243.899 470.208 250.569 471.17 258.134C471.239 258.753 471.308 259.304 471.377 259.923H502.255C502.599 252.014 503.287 241.698 504.319 237.64V237.572V237.503C504.319 237.434 504.319 237.434 504.319 237.365V237.296C504.319 237.296 511.815 248.988 512.159 259.923H531.621C530.658 249.813 527.701 229.25 523.231 214.877Z" fill="#3C4145"/>
<path d="M457.897 191.907C457.897 191.907 455.559 199.678 452.533 219.072C452.395 219.691 452.327 220.378 452.189 221.066C452.189 221.135 452.189 221.204 452.189 221.273C452.12 221.685 452.052 222.167 451.983 222.648C451.983 222.717 451.983 222.786 451.983 222.786C451.914 223.061 451.914 223.404 451.845 223.748C451.708 224.505 451.639 225.33 451.501 226.087C450.401 233.995 448.888 246.581 447.306 259.991H435.134C434.446 256.278 433.827 252.908 433.896 250.57C433.896 250.638 433.827 250.707 433.827 250.707C432.864 253.389 431.764 256.346 430.663 259.235C430.595 259.51 430.457 259.785 430.388 259.991H409.344L430.32 205.111C430.732 204.767 436.165 201.879 439.673 200.159C443.386 198.371 448.132 196.171 452.258 194.245C454.252 193.351 456.109 192.457 457.691 191.7L457.897 191.907Z" fill="#3C4145"/>
<path d="M486.3 211.025L478.254 215.564L481.693 219.072L474.128 259.922H471.308C470.276 251.67 469.658 244.242 469.176 239.222C467.044 216.733 489.533 191.356 490.908 189.775C492.009 190.187 493.178 190.669 494.347 191.081L486.3 211.025Z" fill="#51565C"/>
<path d="M458.035 191.632C458.035 191.632 455.009 201.466 451.501 226.018C450.401 233.927 448.888 246.512 447.306 259.923H446.137L444.555 221.341L448.407 217.146L444.968 212.882L452.327 194.314C454.321 193.42 456.178 192.526 457.76 191.769L458.035 191.632Z" fill="#51565C"/>
<path d="M491.321 189.912L484.65 185.855C484.65 185.855 484.443 189.5 467.938 199.128L472.614 212.401L491.321 189.912Z" fill="#F5E2D9"/>
<path d="M463.468 187.712C463.468 187.712 463.743 191.7 467.869 199.128L458.723 211.094L458.035 191.7L463.468 187.712Z" fill="#F5E2D9"/>
<path d="M467.869 199.128C467.869 199.128 469.658 206.211 469.039 208.206C469.039 208.206 465.119 209.65 462.299 207.862C462.299 207.862 464.293 202.841 467.869 199.128Z" fill="#D44040"/>
<path d="M465.737 223.267C463.88 236.058 463.88 248.988 464.568 259.922H456.728C456.591 258.341 456.522 256.759 456.453 255.04C455.009 229.731 463.949 207.105 463.949 207.105L467.938 206.074C467.869 206.211 466.631 217.352 465.737 223.267Z" fill="#D44040"/>
<path d="M434.171 239.016C433.896 245.068 433.896 250.501 433.896 250.501C433.896 250.501 433.896 250.707 433.896 250.982C433.896 250.913 433.896 250.776 433.827 250.707C432.864 253.389 431.764 256.346 430.663 259.235C430.388 255.934 430.32 252.839 430.388 249.951C430.801 232.895 436.165 224.023 436.165 224.023C434.996 226.912 434.446 233.308 434.171 239.016Z" fill="black"/>
<path d="M360.859 260.06L335.826 273.815L310.656 234.202L341.122 223.68L360.859 260.06Z" fill="black"/>
<path d="M359.278 258.822L335.895 271.751L312.375 234.683L340.778 224.848L359.278 258.822Z" fill="white"/>
<path d="M367.874 251.945C367.874 251.945 363.541 249.882 361.616 248.781C359.69 247.681 354.807 246.168 354.395 245.824C353.982 245.48 339.815 244.586 338.921 243.83C338.027 243.073 337.201 245.549 340.915 246.374C344.56 247.2 349.718 249.125 349.993 250.57C350.268 252.014 346.211 252.358 345.798 253.527C345.385 254.696 345.936 254.421 346.486 254.696C347.036 254.971 351.3 252.633 353.157 253.252C355.014 253.939 357.902 252.977 359.277 253.458C360.722 253.939 367.668 256.278 367.668 256.278L367.874 251.945Z" fill="#EEA886"/>
<path d="M334.588 268.863C334.588 268.863 330.943 265.562 329.155 264.186C327.367 262.811 324.066 258.753 323.585 258.547C323.103 258.341 316.776 245.274 315.676 244.724C314.644 244.174 316.639 242.454 318.839 245.618C321.04 248.781 324.891 252.839 326.335 252.564C327.78 252.289 326.542 248.3 327.505 247.475C328.467 246.649 328.399 247.2 328.88 247.681C329.361 248.162 328.811 253.045 330.118 254.558C331.493 256.071 331.7 259.097 332.731 260.266C333.763 261.436 338.646 267.075 338.646 267.075L334.588 268.863Z" fill="#EEA886"/>
<path d="M413.47 444.989C413.47 444.989 414.295 450.491 414.364 451.316C414.433 452.141 423.167 450.835 423.167 450.835L423.855 444.301C423.855 444.301 414.57 444.232 413.47 444.989Z" fill="#424773"/>
<path d="M414.296 450.628C414.296 450.628 411.545 453.929 408.863 455.373C406.18 456.818 401.985 457.368 400.404 458.881C399.234 459.981 396.277 464.589 407.35 464.52C418.422 464.451 423.786 465.208 424.955 463.42C426.124 461.632 423.236 450.284 423.236 450.284C423.236 450.284 420.623 451.178 414.296 450.628Z" fill="black"/>
<path d="M351.025 444.989C351.025 444.989 351.85 450.49 351.919 451.316C351.988 452.141 360.722 450.834 360.722 450.834L361.41 444.301C361.479 444.301 352.126 444.232 351.025 444.989Z" fill="#424773"/>
<path d="M351.85 450.628C351.85 450.628 349.099 453.929 346.417 455.373C343.735 456.818 333.901 457.987 332.319 459.5C331.15 460.6 329.293 464.933 344.904 464.52C355.976 464.245 361.341 465.208 362.51 463.42C363.679 461.632 360.791 450.284 360.791 450.284C360.791 450.284 358.315 451.247 351.85 450.628Z" fill="black"/>
<path d="M406.249 303.731C406.249 303.731 414.433 316.729 413.814 328.489C413.195 340.249 416.771 353.109 418.009 365.351C419.385 379.036 425.024 411.428 425.162 418.787C425.368 426.146 424.268 449.528 424.268 449.528L413.058 449.803C413.058 449.803 403.636 393.135 401.16 387.358C398.684 381.581 386.58 340.318 386.168 335.71C385.893 331.033 406.249 303.731 406.249 303.731Z" fill="black"/>
<path d="M363.129 305.45C363.129 305.45 356.939 337.704 356.114 344.856C355.289 352.078 354.739 379.655 354.326 384.194C353.913 388.664 351.644 443.063 349.443 449.734H363.817C363.817 449.734 374.82 410.19 374.82 391.553C374.82 372.847 383.348 350.908 388.85 338.598C394.352 326.288 406.937 325.944 410.307 303.112C410.376 303.043 367.737 298.229 363.129 305.45Z" fill="black"/>
<path d="M392.563 194.383C392.563 194.383 381.56 190.256 376.54 198.646C371.519 207.037 371.932 223.748 377.502 225.811C383.073 227.875 391.394 226.774 394.214 221.548C397.034 216.321 399.578 208.756 399.51 203.667C399.372 198.646 395.452 195.827 392.563 194.383Z" fill="#EEA886"/>
<path d="M378.671 226.155C378.671 226.155 379.153 229.113 378.396 230.557C377.64 232.001 392.632 232.07 392.632 232.07C392.632 232.07 393.87 224.092 396.14 217.421C398.478 210.682 378.671 226.155 378.671 226.155Z" fill="#EEA886"/>
<path d="M396.14 217.421C396.14 217.421 395.108 219.141 390.913 218.453C386.718 217.765 381.56 212.195 379.772 211.576C377.984 210.957 377.984 209.925 377.984 209.925L376.883 211.507L375.027 211.644C375.027 211.644 376.746 206.624 374.132 204.561C371.588 202.498 376.815 188.262 390.363 193.007C390.363 193.007 400.747 195.896 400.404 201.81C399.991 207.724 398.478 214.464 396.14 217.421Z" fill="#3A3F47"/>
<path d="M377.502 230.419C377.502 230.419 377.571 227.6 378.809 227.393C380.047 227.118 392.77 225.88 394.352 226.499V229.732C394.352 229.732 391.326 231.588 377.502 230.419Z" fill="#E2D2CA"/>
<path d="M378.258 207.793C378.465 206.83 381.009 203.942 381.972 206.968C382.935 209.994 380.528 214.12 379.152 213.708C377.846 213.433 377.64 210.269 378.258 207.793Z" fill="#EEA886"/>
<path d="M415.465 334.678C415.465 334.678 408.725 336.672 397.24 337.91C385.755 339.148 357.008 337.429 356.871 336.122C356.664 334.747 363.06 285.575 362.716 283.03C362.372 280.485 362.166 271.476 362.166 271.476C362.028 273.952 359.484 284.062 356.458 289.563C355.358 291.558 351.644 297.816 349.925 296.372C341.328 289.495 327.986 263.636 327.161 263.43C327.849 263.155 333.488 260.541 334.244 260.266C334.932 260.06 341.122 266.593 344.904 270.651C346.555 272.439 347.793 273.815 347.793 273.815C348.893 271.339 352.813 256.002 354.051 250.638C356.802 238.603 356.389 238.122 356.389 238.122C364.779 235.577 377.571 230.419 377.571 230.419L394.42 229.731C394.42 229.731 409.894 233.101 415.946 235.852C416.496 236.127 416.496 249.607 418.078 253.183L413.058 263.843C413.058 263.843 410.169 284.956 409.55 294.309C409.206 298.641 415.465 334.678 415.465 334.678Z" fill="#FFDF69"/>
<path d="M418.766 270.789C418.353 272.233 416.359 273.402 415.052 273.952C414.227 274.296 413.264 274.365 412.37 274.227L411.682 274.09L400.128 271.958C400.128 271.958 397.584 242.867 415.877 235.921C416.359 236.059 422.754 257.791 418.766 270.789Z" fill="#FFDF69"/>
<path d="M414.983 273.952C414.158 274.296 413.195 274.365 412.301 274.227L411.613 274.09L412.782 259.235L414.983 273.952Z" fill="#AB9546"/>
<path d="M347.724 273.814L346.279 279.798C346.279 279.798 344.767 273.814 344.835 270.72C346.555 272.508 347.724 273.814 347.724 273.814Z" fill="#AB9546"/>
<path d="M395.727 195.345C395.727 195.345 410.1 193.557 396.002 217.628L395.727 195.345Z" fill="#3A3F47"/>
<path d="M322.278 232.07L320.765 229.594L332.319 225.605L333.763 228.081L322.278 232.07Z" fill="black"/>
<path d="M332.526 35.4495H320.009C319.597 35.4495 319.253 35.1056 319.253 34.693V32.0109C319.253 31.5983 319.597 31.2544 320.009 31.2544H332.526C332.938 31.2544 333.282 31.5983 333.282 32.0109V34.693C333.282 35.1056 332.938 35.4495 332.526 35.4495Z" fill="url(#paint11_linear_1_7384)"/>
<path d="M332.525 45.5591H320.009C319.596 45.5591 319.252 45.2153 319.252 44.8026V42.1205C319.252 41.7079 319.596 41.364 320.009 41.364H332.525C332.938 41.364 333.282 41.7079 333.282 42.1205V44.8026C333.282 45.2153 332.938 45.5591 332.525 45.5591Z" fill="url(#paint12_linear_1_7384)"/>
<path d="M332.525 55.7373H320.009C319.596 55.7373 319.252 55.3935 319.252 54.9809V52.2987C319.252 51.8861 319.596 51.5422 320.009 51.5422H332.525C332.938 51.5422 333.282 51.8861 333.282 52.2987V54.9809C333.282 55.3935 332.938 55.7373 332.525 55.7373Z" fill="url(#paint13_linear_1_7384)"/>
<path d="M342.291 35.4495H339.815C339.403 35.4495 339.059 35.1056 339.059 34.693V32.0109C339.059 31.5983 339.403 31.2544 339.815 31.2544H342.291C342.704 31.2544 343.048 31.5983 343.048 32.0109V34.693C343.048 35.1056 342.704 35.4495 342.291 35.4495Z" fill="url(#paint14_linear_1_7384)"/>
<path d="M342.291 45.5591H339.815C339.403 45.5591 339.059 45.2153 339.059 44.8026V42.1205C339.059 41.7079 339.403 41.364 339.815 41.364H342.291C342.704 41.364 343.048 41.7079 343.048 42.1205V44.8026C343.048 45.2153 342.704 45.5591 342.291 45.5591Z" fill="url(#paint15_linear_1_7384)"/>
<path d="M342.291 55.7373H339.815C339.403 55.7373 339.059 55.3935 339.059 54.9809V52.2987C339.059 51.8861 339.403 51.5422 339.815 51.5422H342.291C342.704 51.5422 343.048 51.8861 343.048 52.2987V54.9809C343.048 55.3935 342.704 55.7373 342.291 55.7373Z" fill="url(#paint16_linear_1_7384)"/>
<path d="M288.03 263.567H302.678L298.208 254.283H283.491L288.03 263.567Z" fill="url(#paint17_linear_1_7384)"/>
<path d="M281.152 263.567H284.66L280.121 254.283H276.682L281.152 263.567Z" fill="url(#paint18_linear_1_7384)"/>
<defs>
<linearGradient id="paint0_linear_1_7384" x1="292.874" y1="343.975" x2="281.884" y2="144.771" gradientUnits="userSpaceOnUse">
<stop stop-color="#D1D7E0"/>
<stop offset="1" stop-color="#EBEBFF"/>
</linearGradient>
<linearGradient id="paint1_linear_1_7384" x1="475.633" y1="403.236" x2="475.633" y2="194.939" gradientUnits="userSpaceOnUse">
<stop stop-color="#D1D7E0"/>
<stop offset="1" stop-color="#EBEBFF"/>
</linearGradient>
<linearGradient id="paint2_linear_1_7384" x1="282.823" y1="274.608" x2="282.823" y2="122.3" gradientUnits="userSpaceOnUse">
<stop stop-color="#D1D7E0"/>
<stop offset="1" stop-color="#EBEBFF"/>
</linearGradient>
<linearGradient id="paint3_linear_1_7384" x1="126.802" y1="361.827" x2="92.2783" y2="361.827" gradientUnits="userSpaceOnUse">
<stop stop-color="#3076A1"/>
<stop offset="1" stop-color="#48C9B6"/>
</linearGradient>
<linearGradient id="paint4_linear_1_7384" x1="99.9778" y1="390.325" x2="37.215" y2="390.325" gradientUnits="userSpaceOnUse">
<stop stop-color="#3076A1"/>
<stop offset="1" stop-color="#48C9B6"/>
</linearGradient>
<linearGradient id="paint5_linear_1_7384" x1="94.6129" y1="399.452" x2="47.5055" y2="399.452" gradientUnits="userSpaceOnUse">
<stop stop-color="#3076A1"/>
<stop offset="1" stop-color="#48C9B6"/>
</linearGradient>
<linearGradient id="paint6_linear_1_7384" x1="151.556" y1="351.598" x2="80.8157" y2="351.598" gradientUnits="userSpaceOnUse">
<stop stop-color="#3076A1"/>
<stop offset="1" stop-color="#48C9B6"/>
</linearGradient>
<linearGradient id="paint7_linear_1_7384" x1="109.437" y1="428.817" x2="68.2493" y2="305.255" gradientUnits="userSpaceOnUse">
<stop stop-color="#3076A1"/>
<stop offset="1" stop-color="#48C9B6"/>
</linearGradient>
<linearGradient id="paint8_linear_1_7384" x1="77.57" y1="509.513" x2="98.1638" y2="420.737" gradientUnits="userSpaceOnUse">
<stop stop-color="#C9C4C1"/>
<stop offset="1" stop-color="#FFF6DE"/>
</linearGradient>
<linearGradient id="paint9_linear_1_7384" x1="73.5887" y1="440.235" x2="124.214" y2="440.235" gradientUnits="userSpaceOnUse">
<stop stop-color="#C9C4C1"/>
<stop offset="1" stop-color="#FFF6DE"/>
</linearGradient>
<linearGradient id="paint10_linear_1_7384" x1="420.85" y1="145.843" x2="420.85" y2="60.0459" gradientUnits="userSpaceOnUse">
<stop stop-color="#D1D7E0"/>
<stop offset="1" stop-color="#EBEBFF"/>
</linearGradient>
<linearGradient id="paint11_linear_1_7384" x1="319.244" y1="33.3473" x2="333.261" y2="33.3473" gradientUnits="userSpaceOnUse">
<stop stop-color="#D1D7E0"/>
<stop offset="1" stop-color="#EBEBFF"/>
</linearGradient>
<linearGradient id="paint12_linear_1_7384" x1="319.243" y1="43.4767" x2="333.26" y2="43.4767" gradientUnits="userSpaceOnUse">
<stop stop-color="#D1D7E0"/>
<stop offset="1" stop-color="#EBEBFF"/>
</linearGradient>
<linearGradient id="paint13_linear_1_7384" x1="319.243" y1="53.606" x2="333.26" y2="53.606" gradientUnits="userSpaceOnUse">
<stop stop-color="#D1D7E0"/>
<stop offset="1" stop-color="#EBEBFF"/>
</linearGradient>
<linearGradient id="paint14_linear_1_7384" x1="339.048" y1="33.3473" x2="343.036" y2="33.3473" gradientUnits="userSpaceOnUse">
<stop stop-color="#D1D7E0"/>
<stop offset="1" stop-color="#EBEBFF"/>
</linearGradient>
<linearGradient id="paint15_linear_1_7384" x1="339.048" y1="43.4767" x2="343.036" y2="43.4767" gradientUnits="userSpaceOnUse">
<stop stop-color="#D1D7E0"/>
<stop offset="1" stop-color="#EBEBFF"/>
</linearGradient>
<linearGradient id="paint16_linear_1_7384" x1="339.048" y1="53.606" x2="343.036" y2="53.606" gradientUnits="userSpaceOnUse">
<stop stop-color="#D1D7E0"/>
<stop offset="1" stop-color="#EBEBFF"/>
</linearGradient>
<linearGradient id="paint17_linear_1_7384" x1="283.516" y1="258.93" x2="302.667" y2="258.93" gradientUnits="userSpaceOnUse">
<stop stop-color="#D1D7E0"/>
<stop offset="1" stop-color="#EBEBFF"/>
</linearGradient>
<linearGradient id="paint18_linear_1_7384" x1="276.655" y1="258.93" x2="284.637" y2="258.93" gradientUnits="userSpaceOnUse">
<stop stop-color="#D1D7E0"/>
<stop offset="1" stop-color="#EBEBFF"/>
</linearGradient>
</defs>
</svg>
