<svg width="100" height="100" viewBox="0 0 100 100" fill="none" xmlns="http://www.w3.org/2000/svg">
<path d="M47.0588 61.7647V67.647H17.647V79.4117L20.5882 82.3529L23.5294 79.4117V73.5294H47.0588V79.4117L48.5294 82.3529L50 79.4117L52.9412 70.5882L50 61.7647L48.5294 58.8235L47.0588 61.7647Z" fill="#E6EFFB"/>
<path d="M52.9412 73.5294H76.4706V79.4117L79.4118 82.3529L82.3529 79.4117V67.647H52.9412V61.7647L51.4706 58.8235L50 61.7647V79.4117L51.4706 82.3529L52.9412 79.4117V73.5294Z" fill="#CDD9FB"/>
<path d="M30.2602 14.7306C22.7843 14.2973 16.3084 19.5461 14.9614 26.6747C6.50784 27.9708 0 35.2926 0 44.1177C0 53.848 7.91628 61.7647 17.6471 61.7647H50L52.9412 30.8824L50 0C40.7733 0 32.819 6.10843 30.2602 14.7306Z" fill="#239FFD"/>
<path d="M100 44.1177C100 35.2896 93.4892 27.9704 85.0386 26.6745C83.6945 19.561 77.2316 14.2961 69.7398 14.7304C67.1482 5.99824 59.1155 0 50 0V61.7647H82.3529C92.0833 61.7647 100 53.8484 100 44.1177Z" fill="#4F45E2"/>
<path d="M38.2353 79.4117V94.1176L44.1176 97.0588L50 94.1176L52.9412 86.7647L50 79.4117H38.2353Z" fill="#FF8759"/>
<path d="M61.7647 79.4117H50V94.1176L55.8824 97.0588L61.7647 94.1176V79.4117ZM38.2353 94.1176V100H50L52.9412 97.0588L50 94.1176H38.2353Z" fill="#FF4057"/>
<path d="M61.7647 94.1177H50V100H61.7647V94.1177Z" fill="#C40048"/>
<path d="M8.82355 79.4117V94.1176L14.7059 97.0588L20.5883 94.1176L23.5294 86.7647L20.5883 79.4117H8.82355Z" fill="#FFEF4A"/>
<path d="M32.353 79.4117H20.5883V94.1176L26.4706 97.0588L32.353 94.1176V79.4117ZM8.82355 94.1176V100H20.5883L23.5294 97.0588L20.5883 94.1176H8.82355Z" fill="#FFCC00"/>
<path d="M32.353 94.1177H20.5883V100H32.353V94.1177Z" fill="#FF9E22"/>
<path d="M67.647 79.4117V94.1176L73.5294 97.0588L79.4117 94.1176L82.3529 86.7647L79.4117 79.4117H67.647Z" fill="#57D9AD"/>
<path d="M91.1764 79.4117H79.4117V94.1176L85.2941 97.0588L91.1764 94.1176V79.4117ZM67.647 94.1176V100H79.4117L82.3529 97.0588L79.4117 94.1176H67.647Z" fill="#26BFA6"/>
<path d="M91.1764 94.1177H79.4117V100H91.1764V94.1177Z" fill="#269EA6"/>
</svg>
