<svg width="48" height="48" viewBox="0 0 48 48" fill="none" xmlns="http://www.w3.org/2000/svg">
<rect width="48" height="48" rx="8" fill="#5CC9A7"/>
<path d="M18.3496 38.584H29.6887V39.8593H18.3496V38.584Z" fill="white"/>
<path fill-rule="evenodd" clip-rule="evenodd" d="M26.2467 34.1566H21.9645L21.0861 37.8189H26.9922L26.2467 34.1566ZM9.29614 29.7609H38.7422V15.492C38.7422 15.1285 38.4559 14.8079 38.0887 14.8079H34.5965C35.4666 17.1902 34.2452 20.4407 30.6368 20.8107C30.7251 20.9854 30.7744 21.1825 30.7744 21.3916V23.2841C30.7744 23.6289 30.6377 23.944 30.4165 24.1764C30.6377 24.4088 30.7744 24.7239 30.7744 25.0687V26.9603C30.7744 27.6732 30.1925 28.256 29.4786 28.256H18.6638C17.9508 28.256 17.368 27.6742 17.368 26.9603V25.0678C17.368 24.723 17.5047 24.4079 17.7259 24.1755C17.5047 23.9431 17.368 23.628 17.368 23.2832V21.3907C17.368 21.2085 17.4061 21.0356 17.474 20.8785C14.4354 20.5922 12.5429 17.5546 13.5468 14.8079H9.94959C9.54618 14.8079 9.29614 15.1127 9.29614 15.492V29.7609ZM38.7422 30.5677H9.29614V32.6963C9.29614 33.0839 9.54153 33.3498 9.94959 33.3498H38.0878C38.4596 33.3498 38.7412 33.0681 38.7412 32.6963L38.7422 30.5677ZM30.1423 31.5558C30.3654 31.5558 30.5457 31.7361 30.5457 31.9592C30.5457 32.1823 30.3654 32.3626 30.1423 32.3626H29.2937C29.0706 32.3626 28.8903 32.1823 28.8903 31.9592C28.8903 31.7361 29.0706 31.5558 29.2937 31.5558H30.1423ZM33.2199 31.5558C33.443 31.5558 33.6233 31.7361 33.6233 31.9592C33.6233 32.1823 33.443 32.3626 33.2199 32.3626H32.3722C32.1491 32.3626 31.9688 32.1823 31.9688 31.9592C31.9688 31.7361 32.1491 31.5558 32.3722 31.5558H33.2199ZM35.3903 31.5558H36.2975C36.5206 31.5558 36.7009 31.7361 36.7009 31.9592C36.7009 32.1823 36.5206 32.3626 36.2975 32.3626H35.3903C35.1672 32.3626 34.9869 32.1823 34.9869 31.9592C34.9869 31.7361 35.1672 31.5558 35.3903 31.5558Z" fill="white"/>
<path d="M30.7157 19.9909C30.8161 19.6693 30.7566 19.5689 30.7743 17.7145C30.7743 17.0016 30.1924 16.4188 29.4785 16.4188H18.6636C17.9507 16.4188 17.3679 17.0007 17.3679 17.7145V19.607C17.3679 19.7688 17.3976 19.9249 17.4525 20.0681C15.481 19.8348 14.083 18.1793 14.083 16.3389C14.083 14.306 15.7348 12.6608 17.7871 12.6608C17.8791 12.6608 18.0325 12.6691 18.1134 12.6543C18.4824 12.5836 18.4331 12.2471 18.4331 11.9729C18.4331 9.915 20.0877 8.25024 22.1382 8.25024C23.1755 8.25024 24.1868 8.7243 24.8719 9.493C25.4788 10.1743 25.6443 10.8315 25.6815 10.9124C25.7753 11.1141 26.0152 11.2024 26.2169 11.1085V11.1076C26.4929 10.9802 26.7885 10.9588 27.0915 10.9588C28.1168 10.9588 29.0138 11.5249 29.4451 12.4386C29.5176 12.6255 29.7211 12.7333 29.92 12.6831C30.0548 12.6487 30.2379 12.6626 30.3532 12.6626C32.3944 12.6626 34.0582 14.2967 34.0582 16.3407C34.0582 18.091 32.9465 19.6963 30.7157 19.9909Z" fill="white"/>
<path fill-rule="evenodd" clip-rule="evenodd" d="M29.6514 20.0634C29.6738 20.0532 29.7463 20.029 29.8234 19.9518C29.9126 19.8626 29.9675 19.7408 29.9675 19.607V17.7145C29.9675 17.4468 29.7463 17.2256 29.4786 17.2256H18.6637C18.396 17.2256 18.1748 17.4468 18.1748 17.7145V19.607C18.1748 19.8747 18.396 20.0959 18.6637 20.0959C30.1506 20.0838 29.4925 20.1247 29.6514 20.0634ZM24.3969 18.6608C24.3969 19.0577 24.0753 19.3793 23.6784 19.3793C23.2815 19.3793 22.9599 19.0577 22.9599 18.6608C22.9599 18.2639 23.2815 17.9422 23.6784 17.9422C24.0753 17.9422 24.3969 18.2639 24.3969 18.6608ZM25.7624 18.6608C25.7624 18.4377 25.9427 18.2573 26.1658 18.2573H28.7415C28.9645 18.2573 29.1449 18.4377 29.1449 18.6608C29.1449 18.8838 28.9645 19.0642 28.7415 19.0642H26.1658C25.9427 19.0642 25.7624 18.8838 25.7624 18.6608ZM21.6669 17.9422C22.0638 17.9422 22.3854 18.2639 22.3854 18.6608C22.3854 19.0577 22.0638 19.3793 21.6669 19.3793C21.27 19.3793 20.9484 19.0577 20.9484 18.6608C20.9484 18.2639 21.27 17.9422 21.6669 17.9422ZM19.6555 17.9422C20.0524 17.9422 20.374 18.2639 20.374 18.6608C20.374 19.0577 20.0524 19.3793 19.6555 19.3793C19.2586 19.3793 18.937 19.0577 18.937 18.6608C18.937 18.2639 19.2586 17.9422 19.6555 17.9422ZM29.4786 23.7721C29.7463 23.7721 29.9675 23.5509 29.9675 23.2832V21.3907C29.9675 21.123 29.7463 20.9018 29.4786 20.9018H18.66C18.3932 20.9037 18.1738 21.124 18.1738 21.3907V23.2832C18.1738 23.5509 18.3951 23.7721 18.6628 23.7721H29.4786ZM23.6784 23.0555C23.2815 23.0555 22.9599 22.7339 22.9599 22.337C22.9599 21.9401 23.2815 21.6185 23.6784 21.6185C24.0753 21.6185 24.3969 21.9401 24.3969 22.337C24.3969 22.7339 24.0753 23.0555 23.6784 23.0555ZM25.7624 22.337C25.7624 22.1139 25.9427 21.9336 26.1658 21.9336H28.7415C28.9645 21.9336 29.1449 22.1139 29.1449 22.337C29.1449 22.5601 28.9645 22.7404 28.7415 22.7404H26.1658C25.9427 22.7404 25.7624 22.5601 25.7624 22.337ZM22.3854 22.337C22.3854 22.7339 22.0638 23.0555 21.6669 23.0555C21.27 23.0555 20.9484 22.7339 20.9484 22.337C20.9484 21.9401 21.27 21.6185 21.6669 21.6185C22.0638 21.6185 22.3854 21.941 22.3854 22.337ZM19.6555 21.6185C20.0524 21.6185 20.374 21.9401 20.374 22.337C20.374 22.7339 20.0524 23.0555 19.6555 23.0555C19.2586 23.0555 18.937 22.7339 18.937 22.337C18.937 21.941 19.2586 21.6185 19.6555 21.6185ZM29.4786 27.4493C29.7463 27.4493 29.9675 27.2281 29.9675 26.9604V25.0679C29.9675 24.8002 29.7463 24.579 29.4786 24.579H18.6637C18.396 24.579 18.1748 24.8002 18.1748 25.0679V26.9604C18.1748 27.2281 18.396 27.4493 18.6637 27.4493H29.4786ZM23.6784 25.2956C24.0753 25.2956 24.3969 25.6172 24.3969 26.0141C24.3969 26.411 24.0753 26.7326 23.6784 26.7326C23.2815 26.7326 22.9599 26.411 22.9599 26.0141C22.9599 25.6172 23.2815 25.2956 23.6784 25.2956ZM26.1658 26.4175C25.9427 26.4175 25.7624 26.2372 25.7624 26.0141C25.7624 25.791 25.9427 25.6107 26.1658 25.6107H28.7415C28.9645 25.6107 29.1449 25.791 29.1449 26.0141C29.1449 26.2372 28.9645 26.4175 28.7415 26.4175H26.1658ZM21.6669 25.2956C22.0638 25.2956 22.3854 25.6172 22.3854 26.0141C22.3854 26.411 22.0638 26.7326 21.6669 26.7326C21.27 26.7326 20.9484 26.411 20.9484 26.0141C20.9484 25.6172 21.27 25.2956 21.6669 25.2956ZM19.6555 25.2956C20.0524 25.2956 20.374 25.6172 20.374 26.0141C20.374 26.411 20.0524 26.7326 19.6555 26.7326C19.2586 26.7326 18.937 26.411 18.937 26.0141C18.937 25.6172 19.2586 25.2956 19.6555 25.2956Z" fill="white"/>
</svg>
