<svg width="26" height="21" viewBox="0 0 26 21" fill="none" xmlns="http://www.w3.org/2000/svg">
<path d="M25.2881 11.3324H19.3271C19.429 6.55966 20.6612 6.01789 22.2088 5.86325L22.8056 5.78197L22.8056 0.533884L22.1177 0.574383C20.0968 0.699291 17.8626 1.09952 16.372 3.12111C15.0653 4.89329 14.4893 7.78857 14.4893 12.2331L14.4893 20.4688H25.2881V11.3324Z" fill="#4F45E2"/>
<path d="M11.5107 20.4688L11.5107 11.3324H5.62935C5.73126 6.55966 6.9236 6.01789 8.47118 5.86325L9.02825 5.78197V0.533884L8.38007 0.574383C6.3592 0.699291 4.10498 1.09952 2.61436 3.12111C1.30783 4.89329 0.711908 7.78857 0.711908 12.2331L0.711908 20.4688H11.5107Z" fill="#4F45E2"/>
</svg>
