<svg width="578" height="325" viewBox="0 0 578 325" fill="none" xmlns="http://www.w3.org/2000/svg">
<g clip-path="url(#clip0_1_7975)">
<path d="M95.5082 270.626C95.1982 257.252 92.9372 243.795 87.4671 231.57C81.9969 219.344 73.0988 208.504 61.5204 201.812C53.3151 197.044 41.9919 194.838 34.7713 201.055C32.4157 203.21 30.6011 205.89 29.4744 208.878C26.3105 216.678 26.2291 225.389 29.2465 233.247C31.7901 239.766 36.3486 245.3 41.2626 250.287C54.4092 263.616 71.7678 274.164 90.4939 274.082" fill="#D3E8E8"/>
<path d="M93.1105 297.439C84.9018 288.327 73.7214 282.43 61.566 280.801C57.3084 280.236 47.8906 278.75 45.3652 283.372C42.9219 287.839 48.7294 294.649 51.7471 297.138C55.1594 300.166 59.0345 302.629 63.2253 304.432C68.2501 306.338 73.7088 306.798 78.9816 305.758C84.2545 304.719 89.1304 302.222 93.0558 298.552" fill="#D3E8E8"/>
<path d="M405.155 273.006C398.454 253.915 395.874 232.764 401.827 213.427C407.78 194.09 423.37 177.069 443.191 173.012C445.893 172.326 448.717 172.276 451.441 172.866C454.124 173.71 456.544 175.229 458.47 177.278C467.979 186.605 470.587 201.402 467.733 214.402C464.88 227.403 457.285 238.863 448.724 249.092C439.307 260.315 427.409 270.973 412.849 272.532" fill="#D3E8E8"/>
<path d="M414.463 294.731C417.198 290.41 421.757 287.602 426.233 285.14C435.295 280.181 444.95 276.024 455.179 274.556C460.741 273.772 467.487 274.401 470.295 279.26C472.62 283.29 471.079 288.514 468.472 292.379C466.323 295.552 463.549 298.253 460.32 300.316C457.09 302.379 453.473 303.761 449.691 304.377C444.905 305.125 440.018 304.614 435.213 303.958C428.549 303.046 421.757 301.797 415.949 298.406" fill="#D3E8E8"/>
<path d="M438.687 196.323C423.064 215.539 408.592 235.662 395.345 256.586C391.619 262.47 387.997 268.411 384.478 274.41C384.413 274.556 384.404 274.72 384.454 274.872C384.503 275.023 384.606 275.152 384.744 275.232C384.882 275.312 385.044 275.339 385.2 275.306C385.357 275.274 385.495 275.185 385.59 275.057C398.034 253.872 411.711 233.436 426.552 213.855C430.807 208.239 435.156 202.699 439.599 197.235C440.118 196.597 439.207 195.676 438.687 196.323Z" fill="white"/>
<path d="M454.486 290.009C436.471 293.717 418.09 295.345 399.703 294.859C399.531 294.859 399.367 294.927 399.245 295.049C399.124 295.17 399.056 295.335 399.056 295.506C399.056 295.678 399.124 295.843 399.245 295.964C399.367 296.085 399.531 296.154 399.703 296.154C418.203 296.633 436.698 294.99 454.824 291.258C455.644 291.085 455.298 289.845 454.486 290.009Z" fill="white"/>
<path d="M45.5293 222.453C67.9222 235.968 88.5296 252.241 106.868 270.891C111.973 276.075 116.887 281.433 121.61 286.964C122.148 287.602 123.059 286.681 122.522 286.052C105.533 266.194 86.1344 248.532 64.7751 233.475C58.6971 229.22 52.4976 225.173 46.1766 221.331C45.4654 220.903 44.8181 222.024 45.5293 222.453Z" fill="white"/>
<path d="M58.8035 291.805C72.9733 296.584 87.6654 299.644 102.565 300.922C106.789 301.274 111.022 301.487 115.264 301.56C115.422 301.541 115.567 301.465 115.672 301.347C115.777 301.228 115.835 301.076 115.835 300.917C115.835 300.759 115.777 300.606 115.672 300.487C115.567 300.369 115.422 300.293 115.264 300.274C100.428 300.022 85.6748 297.993 71.321 294.23C67.2184 293.154 63.1583 291.939 59.1408 290.583C58.3476 290.319 58.0103 291.559 58.7944 291.823L58.8035 291.805Z" fill="white"/>
<path d="M96.3106 325.474L420.462 324.826L384.15 109.057C383.461 105.028 381.371 101.373 378.248 98.7366C375.124 96.1005 371.17 94.6537 367.083 94.6519L77.9583 95.2353C75.4505 95.2401 72.9738 95.7911 70.7004 96.85C68.4271 97.9089 66.4117 99.4503 64.7944 101.367C63.1771 103.284 61.9967 105.53 61.3353 107.949C60.6738 110.368 60.5473 112.902 60.9644 115.375L96.3106 325.474Z" fill="#E1E8F0"/>
<path d="M119.923 168.517C115.821 165.28 110.569 165.28 108.208 168.517C105.847 171.753 107.242 176.996 111.344 180.232C115.447 183.469 120.689 183.46 123.059 180.232C125.43 177.005 124.026 171.744 119.923 168.517Z" fill="#8FC6C6"/>
<path d="M134.054 174.735H310.385" stroke="#4F45E2" stroke-width="1.03021" stroke-miterlimit="10"/>
<path d="M138.199 250.786C140.835 247.773 139.783 242.541 135.849 239.1C131.915 235.658 126.59 235.311 123.954 238.324C121.318 241.337 122.371 246.569 126.304 250.01C130.238 253.451 135.564 253.799 138.199 250.786Z" fill="#8FC6C6"/>
<path d="M149.49 244.944H325.829" stroke="#4F45E2" stroke-width="1.03021" stroke-miterlimit="10"/>
<path d="M61.2288 117.481L60.9644 115.375C60.5473 112.902 60.6738 110.368 61.3353 107.949C61.9967 105.53 63.1771 103.284 64.7944 101.367C66.4117 99.4503 68.4271 97.9089 70.7004 96.85C72.9738 95.7911 75.4505 95.2401 77.9583 95.2353L367.083 94.6519C371.17 94.6537 375.124 96.1005 378.248 98.7366C381.371 101.373 383.461 105.028 384.15 109.057L385.645 117.918C386.42 116.56 61.2288 117.481 61.2288 117.481Z" fill="#4F45E2"/>
<path d="M87.9594 104.845C85.8352 103.167 83.1092 103.167 81.8876 104.845C80.6659 106.522 81.3861 109.239 83.5104 110.916C85.6346 112.594 88.3606 112.594 89.5914 110.916C90.8221 109.239 90.0928 106.504 87.9594 104.845Z" fill="white"/>
<path d="M101.999 104.845C99.8752 103.167 97.1493 103.167 95.9276 104.845C94.7059 106.522 95.4262 109.239 97.5504 110.916C99.6747 112.594 102.401 112.594 103.631 110.916C104.862 109.239 104.133 106.504 101.999 104.845Z" fill="#FFB701"/>
<path d="M116.122 104.845C113.997 103.167 111.271 103.167 110.05 104.845C108.828 106.522 109.548 109.239 111.672 110.916C113.797 112.594 116.523 112.594 117.753 110.916C118.984 109.239 118.255 106.504 116.122 104.845Z" fill="#8FC6C6"/>
<path d="M303.1 83.7024C309.203 83.7024 314.15 78.7553 314.15 72.6527C314.15 66.5501 309.203 61.603 303.1 61.603C296.998 61.603 292.051 66.5501 292.051 72.6527C292.051 78.7553 296.998 83.7024 303.1 83.7024Z" fill="#4F45E2" stroke="#4F45E2" stroke-width="2.21541" stroke-miterlimit="10"/>
<path d="M282.141 109.686L310.011 63.3079C311.625 59.4605 307.094 47.8821 304.167 44.9008C296.135 36.6956 284.529 32.6113 273.097 31.8181C266.76 31.3805 254.617 38.282 251.016 46.2501C247.022 55.0753 244.634 63.7637 233.693 68.0578C210.227 77.2294 214.976 102.93 214.976 102.93" fill="black"/>
<path d="M278.211 37.4979C280.295 35.9698 282.597 34.7649 285.04 33.9241C282.732 33.2597 280.384 32.745 278.011 32.3833C277.591 32.5292 277.172 32.6568 276.762 32.8209C265.448 37.3247 257.616 52.9419 260.433 64.7301C261.783 64.7301 264.864 65.3227 266.159 65.0765C266.396 55.13 270.006 43.4603 278.211 37.4979Z" fill="#4F45E2"/>
<path d="M268.028 65.7877C267.997 65.9142 267.941 66.0331 267.863 66.1375C267.786 66.2418 267.688 66.3294 267.575 66.3949C267.463 66.4605 267.338 66.5026 267.209 66.5189C267.08 66.5352 266.949 66.5253 266.824 66.4897C264.6 65.8515 259.613 63.937 257.251 69.5439C254.89 75.1508 259.54 80.0922 262.849 81.2226C263.806 81.5509 265.994 82.3805 266.45 83.274C267.863 86.009 263.898 108.026 260.123 115.466C259.831 129.688 281.092 149.134 281.092 149.134C281.092 149.134 286.681 141.248 291.166 124.054C291.166 124.054 292.561 93.0564 292.771 92.9105C296.244 90.9595 309.984 91.9988 309.674 67.7387C309.391 45.2291 293.728 42.4211 289.662 42.0199C286.216 41.6826 274.656 39.2028 268.028 65.7877Z" fill="#FFB4A5"/>
<path d="M300.939 42.9952C300.939 42.9952 287.939 72.8714 267.353 66.4622C267.353 66.4622 262.512 28.007 300.939 42.9952Z" fill="black"/>
<path d="M259.303 71.9415C259.303 71.9415 264.864 65.5596 266.523 76.664L259.303 71.9415Z" fill="#FF8164"/>
<path d="M287.319 71.2395C288.358 71.5029 289.296 72.069 290.013 72.8659C290.731 73.6628 291.195 74.6547 291.348 75.7159C291.501 76.7772 291.336 77.86 290.873 78.8271C290.41 79.7942 289.671 80.6022 288.748 81.1485C287.825 81.6949 286.761 81.9551 285.691 81.8962C284.62 81.8373 283.591 81.4619 282.734 80.8176C281.877 80.1733 281.231 79.289 280.877 78.2769C280.523 77.2648 280.477 76.1705 280.746 75.1324C281.102 73.7451 281.995 72.556 283.227 71.8261C284.459 71.0962 285.931 70.8853 287.319 71.2395Z" fill="#FF9E87"/>
<path d="M308.497 79.317C307.508 78.8337 306.689 78.06 306.15 77.0991C305.611 76.1383 305.378 75.0361 305.482 73.9395C305.586 72.8428 306.022 71.804 306.732 70.9616C307.442 70.1192 308.392 69.5133 309.455 69.2246C309.455 69.2246 310.065 75.5882 308.497 79.317Z" fill="#FF9E87"/>
<path d="M304.869 75.3694L295.807 77.0925C295.807 77.0925 298.897 81.0128 301.432 80.0555C303.966 79.0982 304.869 75.3694 304.869 75.3694Z" fill="white"/>
<path d="M300.402 67.8845L300.064 73.9108L303.173 73.4732C303.304 73.4535 303.427 73.4003 303.531 73.3189C303.635 73.2375 303.716 73.1306 303.767 73.0086C303.817 72.8866 303.835 72.7536 303.819 72.6225C303.803 72.4915 303.753 72.3668 303.675 72.2606L300.402 67.8845Z" fill="#FF8164"/>
<path d="M290.774 62.9067C289.808 63.6817 291.157 60.4269 292.506 59.9711C293.095 59.7253 293.758 59.7225 294.349 59.9633C294.94 60.2042 295.412 60.6691 295.661 61.2566C293.889 61.2174 292.16 61.8014 290.774 62.9067Z" fill="black"/>
<path d="M307.385 61.4298C308.443 62.0679 306.692 59.0229 305.297 58.7403C304.681 58.5719 304.023 58.6536 303.466 58.9677C302.91 59.2818 302.5 59.803 302.325 60.4178C304.078 60.1526 305.869 60.5107 307.385 61.4298Z" fill="black"/>
<path d="M294.211 68.3769C294.33 69.4345 294.84 70.2003 295.351 70.2003C295.861 70.2003 296.189 69.2886 296.071 68.1854C295.952 67.0823 295.442 66.3621 294.931 66.3621C294.421 66.3621 294.092 67.292 294.211 68.3769Z" fill="black"/>
<path d="M302.562 66.9181C302.672 67.9301 303.155 68.7415 303.647 68.6503C304.14 68.5592 304.45 67.7386 304.331 66.7176C304.213 65.6965 303.739 64.8942 303.246 64.9853C302.754 65.0765 302.453 65.9062 302.562 66.9181Z" fill="black"/>
<path d="M293.664 92.4546C290.375 93.0329 286.994 92.795 283.818 91.7617C278.922 90.0386 288.54 102.511 293.664 92.4546Z" fill="#FF8164"/>
<path d="M263.478 325.474C265.064 318.791 266.304 313.567 267.125 310.166C268.237 305.489 275.467 306.519 274.902 311.297C274.491 314.743 274.163 319.566 273.899 325.474H328.737C325.218 277.455 317.386 234.532 302.234 209.488C281.995 206.698 257.297 210.345 236.784 210.956C226.573 229.008 221.176 242.218 215.314 265.165C213.408 272.595 208.649 295.388 202.705 325.474H263.478Z" fill="#2D2F3D"/>
<g style="mix-blend-mode:multiply" opacity="0.21">
<path d="M301.933 218.56L210.217 285.469C210.217 285.469 217.319 246.02 232.098 218.231L301.933 218.56Z" fill="black"/>
</g>
<path d="M397.871 171.462C397.871 171.462 380.001 187.945 351.137 208.978V209.078L350.991 209.005C349.232 209.288 342.349 212.807 340.89 212.652C340.89 212.652 323.003 219.654 310.658 178.646C308.835 174.999 282.915 130.718 282.496 130.208C282.496 130.208 285.55 120.99 285.787 120.79C302.134 106.741 319.812 163.047 335.876 182.201C336.2 182.591 336.641 182.866 337.133 182.986C337.626 183.106 338.144 183.064 338.611 182.867C340.589 182.055 343.315 180.706 343.315 180.706L360.145 172.501L389.684 153.264C389.684 153.264 391.972 143.072 392.774 141.923C394.269 141.467 400.332 141.239 400.332 141.239C400.332 141.239 418.994 125.485 418.994 129.332C418.994 131.621 408.92 142.953 408.92 142.953C408.92 142.953 414.071 149.253 414.39 153.374C414.709 157.495 397.871 171.462 397.871 171.462Z" fill="#FF9E87"/>
<g style="mix-blend-mode:multiply">
<path d="M392.592 142.351C394.604 142.218 396.615 142.148 398.627 142.142C399.639 142.142 400.642 142.142 401.654 142.142H403.158C403.721 142.112 404.284 142.174 404.827 142.324C405.175 142.469 405.46 142.734 405.629 143.072C405.783 143.376 405.852 143.716 405.83 144.056C405.777 144.687 405.491 145.275 405.027 145.706C404.199 146.403 403.208 146.88 402.146 147.092C400.195 147.621 398.229 148.086 396.248 148.487C398.126 147.703 399.995 146.983 401.882 146.335C402.788 146.085 403.627 145.633 404.334 145.014C404.614 144.747 404.786 144.387 404.818 144.002C404.84 143.856 404.814 143.708 404.745 143.578C404.676 143.448 404.567 143.344 404.435 143.281C404.004 143.182 403.563 143.136 403.122 143.145L401.618 143.081C400.615 143.026 399.612 142.98 398.609 142.898C396.594 142.807 394.588 142.616 392.592 142.351Z" fill="#D18478"/>
<path d="M408.018 142.926C407.443 143.573 406.86 144.193 406.331 144.868C405.802 145.542 405.282 146.208 404.79 146.901C403.823 148.282 402.969 149.739 402.237 151.259L402.037 150.584C402.362 150.738 402.72 150.809 403.08 150.792C403.439 150.774 403.789 150.669 404.097 150.484C404.86 150.111 405.586 149.668 406.267 149.162C406.987 148.669 407.726 148.186 408.473 147.712C409.221 147.238 409.969 146.8 410.744 146.345C410.105 146.965 409.431 147.53 408.774 148.122C408.118 148.715 407.434 149.262 406.75 149.818C406.064 150.417 405.315 150.94 404.517 151.377C404.068 151.603 403.584 151.748 403.085 151.806C402.541 151.86 401.994 151.746 401.517 151.477L401.107 151.231L401.308 150.803C402.076 149.227 403.034 147.751 404.161 146.408C404.729 145.742 405.338 145.111 405.984 144.521C406.625 143.944 407.304 143.411 408.018 142.926Z" fill="#D18478"/>
<path d="M404.544 151.131C404.432 151.621 404.389 152.124 404.416 152.626C404.433 152.825 404.498 153.016 404.606 153.183C404.714 153.35 404.862 153.488 405.036 153.584C405.31 153.693 405.647 153.584 406.094 153.31C406.541 153.036 407.006 152.818 407.425 152.562C408.337 152.07 409.175 151.541 410.051 151.013C410.926 150.484 411.783 149.928 412.704 149.408C411.398 151.059 409.777 152.435 407.936 153.456C407.471 153.711 407.024 153.957 406.532 154.176C406.265 154.307 405.983 154.405 405.693 154.468C405.333 154.544 404.957 154.479 404.644 154.285C404.381 154.102 404.173 153.849 404.044 153.554C403.916 153.26 403.871 152.935 403.915 152.617C404.011 152.081 404.226 151.573 404.544 151.131Z" fill="#D18478"/>
<path d="M413.369 153.31C413.117 153.921 412.672 154.434 412.102 154.769C411.533 155.127 410.887 155.343 410.217 155.398C409.548 155.454 408.874 155.347 408.255 155.088C407.639 154.85 407.117 154.418 406.769 153.857C407.323 154.069 407.897 154.225 408.483 154.322C409.58 154.475 410.698 154.381 411.756 154.048C412.318 153.86 412.859 153.612 413.369 153.31Z" fill="#D18478"/>
</g>
<path d="M283.763 120.544C286.426 118.309 289.731 116.977 293.199 116.741C296.668 116.505 300.122 117.377 303.064 119.231C313.922 125.658 334.161 169.638 340.498 178.327L366.262 162.527C366.262 162.527 380.238 184.471 385.499 188.638C385.499 188.638 345.922 224.249 331.226 217.484C316.529 210.719 283.763 120.544 283.763 120.544Z" fill="#8FC6C6"/>
<path opacity="0.93" d="M315.773 162.946C310.594 146.837 301.313 132.651 289.789 120.38C289.1 119.672 288.631 118.778 288.44 117.809C286.74 118.453 285.159 119.377 283.763 120.544C283.763 120.544 305.17 179.475 321.143 205.632C321.562 191.191 320.213 176.804 315.773 162.946Z" fill="#749E9D"/>
<path d="M291.604 114.873C291.02 116.304 313.731 159.546 313.029 173.595C312.327 187.644 309.865 213.29 310.613 215.405C310.613 215.405 292.479 222.225 232.052 212.716C232.526 200.526 236.036 123.735 236.036 123.735C236.036 123.735 255.802 111.591 260.916 111.208C260.916 111.208 264.563 116.058 269.805 117.417C273.52 118.402 277.333 118.965 281.174 119.094C287.602 119.249 288.86 118.328 291.604 114.873Z" fill="#8FC6C6"/>
<g opacity="0.93">
<path d="M276.26 208.331C234.322 188.173 244.597 144.148 238.078 122.522L236.073 123.753C236.073 123.753 232.563 200.545 232.089 212.734C274.473 219.408 296.044 218.04 305.152 216.636C300.721 214.421 280.746 210.491 276.26 208.331Z" fill="#749E9D"/>
</g>
<path d="M272.095 79.5268C274.448 73.8962 271.791 67.4241 266.16 65.071C260.53 62.718 254.057 65.375 251.704 71.0057C249.351 76.6364 252.008 83.1085 257.639 85.4615C263.27 87.8146 269.742 85.1575 272.095 79.5268Z" fill="#4F45E2" stroke="#4F45E2" stroke-width="2.21541" stroke-miterlimit="10"/>
<path d="M267.791 76.582L274.109 83.3924C275.297 84.6798 276.793 85.6452 278.456 86.1984C280.118 86.7516 281.894 86.8746 283.617 86.5559L300.858 83.3832" stroke="#4F45E2" stroke-width="1.03021" stroke-miterlimit="10"/>
<path d="M300.914 81.1014L297.886 81.7207C296.988 81.9044 296.409 82.781 296.593 83.6788L296.669 84.054C296.853 84.9518 297.73 85.5307 298.628 85.3471L301.656 84.7278C302.553 84.5441 303.132 83.6674 302.949 82.7696L302.872 82.3945C302.688 81.4967 301.812 80.9177 300.914 81.1014Z" fill="#4F45E2"/>
<path d="M261.883 82.5262C265.896 82.5262 269.149 79.2731 269.149 75.2601C269.149 71.2471 265.896 67.9939 261.883 67.9939C257.87 67.9939 254.616 71.2471 254.616 75.2601C254.616 79.2731 257.87 82.5262 261.883 82.5262Z" stroke="black" stroke-width="1.03021" stroke-miterlimit="10"/>
<path d="M247.998 122.167C236.301 112.64 208.722 148.141 208.722 148.141L185.574 175.419L147.283 141.959C146.727 138.623 145.688 132.952 144.621 130.308C143.481 127.5 143.883 123.015 144.183 120.726C144.212 120.564 144.195 120.398 144.137 120.245C144.078 120.091 143.979 119.956 143.85 119.855C143.721 119.753 143.567 119.688 143.405 119.666C143.242 119.645 143.076 119.668 142.925 119.732C142.165 120.032 141.507 120.545 141.032 121.21C140.556 121.875 140.283 122.663 140.245 123.48C140.017 125.914 138.804 129.488 138.713 131.42C138.714 131.521 138.689 131.621 138.639 131.709C138.59 131.797 138.519 131.871 138.432 131.924C138.346 131.976 138.247 132.005 138.147 132.008C138.046 132.011 137.946 131.987 137.856 131.94C135.86 131.156 134.984 129.98 132.341 127.819C130.152 125.817 128.206 123.565 126.542 121.109C124.026 117.353 120.607 112.129 119.44 113.998C118.611 115.338 123.087 123.115 123.88 124.209C125.331 126.438 126.552 128.809 127.527 131.284C127.727 132.04 121.993 126.597 119.513 123.215C117.033 119.833 114.736 116.241 113.405 116.377C112.074 116.514 113.979 119.969 113.979 119.969C113.979 119.969 111.463 117.936 110.779 118.775C110.323 119.34 112.931 124.902 114.873 128.567C111.317 126.023 111.308 127.956 111.308 127.956C111.308 127.956 116.778 136.599 119.349 138.212C121.4 139.516 124.144 143.072 124.6 143.792C125.056 144.512 132.14 151.651 138.914 154.988C144.703 162.773 190.698 224.139 196.414 218.943C239.118 180.095 264.636 135.724 247.998 122.167Z" fill="#FF9E87"/>
<g style="mix-blend-mode:multiply">
<path d="M114.736 128.229L116.76 130.171C117.414 130.776 118.115 131.328 118.856 131.821C119.595 132.314 120.397 132.733 121.199 133.307C122.002 133.848 122.755 134.458 123.451 135.131H122.385C123.205 134.474 124.035 133.836 124.901 133.225C125.777 132.616 126.691 132.061 127.636 131.566C127.032 132.443 126.368 133.278 125.649 134.064C124.947 134.848 124.208 135.596 123.451 136.325L122.95 136.817L122.385 136.316C121.71 135.723 120.99 135.204 120.27 134.666C119.549 134.128 118.747 133.626 117.99 132.988C117.244 132.35 116.59 131.61 116.048 130.791C115.521 129.986 115.08 129.128 114.736 128.229Z" fill="#D18478"/>
<path d="M139.142 132.943C139.287 133.855 139.388 134.602 139.479 135.395C139.57 136.188 139.634 136.963 139.689 137.738L139.971 142.516C139.313 141.948 138.813 141.219 138.522 140.4C138.229 139.597 138.051 138.756 137.993 137.902C137.935 137.058 137.987 136.209 138.148 135.377C138.296 134.503 138.636 133.672 139.142 132.943Z" fill="#D18478"/>
<path d="M114.143 120.425C114.902 121.533 115.72 122.598 116.596 123.616C117.507 124.61 118.337 125.585 119.258 126.552C120.178 127.518 121.081 128.494 121.993 129.542C122.911 130.574 123.699 131.717 124.336 132.943C123.205 132.141 122.129 131.338 121.081 130.472C120.02 129.607 119.015 128.676 118.072 127.682C117.123 126.669 116.286 125.556 115.574 124.364C114.822 123.168 114.334 121.825 114.143 120.425Z" fill="#D18478"/>
</g>
<path d="M247.998 122.166C236.301 112.639 208.722 148.141 208.722 148.141L185.574 175.418L164.779 157.257C161.077 163.056 152.106 173.951 148.687 179.931C164.523 200.18 192.503 222.452 196.396 218.924C239.118 180.095 264.636 135.723 247.998 122.166Z" fill="#8FC6C6"/>
<path d="M42.4478 324.963H488.319" stroke="#4F45E2" stroke-width="1.03021" stroke-miterlimit="10"/>
<path d="M346.387 70.3187L354.811 61.8947H386.502C388.037 61.8959 389.558 61.5945 390.977 61.0076C392.396 60.4208 393.686 59.5601 394.772 58.4746C395.858 57.3892 396.72 56.1003 397.308 54.6817C397.896 53.2631 398.199 51.7425 398.199 50.2068V47.6632C398.199 46.1276 397.896 44.607 397.308 43.1884C396.72 41.7697 395.858 40.4809 394.772 39.3954C393.686 38.31 392.396 37.4492 390.977 36.8624C389.558 36.2756 388.037 35.9741 386.502 35.9753H358.066C354.968 35.9778 351.997 37.2102 349.807 39.4019C347.617 41.5935 346.387 44.565 346.387 47.6632V70.3187Z" fill="#8FC6C6"/>
<path d="M381.369 48.6113C381.369 49.1883 381.54 49.7523 381.861 50.2321C382.181 50.7119 382.637 51.0858 383.17 51.3066C383.703 51.5274 384.29 51.5852 384.856 51.4726C385.422 51.36 385.941 51.0822 386.349 50.6742C386.757 50.2662 387.035 49.7463 387.148 49.1804C387.26 48.6145 387.203 48.0279 386.982 47.4948C386.761 46.9617 386.387 46.5061 385.907 46.1855C385.428 45.865 384.864 45.6938 384.287 45.6938C383.513 45.6938 382.771 46.0012 382.224 46.5483C381.677 47.0955 381.369 47.8375 381.369 48.6113Z" fill="white"/>
<path d="M370.675 48.6113C370.675 49.1883 370.846 49.7523 371.166 50.2321C371.487 50.7119 371.943 51.0858 372.476 51.3066C373.009 51.5274 373.595 51.5852 374.161 51.4726C374.727 51.36 375.247 51.0822 375.655 50.6742C376.063 50.2662 376.341 49.7463 376.454 49.1804C376.566 48.6145 376.508 48.0279 376.288 47.4948C376.067 46.9617 375.693 46.5061 375.213 46.1855C374.733 45.865 374.169 45.6938 373.592 45.6938C372.818 45.6938 372.076 46.0012 371.529 46.5483C370.982 47.0955 370.675 47.8375 370.675 48.6113Z" fill="white"/>
<path d="M359.981 48.6113C359.981 49.1883 360.152 49.7523 360.472 50.2321C360.793 50.7119 361.249 51.0858 361.782 51.3066C362.315 51.5274 362.901 51.5852 363.467 51.4726C364.033 51.36 364.553 51.0822 364.961 50.6742C365.369 50.2662 365.647 49.7463 365.759 49.1804C365.872 48.6145 365.814 48.0279 365.593 47.4948C365.373 46.9617 364.999 46.5061 364.519 46.1855C364.039 45.865 363.475 45.6938 362.898 45.6938C362.124 45.6938 361.382 46.0012 360.835 46.5483C360.288 47.0955 359.981 47.8375 359.981 48.6113Z" fill="white"/>
<g style="mix-blend-mode:multiply">
<path d="M394.406 41.7373C397.739 41.7373 400.441 39.0352 400.441 35.7019C400.441 32.3686 397.739 29.6665 394.406 29.6665C391.073 29.6665 388.371 32.3686 388.371 35.7019C388.371 39.0352 391.073 41.7373 394.406 41.7373Z" fill="#4F45E2"/>
</g>
<path d="M339.404 34.3434L330.98 25.9194H299.262C296.161 25.9194 293.187 24.6883 290.994 22.4966C288.801 20.305 287.567 17.3321 287.565 14.2315V11.6879C287.567 8.58722 288.801 5.61439 290.994 3.42275C293.187 1.23111 296.161 -9.41825e-07 299.262 0L327.716 0C330.816 0 333.788 1.2314 335.98 3.4233C338.172 5.6152 339.404 8.58806 339.404 11.6879V34.3434Z" fill="#FFB701"/>
<path d="M304.45 12.6359C304.45 13.2129 304.278 13.777 303.958 14.2567C303.637 14.7365 303.182 15.1104 302.649 15.3313C302.116 15.5521 301.529 15.6098 300.963 15.4973C300.397 15.3847 299.877 15.1068 299.469 14.6988C299.061 14.2908 298.783 13.771 298.671 13.2051C298.558 12.6392 298.616 12.0526 298.837 11.5195C299.058 10.9864 299.432 10.5307 299.911 10.2102C300.391 9.88961 300.955 9.71851 301.532 9.71851C302.306 9.71851 303.048 10.0259 303.595 10.573C304.142 11.1201 304.45 11.8622 304.45 12.6359Z" fill="white"/>
<path d="M315.107 12.6359C315.107 13.2129 314.936 13.777 314.616 14.2567C314.295 14.7365 313.839 15.1104 313.306 15.3313C312.773 15.5521 312.187 15.6098 311.621 15.4973C311.055 15.3847 310.535 15.1068 310.127 14.6988C309.719 14.2908 309.441 13.771 309.329 13.2051C309.216 12.6392 309.274 12.0526 309.495 11.5195C309.715 10.9864 310.089 10.5307 310.569 10.2102C311.049 9.88961 311.613 9.71851 312.19 9.71851C312.964 9.71851 313.706 10.0259 314.253 10.573C314.8 11.1201 315.107 11.8622 315.107 12.6359Z" fill="white"/>
<path d="M325.801 12.6359C325.801 13.2129 325.63 13.777 325.31 14.2567C324.989 14.7365 324.533 15.1104 324 15.3313C323.467 15.5521 322.881 15.6098 322.315 15.4973C321.749 15.3847 321.229 15.1068 320.821 14.6988C320.413 14.2908 320.135 13.771 320.023 13.2051C319.91 12.6392 319.968 12.0526 320.189 11.5195C320.409 10.9864 320.783 10.5307 321.263 10.2102C321.743 9.88961 322.307 9.71851 322.884 9.71851C323.658 9.71851 324.4 10.0259 324.947 10.573C325.494 11.1201 325.801 11.8622 325.801 12.6359Z" fill="white"/>
<path opacity="0.51" d="M407.033 143.609L434.648 119.331H538.626C559.796 119.331 576.917 104.252 576.917 85.6533V78.3598C576.917 59.7521 559.769 44.6272 538.626 44.6272H445.36C424.191 44.6272 407.069 59.7066 407.069 78.3598L407.033 143.609Z" fill="#E1E8F0"/>
<path d="M476.996 65.9426H434.238V97.4871H476.996V65.9426Z" fill="#FFB701"/>
<path d="M434.22 65.4138L452.636 83.8208C453.424 84.6064 454.491 85.0475 455.603 85.0475C456.716 85.0475 457.783 84.6064 458.571 83.8208L477.106 65.2861L434.22 65.4138Z" fill="#FFE25E"/>
<path opacity="0.73" d="M473.468 90.8772H462.582C462.44 90.8772 462.303 90.8206 462.202 90.7197C462.101 90.6188 462.044 90.482 462.044 90.3393C462.047 90.1982 462.105 90.0638 462.205 89.9649C462.306 89.8659 462.441 89.8105 462.582 89.8105H473.468C473.608 89.8105 473.743 89.8663 473.842 89.9654C473.941 90.0646 473.997 90.1991 473.997 90.3393C473.998 90.4095 473.985 90.4793 473.959 90.5445C473.933 90.6097 473.894 90.6691 473.845 90.7191C473.796 90.7692 473.737 90.809 473.672 90.8361C473.608 90.8633 473.538 90.8772 473.468 90.8772Z" fill="white"/>
<path d="M448.807 87.8506H437.921C437.781 87.8506 437.646 87.7949 437.547 87.6957C437.448 87.5966 437.392 87.4621 437.392 87.3218C437.392 87.1807 437.448 87.0453 437.547 86.9447C437.646 86.844 437.78 86.7863 437.921 86.7839H448.807C448.948 86.7863 449.082 86.844 449.181 86.9447C449.28 87.0453 449.336 87.1807 449.335 87.3218C449.335 87.4621 449.28 87.5966 449.181 87.6957C449.081 87.7949 448.947 87.8506 448.807 87.8506Z" fill="white"/>
<path d="M448.807 90.6858H437.921C437.851 90.6858 437.781 90.6719 437.716 90.6447C437.652 90.6176 437.593 90.5778 437.544 90.5277C437.495 90.4777 437.456 90.4183 437.43 90.3531C437.404 90.2879 437.391 90.2181 437.392 90.1479C437.392 90.0077 437.448 89.8732 437.547 89.774C437.646 89.6748 437.781 89.6191 437.921 89.6191H448.807C448.947 89.6191 449.081 89.6748 449.18 89.774C449.28 89.8732 449.335 90.0077 449.335 90.1479C449.337 90.2181 449.324 90.2879 449.298 90.3531C449.272 90.4183 449.233 90.4777 449.184 90.5277C449.134 90.5778 449.076 90.6176 449.011 90.6447C448.946 90.6719 448.877 90.6858 448.807 90.6858Z" fill="white"/>
<path d="M552.676 74.8862H488.091C487.242 74.8838 486.428 74.5446 485.828 73.9431C485.228 73.3415 484.891 72.5266 484.891 71.6771C484.891 70.8284 485.229 70.0144 485.829 69.4143C486.429 68.8142 487.243 68.4771 488.091 68.4771H552.676C553.525 68.477 554.34 68.8139 554.942 69.4138C555.543 70.0136 555.882 70.8275 555.885 71.6771C555.882 72.5275 555.543 73.3423 554.942 73.9436C554.341 74.545 553.526 74.8838 552.676 74.8862Z" fill="white"/>
<path d="M522.289 85.2979H486.66C486.423 85.298 486.189 85.2505 485.97 85.1582C485.752 85.0659 485.555 84.9307 485.39 84.7606C485.225 84.5906 485.096 84.3891 485.01 84.1681C484.925 83.9472 484.884 83.7113 484.891 83.4745C484.891 83.0054 485.078 82.5555 485.41 82.2238C485.741 81.8921 486.191 81.7058 486.66 81.7058H522.289C522.521 81.7058 522.751 81.7516 522.966 81.8404C523.18 81.9293 523.375 82.0596 523.54 82.2238C523.704 82.3881 523.834 82.5831 523.923 82.7976C524.012 83.0122 524.058 83.2422 524.058 83.4745C524.065 83.7113 524.025 83.9472 523.939 84.1681C523.854 84.3891 523.724 84.5906 523.559 84.7606C523.394 84.9307 523.197 85.0659 522.979 85.1582C522.761 85.2505 522.526 85.298 522.289 85.2979Z" fill="white"/>
<path d="M522.289 93.0835H486.66C486.191 93.0835 485.741 92.8972 485.41 92.5655C485.078 92.2338 484.891 91.7839 484.891 91.3148C484.884 91.078 484.925 90.8421 485.01 90.6212C485.096 90.4002 485.225 90.1987 485.39 90.0287C485.555 89.8586 485.752 89.7234 485.97 89.6311C486.189 89.5388 486.423 89.4913 486.66 89.4915H522.289C522.526 89.4913 522.761 89.5388 522.979 89.6311C523.197 89.7234 523.394 89.8586 523.559 90.0287C523.724 90.1987 523.854 90.4002 523.939 90.6212C524.025 90.8421 524.065 91.078 524.058 91.3148C524.058 91.5471 524.012 91.7771 523.923 91.9917C523.834 92.2063 523.704 92.4012 523.54 92.5655C523.375 92.7297 523.18 92.86 522.966 92.9489C522.751 93.0378 522.521 93.0835 522.289 93.0835Z" fill="white"/>
<path d="M462.445 258.546H366.891L358.932 226.026H454.495L462.445 258.546Z" fill="#FFB701"/>
<path d="M388.956 235.916C391.439 235.916 393.953 237.825 394.595 240.224C395.238 242.623 393.748 244.532 391.265 244.532C388.782 244.532 386.268 242.623 385.626 240.224C384.983 237.825 386.473 235.916 388.956 235.916ZM391.022 243.626C392.973 243.626 394.087 242.109 393.582 240.224C393.077 238.339 391.15 236.822 389.199 236.822C387.248 236.822 386.134 238.339 386.639 240.224C387.144 242.109 389.071 243.626 391.022 243.626ZM401.816 236.063H402.817L405.047 244.385H404.211L396.942 237.825L398.7 244.385H397.699L395.469 236.063H396.279L403.597 242.708L401.816 236.063ZM411.575 243.491H416.326L416.566 244.385H410.814L408.583 236.063H409.584L411.575 243.491ZM415.908 236.063H416.909L419.139 244.385H418.138L415.908 236.063ZM425.596 236.063H426.597L428.827 244.385H427.991L420.722 237.825L422.48 244.385H421.479L419.248 236.063H420.059L427.377 242.708L425.596 236.063ZM435.218 236.957H430.189L430.953 239.808H435.476L435.715 240.701H431.192L431.94 243.491H436.97L437.209 244.385H431.179L428.948 236.063H434.979L435.218 236.957Z" fill="white"/>
<path d="M356.563 274.236C358.121 272.455 357.498 269.361 355.171 267.325C352.844 265.289 349.695 265.083 348.137 266.864C346.579 268.645 347.202 271.74 349.529 273.775C351.855 275.811 355.005 276.017 356.563 274.236Z" fill="#4F45E2"/>
<g style="mix-blend-mode:multiply">
<path d="M357.948 254.188C359.37 259.504 364.84 263.816 370.155 263.816C375.47 263.816 378.634 259.504 377.202 254.188C375.771 248.873 370.31 244.561 364.995 244.561C359.68 244.561 356.525 248.892 357.948 254.188Z" fill="#4F45E2"/>
</g>
<path d="M361.211 259.996L355.522 258.172C354.975 257.999 354.793 257.261 355.258 257.124L365.788 253.559C365.896 253.532 366.008 253.529 366.117 253.551C366.225 253.573 366.328 253.62 366.415 253.688C366.503 253.755 366.575 253.842 366.624 253.942C366.673 254.041 366.699 254.15 366.7 254.261L365.907 265.758C365.907 266.259 365.159 266.259 364.867 265.758L361.695 260.288C361.574 260.135 361.403 260.031 361.211 259.996Z" fill="#8FC6C6"/>
<path d="M23.493 274.384C29.3278 272.702 32.6943 266.609 31.0124 260.774C29.3305 254.939 23.237 251.573 17.4022 253.255C11.5674 254.937 8.20087 261.03 9.88279 266.865C11.5647 272.7 17.6582 276.066 23.493 274.384Z" fill="#FFB701"/>
<path d="M10.7575 237.614C10.7575 236.545 10.4404 235.499 9.84635 234.61C9.25229 233.721 8.40794 233.028 7.42007 232.619C6.43219 232.21 5.34516 232.103 4.29643 232.311C3.24771 232.52 2.28439 233.035 1.5283 233.791C0.772215 234.547 0.257312 235.51 0.0487077 236.559C-0.159897 237.608 -0.0528333 238.695 0.356359 239.683C0.765551 240.671 1.45849 241.515 2.34756 242.109C3.23662 242.703 4.28188 243.02 5.35115 243.02C6.785 243.02 8.16012 242.451 9.174 241.437C10.1879 240.423 10.7575 239.048 10.7575 237.614Z" fill="#FFB701"/>
<path d="M63.0612 38.4732C63.0612 37.404 62.7441 36.3587 62.1501 35.4696C61.556 34.5806 60.7117 33.8876 59.7238 33.4784C58.7359 33.0692 57.6489 32.9622 56.6001 33.1708C55.5514 33.3794 54.5881 33.8943 53.832 34.6504C53.0759 35.4065 52.561 36.3698 52.3524 37.4185C52.1438 38.4672 52.2509 39.5543 52.6601 40.5421C53.0693 41.53 53.7622 42.3744 54.6513 42.9684C55.5403 43.5625 56.5856 43.8796 57.6549 43.8796C59.088 43.8771 60.4617 43.3068 61.475 42.2934C62.4884 41.2801 63.0588 39.9063 63.0612 38.4732Z" fill="#FFB701"/>
<path d="M491.665 309.245C491.665 308.176 491.348 307.131 490.754 306.242C490.16 305.353 489.316 304.66 488.328 304.251C487.34 303.841 486.253 303.734 485.204 303.943C484.156 304.152 483.192 304.667 482.436 305.423C481.68 306.179 481.165 307.142 480.957 308.191C480.748 309.239 480.855 310.326 481.264 311.314C481.674 312.302 482.366 313.147 483.256 313.741C484.145 314.335 485.19 314.652 486.259 314.652C486.969 314.653 487.673 314.514 488.329 314.243C488.986 313.971 489.582 313.573 490.085 313.071C490.587 312.569 490.985 311.972 491.256 311.316C491.528 310.659 491.667 309.956 491.665 309.245Z" fill="#FFB701"/>
<path d="M449.071 140.154C449.071 139.085 448.754 138.04 448.16 137.151C447.566 136.261 446.721 135.569 445.734 135.159C444.746 134.75 443.659 134.643 442.61 134.852C441.561 135.06 440.598 135.575 439.842 136.331C439.086 137.087 438.571 138.051 438.362 139.099C438.154 140.148 438.261 141.235 438.67 142.223C439.079 143.211 439.772 144.055 440.661 144.649C441.55 145.243 442.595 145.56 443.665 145.56C444.375 145.562 445.078 145.423 445.735 145.151C446.391 144.88 446.988 144.482 447.49 143.98C447.992 143.477 448.391 142.881 448.662 142.224C448.933 141.568 449.072 140.864 449.071 140.154Z" fill="#FFB701"/>
<path d="M222.452 62.9248C227.608 62.9248 231.788 58.7451 231.788 53.5891C231.788 48.4332 227.608 44.2534 222.452 44.2534C217.296 44.2534 213.116 48.4332 213.116 53.5891C213.116 58.7451 217.296 62.9248 222.452 62.9248Z" fill="#FFB701"/>
</g>
<defs>
<clipPath id="clip0_1_7975">
<rect width="578" height="325" fill="white"/>
</clipPath>
</defs>
</svg>
