<svg width="89" height="82" viewBox="0 0 89 82" fill="none" xmlns="http://www.w3.org/2000/svg">
<path d="M78.2516 8.38788V70.1212C78.2508 72.1157 77.4581 74.0283 76.0478 75.4386C74.6375 76.849 72.7249 77.6416 70.7304 77.6424H7.58494C6.59701 77.6432 5.61863 77.4492 4.70575 77.0715C3.79287 76.6938 2.96343 76.1399 2.26486 75.4413C1.56629 74.7427 1.01231 73.9133 0.634618 73.0004C0.256924 72.0875 0.0629261 71.1091 0.0637231 70.1212V8.38788C0.0631254 7.40008 0.25727 6.42186 0.635054 5.50916C1.01284 4.59646 1.56685 3.76719 2.26539 3.06878C2.96394 2.37037 3.79332 1.81653 4.7061 1.43893C5.61888 1.06133 6.59714 0.867385 7.58494 0.868182H70.7304C72.7246 0.868985 74.637 1.66145 76.0473 3.07144C77.4576 4.48144 78.2504 6.39364 78.2516 8.38788Z" fill="#E1D9E1"/>
<path d="M78.2516 15.6045V8.38788C78.2504 6.39364 77.4576 4.48144 76.0473 3.07144C74.637 1.66145 72.7246 0.868985 70.7304 0.868182H7.58494C6.59714 0.867385 5.61888 1.06133 4.7061 1.43893C3.79332 1.81653 2.96394 2.37037 2.26539 3.06878C1.56684 3.76719 1.01284 4.59646 0.635053 5.50916C0.257269 6.42186 0.0631243 7.40008 0.0637221 8.38788V15.6045H78.2516Z" fill="#4F45E2"/>
<path d="M72.2425 24.8167V67.103C72.2425 68.3005 71.7668 69.449 70.92 70.2957C70.0733 71.1425 68.9248 71.6182 67.7273 71.6182H10.591C8.09096 71.6182 6.07581 69.603 6.07581 67.103V24.8152C6.07581 22.3152 8.09096 20.3015 10.591 20.3015H67.7273C68.9248 20.3015 70.0733 20.7772 70.92 21.624C71.7668 22.4707 72.2425 23.6192 72.2425 24.8167Z" fill="#F6F0F5"/>
<path d="M14.9986 8.23788C14.9978 8.99256 14.6976 9.71607 14.1638 10.2496C13.63 10.7831 12.9063 11.0829 12.1517 11.0833C11.4082 11.0662 10.7009 10.7588 10.1811 10.2269C9.66136 9.69498 9.37036 8.98081 9.37036 8.23712C9.37036 7.49343 9.66136 6.77926 10.1811 6.24736C10.7009 5.71546 11.4082 5.40806 12.1517 5.39091C13.7274 5.39091 14.9986 6.66212 14.9986 8.23788ZM24.2107 8.23788C24.1814 8.97306 23.8686 9.66835 23.3381 10.1781C22.8075 10.6879 22.1003 10.9726 21.3645 10.9726C20.6288 10.9726 19.9215 10.6879 19.391 10.1781C18.8604 9.66835 18.5477 8.97306 18.5183 8.23788C18.5183 6.66212 19.788 5.39091 21.3638 5.39091C22.9395 5.39091 24.2107 6.66212 24.2107 8.23788ZM70.1698 8.23788C70.169 8.99256 69.8688 9.71607 69.335 10.2496C68.8012 10.7831 68.0776 11.0829 67.3229 11.0833H42.5001C41.7567 11.0662 41.0494 10.7588 40.5296 10.2269C40.0099 9.69498 39.7188 8.98081 39.7188 8.23712C39.7188 7.49343 40.0099 6.77926 40.5296 6.24736C41.0494 5.71546 41.7567 5.40806 42.5001 5.39091H67.3244C68.9001 5.39091 70.1698 6.66212 70.1698 8.23788ZM33.4092 8.23788C33.4088 8.99032 33.1106 9.71201 32.5797 10.2452C32.0487 10.7784 31.3283 11.0797 30.5759 11.0833C29.821 11.0833 29.0969 10.7836 28.5628 10.2501C28.0287 9.71656 27.7282 8.99282 27.7274 8.23788C27.7274 7.48442 28.0267 6.76183 28.5595 6.22905C29.0923 5.69628 29.8149 5.39697 30.5683 5.39697C31.3218 5.39697 32.0444 5.69628 32.5772 6.22905C33.1099 6.76183 33.4092 7.48442 33.4092 8.23788Z" fill="white"/>
<path d="M41.7274 42.5667V36.8091C41.7274 36.5924 41.5759 36.4061 41.3638 36.3636L39.0668 35.903C38.9885 35.8868 38.9159 35.8498 38.8568 35.796C38.7976 35.7421 38.754 35.6734 38.7304 35.597C38.4981 34.8556 38.2021 34.1358 37.8456 33.4455C37.8079 33.3748 37.79 33.2953 37.7938 33.2153C37.7975 33.1353 37.8227 33.0578 37.8668 32.9909L39.1623 31.0455C39.22 30.9585 39.2458 30.8542 39.2353 30.7503C39.2248 30.6464 39.1787 30.5494 39.1047 30.4758L35.0335 26.4045C34.9598 26.3306 34.8628 26.2844 34.7589 26.2739C34.655 26.2634 34.5507 26.2892 34.4638 26.347L32.5183 27.6424C32.4515 27.6865 32.3739 27.7117 32.294 27.7155C32.214 27.7192 32.1344 27.7013 32.0638 27.6636C31.3735 27.3072 30.6536 27.0111 29.9123 26.7788C29.8356 26.7551 29.7668 26.7113 29.7129 26.6518C29.6591 26.5924 29.6222 26.5195 29.6062 26.4409L29.1456 24.1439C29.1252 24.0413 29.0698 23.9489 28.9888 23.8825C28.9078 23.8162 28.8063 23.7801 28.7016 23.7803H22.9441C22.7274 23.7803 22.5426 23.9318 22.5001 24.1439L22.038 26.4409C22.022 26.5195 21.9851 26.5924 21.9313 26.6518C21.8774 26.7113 21.8086 26.7551 21.732 26.7788C20.985 27.0152 20.2653 27.3091 19.5804 27.6636C19.5098 27.7013 19.4302 27.7192 19.3503 27.7155C19.2703 27.7117 19.1928 27.6865 19.1259 27.6424L17.182 26.347C17.0948 26.2888 16.9902 26.2628 16.886 26.2733C16.7818 26.2838 16.6845 26.3302 16.6107 26.4045L12.5395 30.4758C12.388 30.6273 12.3638 30.8667 12.482 31.0455L13.7774 32.9909C13.8683 33.1273 13.8744 33.3 13.8001 33.4455C13.4431 34.1357 13.1466 34.8556 12.9138 35.597C12.8902 35.6734 12.8466 35.7421 12.7874 35.796C12.7283 35.8498 12.6557 35.8868 12.5774 35.903L10.2789 36.3636C10.1762 36.384 10.0838 36.4394 10.0175 36.5204C9.95117 36.6014 9.91504 36.7029 9.91528 36.8076V42.5652C9.91528 42.7818 10.0683 42.9667 10.2789 43.0091L12.5774 43.4712C12.738 43.503 12.8653 43.6212 12.9138 43.7773C13.1501 44.5242 13.4441 45.2439 13.8001 45.9288C13.8759 46.0742 13.8683 46.247 13.7774 46.3833L12.482 48.3273C12.4238 48.4144 12.3978 48.519 12.4083 48.6232C12.4188 48.7274 12.4652 48.8247 12.5395 48.8985L16.6107 52.9697C16.7623 53.1212 17.0016 53.1455 17.182 53.0273L19.1259 51.7318C19.1926 51.6875 19.2701 51.662 19.35 51.658C19.43 51.654 19.5096 51.6717 19.5804 51.7091C20.2653 52.0652 20.985 52.3606 21.732 52.5955C21.888 52.6439 22.0047 52.7712 22.038 52.9318L22.5001 55.2303C22.5426 55.4409 22.7274 55.5939 22.9426 55.5939H28.7001C28.9168 55.5939 29.1032 55.4409 29.1456 55.2303L29.6062 52.9318C29.638 52.7712 29.7562 52.6439 29.9123 52.5955C30.6592 52.3591 31.3789 52.0652 32.0638 51.7091C32.1346 51.6717 32.2142 51.654 32.2942 51.658C32.3742 51.662 32.4516 51.6875 32.5183 51.7318L34.4638 53.0273C34.5507 53.085 34.655 53.1108 34.7589 53.1003C34.8628 53.0898 34.9598 53.0437 35.0335 52.9697L39.1047 48.8985C39.2562 48.747 39.2819 48.5076 39.1623 48.3273L37.8668 46.3833C37.8227 46.3165 37.7975 46.239 37.7938 46.159C37.79 46.079 37.8079 45.9995 37.8456 45.9288C38.2001 45.2439 38.4941 44.5242 38.7304 43.7773C38.754 43.7008 38.7976 43.6321 38.8568 43.5783C38.9159 43.5244 38.9885 43.4875 39.0668 43.4712L41.3653 43.0091C41.5774 42.9667 41.7274 42.7818 41.7274 42.5667Z" fill="#239FFD"/>
<path d="M25.8228 48.1727C30.5097 48.1727 34.3092 44.3733 34.3092 39.6864C34.3092 34.9995 30.5097 31.2 25.8228 31.2C21.1359 31.2 17.3364 34.9995 17.3364 39.6864C17.3364 44.3733 21.1359 48.1727 25.8228 48.1727Z" fill="white"/>
<path d="M66.1258 29.8273H47.5046C47.0847 29.8273 46.682 29.6605 46.385 29.3635C46.0881 29.0666 45.9213 28.6639 45.9213 28.2439V27.9909C45.9213 27.1167 46.6304 26.4076 47.5061 26.4076H66.1258C67.0001 26.4076 67.7092 27.1167 67.7092 27.9909V28.2439C67.7092 29.1182 67.0001 29.8273 66.1258 29.8273ZM66.1258 36.4864H47.5046C47.0847 36.4864 46.682 36.3196 46.385 36.0226C46.0881 35.7257 45.9213 35.323 45.9213 34.903V34.6515C45.9213 33.7758 46.6304 33.0667 47.5061 33.0667H66.1258C67.0001 33.0667 67.7092 33.7758 67.7092 34.6515V34.903C67.7092 35.7788 67.0001 36.4864 66.1258 36.4864ZM38.9349 65.3121H12.8864C12.6784 65.3121 12.4724 65.2711 12.2802 65.1915C12.088 65.1118 11.9134 64.995 11.7663 64.8478C11.6193 64.7007 11.5027 64.5259 11.4232 64.3337C11.3437 64.1414 11.3029 63.9353 11.3031 63.7273V63.4742C11.3031 62.6 12.0122 61.8909 12.8864 61.8909H38.9349C39.8107 61.8909 40.5198 62.6 40.5198 63.4742V63.7273C40.5198 64.6015 39.8107 65.3106 38.9349 65.3106V65.3121ZM66.1258 43.147H47.5046C47.0847 43.147 46.682 42.9802 46.385 42.6832C46.0881 42.3863 45.9213 41.9836 45.9213 41.5636V41.3106C45.9213 40.4364 46.6304 39.7273 47.5061 39.7273H66.1258C67.0001 39.7273 67.7092 40.4364 67.7092 41.3106V41.5636C67.7092 42.4379 67.0001 43.147 66.1258 43.147Z" fill="#E1D9E1"/>
<path d="M72.2425 60.0606V67.103C72.2425 68.3005 71.7668 69.449 70.92 70.2957C70.0733 71.1425 68.9248 71.6182 67.7273 71.6182H60.9197L56.0713 68.7C55.8431 68.5694 55.5841 68.5025 55.3213 68.5061C55.0303 68.5061 54.7106 68.5758 54.391 68.7136C52.424 69.628 50.2812 70.1022 48.1122 70.103C46.4294 70.1063 44.7594 69.8103 43.1803 69.2288C37.4152 67.2409 33.3591 62.047 32.9288 56.0167C32.8892 55.5307 32.9502 55.0417 33.1079 54.5803C33.2656 54.1189 33.5167 53.6949 33.8455 53.3348C34.1701 52.9848 34.5634 52.7055 35.0009 52.5144C35.4383 52.3233 35.9105 52.2245 36.3879 52.2242C37.0122 52.2242 37.6379 52.4061 38.1788 52.7242L44.4303 56.4894L48.1394 54.753L47.9167 50.6409L41.6803 46.8909C41.1131 46.5451 40.6554 46.0455 40.3604 45.4502C40.0654 44.8549 39.9452 44.1881 40.0137 43.5273C40.0742 42.918 40.3021 42.3373 40.6722 41.8496C41.0423 41.3618 41.5402 40.986 42.1107 40.7636C44.0273 39.9351 46.0938 39.5096 48.1819 39.5136C50.9455 39.5136 53.6546 40.2636 56.0303 41.6955C58.1445 42.9683 59.9218 44.7304 61.2128 46.8335C62.5037 48.9366 63.2705 51.319 63.4485 53.7803C63.4622 54.2106 63.5728 54.8364 64.1849 55.2121L72.2425 60.0606Z" fill="#103635" fill-opacity="0.0627451"/>
<path d="M53.2759 66.1697C54.6623 65.5606 56.2183 65.547 57.5092 66.3227L80.8789 80.4015C82.0362 81.0987 83.4231 81.3076 84.7344 80.9823C86.0458 80.6569 87.1741 79.824 87.8713 78.6667C88.5685 77.5094 88.7774 76.1225 88.4521 74.8112C88.1268 73.4998 87.2938 72.3714 86.1365 71.6742L62.7577 57.5909C61.4653 56.8136 60.7335 55.4591 60.6729 53.9803C60.5285 51.9629 59.9016 50.0098 58.8447 48.2853C57.7879 46.5608 56.3322 45.1156 54.6001 44.0712C52.8891 43.0426 50.9563 42.4395 48.9639 42.3127C46.9715 42.1859 44.9778 42.539 43.1501 43.3424C42.6653 43.5076 42.6486 44.2364 43.1123 44.5152L50.2941 48.8333C50.3937 48.888 50.4772 48.9678 50.5362 49.0649C50.5952 49.1619 50.6277 49.2728 50.6304 49.3864L50.982 55.9985C50.9997 56.1393 50.9697 56.2821 50.8966 56.4038C50.8235 56.5256 50.7116 56.6192 50.5789 56.6697L44.5577 59.4879C44.3607 59.5818 44.1607 59.5652 43.9274 59.4258L36.7456 55.1076C36.2547 54.8136 35.6441 55.1833 35.6895 55.8106C36.032 60.447 39.0683 64.8758 44.1395 66.6227C47.1365 67.7212 50.441 67.4909 53.2759 66.1697Z" fill="#014140"/>
<path d="M83.6894 78.6288C85.0618 78.6288 86.1743 77.5163 86.1743 76.1439C86.1743 74.7716 85.0618 73.6591 83.6894 73.6591C82.3171 73.6591 81.2046 74.7716 81.2046 76.1439C81.2046 77.5163 82.3171 78.6288 83.6894 78.6288Z" fill="white"/>
</svg>
