<svg width="20" height="25" viewBox="0 0 20 25" fill="none" xmlns="http://www.w3.org/2000/svg">
<circle cx="0.706257" cy="24.3533" r="0.646687" transform="rotate(-90 0.706257 24.3533)" fill="#4F45E2"/>
<circle cx="6.39693" cy="24.3533" r="0.646687" transform="rotate(-90 6.39693 24.3533)" fill="#4F45E2"/>
<circle cx="12.0881" cy="24.3533" r="0.646687" transform="rotate(-90 12.0881 24.3533)" fill="#4F45E2"/>
<circle cx="17.7788" cy="24.3533" r="0.646687" transform="rotate(-90 17.7788 24.3533)" fill="#4F45E2"/>
<circle cx="0.706257" cy="18.6624" r="0.646687" transform="rotate(-90 0.706257 18.6624)" fill="#4F45E2"/>
<circle cx="6.39693" cy="18.6624" r="0.646687" transform="rotate(-90 6.39693 18.6624)" fill="#4F45E2"/>
<circle cx="12.0881" cy="18.6624" r="0.646687" transform="rotate(-90 12.0881 18.6624)" fill="#4F45E2"/>
<circle cx="17.7788" cy="18.6624" r="0.646687" transform="rotate(-90 17.7788 18.6624)" fill="#4F45E2"/>
<circle cx="0.706257" cy="12.9716" r="0.646687" transform="rotate(-90 0.706257 12.9716)" fill="#4F45E2"/>
<circle cx="6.39693" cy="12.9716" r="0.646687" transform="rotate(-90 6.39693 12.9716)" fill="#4F45E2"/>
<circle cx="12.0881" cy="12.9716" r="0.646687" transform="rotate(-90 12.0881 12.9716)" fill="#4F45E2"/>
<circle cx="17.7788" cy="12.9716" r="0.646687" transform="rotate(-90 17.7788 12.9716)" fill="#4F45E2"/>
<circle cx="0.706257" cy="7.2808" r="0.646687" transform="rotate(-90 0.706257 7.2808)" fill="#4F45E2"/>
<circle cx="6.39693" cy="7.2808" r="0.646687" transform="rotate(-90 6.39693 7.2808)" fill="#4F45E2"/>
<circle cx="12.0881" cy="7.2808" r="0.646687" transform="rotate(-90 12.0881 7.2808)" fill="#4F45E2"/>
<circle cx="17.7788" cy="7.2808" r="0.646687" transform="rotate(-90 17.7788 7.2808)" fill="#4F45E2"/>
<circle cx="0.706257" cy="1.58989" r="0.646687" transform="rotate(-90 0.706257 1.58989)" fill="#4F45E2"/>
<circle cx="6.39693" cy="1.58989" r="0.646687" transform="rotate(-90 6.39693 1.58989)" fill="#4F45E2"/>
<circle cx="12.0881" cy="1.58989" r="0.646687" transform="rotate(-90 12.0881 1.58989)" fill="#4F45E2"/>
<circle cx="17.7788" cy="1.58989" r="0.646687" transform="rotate(-90 17.7788 1.58989)" fill="#4F45E2"/>
</svg>
