<svg width="180" height="158" viewBox="0 0 180 158" fill="none" xmlns="http://www.w3.org/2000/svg">
<g filter="url(#filter0_d_1_828)">
<path d="M24.7699 29.8289C18.5365 41.0527 13.6844 53.4108 13.5144 66.2482C13.3195 80.9712 19.3116 95.1696 27.2697 107.558C36.3326 121.667 48.3065 134.216 63.1519 142.014C77.9973 149.812 95.8874 152.508 111.846 147.359C135.45 139.744 144.803 120.196 157.931 101.456C164.383 92.246 167.045 84.612 165.719 72.8636C164.426 61.4006 159.729 50.357 153.252 40.8828C139.917 21.3779 119.111 6.78182 95.8999 2.37047C82.2103 -0.2301 67.8171 0.87473 54.6737 5.49797C40.9071 10.3388 31.7683 17.2272 24.7699 29.8289Z" fill="#DCE2FC"/>
<path d="M45.473 109.499C61.8228 109.499 75.0768 97.6648 75.0768 83.0669C75.0768 68.469 61.8228 56.635 45.473 56.635C29.1232 56.635 15.8691 68.469 15.8691 83.0669C15.8691 97.6648 29.1232 109.499 45.473 109.499Z" fill="white"/>
<path d="M136.4 109.499C152.75 109.499 166.004 97.6648 166.004 83.0669C166.004 68.469 152.75 56.635 136.4 56.635C120.05 56.635 106.796 68.469 106.796 83.0669C106.796 97.6648 120.05 109.499 136.4 109.499Z" fill="white"/>
<path d="M100.559 53.6825C101.418 48.6964 102.169 43.6929 103.06 38.7109C103.577 35.8209 105.108 33.7402 107.124 31.9352C108.372 30.8174 108.869 29.7611 108.696 28.0403C108.31 24.213 109.412 22.9393 113.27 22.1291C116.494 21.4523 119.721 20.7098 123.035 20.7806C125.999 20.8442 128.584 21.6861 129.438 24.9996C129.59 25.5883 129.936 25.8344 130.418 26.0251C131.124 26.3041 131.848 26.5461 132.536 26.8619C134.994 27.99 137.404 29.1499 139.033 31.4984C139.746 32.5259 140.737 33.372 141.656 34.2427C149.216 41.4121 155.96 49.3076 162.368 57.5026C162.575 57.7682 162.82 58.0041 163.054 58.2482C175.005 70.7463 176.006 89.819 164.89 104.145C153.39 118.966 132.145 123.616 115.857 114.635C104.017 108.106 97.8118 97.8981 97.5893 84.3242C97.5514 81.985 96.5525 80.5513 95.1301 79.0899C93.7518 77.6737 92.0433 76.9866 90.1091 77.0984C87.7063 77.2378 85.4358 77.7311 84.0318 80.0724C83.5714 80.8405 83.3806 81.5635 83.3663 82.4311C83.0843 100.311 69.4222 115.644 51.014 118.614C39.0615 120.543 28.2966 117.683 19.3058 109.465C5.89394 97.2048 4.4705 77.1199 15.8497 62.4046C18.0259 59.5906 19.9816 56.6432 21.8327 53.6364C24.8016 48.8143 28.0309 44.1687 31.1403 39.4441C32.8581 36.8342 34.6138 34.1104 37.2925 32.4511C39.5353 31.0615 41.17 29.6637 41.4561 26.8404C41.6151 25.2693 43.1421 24.5268 44.6404 24.3679C48.5968 23.9494 52.5667 23.892 56.5252 24.4079C57.0215 24.4725 57.5015 24.6766 57.9814 24.8396C59.9125 25.499 61.2036 26.6845 61.179 28.8802C61.1647 30.1672 61.6005 31.0112 62.8773 31.6019C65.9682 33.0336 68.0234 35.3533 69.335 38.6268C71.9132 45.0579 74.3098 51.5381 76.2748 58.1805C76.5311 59.047 76.808 59.9085 77.128 60.9391C78.2838 60.2613 79.2775 59.6685 80.2805 59.0952C80.8025 58.7968 80.8917 58.3497 80.8291 57.8062C80.742 57.0514 80.6476 56.2935 80.6179 55.5346C80.542 53.6189 81.1768 52.5698 83.0648 52.296C87.6704 51.6284 92.3109 51.3341 96.9586 51.8715C98.1533 52.0099 99.2896 52.3791 99.829 53.6446C99.9952 55.1849 99.3132 56.754 100.006 58.7076C100.47 56.7847 100.699 55.2557 100.559 53.6825ZM25.6261 52.8888C25.5615 53.0303 25.4979 53.1718 25.4333 53.3133C25.8425 53.4333 26.1214 53.221 26.3747 52.9441C42.5955 43.9646 58.0225 45.265 72.9828 57.0176C70.8169 49.8635 68.5054 43.3709 65.478 37.1429C65.0494 36.2609 64.2535 35.7717 63.5059 35.2241C58.1383 31.2871 52.1811 30.961 45.8628 32.0706C41.0849 32.9095 37.3868 35.1236 34.7358 39.1888C31.7403 43.7821 28.6657 48.3242 25.6261 52.8888ZM138.008 116.256C145.158 116.141 154.595 111.911 161.906 103.295C175.688 87.0521 171.557 61.4273 149.247 52.3432C135.707 46.83 119.032 50.7557 109.304 61.7062C101.287 70.7288 98.2672 81.182 101.565 92.9745C105.491 107.017 118.638 116.36 138.008 116.256ZM48.5661 116.261C55.9345 116.148 65.4452 111.876 72.7603 103.134C86.7197 86.4553 81.868 60.4346 59.2705 52.1801C45.1685 47.0289 32.1259 50.0276 21.3445 60.452C12.1517 69.3403 8.85873 80.4159 12.285 92.9263C16.1369 106.989 29.3169 116.341 48.5661 116.261ZM152.84 50.3701C152.478 49.9096 152.113 49.4502 151.752 48.9897C146.881 42.7843 140.767 37.7499 135.57 31.8491C135.084 31.2973 134.362 30.9322 133.706 30.5528C126.505 26.3871 119.433 27.4137 112.517 31.243C108.449 33.495 106.003 36.9418 105.244 41.6264C103.946 49.6358 103.003 57.6852 102.182 65.752C102.156 66.0032 102.241 66.0852 102.62 65.9273C107.804 57.6503 115.151 51.8827 124.649 48.9251C134.164 45.9634 143.471 46.6771 152.84 50.3701ZM98.8415 69.0131C99.1194 66.9775 99.3204 65.1633 99.6291 63.3676C99.8465 62.1041 99.2845 61.5534 98.1697 61.1443C94.5353 59.8111 90.788 59.3014 86.9874 59.8818C84.2451 60.3003 81.5562 61.1166 79.3513 62.9728C78.8478 63.3963 78.2715 63.8147 78.6991 64.6546C79.6405 66.5016 80.545 68.367 81.4772 70.2499C87.0028 66.0545 92.718 65.9068 98.8415 69.0131ZM83.1396 76.4215C88.3144 73.5172 93.3005 73.1563 97.8293 77.7178C99.2537 74.3274 98.7348 72.0928 95.9915 70.8252C92.1612 69.0552 88.295 69.2213 84.6615 71.4354C82.6351 72.6701 82.3572 73.8577 83.1396 76.4215ZM96.9945 55.8638C97.2652 54.6978 96.3741 54.5501 95.5136 54.4486C91.8115 54.0138 88.1401 54.6834 84.4544 54.8096C83.1786 54.8537 83.4155 55.8608 83.4791 56.6935C83.5539 57.6739 84.1129 57.6872 84.8861 57.4596C88.3698 56.433 91.8648 56.794 95.3608 57.4154C96.9278 57.6954 97.0273 57.5908 96.9945 55.8638ZM126.658 25.1647C125.103 23.5136 123.618 23.4695 122.149 23.5403C119.201 23.6818 116.308 24.251 113.433 24.8735C111.465 25.2991 111.239 25.7923 111.648 28.3582C116.215 26.0241 121.042 24.9216 126.658 25.1647ZM58.487 29.3396C58.1199 27.5388 56.9682 27.347 55.9273 27.1604C52.4969 26.5451 49.0358 26.7471 45.5931 27.0066C44.0938 27.1194 43.984 27.466 44.0158 29.5673C48.7414 28.5612 53.4835 28.43 58.487 29.3396Z" fill="black"/>
<path d="M45.3481 10.1808C45.2896 10.9397 44.8989 11.3417 44.4077 11.716C42.5576 13.1292 41.1619 14.8777 40.4727 17.1441C40.2153 17.9902 39.7364 18.7306 38.7796 18.8116C37.9223 18.8844 37.4597 18.2219 37.0301 17.5677C35.6087 15.4018 34.4591 13.041 32.0481 11.6555C31.1138 11.1192 31.1425 10.1511 31.9824 9.30296C34.1627 7.10116 35.7881 4.60399 36.0373 1.3982C36.0958 0.651615 36.5337 0.119368 37.2895 0.0147642C38.072 -0.092916 38.5468 0.401392 38.8247 1.07414C39.1139 1.77252 39.3231 2.50576 39.6298 3.19492C40.6409 5.46851 42.0336 7.45393 44.1995 8.76968C44.821 9.1481 45.2712 9.55317 45.3481 10.1808ZM41.5444 10.4095C40.0072 9.03222 38.9221 7.57597 37.7705 6.13306C37.0157 7.296 36.343 8.35229 35.6476 9.3932C35.3708 9.80752 34.9708 10.2034 35.4948 10.6751C36.6445 11.7088 37.35 13.1415 38.5294 14.4624C39.3795 12.8123 40.3712 11.6914 41.5444 10.4095Z" fill="black"/>
<path d="M175.332 41.3137C175.281 42.0316 174.858 42.5382 174.374 43.0151C171.991 45.3707 169.915 47.9724 167.977 50.7065C166.232 53.1688 164.497 53.0642 163.292 50.3896C162.466 48.557 161.527 47.2618 159.41 46.6957C157.465 46.1747 157.178 42.9525 159.004 41.1661C160.951 39.2606 162.477 37.1706 163.646 34.7206C164.641 32.6357 166.187 32.6337 167.263 34.6386C167.894 35.8128 168.32 37.0927 169.39 37.9828C170.557 38.9519 171.495 40.2318 173.425 39.6154C174.563 39.2524 175.288 40.0749 175.332 41.3137ZM166.017 46.991C166.972 45.823 167.614 44.9072 168.388 44.1216C169.349 43.1463 169.059 42.5628 168.13 41.7188C165.615 39.4349 165.654 39.3744 163.36 42.009C162.956 42.4726 162.278 42.7505 162.226 43.6273C163.745 44.2857 164.812 45.5625 166.017 46.991Z" fill="black"/>
<path d="M20.5138 38.6792C18.5356 40.8697 17.7654 44.1955 16.0333 47.0095C15.3595 48.1048 13.61 47.9756 12.9301 46.6855C11.3251 43.6417 8.68748 41.9486 5.8437 40.3487C4.47462 39.5786 4.27772 38.4454 5.37401 37.3388C7.50402 35.1893 9.43919 32.9752 10.7221 30.1725C11.2564 29.0054 12.9167 29.0167 13.8356 30.1714C15.7041 32.5219 17.386 35.014 19.9795 36.6825C20.4615 36.9932 20.5795 37.5952 20.5138 38.6792ZM14.2325 41.6799C16.3297 38.2136 16.3297 38.2136 12.3619 35.0796C11.562 36.0897 10.7631 37.0988 9.9017 38.1869C11.3867 39.3847 12.7363 40.4738 14.2325 41.6799Z" fill="black"/>
<path d="M161.739 25.4366C160.937 25.3905 160.319 25.09 160.041 24.4193C159.352 22.7538 158.278 21.3889 157.053 20.0854C156.056 19.024 156.195 17.8744 157.551 17.1934C159.357 16.2869 160.33 14.9096 160.977 13.0718C161.457 11.711 162.587 11.5428 163.479 12.6524C164.787 14.2809 165.623 16.2612 167.245 17.6734C167.652 18.0272 167.606 18.6548 167.241 19.065C165.562 20.9499 163.988 22.9107 162.559 24.9936C162.392 25.2377 161.982 25.3125 161.739 25.4366ZM162.595 16.5709C161.759 17.4796 160.94 18.3677 160.129 19.2486C160.722 19.9388 160.99 20.6792 161.712 21.0105C164.142 18.6374 164.142 18.6374 162.595 16.5709Z" fill="black"/>
<path d="M100.559 53.6827C100.699 55.2559 100.469 56.7849 100.009 58.7129C99.3153 56.7583 99.9972 55.1892 99.8311 53.6499C100.074 53.6612 100.317 53.6715 100.559 53.6827Z" fill="#EBE0D4"/>
<path d="M138.008 116.256C118.637 116.36 105.491 107.017 101.564 92.9736C98.2671 81.181 101.287 70.7279 109.303 61.7053C119.031 50.7547 135.707 46.829 149.246 52.3422C171.556 61.4263 175.687 87.0522 161.905 103.294C154.595 111.911 145.158 116.141 138.008 116.256ZM164.539 82.6568C164.39 63.3707 147.477 52.0325 132.006 54.5789C118.027 56.8792 106.922 68.7548 106.261 82.867C105.35 102.285 121.757 115.034 138.376 112.641C153.097 110.523 164.555 97.5392 164.539 82.6568Z" fill="#4F45E2"/>
<path d="M48.566 116.261C29.3169 116.341 16.1368 106.989 12.2849 92.9263C8.85867 80.417 12.1516 69.3413 21.3444 60.452C32.1258 50.0286 45.1674 47.0289 59.2705 52.1801C81.8679 60.4346 86.7197 86.4553 72.7602 103.134C65.4451 111.876 55.9344 116.148 48.566 116.261ZM16.3112 83.2905C16.3224 89.3688 18.0535 95.1845 21.7198 99.8609C29.7035 110.045 40.2264 113.717 52.7625 110.942C69.7667 107.177 79.7133 89.5441 74.1744 73.4752C69.1555 58.9168 52.9604 50.8634 37.759 55.3664C24.9912 59.1476 16.2876 70.4796 16.3112 83.2905Z" fill="#4F45E2"/>
<path d="M152.84 50.3701C143.47 46.6772 134.164 45.9635 124.65 48.9262C115.152 51.8838 107.804 57.6514 102.621 65.9284C102.241 66.0863 102.157 66.0033 102.183 65.753C103.004 57.6862 103.947 49.6359 105.245 41.6275C106.004 36.9429 108.451 33.4961 112.518 31.2441C119.434 27.4158 126.505 26.3892 133.707 30.5539C134.363 30.9323 135.085 31.2984 135.571 31.8502C140.768 37.7511 146.881 42.7853 151.754 48.9908C152.115 49.4502 152.478 49.9097 152.84 50.3701Z" fill="#EBE0D4"/>
<path d="M25.6262 52.8889C28.6659 48.3243 31.7404 43.7822 34.736 39.1879C37.3869 35.1227 41.084 32.9075 45.8629 32.0697C52.1822 30.9611 58.1385 31.2872 63.5061 35.2232C64.2537 35.7708 65.0485 36.26 65.4782 37.142C68.5065 43.37 70.8181 49.8636 72.983 57.0167C58.0226 45.2641 42.5956 43.9648 26.38 52.9391C26.1318 52.9197 25.8795 52.9043 25.6262 52.8889Z" fill="#EBE0D4"/>
<path d="M98.8416 69.0131C92.7182 65.9068 87.0039 66.0545 81.4763 70.2509C80.5441 68.3681 79.6396 66.5026 78.6982 64.6557C78.2705 63.8158 78.8469 63.3973 79.3504 62.9738C81.5563 61.1176 84.2442 60.3013 86.9865 59.8828C90.7871 59.3024 94.5354 59.8121 98.1688 61.1453C99.2836 61.5545 99.8456 62.1062 99.6281 63.3686C99.3205 65.1633 99.1195 66.9774 98.8416 69.0131Z" fill="#4F45E2"/>
<path d="M83.1396 76.4216C82.3571 73.8578 82.635 72.6702 84.6625 71.4344C88.2959 69.2203 92.1622 69.0542 95.9925 70.8243C98.7358 72.0918 99.2537 74.3275 97.8302 77.7168C93.3005 73.1563 88.3144 73.5173 83.1396 76.4216Z" fill="#4F45E2"/>
<path d="M96.9944 55.8637C97.0272 57.5907 96.9267 57.6953 95.3597 57.4164C91.8637 56.7939 88.3687 56.4329 84.885 57.4605C84.1118 57.6881 83.5529 57.6748 83.478 56.6944C83.4144 55.8617 83.1775 54.8546 84.4533 54.8105C88.14 54.6834 91.8104 54.0137 95.5125 54.4495C96.374 54.55 97.2652 54.6977 96.9944 55.8637Z" fill="#4F45E2"/>
<path d="M126.658 25.1646C121.042 24.9216 116.215 26.023 111.649 28.3571C111.239 25.7923 111.466 25.299 113.434 24.8724C116.309 24.2499 119.202 23.6807 122.15 23.5392C123.618 23.4694 125.104 23.5135 126.658 25.1646Z" fill="#4F45E2"/>
<path d="M58.487 29.3397C53.4834 28.4301 48.7414 28.5613 44.0158 29.5674C43.984 27.4661 44.0937 27.1195 45.593 27.0067C49.0357 26.7472 52.4979 26.5441 55.9272 27.1605C56.9681 27.3461 58.1198 27.5379 58.487 29.3397Z" fill="#4F45E2"/>
<path d="M25.6262 52.8889C25.8795 52.9043 26.1328 52.9197 26.3799 52.9391C26.1215 53.2212 25.8415 53.4324 25.4333 53.3125C25.4969 53.172 25.5615 53.0304 25.6262 52.8889Z" fill="#4F45E2"/>
<path d="M41.5442 10.4095C40.371 11.6904 39.3794 12.8123 38.5282 14.4624C37.3488 13.1415 36.6433 11.7088 35.4936 10.6751C34.9696 10.2044 35.3696 9.80854 35.6464 9.3932C36.3418 8.3523 37.0145 7.296 37.7693 6.13306C38.922 7.57597 40.007 9.03222 41.5442 10.4095Z" fill="#F6F6AE"/>
<path d="M145.85 14.2828C145.791 15.0417 145.4 15.4438 144.909 15.8181C143.059 17.2312 141.663 18.9798 140.974 21.2462C140.717 22.0922 140.237 22.8327 139.281 22.9137C138.424 22.9865 137.961 22.324 137.532 21.6697C136.11 19.5038 134.961 17.143 132.55 15.7576C131.615 15.2212 131.644 14.2531 132.484 13.405C134.664 11.2032 136.29 8.70604 136.539 5.50025C136.597 4.75367 137.035 4.22142 137.791 4.11681C138.573 4.00913 139.048 4.50344 139.326 5.17619C139.615 5.87457 139.825 6.60782 140.131 7.29697C141.142 9.57056 142.535 11.556 144.701 12.8717C145.322 13.2502 145.773 13.6552 145.85 14.2828ZM142.046 14.5115C140.509 13.1343 139.424 11.678 138.272 10.2351C137.517 11.3981 136.844 12.4543 136.149 13.4953C135.872 13.9096 135.472 14.3054 135.996 14.7772C137.146 15.8109 137.851 17.2435 139.031 18.5644C139.881 16.9144 140.873 15.7935 142.046 14.5115Z" fill="black"/>
<path d="M142.046 14.5115C140.873 15.7924 139.881 16.9144 139.03 18.5644C137.851 17.2435 137.145 15.8109 135.995 14.7772C135.471 14.3064 135.871 13.9106 136.148 13.4953C136.843 12.4543 137.516 11.3981 138.271 10.2351C139.424 11.678 140.509 13.1343 142.046 14.5115Z" fill="#F6F6AE"/>
<path d="M166.173 48.3056C164.513 46.3386 163.043 44.5799 160.952 43.6723C161.024 42.4653 161.957 42.0827 162.514 41.4438C165.673 37.8155 165.62 37.8996 169.083 41.0449C170.363 42.2078 170.763 43.0118 169.439 44.3542C168.372 45.4362 167.488 46.6965 166.173 48.3056Z" fill="#F6F6AE"/>
<path d="M14.6365 42.5884C12.728 41.0491 11.0072 39.6616 9.11304 38.1335C10.2114 36.746 11.2308 35.459 12.2512 34.1709C17.3111 38.1674 17.3111 38.1674 14.6365 42.5884Z" fill="#F6F6AE"/>
<path d="M162.595 16.5708C164.141 18.6372 164.141 18.6372 161.712 21.0103C160.99 20.6801 160.722 19.9386 160.129 19.2485C160.941 18.3665 161.758 17.4784 162.595 16.5708Z" fill="#F6F6AE"/>
<path d="M164.539 82.6567C164.555 97.5392 153.096 110.523 138.377 112.641C121.758 115.033 105.351 102.284 106.262 82.867C106.924 68.7547 118.028 56.8791 132.007 54.5788C147.478 52.0335 164.39 63.3707 164.539 82.6567ZM156.629 79.8078C157.285 82.548 157.08 85.2503 156.263 87.9238C155.863 88.1638 155.768 88.6181 155.989 88.894C156.246 89.218 156.467 88.8581 156.607 88.5976C156.886 88.291 157.202 88.01 157.439 87.6736C160.823 82.8711 160.703 84.275 157.334 79.8468C157.275 79.495 156.978 79.2971 156.713 79.3033C156.466 79.3104 156.474 79.6017 156.629 79.8078ZM109.744 80.0591C110.704 80.0057 111.099 79.1525 111.696 78.6213C115.638 75.114 119.931 72.1461 124.811 70.0981C130.715 67.6205 136.827 66.6719 143.153 68.0327C149.85 69.4726 155.242 73.0691 159.619 78.2808C160.154 78.9187 160.535 79.7617 161.597 80.2519C161.52 79.3976 161.521 78.8048 161.409 78.2357C159.546 68.8111 154.34 61.9996 145.252 58.6912C129.572 52.9842 113.404 63.0292 109.761 78.4152C109.636 78.9443 109.262 79.535 109.766 80.0868C109.583 79.9083 109.457 79.9422 109.426 80.1934C109.418 80.2632 109.49 80.4067 109.522 80.4067C109.74 80.3995 109.813 80.2703 109.744 80.0591ZM109.329 87.891C110.576 101.018 122.144 110.678 135.591 110.099C148.063 109.561 160.76 98.4796 160.867 88.0366C148.831 104.111 124.242 103.788 109.329 87.891ZM137.4 70.5227C135.713 70.2632 134.069 70.3802 132.428 70.7053C123.898 72.3922 117.082 77.0235 111.052 83.0526C110.159 83.9458 110.313 84.515 111.055 85.358C118.189 93.4576 127.138 97.4058 137.923 97.1843C138.305 97.1761 138.786 97.3002 138.999 96.7813C126.027 91.2394 127.308 75.8688 137.4 70.5227Z" fill="black"/>
<path d="M16.3113 83.2906C16.2888 70.4797 24.9914 59.1476 37.7582 55.3655C52.9595 50.8624 69.1557 58.9159 74.1735 73.4743C79.7134 89.5442 69.7658 107.177 52.7616 110.941C40.2256 113.716 29.7026 110.046 21.7189 99.86C18.0537 95.1846 16.3216 89.3699 16.3113 83.2906ZM19.2382 81.3964C19.5315 81.3513 19.6402 81.3677 19.6843 81.3226C20.2719 80.7165 20.8503 80.1022 21.4297 79.49C25.7287 74.951 30.6379 71.3073 36.5747 69.1742C42.8324 66.9262 49.1692 66.7971 55.4669 68.8276C61.5186 70.7781 66.6811 74.2659 71.2487 78.6613C71.6251 79.0234 71.8651 79.6971 72.6086 79.5146C71.9666 69.7331 62.8107 57.0986 46.5377 56.9715C29.9016 56.8412 19.6043 70.1259 19.2382 81.3964ZM19.6248 87.8162C20.7847 97.7023 30.9374 109.611 46.7694 109.062C58.845 108.644 71.0057 98.8755 71.9994 88.3536C64.5408 95.1908 55.7941 98.4458 45.8454 98.3525C35.8476 98.2592 27.104 94.8165 19.6248 87.8162ZM45.9603 70.3812C44.0631 70.3002 42.5761 70.4766 41.0788 70.7945C32.8325 72.5503 26.6804 77.4707 21.3436 83.6803C20.4083 84.7684 21.1436 85.3078 21.8122 85.9631C26.5204 90.5769 32.1588 93.4299 38.5765 94.7949C41.3362 95.3815 44.1215 95.6553 47.3571 95.5784C37.4597 89.2499 37.3438 77.6286 45.9603 70.3812ZM65.7899 77.6758C67.0103 82.585 66.3067 86.723 63.6927 90.6354C66.1057 89.8314 70.6468 86.1785 71.8405 84.3253C72.3174 83.5849 71.8641 83.2455 71.4826 82.8404C69.8715 81.1349 68.2193 79.4725 65.7899 77.6758Z" fill="black"/>
<path d="M109.765 80.0869C109.261 79.5341 109.635 78.9444 109.76 78.4142C113.403 63.0283 129.571 52.9832 145.251 58.6903C154.339 61.9976 159.545 68.8102 161.408 78.2348C161.521 78.805 161.52 79.3977 161.596 80.251C160.534 79.7608 160.154 78.9177 159.618 78.2799C155.241 73.0681 149.849 69.4716 143.152 68.0318C136.826 66.6709 130.714 67.6196 124.81 70.0972C119.93 72.1452 115.639 75.113 111.695 78.6203C111.098 79.1516 110.703 80.0048 109.743 80.0581L109.765 80.0869Z" fill="#F6F6AE"/>
<path d="M109.33 87.8911C124.242 103.788 148.831 104.111 160.867 88.0357C160.76 98.4786 148.063 109.56 135.591 110.098C122.145 110.678 110.577 101.018 109.33 87.8911Z" fill="#F6F6AE"/>
<path d="M156.263 87.9237C157.08 85.2502 157.286 82.5479 156.63 79.8108C156.865 79.8251 157.1 79.8364 157.333 79.8467C160.702 84.2749 160.822 82.8699 157.438 87.6735C157.201 88.0099 156.885 88.2909 156.61 88.5955C156.498 88.3709 156.38 88.1473 156.263 87.9237Z" fill="#EBE0D4"/>
<path d="M156.263 87.9238C156.381 88.1474 156.498 88.371 156.612 88.5966C156.467 88.8581 156.246 89.2191 155.989 88.895C155.769 88.6181 155.863 88.1638 156.263 87.9238Z" fill="#4F45E2"/>
<path d="M157.334 79.8479C157.1 79.8366 156.866 79.8263 156.631 79.812C156.475 79.6028 156.467 79.3105 156.713 79.3043C156.978 79.2982 157.275 79.4961 157.334 79.8479Z" fill="#4F45E2"/>
<path d="M109.744 80.0588C109.814 80.2701 109.74 80.3993 109.521 80.4055C109.489 80.4065 109.416 80.2619 109.425 80.1922C109.456 79.9409 109.582 79.9071 109.766 80.0855L109.744 80.0588Z" fill="#F6F6AE"/>
<path d="M19.238 81.3966C19.6041 70.1271 29.9015 56.8424 46.5386 56.9716C62.8106 57.0988 71.9675 69.7333 72.6095 79.5147C71.866 79.6963 71.626 79.0235 71.2496 78.6615C66.682 74.2651 61.5195 70.7783 55.4678 68.8277C49.1701 66.7972 42.8323 66.9264 36.5756 69.1744C30.6388 71.3075 25.7286 74.9512 21.4306 79.4901C20.8502 80.1024 20.2718 80.7167 19.6852 81.3227C19.64 81.3679 19.5313 81.3515 19.238 81.3966Z" fill="#F6F6AE"/>
<path d="M19.6248 87.8162C27.1039 94.8164 35.8486 98.2591 45.8464 98.3524C55.7951 98.4458 64.5418 95.1907 72.0004 88.3536C71.0067 98.8755 58.846 108.644 46.7704 109.062C30.9373 109.612 20.7836 97.7033 19.6248 87.8162Z" fill="#F6F6AE"/>
</g>
<defs>
<filter id="filter0_d_1_828" x="0.66748" y="0" width="178.665" height="158" filterUnits="userSpaceOnUse" color-interpolation-filters="sRGB">
<feFlood flood-opacity="0" result="BackgroundImageFix"/>
<feColorMatrix in="SourceAlpha" type="matrix" values="0 0 0 0 0 0 0 0 0 0 0 0 0 0 0 0 0 0 127 0" result="hardAlpha"/>
<feOffset dy="4"/>
<feGaussianBlur stdDeviation="2"/>
<feComposite in2="hardAlpha" operator="out"/>
<feColorMatrix type="matrix" values="0 0 0 0 0 0 0 0 0 0 0 0 0 0 0 0 0 0 0.25 0"/>
<feBlend mode="normal" in2="BackgroundImageFix" result="effect1_dropShadow_1_828"/>
<feBlend mode="normal" in="SourceGraphic" in2="effect1_dropShadow_1_828" result="shape"/>
</filter>
</defs>
</svg>
