<svg width="164" height="61" viewBox="0 0 164 61" fill="none" xmlns="http://www.w3.org/2000/svg">
<path d="M69.758 39.088L68.4097 35.6586H59.9681L58.6491 39.088H53.373L61.844 19.1564H66.5924L75.034 39.088H69.758ZM61.5802 31.5257H66.7976L64.1889 24.8134L61.5802 31.5257Z" fill="black"/>
<path d="M69.758 39.088L68.4097 35.6586H59.9681L58.6491 39.088H53.373L61.844 19.1564H66.5924L75.034 39.088H69.758ZM61.5802 31.5257H66.7976L64.1889 24.8134L61.5802 31.5257Z" fill="url(#paint0_linear_1_4852)"/>
<path d="M90.2083 19.1564H95.1326V39.088H90.2083V31.6136H82.0891V39.088H77.1355V19.1564H82.0891V27.1583H90.2083V19.1564Z" fill="black"/>
<path d="M90.2083 19.1564H95.1326V39.088H90.2083V31.6136H82.0891V39.088H77.1355V19.1564H82.0891V27.1583H90.2083V19.1564Z" fill="url(#paint1_linear_1_4852)"/>
<path d="M112.32 19.1564H117.801L109.946 33.0792V39.088H104.963V33.0792L97.0782 19.1564H102.559L107.425 27.8325L112.32 19.1564Z" fill="black"/>
<path d="M112.32 19.1564H117.801L109.946 33.0792V39.088H104.963V33.0792L97.0782 19.1564H102.559L107.425 27.8325L112.32 19.1564Z" fill="url(#paint2_linear_1_4852)"/>
<path d="M124.682 34.662H134.531V39.088H119.728V19.1564H124.682V34.662Z" fill="black"/>
<path d="M124.682 34.662H134.531V39.088H119.728V19.1564H124.682V34.662Z" fill="url(#paint3_linear_1_4852)"/>
<path d="M136.874 19.1564H141.828V39.088H136.874V19.1564Z" fill="black"/>
<path d="M136.874 19.1564H141.828V39.088H136.874V19.1564Z" fill="url(#paint4_linear_1_4852)"/>
<path d="M152.206 34.7206H161.849V39.088H144.585V36.7431L154.463 23.5237H145.083V19.1564H161.673V21.5013L152.206 34.7206Z" fill="black"/>
<path d="M152.206 34.7206H161.849V39.088H144.585V36.7431L154.463 23.5237H145.083V19.1564H161.673V21.5013L152.206 34.7206Z" fill="url(#paint5_linear_1_4852)"/>
<path d="M56.5727 50.3071V46.2914L55.0435 46.3264C54.4481 46.3381 54.203 46.4081 54.0512 46.6299C53.9461 46.77 53.8994 46.8984 53.8761 46.9685C53.8527 47.0502 53.8294 47.0969 53.7594 47.0969C53.6893 47.0969 53.666 47.0385 53.666 46.9334C53.666 46.77 53.8644 45.8128 53.8878 45.7311C53.9111 45.6026 53.9461 45.5443 54.0045 45.5443C54.0862 45.5443 54.1913 45.626 54.4481 45.661C54.7516 45.696 55.1368 45.7077 55.4754 45.7077H59.6429C59.9698 45.7077 60.1916 45.6844 60.3433 45.661C60.5067 45.6377 60.5885 45.6143 60.6235 45.6143C60.6935 45.6143 60.7052 45.6727 60.7052 45.8244C60.7052 46.0346 60.6818 46.77 60.6818 47.0268C60.6702 47.1319 60.6468 47.1903 60.5885 47.1903C60.5067 47.1903 60.4834 47.1436 60.4717 46.9918L60.46 46.8867C60.4367 46.6299 60.1682 46.3264 59.246 46.3147L57.9502 46.2914V50.3071C57.9502 51.2177 57.9619 51.9998 58.0086 52.4317C58.0436 52.7119 58.102 52.8987 58.4055 52.9454C58.5456 52.9687 58.779 52.9804 58.9308 52.9804C59.0475 52.9804 59.0942 53.0388 59.0942 53.0855C59.0942 53.1555 59.0125 53.1905 58.8958 53.1905C58.2187 53.1905 57.53 53.1555 57.2381 53.1555C57.0046 53.1555 56.3042 53.1905 55.8956 53.1905C55.7672 53.1905 55.6972 53.1555 55.6972 53.0855C55.6972 53.0388 55.7322 52.9804 55.8606 52.9804C56.0124 52.9804 56.1408 52.9687 56.2225 52.9454C56.4326 52.8987 56.491 52.7119 56.526 52.4201C56.5727 51.9998 56.5727 51.2177 56.5727 50.3071ZM63.995 50.3071V48.5561C63.995 47.0502 63.995 46.77 63.9833 46.4548C63.96 46.1163 63.8666 46.0112 63.5397 45.9178C63.458 45.8945 63.2829 45.8828 63.1311 45.8828C63.0261 45.8828 62.956 45.8478 62.956 45.7777C62.956 45.7077 63.0377 45.6844 63.1895 45.6844C63.7265 45.6844 64.3802 45.7077 64.6721 45.7077C64.9989 45.7077 67.2753 45.7194 67.4737 45.7077C67.6605 45.696 67.824 45.661 67.9057 45.6493C67.964 45.6377 68.0224 45.6026 68.0691 45.6026C68.1275 45.6026 68.1391 45.6493 68.1391 45.696C68.1391 45.7661 68.0808 45.8828 68.0574 46.3381C68.0458 46.4431 68.0224 46.8751 67.9991 46.9918C67.9874 47.0385 67.964 47.1552 67.8823 47.1552C67.8123 47.1552 67.8006 47.1085 67.8006 47.0268C67.8006 46.9568 67.7889 46.7817 67.7306 46.6649C67.6489 46.4898 67.5671 46.3498 67.0535 46.3031C66.8784 46.2797 65.6526 46.2564 65.4425 46.2564C65.3958 46.2564 65.3725 46.2914 65.3725 46.3498V48.8012C65.3725 48.8596 65.3842 48.9063 65.4425 48.9063C65.676 48.9063 67.0068 48.9063 67.2403 48.8829C67.4854 48.8596 67.6372 48.8363 67.7306 48.7312C67.8123 48.6611 67.8473 48.6028 67.894 48.6028C67.9407 48.6028 67.9757 48.6495 67.9757 48.7078C67.9757 48.7662 67.9524 48.9296 67.894 49.4316C67.8707 49.6301 67.8473 50.027 67.8473 50.097C67.8473 50.1787 67.8356 50.3188 67.7422 50.3188C67.6722 50.3188 67.6489 50.2838 67.6489 50.2371C67.6372 50.132 67.6372 50.0036 67.6138 49.8752C67.5555 49.6768 67.4271 49.525 67.0418 49.49C66.855 49.4666 65.6877 49.4433 65.4308 49.4433C65.3842 49.4433 65.3725 49.49 65.3725 49.5483V50.3422C65.3725 50.6807 65.3608 51.5212 65.3725 51.813C65.3958 52.4901 65.711 52.6419 66.7616 52.6419C67.0301 52.6419 67.4621 52.6302 67.7306 52.5135C67.9874 52.3967 68.1041 52.1866 68.1742 51.778C68.1975 51.673 68.2209 51.6263 68.2909 51.6263C68.3726 51.6263 68.3843 51.7547 68.3843 51.8597C68.3843 52.0815 68.3026 52.7586 68.2442 52.9571C68.1742 53.2139 68.0808 53.2139 67.6955 53.2139C66.9251 53.2139 66.3064 53.2022 65.8044 53.1789C65.3024 53.1672 64.9172 53.1555 64.6137 53.1555C64.497 53.1555 64.2752 53.1672 64.03 53.1672C63.7849 53.1789 63.528 53.1905 63.3179 53.1905C63.1895 53.1905 63.1195 53.1555 63.1195 53.0855C63.1195 53.0388 63.1545 52.9804 63.2829 52.9804C63.4346 52.9804 63.5514 52.9687 63.6448 52.9454C63.8549 52.8987 63.9133 52.7119 63.9483 52.4201C63.995 51.9998 63.995 51.2177 63.995 50.3071ZM75.8108 53.3189C74.4099 53.3189 73.2192 53.0271 72.2853 52.245C71.2697 51.3928 71.0012 50.2721 71.0012 49.3149C71.0012 48.6378 71.223 47.4704 72.2036 46.5949C72.9507 45.9412 73.9313 45.5443 75.4606 45.5443C76.1026 45.5443 76.4878 45.591 76.9548 45.6493C77.34 45.7077 77.6786 45.7777 77.9821 45.8128C78.0988 45.8244 78.1338 45.8711 78.1338 45.9295C78.1338 46.0112 78.1105 46.128 78.0871 46.4782C78.0638 46.805 78.0638 47.3537 78.0521 47.5521C78.0404 47.6922 78.0054 47.7973 77.912 47.7973C77.8303 47.7973 77.807 47.7156 77.807 47.5872C77.7953 47.272 77.6669 46.9218 77.4101 46.6649C77.0598 46.3264 76.3711 46.0813 75.4255 46.0813C74.5267 46.0813 73.9546 46.2447 73.4877 46.6416C72.7289 47.2953 72.5421 48.2526 72.5421 49.2215C72.5421 51.5796 74.3632 52.7002 75.7407 52.7002C76.6513 52.7002 77.1532 52.6302 77.5618 52.1749C77.7369 51.9765 77.877 51.6963 77.912 51.5095C77.9354 51.3578 77.9587 51.3111 78.0404 51.3111C78.1105 51.3111 78.1572 51.4045 78.1572 51.4862C78.1572 51.6029 78.0404 52.4668 77.9354 52.8053C77.8887 52.9804 77.842 53.0271 77.6669 53.0971C77.2583 53.2606 76.4762 53.3189 75.8108 53.3189ZM83.2011 48.918H87.0768C87.1001 48.918 87.1352 48.9063 87.1352 48.8479V48.6378C87.1352 47.1319 87.1235 46.77 87.1118 46.4548C87.0885 46.1163 86.9951 46.0112 86.6682 45.9178C86.5865 45.8945 86.4114 45.8828 86.2713 45.8828C86.1546 45.8828 86.0962 45.8478 86.0962 45.7777C86.0962 45.7077 86.1662 45.6844 86.318 45.6844C86.8667 45.6844 87.5904 45.7077 87.8589 45.7077C88.1041 45.7077 88.7811 45.6844 89.178 45.6844C89.3298 45.6844 89.3998 45.7077 89.3998 45.7777C89.3998 45.8478 89.3298 45.8828 89.2131 45.8828C89.1314 45.8828 89.038 45.8945 88.9096 45.9178C88.6411 45.9645 88.5593 46.1046 88.536 46.4548C88.5126 46.77 88.5126 47.0502 88.5126 48.5561V50.3071C88.5126 51.2177 88.5126 51.9998 88.5593 52.4317C88.5944 52.7119 88.6527 52.8987 88.9679 52.9454C89.108 52.9687 89.3298 52.9804 89.4932 52.9804C89.5983 52.9804 89.6567 53.0388 89.6567 53.0855C89.6567 53.1555 89.575 53.1905 89.4465 53.1905C88.7811 53.1905 88.1041 53.1555 87.8239 53.1555C87.5904 53.1555 86.8667 53.1905 86.4698 53.1905C86.3297 53.1905 86.248 53.1555 86.248 53.0855C86.248 53.0388 86.2946 52.9804 86.4114 52.9804C86.5748 52.9804 86.6916 52.9687 86.7849 52.9454C86.9951 52.8987 87.0534 52.7119 87.0885 52.4201C87.1352 51.9998 87.1352 51.241 87.1352 50.3305V49.5717C87.1352 49.5367 87.1001 49.5133 87.0768 49.5133H83.2011C83.1661 49.5133 83.1311 49.525 83.1311 49.5717V50.3305C83.1311 51.241 83.1428 51.9998 83.1894 52.4317C83.2245 52.7119 83.2828 52.8987 83.5864 52.9454C83.7264 52.9687 83.9599 52.9804 84.1117 52.9804C84.2284 52.9804 84.2751 53.0388 84.2751 53.0855C84.2751 53.1555 84.1934 53.1905 84.065 53.1905C83.3996 53.1905 82.6875 53.1555 82.3956 53.1555C82.1622 53.1555 81.4851 53.1905 81.0765 53.1905C80.9481 53.1905 80.8781 53.1555 80.8781 53.0855C80.8781 53.0388 80.9131 52.9804 81.0415 52.9804C81.1932 52.9804 81.31 52.9687 81.4034 52.9454C81.6135 52.8987 81.6719 52.7119 81.7069 52.4201C81.7536 51.9998 81.7536 51.2177 81.7536 50.3071V48.5561C81.7536 47.0502 81.7536 46.77 81.7419 46.4548C81.7186 46.1163 81.6252 46.0112 81.2983 45.9178C81.2166 45.8945 81.0415 45.8828 80.8897 45.8828C80.7847 45.8828 80.7146 45.8478 80.7146 45.7777C80.7146 45.7077 80.7963 45.6844 80.9364 45.6844C81.4851 45.6844 82.1622 45.7077 82.4423 45.7077C82.6875 45.7077 83.3996 45.6844 83.8082 45.6844C83.9482 45.6844 84.0183 45.7077 84.0183 45.7777C84.0183 45.8478 83.9599 45.8828 83.8315 45.8828C83.7498 45.8828 83.6564 45.8945 83.5397 45.9178C83.2595 45.9645 83.1778 46.1046 83.1544 46.4548C83.1311 46.77 83.1311 47.1319 83.1311 48.6378V48.8479C83.1311 48.9063 83.1661 48.918 83.2011 48.918ZM93.803 47.7856L93.9198 51.8364C93.9431 52.6069 94.0715 52.8403 94.27 52.9104C94.4451 52.9687 94.6435 52.9804 94.807 52.9804C94.9237 52.9804 94.9821 53.0271 94.9821 53.0855C94.9821 53.1672 94.8887 53.1905 94.7486 53.1905C94.0832 53.1905 93.6046 53.1555 93.4178 53.1555C93.3244 53.1555 92.8341 53.1905 92.3088 53.1905C92.1687 53.1905 92.0753 53.1789 92.0753 53.0855C92.0753 53.0271 92.1454 52.9804 92.2387 52.9804C92.3788 52.9804 92.5656 52.9687 92.7057 52.9337C92.9742 52.8637 93.0092 52.5952 93.0209 51.7313L93.1143 45.8478C93.1143 45.6493 93.1843 45.5093 93.2894 45.5093C93.4178 45.5093 93.5579 45.661 93.733 45.8361C93.8614 45.9645 95.4023 47.5405 96.8965 48.9997C97.597 49.6884 98.9628 51.0893 99.1145 51.2294H99.1612L99.0562 46.8167C99.0445 46.2097 98.9511 46.0346 98.706 45.9412C98.5542 45.8828 98.3091 45.8828 98.169 45.8828C98.0406 45.8828 98.0055 45.8361 98.0055 45.7777C98.0055 45.696 98.1106 45.6844 98.2624 45.6844C98.7994 45.6844 99.348 45.7077 99.5698 45.7077C99.6866 45.7077 100.072 45.6844 100.574 45.6844C100.714 45.6844 100.807 45.696 100.807 45.7777C100.807 45.8361 100.749 45.8828 100.632 45.8828C100.527 45.8828 100.445 45.8828 100.317 45.9178C100.037 45.9995 99.955 46.1747 99.9434 46.735L99.8266 52.9921C99.8266 53.2139 99.7449 53.3073 99.6632 53.3073C99.4881 53.3073 99.348 53.2022 99.243 53.0971C98.6009 52.5018 97.3168 51.2761 96.2428 50.2371C95.1221 49.1631 94.0365 47.9607 93.838 47.7856H93.803ZM107.462 53.3189C104.473 53.3189 103.259 51.1943 103.259 49.4316C103.259 47.7389 104.45 45.5443 107.567 45.5443C110.158 45.5443 111.769 46.9801 111.769 49.2565C111.769 51.5329 110.112 53.3189 107.462 53.3189ZM107.882 52.782C108.606 52.782 110.24 52.4434 110.24 49.6184C110.24 47.4237 108.921 46.0696 107.263 46.0696C106.119 46.0696 104.777 46.6766 104.777 49.1281C104.777 51.171 105.944 52.782 107.882 52.782ZM116.461 48.5561V50.3071C116.461 51.5796 116.461 52.2099 116.683 52.3967C116.858 52.5485 117.255 52.6069 118.048 52.6069C118.597 52.6069 118.994 52.5952 119.251 52.3267C119.379 52.1983 119.484 51.9181 119.508 51.7313C119.519 51.6379 119.543 51.5796 119.624 51.5796C119.694 51.5796 119.718 51.6846 119.718 51.8014C119.718 51.9181 119.648 52.6535 119.566 52.9454C119.496 53.1672 119.449 53.2139 118.912 53.2139C118.177 53.2139 117.581 53.2022 117.068 53.1789C116.554 53.1672 116.122 53.1555 115.702 53.1555C115.585 53.1555 115.363 53.1672 115.118 53.1672C114.873 53.1789 114.616 53.1905 114.406 53.1905C114.278 53.1905 114.208 53.1555 114.208 53.0855C114.208 53.0388 114.243 52.9804 114.371 52.9804C114.523 52.9804 114.64 52.9687 114.733 52.9454C114.943 52.8987 115.002 52.7119 115.037 52.4201C115.083 51.9998 115.083 51.2177 115.083 50.3071V48.5561C115.083 47.0502 115.083 46.77 115.072 46.4548C115.048 46.1163 114.955 46.0112 114.628 45.9178C114.546 45.8945 114.418 45.8828 114.29 45.8828C114.173 45.8828 114.114 45.8478 114.114 45.7777C114.114 45.7077 114.184 45.6844 114.336 45.6844C114.815 45.6844 115.469 45.7077 115.749 45.7077C115.994 45.7077 116.834 45.6844 117.231 45.6844C117.383 45.6844 117.453 45.7077 117.453 45.7777C117.453 45.8478 117.395 45.8828 117.266 45.8828C117.15 45.8828 116.986 45.8945 116.869 45.9178C116.589 45.9645 116.508 46.1046 116.484 46.4548C116.461 46.77 116.461 47.0502 116.461 48.5561ZM125.779 53.3189C122.791 53.3189 121.577 51.1943 121.577 49.4316C121.577 47.7389 122.767 45.5443 125.884 45.5443C128.476 45.5443 130.087 46.9801 130.087 49.2565C130.087 51.5329 128.429 53.3189 125.779 53.3189ZM126.199 52.782C126.923 52.782 128.557 52.4434 128.557 49.6184C128.557 47.4237 127.238 46.0696 125.581 46.0696C124.437 46.0696 123.094 46.6766 123.094 49.1281C123.094 51.171 124.261 52.782 126.199 52.782ZM140.023 51.4278V52.5251C140.023 52.7936 140.023 52.8053 139.894 52.8753C139.206 53.2139 138.19 53.3189 137.384 53.3189C134.863 53.3189 132.633 52.1749 132.633 49.4316C132.633 47.844 133.485 46.735 134.431 46.1863C135.412 45.6143 136.334 45.5443 137.198 45.5443C137.91 45.5443 138.809 45.661 139.019 45.7077C139.229 45.7427 139.591 45.8011 139.836 45.8128C139.953 45.8244 139.976 45.8595 139.976 45.9295C139.976 46.0462 139.906 46.3147 139.906 47.5638C139.906 47.7156 139.848 47.7856 139.766 47.7856C139.696 47.7856 139.672 47.7389 139.661 47.6572C139.637 47.4354 139.579 47.1202 139.311 46.8401C139.007 46.5249 138.237 46.0813 137.081 46.0813C136.521 46.0813 135.808 46.0929 135.096 46.6649C134.524 47.1319 134.151 47.8673 134.151 49.0814C134.151 51.2177 135.528 52.7703 137.723 52.7703C137.991 52.7703 138.202 52.7703 138.447 52.6652C138.599 52.5952 138.645 52.4901 138.645 52.315V51.4045C138.645 50.9142 138.645 50.5406 138.634 50.2371C138.622 49.8986 138.517 49.7935 138.19 49.7001C138.108 49.6768 137.933 49.6651 137.793 49.6651C137.7 49.6651 137.63 49.6184 137.63 49.56C137.63 49.4783 137.711 49.4666 137.851 49.4666C138.388 49.4666 139.124 49.49 139.427 49.49C139.754 49.49 140.291 49.4666 140.63 49.4666C140.77 49.4666 140.84 49.4783 140.84 49.56C140.84 49.6184 140.781 49.6651 140.711 49.6651C140.63 49.6651 140.548 49.6768 140.431 49.7001C140.151 49.7468 140.046 49.8869 140.034 50.2371C140.023 50.5406 140.023 50.9375 140.023 51.4278ZM144.298 50.3071V48.5561C144.298 47.0502 144.298 46.77 144.286 46.4548C144.263 46.1163 144.158 45.9995 143.936 45.9295C143.819 45.8945 143.691 45.8828 143.562 45.8828C143.457 45.8828 143.399 45.8595 143.399 45.7661C143.399 45.7077 143.48 45.6844 143.644 45.6844C144.029 45.6844 144.73 45.7077 145.021 45.7077C145.278 45.7077 145.944 45.6844 146.341 45.6844C146.469 45.6844 146.551 45.7077 146.551 45.7661C146.551 45.8595 146.492 45.8828 146.387 45.8828C146.282 45.8828 146.2 45.8945 146.084 45.9178C145.804 45.9645 145.722 46.1046 145.698 46.4548C145.675 46.77 145.675 47.0502 145.675 48.5561V50.3071C145.675 51.2644 145.675 52.0582 145.722 52.4784C145.757 52.7469 145.827 52.8987 146.13 52.9454C146.27 52.9687 146.504 52.9804 146.656 52.9804C146.772 52.9804 146.819 53.0388 146.819 53.0855C146.819 53.1555 146.737 53.1905 146.621 53.1905C145.944 53.1905 145.243 53.1555 144.963 53.1555C144.73 53.1555 144.029 53.1905 143.621 53.1905C143.492 53.1905 143.422 53.1555 143.422 53.0855C143.422 53.0388 143.457 52.9804 143.586 52.9804C143.737 52.9804 143.854 52.9687 143.947 52.9454C144.158 52.8987 144.216 52.7586 144.251 52.4668C144.298 52.0582 144.298 51.2644 144.298 50.3071ZM150.452 50.3071V48.5561C150.452 47.0502 150.452 46.77 150.441 46.4548C150.417 46.1163 150.324 46.0112 149.997 45.9178C149.915 45.8945 149.74 45.8828 149.588 45.8828C149.483 45.8828 149.413 45.8478 149.413 45.7777C149.413 45.7077 149.495 45.6844 149.647 45.6844C150.184 45.6844 150.838 45.7077 151.129 45.7077C151.456 45.7077 153.733 45.7194 153.931 45.7077C154.118 45.696 154.281 45.661 154.363 45.6493C154.421 45.6377 154.48 45.6026 154.526 45.6026C154.585 45.6026 154.596 45.6493 154.596 45.696C154.596 45.7661 154.538 45.8828 154.515 46.3381C154.503 46.4431 154.48 46.8751 154.456 46.9918C154.445 47.0385 154.421 47.1552 154.34 47.1552C154.27 47.1552 154.258 47.1085 154.258 47.0268C154.258 46.9568 154.246 46.7817 154.188 46.6649C154.106 46.4898 154.024 46.3498 153.511 46.3031C153.336 46.2797 152.11 46.2564 151.9 46.2564C151.853 46.2564 151.83 46.2914 151.83 46.3498V48.8012C151.83 48.8596 151.841 48.9063 151.9 48.9063C152.133 48.9063 153.464 48.9063 153.698 48.8829C153.943 48.8596 154.095 48.8363 154.188 48.7312C154.27 48.6611 154.305 48.6028 154.351 48.6028C154.398 48.6028 154.433 48.6495 154.433 48.7078C154.433 48.7662 154.41 48.9296 154.351 49.4316C154.328 49.6301 154.305 50.027 154.305 50.097C154.305 50.1787 154.293 50.3188 154.2 50.3188C154.13 50.3188 154.106 50.2838 154.106 50.2371C154.095 50.132 154.095 50.0036 154.071 49.8752C154.013 49.6768 153.884 49.525 153.499 49.49C153.312 49.4666 152.145 49.4433 151.888 49.4433C151.841 49.4433 151.83 49.49 151.83 49.5483V50.3422C151.83 50.6807 151.818 51.5212 151.83 51.813C151.853 52.4901 152.168 52.6419 153.219 52.6419C153.487 52.6419 153.919 52.6302 154.188 52.5135C154.445 52.3967 154.561 52.1866 154.631 51.778C154.655 51.673 154.678 51.6263 154.748 51.6263C154.83 51.6263 154.842 51.7547 154.842 51.8597C154.842 52.0815 154.76 52.7586 154.702 52.9571C154.631 53.2139 154.538 53.2139 154.153 53.2139C153.382 53.2139 152.764 53.2022 152.262 53.1789C151.76 53.1672 151.375 53.1555 151.071 53.1555C150.954 53.1555 150.732 53.1672 150.487 53.1672C150.242 53.1789 149.985 53.1905 149.775 53.1905C149.647 53.1905 149.577 53.1555 149.577 53.0855C149.577 53.0388 149.612 52.9804 149.74 52.9804C149.892 52.9804 150.009 52.9687 150.102 52.9454C150.312 52.8987 150.371 52.7119 150.406 52.4201C150.452 51.9998 150.452 51.2177 150.452 50.3071ZM159.688 53.3189C159.093 53.3189 158.462 53.2606 158.019 53.0621C157.855 52.9921 157.82 52.9454 157.82 52.7236C157.82 52.1866 157.867 51.5679 157.879 51.4045C157.879 51.2527 157.925 51.1476 158.007 51.1476C158.101 51.1476 158.112 51.241 158.112 51.3111C158.112 51.4395 158.147 51.6496 158.206 51.8247C158.427 52.5602 159.198 52.8053 159.84 52.8053C160.727 52.8053 161.264 52.245 161.264 51.5445C161.264 51.1126 161.159 50.6807 160.249 50.1437L159.653 49.7935C158.439 49.0814 158.042 48.416 158.042 47.5405C158.042 46.3264 159.21 45.5443 160.634 45.5443C161.299 45.5443 161.824 45.6377 162.093 45.7077C162.186 45.7311 162.233 45.7661 162.233 45.8361C162.233 45.9645 162.198 46.2447 162.198 47.0268C162.198 47.237 162.151 47.342 162.07 47.342C162 47.342 161.965 47.2837 161.965 47.1669C161.965 47.0735 161.918 46.77 161.696 46.5132C161.544 46.3264 161.217 46.0462 160.552 46.0462C159.817 46.0462 159.151 46.4315 159.151 47.1085C159.151 47.5521 159.315 47.9024 160.237 48.416L160.657 48.6495C162.011 49.3966 162.432 50.1554 162.432 51.0543C162.432 51.7897 162.151 52.3851 161.404 52.9104C160.914 53.2606 160.237 53.3189 159.688 53.3189Z" fill="white"/>
<path fill-rule="evenodd" clip-rule="evenodd" d="M21.1587 42.7482L25.5883 49.937H17.1299L21.1587 42.7482Z" fill="white"/>
<path fill-rule="evenodd" clip-rule="evenodd" d="M54.9507 25.068L61.5809 14.9595H53.5998C53.7977 15.2956 53.9886 15.6362 54.173 15.981C53.9424 15.6352 53.705 15.2944 53.4603 14.9595H27.8218L32.0774 25.068H35.8714V34.0777L46.9893 60.4824H47.1853V25.068H54.9507Z" fill="url(#paint6_linear_1_4852)"/>
<path fill-rule="evenodd" clip-rule="evenodd" d="M3.71191 43.4572L10.9392 54.1414L21.2277 28.2136L21.2809 28.3471L21.3587 28.1476L27.2059 43.1644L27.2507 43.2769L34.2375 60.75H46.0618L26.7814 14.9595H16.0029L3.71191 43.4572Z" fill="white"/>
<path fill-rule="evenodd" clip-rule="evenodd" d="M9.73359 10.9584L10.013 6.98126C3.88191 12.2584 0 20.0761 0 28.7999C0 34.691 1.76994 40.1685 4.80716 44.73C2.6499 40.6932 1.42645 36.0817 1.42645 31.1846C1.42645 23.3 4.59755 16.1562 9.73359 10.9584Z" fill="white"/>
<path fill-rule="evenodd" clip-rule="evenodd" d="M10.6969 7.02333L10.5439 10.7841C15.7609 5.50477 21.4216 3.13363 30.2038 3.13363C38.9855 3.13363 48.2268 7.79145 53.4607 14.9595C53.7053 15.2944 53.9427 15.6352 54.1734 15.981C53.9889 15.6362 53.7981 15.2956 53.6001 14.9595C45.1089 0.520177 23.8522 -4.30013 10.6969 7.02333Z" fill="black"/>
<path fill-rule="evenodd" clip-rule="evenodd" d="M10.6969 7.02333L10.5439 10.7841C15.7609 5.50477 21.4216 3.13363 30.2038 3.13363C38.9855 3.13363 48.2268 7.79145 53.4607 14.9595C53.7053 15.2944 53.9427 15.6352 54.1734 15.981C53.9889 15.6362 53.7981 15.2956 53.6001 14.9595C45.1089 0.520177 23.8522 -4.30013 10.6969 7.02333Z" fill="url(#paint7_linear_1_4852)"/>
<defs>
<linearGradient id="paint0_linear_1_4852" x1="160.282" y1="39.0444" x2="54.2454" y2="39.0444" gradientUnits="userSpaceOnUse">
<stop stop-color="#9C9D9F"/>
<stop offset="1" stop-color="#C6C7C9"/>
</linearGradient>
<linearGradient id="paint1_linear_1_4852" x1="160.282" y1="39.0444" x2="54.2454" y2="39.0444" gradientUnits="userSpaceOnUse">
<stop stop-color="#9C9D9F"/>
<stop offset="1" stop-color="#C6C7C9"/>
</linearGradient>
<linearGradient id="paint2_linear_1_4852" x1="160.282" y1="39.0444" x2="54.2454" y2="39.0444" gradientUnits="userSpaceOnUse">
<stop stop-color="#9C9D9F"/>
<stop offset="1" stop-color="#C6C7C9"/>
</linearGradient>
<linearGradient id="paint3_linear_1_4852" x1="160.282" y1="39.0444" x2="54.2454" y2="39.0444" gradientUnits="userSpaceOnUse">
<stop stop-color="#9C9D9F"/>
<stop offset="1" stop-color="#C6C7C9"/>
</linearGradient>
<linearGradient id="paint4_linear_1_4852" x1="160.282" y1="39.0444" x2="54.2454" y2="39.0444" gradientUnits="userSpaceOnUse">
<stop stop-color="#9C9D9F"/>
<stop offset="1" stop-color="#C6C7C9"/>
</linearGradient>
<linearGradient id="paint5_linear_1_4852" x1="160.282" y1="39.0444" x2="54.2454" y2="39.0444" gradientUnits="userSpaceOnUse">
<stop stop-color="#9C9D9F"/>
<stop offset="1" stop-color="#C6C7C9"/>
</linearGradient>
<linearGradient id="paint6_linear_1_4852" x1="61.0933" y1="15.0592" x2="28.0933" y2="15.0592" gradientUnits="userSpaceOnUse">
<stop stop-color="#9C9D9F"/>
<stop offset="1" stop-color="#C6C7C9"/>
</linearGradient>
<linearGradient id="paint7_linear_1_4852" x1="53.5431" y1="0.783388" x2="10.8948" y2="0.783391" gradientUnits="userSpaceOnUse">
<stop stop-color="#9C9D9F"/>
<stop offset="1" stop-color="#C6C7C9"/>
</linearGradient>
</defs>
</svg>
