<svg width="154" height="158" viewBox="0 0 154 158" fill="none" xmlns="http://www.w3.org/2000/svg">
<g filter="url(#filter0_d_1_870)">
<path d="M40.9285 17.3978C27.4413 26.844 22.1048 38.3645 14.0617 51.8567C9.92607 58.7945 6.15099 66.1435 4.88732 74.1219C3.0381 85.7917 6.72954 97.6348 11.5164 108.437C16.59 119.885 23.2032 131.056 33.1592 138.65C42.1474 145.506 53.401 149.017 64.6785 149.812C75.955 150.607 87.2882 148.805 98.1982 145.847C107.578 143.303 116.891 139.811 124.535 133.81C132.415 127.625 138.152 119.035 142.207 109.875C153.842 83.59 151.61 51.6157 136.438 27.2005C132.284 20.5147 128.459 12.6408 121.217 9.03503C108.62 2.76246 93.8346 0.12358 79.8725 0.0010961C66.202 -0.120392 51.6593 9.88247 40.9285 17.3978Z" fill="#DCE2FC"/>
<path d="M118.466 122.332C119.131 122.69 119.726 122.959 120.268 123.31C123.051 125.111 123.505 127.904 121.44 130.469C120.642 131.46 119.696 132.306 118.658 133.036C116.204 134.761 113.262 135.515 110.683 137.008C110.094 137.35 109.211 137.497 108.555 137.343C107.35 137.059 106.404 137.371 105.352 137.893C102.252 139.429 99.4224 138.852 96.8884 136.556C96.3049 136.028 95.6771 135.547 95.0134 134.998C94.7588 135.393 94.4277 135.937 94.0668 136.463C91.7254 139.875 88.7372 142.37 84.5668 143.23C81.6986 143.821 79.0001 143.436 76.5134 141.882C75.8841 141.489 75.4835 141.319 74.8404 141.919C74.1109 142.598 73.1123 142.903 72.1389 143.144C69.2829 143.849 66.4613 143.64 63.6719 142.773C61.9614 142.241 60.6813 141.089 59.4969 139.779C58.5082 140.539 57.5967 141.321 56.6065 141.986C53.4171 144.124 49.9204 144.867 46.1415 144.095C43.6388 143.584 41.526 142.374 40.0067 140.296C39.5326 139.648 39.0975 139.511 38.3458 139.658C31.5343 140.978 23.2195 134.213 26.4983 125.289C27.4251 122.767 29.1356 120.969 31.9403 120.576C32.7822 120.458 33.0086 120.164 32.9673 119.319C32.8327 116.544 33.5308 114.013 35.6321 112.07C36.357 111.4 36.1024 110.849 35.8408 110.131C34.4996 106.444 33.1255 102.767 32.289 98.9184C31.1986 93.8984 30.4898 88.8265 30.2856 83.6934C30.2092 81.7634 30.4279 79.8464 30.8522 77.9463C31.2988 75.9459 32.5383 74.8387 34.4698 74.4212C37.3625 73.7965 40.272 73.639 43.193 74.217C45.009 74.5764 46.8197 74.9641 48.6855 75.3495C48.9875 74.3753 48.8996 73.5128 48.9309 72.6679C49.3584 61.0948 51.192 49.7604 54.8837 38.7708C57.3337 31.4783 60.5842 24.5751 65.5361 18.5825C67.0302 16.7749 68.6811 15.1416 70.6126 13.8095C71.3222 13.3194 72.054 12.8384 72.8324 12.476C75.225 11.3626 77.5098 11.2785 79.7594 13.0097C81.6978 14.5015 83.2386 16.2748 84.4934 18.3493C86.3652 21.4461 87.6812 24.7907 88.8205 28.1957C91.4593 36.0815 93.9682 44.0079 95.4095 52.2257C96.4334 58.0653 97.075 63.9531 97.6851 69.8455C97.7524 70.4978 97.6469 71.1867 98.03 71.7923C98.615 72.034 98.8505 71.4918 99.1808 71.2433C101.206 69.7209 103.253 68.2436 105.608 67.2549C106.716 66.79 107.846 66.426 109.043 66.2448C111.852 65.8196 113.642 66.8641 114.54 69.6131C115.497 72.5417 116.046 75.5605 115.982 78.6444C115.81 87.0479 115.086 95.3918 113.026 103.574C112.961 103.833 112.941 104.108 112.841 104.35C112.445 105.304 112.708 105.749 113.763 105.977C119.798 107.28 122.848 115.122 119.58 120.391C119.206 120.998 118.868 121.632 118.466 122.332ZM55.3731 102.253C55.3242 103.117 55.2913 103.779 55.2492 104.439C55.0267 107.954 54.1443 111.253 52.1386 114.207C51.1759 115.624 50.3876 115.686 49.2483 114.334C46.7853 111.41 43.1593 110.515 39.7207 111.981C35.5403 113.764 34.0279 117.836 36.1008 121.775C36.3662 122.279 36.578 122.74 36.1138 123.224C35.6749 123.682 35.1527 123.658 34.6549 123.377C33.3435 122.639 32.0306 122.439 30.6932 123.282C29.8238 123.829 29.2151 124.607 28.7709 125.526C27.3616 128.442 27.9053 132.224 30.0937 134.678C32.3143 137.169 36.178 138.224 39.1885 137.161C40.6161 136.657 40.779 136.668 41.2599 137.996C41.7233 139.274 42.6264 140.109 43.703 140.792C45.568 141.974 47.6257 142.359 49.8179 142.164C53.1847 141.865 55.8235 140.197 58.1626 137.886C59.4801 136.584 60.166 136.627 61.1623 138.155C62.1785 139.713 63.5863 140.608 65.3396 140.982C67.239 141.387 69.1628 141.5 71.0928 141.14C71.8873 140.992 72.6145 140.676 73.3371 140.333C73.8785 140.077 74.2661 139.8 73.8127 139.133C73.6712 138.925 73.6261 138.634 73.5925 138.374C73.5091 137.721 73.6728 137.147 74.3717 136.951C74.9887 136.779 75.3726 137.149 75.6173 137.683C76.7176 140.085 78.8036 140.941 81.2298 141.204C84.0896 141.515 86.6267 140.644 88.874 138.912C90.8048 137.425 92.2729 135.55 93.3022 133.336C93.5262 132.854 93.7151 132.345 94.0102 131.909C94.69 130.905 95.525 130.9 96.2354 131.902C96.6177 132.442 96.8647 133.077 97.2355 133.626C99.2611 136.627 102.065 137.293 105.199 135.531C106.44 134.834 107.502 133.958 108.108 132.616C108.422 131.918 108.826 131.265 109.759 131.59C110.442 131.827 110.515 132.543 110.053 133.668C109.874 134.102 109.465 134.472 109.621 135.622C111.82 133.159 114.803 133.013 117.103 131.448C117.986 130.848 118.809 130.164 119.511 129.358C121.074 127.565 120.729 125.94 118.57 124.872C118.333 124.755 118.076 124.673 117.821 124.601C115.831 124.039 115.68 122.555 116.629 121.024C117.155 120.178 117.691 119.325 118.097 118.419C120.027 114.117 117.409 108.953 112.815 107.989C110.149 107.429 107.53 107.663 104.982 108.631C102.978 109.393 101.105 110.312 99.674 112.026C98.7174 113.171 98.1929 113.036 97.5689 111.668C97.3097 111.1 96.893 110.688 96.5282 110.221C94.2197 107.266 92.5643 104.067 92.721 100.178C92.7317 99.9048 92.6774 99.6532 92.2653 99.4536C90.2573 100.43 88.0291 101.045 85.7596 101.585C81.8668 102.513 77.8975 102.916 73.9496 103.403C67.7995 104.161 61.6249 104.568 55.3731 102.253ZM66.0889 80.9888C70.1095 81.2442 73.3409 80.7311 76.5777 80.3389C82.9174 79.5696 88.5881 77.0417 93.9582 73.7032C95.3109 72.8621 95.8041 71.8543 95.5778 70.2401C94.976 65.9565 94.5539 61.6485 94.0056 57.3572C92.9986 49.4714 90.9317 41.8356 88.5154 34.2823C88.2486 33.4489 87.8043 32.9794 87.0129 32.5986C84.0109 31.1549 80.8108 30.664 77.5427 30.4124C71.586 29.9544 66.0805 31.4868 60.7838 34.0835C59.2721 34.8245 58.0861 35.6908 57.6747 37.4304C57.4468 38.3946 56.9728 39.2977 56.6715 40.2481C53.0585 51.6239 51.3487 63.3085 50.997 75.2149C50.9725 76.0469 51.2776 76.6402 51.9597 77.044C52.5875 77.4156 53.2359 77.7581 53.8935 78.074C57.9806 80.0368 62.3016 80.9881 66.0889 80.9888ZM98.2999 85.2884C98.0201 87.6604 98.2701 90.095 97.6461 92.4211C97.2065 94.0605 97.1743 95.482 98.4291 96.8118C98.9109 97.3225 99.1976 98.0589 99.4477 98.7387C100.296 101.044 101.221 103.324 101.859 105.704C102.283 107.288 102.297 107.295 103.745 106.717C105.297 106.098 106.888 105.616 108.563 105.55C110.564 105.471 110.278 105.492 110.735 103.667C112.86 95.1762 113.737 86.5348 113.721 77.7918C113.717 75.374 113.252 73.0357 112.582 70.731C111.948 68.5487 111.1 68.0134 108.926 68.4608C108.151 68.6198 107.393 68.9004 106.658 69.1994C103.85 70.3426 101.471 72.1364 99.2137 74.1238C98.4047 74.8364 98.0613 75.6026 98.1003 76.7182C98.2028 79.5719 98.4964 82.4241 98.2999 85.2884ZM48.6549 84.2065C48.6159 83.3424 48.606 82.4753 48.531 81.6143C48.4163 80.3022 49.106 78.6734 48.2504 77.7574C47.4223 76.8704 45.7622 77.0363 44.4791 76.6968C41.5321 75.9176 38.5837 75.8159 35.5847 76.3871C34.0263 76.6838 33.1347 77.4217 32.8434 79.0496C32.4756 81.1035 32.4098 83.152 32.5574 85.2135C32.8579 89.3985 33.436 93.5452 34.2787 97.6582C35.0693 101.519 36.4166 105.204 37.7448 108.896C37.9666 109.513 38.1593 110.269 39.1082 109.857C40.9372 109.065 42.8435 108.945 44.7873 109.189C45.4938 109.278 45.7569 108.993 45.7492 108.321C45.7347 106.989 45.7133 105.657 45.7431 104.327C45.8195 100.854 46.3219 97.5298 49.2498 95.1479C49.7521 94.7396 49.7843 94.2372 49.629 93.7103C48.7092 90.5997 48.7971 87.3928 48.6549 84.2065ZM60.2332 31.7322C68.8952 27.4853 77.7323 27.0219 86.6833 29.9077C86.9762 29.6447 86.9188 29.4352 86.86 29.2609C85.6197 25.6028 84.2578 21.999 82.1635 18.7201C81.3697 17.4768 80.4697 16.3145 79.2922 15.4252C76.8392 13.574 75.6701 13.2773 72.769 14.9917C71.7459 15.5965 70.774 16.3359 69.9107 17.1534C65.5942 21.2381 62.5853 26.2152 60.2332 31.7322ZM57.9966 82.0333C58.0884 84.5796 58.1473 86.8797 58.4661 89.1867C58.9654 92.805 59.4135 96.4287 60.0979 100.019C60.2852 101.001 60.6813 101.569 61.7931 101.537C62.9195 101.504 64.0504 101.638 65.1798 101.657C66.5233 101.68 66.615 101.607 66.4086 100.341C65.5445 95.0263 65.0483 89.6684 64.5084 84.3166C64.4167 83.4059 64.055 83.0021 63.1886 82.9371C61.5316 82.8125 59.9136 82.4439 57.9966 82.0333ZM81.4485 81.7474C79.8619 81.9913 78.3555 82.2199 76.8499 82.4554C75.3259 82.694 75.3061 82.6978 75.3451 84.3724C75.4406 88.4939 75.5531 92.6146 75.6693 96.7353C75.6953 97.6659 75.7909 98.5949 75.8107 99.5255C75.8329 100.577 76.3483 100.906 77.3408 100.728C78.6483 100.492 79.959 100.255 81.278 100.11C82.2828 99.9988 82.4349 99.4276 82.3363 98.5972C81.9111 95.0179 82.1696 91.4187 82.0495 87.8301C81.983 85.8428 82.0931 83.844 81.4485 81.7474ZM84.3725 99.5026C86.1419 99.2074 87.422 98.9061 88.6997 98.5391C89.875 98.2011 90.2328 97.5764 90.2046 96.3874C90.0944 91.7337 90.0761 87.077 90.0226 82.4218C90.0111 81.4239 89.9958 80.4268 89.9797 79.4297C89.969 78.7813 89.6333 78.6199 89.0713 78.8516C87.5367 79.4847 86.0143 80.1508 84.4681 80.7548C83.8281 81.0049 83.7272 81.4522 83.8052 82.0211C84.4001 86.3827 84.2945 90.7748 84.3687 95.1586C84.3924 96.5464 84.3725 97.935 84.3725 99.5026ZM66.6059 83.1008C67.0929 88.4832 67.5984 93.5023 68.3393 98.4932C68.8486 101.922 68.8822 101.868 72.317 101.373C73.4029 101.216 73.7768 100.828 73.6781 99.7396C73.4273 96.9601 73.2874 94.1745 73.3096 91.3797C73.3279 89.0544 73.2614 86.7268 73.1857 84.4014C73.1444 83.1184 73.0557 83.0893 71.7879 83.0977C70.1347 83.1092 68.4808 83.1008 66.6059 83.1008ZM57.9362 100.702C57.5593 98.3296 57.1708 96.1228 56.8634 93.9053C56.3259 90.0262 55.8854 86.1349 55.7279 82.2191C55.7057 81.6579 55.6637 81.1662 55.0627 80.9139C53.7314 80.3557 52.4055 79.7845 51.0322 79.1995C50.9358 79.4771 50.8204 79.6507 50.8234 79.8227C50.9251 84.7922 50.7806 89.7594 52.0331 94.6646C52.8521 97.867 54.7996 99.6341 57.9362 100.702ZM92.4121 96.1045C93.0414 96.3033 93.2716 96.0188 93.5201 95.8277C95.1542 94.5782 95.4531 92.7423 95.6818 90.875C96.2889 85.9116 96.0396 80.933 95.9593 75.9566C95.9547 75.6829 95.9043 75.4359 95.5258 75.3235C94.7221 75.8098 93.8994 76.3718 93.0185 76.8207C92.2661 77.2045 92.0389 77.6932 92.0711 78.5526C92.2316 82.863 92.3165 87.1764 92.406 91.489C92.4396 93.0535 92.4121 94.6187 92.4121 96.1045ZM50.6162 97.0411C48.8988 98.4259 48.3146 100.063 48.1311 101.885C47.9445 103.74 48.1831 105.628 47.9575 107.455C47.6807 109.694 48.6037 111.081 50.3524 112.163C50.4488 112.223 50.5925 112.204 50.7149 112.221C52.8123 109.405 53.1985 104.483 53.0952 101.719C53.0669 100.967 52.8016 100.35 52.1799 99.8291C51.4084 99.1837 50.929 98.2959 50.6162 97.0411ZM95.6435 96.9318C95.4271 97.2086 95.2604 97.3417 95.2008 97.5114C94.0561 100.783 95.8805 107.101 98.5767 109.241C99.0745 109.637 99.9347 109.292 100.071 108.584C100.143 108.21 100.072 107.789 99.986 107.408C99.3146 104.423 98.2028 101.585 97.023 98.7754C96.7477 98.1224 96.4128 97.4472 95.6435 96.9318Z" fill="black"/>
<path d="M123.147 4.97987C123.971 5.04027 124.902 5.03109 125.802 5.3339C127.266 5.8271 127.515 6.63839 126.511 7.81978C126.256 8.11952 125.931 8.36345 125.616 8.60661C121.214 12.0108 122.131 18.3766 127.02 21.0322C127.543 21.3167 128.135 21.4872 128.627 21.8129C129.379 22.3107 129.414 23.1602 128.67 23.5861C125.239 25.5482 121.673 26.8076 117.657 25.5352C112.45 23.8859 109.734 18.7467 111.327 13.5203C112.873 8.44985 117.722 4.91563 123.147 4.97987ZM125.474 22.7397C122.699 20.8265 121.07 18.4813 120.654 15.4349C120.225 12.2907 121.421 9.63354 123.647 7.218C119.101 7.13924 115.364 9.47678 113.773 13.1685C111.774 17.8077 114.139 22.5126 119.057 23.6465C121.135 24.1252 123.13 23.8186 125.474 22.7397Z" fill="black"/>
<path d="M111.851 50.0531C111.493 48.6943 111.08 47.3677 110.806 46.0135C110.516 44.5774 111.433 43.8633 112.802 44.4452C113.59 44.7801 114.299 45.2977 115.063 45.6946C116.691 46.5403 116.467 46.9196 117.848 45.3734C117.981 45.2251 118.123 45.0844 118.27 44.9498C118.831 44.4367 119.44 44.0055 120.228 44.4123C120.971 44.7961 121.157 45.5096 121.104 46.2796C121.054 47.006 120.962 47.7309 120.855 48.4519C120.767 49.0422 120.668 49.6356 120.505 50.2076C120.337 50.7941 120.377 51.2383 120.995 51.519C121.233 51.6275 121.451 51.7927 121.657 51.9586C122.283 52.4618 122.972 52.9703 122.713 53.9154C122.484 54.7519 121.716 54.9974 120.992 55.0356C119.115 55.1335 117.958 56.0747 117.299 57.7899C117.114 58.2716 116.751 58.6967 116.421 59.1089C116.033 59.5929 115.547 59.9668 114.875 59.7351C114.255 59.5218 113.907 59.0301 113.827 58.3955C113.735 57.6721 113.682 56.9419 113.656 56.2124C113.631 55.5097 113.356 55.1534 112.611 55.0402C111.632 54.8918 110.641 54.693 109.718 54.3482C108.296 53.8175 108.104 52.5367 109.306 51.6015C110.08 50.999 110.989 50.5693 111.851 50.0531ZM115.954 55.8905C116.612 54.3107 117.172 53.2677 118.689 53.3243C116.911 51.5579 119.03 49.8237 118.417 48.1499C116.616 49.9308 115.187 47.932 113.547 47.5451C113.653 48.614 114.107 49.3596 114.387 50.1609C114.846 51.4723 114.696 51.7728 113.388 52.1727C113.062 52.2721 112.643 52.1391 112.257 52.724C113.969 53.0314 115.735 53.218 115.954 55.8905Z" fill="black"/>
<path d="M26.5067 50.8201C27.5145 50.8262 28.2195 51.4693 28.9834 51.9915C30.5234 53.0429 30.5242 53.0399 31.9717 51.9082C32.2332 51.7032 32.4878 51.4853 32.7707 51.3133C34.0424 50.5402 34.9286 51.0212 35.0234 52.5329C35.0402 52.7967 35.0234 53.0659 34.9944 53.3297C34.921 53.988 35.1779 54.3191 35.8661 54.3359C36.4633 54.3505 37.0704 54.3719 37.6523 54.4927C38.8979 54.7512 39.2634 55.8171 38.3221 56.6689C37.4435 57.4641 36.4373 58.1561 35.3943 58.7227C34.3108 59.3115 33.6983 60.0907 33.4911 61.3065C33.3588 62.0804 33.0345 62.8282 32.744 63.5668C32.4871 64.2175 32.0535 64.7329 31.2713 64.7016C30.5043 64.671 30.1189 64.1227 29.8215 63.498C29.7649 63.3787 29.6961 63.2518 29.6861 63.1249C29.5233 61.0366 28.2501 60.6007 26.4394 60.8928C26.129 60.9433 25.7742 60.8493 25.463 60.7483C24.1799 60.3316 23.8572 59.3544 24.6578 58.29C24.8948 57.9749 25.1778 57.6637 25.505 57.4542C26.1902 57.0145 26.2445 56.493 26.0189 55.7529C25.6908 54.6762 25.4217 53.5682 25.2687 52.4549C25.1196 51.3767 25.5976 50.8476 26.5067 50.8201ZM34.6419 56.6582C33.394 56.2835 32.9474 55.4248 32.6163 54.2579C30.983 55.983 29.5248 55.002 27.9772 54.1402C27.9053 55.7658 29.7481 56.9679 28.2417 58.4735C30.1694 58.6287 30.1549 58.5935 31.4449 60.4516C31.399 58.2403 33.0216 57.5964 34.6419 56.6582Z" fill="black"/>
<path d="M46.146 10.6338C46.1245 10.9305 46.1482 11.1415 46.0901 11.3266C45.587 12.9301 45.7766 14.0954 47.4719 15.0558C48.8934 15.861 48.6517 17.7015 47.0482 18.0968C44.4308 18.7429 42.9971 20.3334 42.1063 22.6993C41.8631 23.3446 41.3409 23.8065 40.5693 23.7506C39.755 23.6918 39.4942 23.038 39.2878 22.4026C39.1043 21.836 38.8687 21.2311 38.907 20.6599C38.9911 19.396 38.2723 19.0687 37.2477 18.9471C36.9204 18.9081 36.5855 18.8477 36.2789 18.7315C35.4408 18.4141 34.6609 17.963 34.5905 16.9674C34.5248 16.0391 35.1747 15.4557 35.9615 15.2164C37.227 14.8325 37.3341 13.973 37.1728 12.8987C37.0841 12.3092 36.9663 11.7081 36.9977 11.1194C37.0527 10.097 37.9137 9.38131 38.7609 9.8768C40.7338 11.0307 42.2202 10.8364 43.566 8.94851C43.9422 8.42014 44.6992 8.24274 45.3851 8.61819C46.2538 9.0938 46.1322 9.93951 46.146 10.6338ZM43.5003 12.5118C42.1889 14.4058 40.7796 12.979 39.4552 12.7045C39.2044 13.6832 39.7206 14.4135 39.716 15.2018C39.7106 16.1424 38.7625 16.2395 38.1347 16.6891C40.5931 17.6816 40.593 17.6816 41.2376 19.412C41.9564 17.4461 43.7939 17.1425 45.4983 16.2326C43.8413 15.4878 43.2502 14.2911 43.5003 12.5118Z" fill="black"/>
<path d="M55.3731 102.253C61.6256 104.567 67.7994 104.161 73.9495 103.402C77.8974 102.915 81.8667 102.512 85.7596 101.584C88.0283 101.044 90.2572 100.429 92.2652 99.4526C92.6774 99.6522 92.7317 99.9038 92.721 100.177C92.5642 104.066 94.2197 107.265 96.5282 110.22C96.8929 110.687 97.3096 111.099 97.5688 111.667C98.1928 113.036 98.7166 113.17 99.6739 112.025C101.106 110.311 102.979 109.392 104.982 108.63C107.53 107.662 110.149 107.428 112.814 107.988C117.409 108.952 120.027 114.116 118.097 118.418C117.691 119.324 117.155 120.177 116.629 121.023C115.68 122.554 115.832 124.038 117.821 124.6C118.076 124.672 118.334 124.754 118.57 124.871C120.729 125.939 121.074 127.564 119.511 129.357C118.809 130.163 117.986 130.847 117.103 131.447C114.803 133.012 111.82 133.157 109.621 135.621C109.465 134.471 109.874 134.101 110.053 133.667C110.515 132.543 110.441 131.826 109.759 131.589C108.827 131.264 108.423 131.917 108.108 132.615C107.503 133.957 106.44 134.833 105.199 135.53C102.065 137.292 99.261 136.626 97.2355 133.625C96.8646 133.076 96.6184 132.441 96.2353 131.901C95.5249 130.899 94.6899 130.904 94.0102 131.908C93.715 132.344 93.5261 132.853 93.3021 133.335C92.2729 135.55 90.8047 137.424 88.874 138.911C86.6267 140.642 84.0896 141.513 81.2298 141.203C78.8035 140.94 76.7175 140.084 75.6172 137.682C75.3725 137.148 74.9879 136.778 74.3716 136.95C73.6727 137.146 73.5091 137.72 73.5924 138.373C73.6253 138.633 73.6712 138.924 73.8126 139.132C74.2661 139.799 73.8784 140.076 73.337 140.332C72.6144 140.675 71.8865 140.991 71.0928 141.139C69.162 141.499 67.2382 141.387 65.3395 140.981C63.5869 140.606 62.1784 139.712 61.1622 138.154C60.1659 136.626 59.48 136.583 58.1625 137.885C55.8234 140.196 53.1838 141.864 49.8178 142.163C47.6256 142.358 45.5679 141.973 43.7029 140.791C42.6263 140.109 41.7232 139.273 41.2599 137.995C40.7781 136.667 40.616 136.656 39.1884 137.16C36.178 138.223 32.315 137.168 30.0937 134.677C27.906 132.223 27.3615 128.442 28.7708 125.525C29.2151 124.606 29.8237 123.828 30.6931 123.281C32.0305 122.437 33.3434 122.638 34.6548 123.376C35.1526 123.657 35.6748 123.681 36.1137 123.223C36.5779 122.739 36.3661 122.278 36.1007 121.774C34.0278 117.835 35.5403 113.763 39.7206 111.98C43.1585 110.513 46.7845 111.409 49.2482 114.333C50.3875 115.685 51.1759 115.624 52.1386 114.206C54.1442 111.252 55.0267 107.953 55.2492 104.438C55.2912 103.778 55.3241 103.117 55.3731 102.253ZM59.0235 119.138C54.3224 118.926 49.4615 121.927 47.6164 126.051C47.3427 126.664 47.0857 127.274 47.1568 127.961C47.2096 128.477 47.4902 128.834 48.0071 128.935C48.4392 129.018 48.794 128.818 49.0211 128.46C49.1595 128.242 49.2306 127.978 49.3139 127.729C50.1176 125.32 51.7983 123.68 53.9676 122.502C57.7649 120.442 60.4022 120.9 63.3499 124.108C63.7865 124.583 64.2392 124.994 64.8792 124.591C65.6018 124.138 65.4603 123.446 65.1277 122.83C64.7462 122.121 64.1398 121.591 63.541 121.058C62.5936 120.214 62.6021 119.84 63.4791 119.022C64.2055 118.346 65.1048 118.119 66.0468 118.115C66.7037 118.112 67.3613 118.268 68.0181 118.353C68.6703 118.436 69.2576 118.33 69.4151 117.586C69.5673 116.866 69.097 116.522 68.4914 116.264C66.2013 115.286 62.9033 116.003 61.4398 118.057C60.7103 119.08 60.039 119.548 59.0235 119.138ZM88.1361 116.31C85.339 116.294 83.3547 116.899 81.7818 118.022C81.2397 118.41 80.7335 118.839 80.3779 119.413C79.9941 120.032 79.8435 120.676 80.5209 121.175C81.1327 121.626 81.6656 121.321 82.0571 120.796C82.6329 120.023 83.4021 119.533 84.2586 119.148C87.2254 117.813 90.8682 118.545 93.2271 120.955C93.9268 121.67 94.4858 122.485 94.9935 123.347C95.333 123.924 95.8774 124.187 96.5121 123.817C97.0604 123.497 97.0581 122.94 96.8921 122.405C96.7958 122.094 96.6344 121.794 96.4586 121.517C94.3497 118.192 91.3392 116.431 88.1361 116.31Z" fill="#F6F6AE"/>
<path d="M66.0889 80.9887C62.3016 80.9879 57.9798 80.0367 53.8927 78.0738C53.2344 77.758 52.5867 77.4155 51.9589 77.0439C51.2768 76.6401 50.9718 76.0468 50.9962 75.2148C51.348 63.3084 53.0585 51.6238 56.6707 40.248C56.9727 39.2976 57.4461 38.3945 57.6739 37.4303C58.0853 35.6915 59.2713 34.8251 60.783 34.0834C66.0797 31.4866 71.5845 29.9543 77.5419 30.4123C80.81 30.6639 84.0093 31.1548 87.0121 32.5984C87.8035 32.9792 88.2478 33.448 88.5146 34.2822C90.9309 41.8362 92.9978 49.472 94.0048 57.3571C94.5531 61.6484 94.9752 65.9564 95.577 70.24C95.8041 71.8542 95.3101 72.862 93.9574 73.7031C88.5873 77.0416 82.9166 79.5695 76.5769 80.3387C73.3416 80.731 70.1102 81.2441 66.0889 80.9887ZM72.5143 66.8992C77.1366 66.9352 81.4531 65.0931 84.4421 61.8089C89.6349 56.1016 88.9169 47.6529 82.8402 42.9618C76.1036 37.7606 65.5697 39.3037 60.6171 46.2169C56.5094 51.9503 57.6189 59.5211 63.223 63.8161C65.9551 65.9105 69.078 66.8931 72.5143 66.8992Z" fill="#EBE0D4"/>
<path d="M98.2998 85.2883C98.4963 82.4247 98.2027 79.5718 98.1018 76.7181C98.0628 75.6025 98.4061 74.8363 99.2151 74.1236C101.472 72.1355 103.851 70.3417 106.659 69.1993C107.395 68.9003 108.152 68.6197 108.927 68.4606C111.102 68.0133 111.949 68.5486 112.584 70.7309C113.253 73.0355 113.718 75.3738 113.723 77.7917C113.739 86.5347 112.861 95.176 110.736 103.667C110.28 105.492 110.565 105.472 108.565 105.55C106.89 105.616 105.298 106.098 103.746 106.717C102.298 107.294 102.284 107.288 101.86 105.704C101.222 103.324 100.298 101.044 99.4491 98.7385C99.1991 98.0588 98.9123 97.3217 98.4306 96.8116C97.175 95.4819 97.2071 94.0604 97.6476 92.421C98.27 90.0949 98.02 87.6603 98.2998 85.2883Z" fill="#4F45E2"/>
<path d="M48.6549 84.2064C48.7971 87.3927 48.7092 90.5997 49.6275 93.7087C49.7835 94.2356 49.7507 94.7379 49.2483 95.1463C46.3204 97.5281 45.8188 100.852 45.7416 104.325C45.7125 105.656 45.7332 106.988 45.7477 108.319C45.7553 108.992 45.4915 109.276 44.7858 109.188C42.842 108.944 40.9357 109.064 39.1067 109.856C38.1578 110.267 37.9651 109.512 37.7433 108.895C36.4151 105.202 35.0678 101.518 34.2771 97.6566C33.4345 93.5443 32.8564 89.3968 32.5559 85.2119C32.4083 83.1504 32.4741 81.1019 32.8419 79.048C33.1332 77.4201 34.0256 76.6822 35.5832 76.3855C38.5829 75.8143 41.5306 75.916 44.4776 76.6952C45.7607 77.0347 47.42 76.8688 48.2489 77.7558C49.1045 78.6718 48.4148 80.3005 48.5295 81.6127C48.606 82.4752 48.6159 83.3423 48.6549 84.2064Z" fill="#4F45E2"/>
<path d="M60.2332 31.732C62.5852 26.215 65.5941 21.2379 69.9098 17.1531C70.7731 16.3357 71.745 15.5955 72.7681 14.9914C75.6692 13.2771 76.8391 13.5745 79.2914 15.425C80.4697 16.3143 81.3689 17.4766 82.1626 18.7199C84.257 21.9987 85.6189 25.6025 86.8591 29.2606C86.918 29.435 86.9753 29.6445 86.6825 29.9075C77.7322 27.0225 68.8951 27.4851 60.2332 31.732Z" fill="#4F45E2"/>
<path d="M57.9966 82.0332C59.9136 82.4438 61.5316 82.8124 63.1886 82.9363C64.0549 83.0013 64.4166 83.405 64.5084 84.3157C65.049 89.6675 65.5444 95.0254 66.4085 100.34C66.6142 101.606 66.5232 101.679 65.1797 101.656C64.0503 101.638 62.9194 101.503 61.7931 101.536C60.6813 101.569 60.2852 101 60.0978 100.019C59.4135 96.4278 58.9661 92.8041 58.4661 89.1858C58.1472 86.8796 58.0883 84.5795 57.9966 82.0332Z" fill="#4F45E2"/>
<path d="M81.4484 81.7473C82.093 83.844 81.9829 85.8428 82.0495 87.8309C82.1703 91.4194 81.9111 95.0186 82.3362 98.5979C82.4348 99.4284 82.2827 100 81.2779 100.11C79.9589 100.256 78.6483 100.493 77.3407 100.728C76.3482 100.907 75.8328 100.577 75.8107 99.5262C75.7908 98.5956 75.696 97.6666 75.6692 96.736C75.553 92.6153 75.4406 88.4946 75.345 84.3731C75.306 82.6978 75.3259 82.6947 76.8498 82.4561C78.3554 82.2199 79.8618 81.9912 81.4484 81.7473Z" fill="#4F45E2"/>
<path d="M84.3725 99.5024C84.3725 97.9348 84.3924 96.5462 84.3687 95.1576C84.2937 90.7739 84.3992 86.3825 83.8051 82.0201C83.7271 81.4505 83.828 81.0039 84.4681 80.7539C86.0142 80.1498 87.5366 79.4845 89.0713 78.8506C89.6333 78.6189 89.9697 78.7803 89.9797 79.4287C89.9957 80.4258 90.011 81.4237 90.0225 82.4208C90.076 87.076 90.0944 91.732 90.2045 96.3864C90.2328 97.5754 89.8749 98.2002 88.6996 98.5381C87.4211 98.9067 86.1419 99.208 84.3725 99.5024Z" fill="#4F45E2"/>
<path d="M66.606 83.1007C68.4809 83.1007 70.1348 83.1099 71.7888 83.0976C73.0566 83.0885 73.1453 83.1183 73.1865 84.4014C73.2622 86.7267 73.3288 89.0535 73.3104 91.3796C73.2882 94.1752 73.4289 96.9608 73.679 99.7395C73.7769 100.828 73.4037 101.216 72.3179 101.373C68.8823 101.868 68.8487 101.922 68.3402 98.4932C67.5992 93.5023 67.093 88.4831 66.606 83.1007Z" fill="#4F45E2"/>
<path d="M57.9363 100.702C54.7997 99.6333 52.8514 97.8662 52.034 94.6638C50.7815 89.7593 50.926 84.7922 50.8243 79.8219C50.8205 79.6499 50.9367 79.4763 51.033 79.1987C52.4071 79.7837 53.7331 80.3549 55.0635 80.9131C55.6646 81.1654 55.7059 81.6579 55.7288 82.2183C55.8863 86.1349 56.3267 90.0254 56.8643 93.9045C57.1709 96.1235 57.5594 98.3303 57.9363 100.702Z" fill="#4F45E2"/>
<path d="M92.412 96.1042C92.412 94.6185 92.4396 93.0532 92.4067 91.4895C92.3172 87.1769 92.2323 82.8635 92.0718 78.5531C92.0397 77.6936 92.2668 77.2058 93.0192 76.8212C93.9001 76.3716 94.7228 75.8095 95.5265 75.324C95.9057 75.4364 95.9562 75.6834 95.96 75.9571C96.0403 80.9327 96.2896 85.9121 95.6824 90.8755C95.4538 92.7428 95.1548 94.5794 93.5208 95.8281C93.2715 96.0185 93.0414 96.303 92.412 96.1042Z" fill="#4F45E2"/>
<path d="M125.474 22.7397C123.131 23.8186 121.136 24.1253 119.057 23.6458C114.139 22.5118 111.774 17.8069 113.774 13.1678C115.364 9.47681 119.102 7.1385 123.647 7.21726C121.422 9.6328 120.226 12.29 120.655 15.4342C121.07 18.4814 122.699 20.8265 125.474 22.7397Z" fill="#F6F6AE"/>
<path d="M115.954 55.8904C115.736 53.2179 113.969 53.0306 112.256 52.7224C112.642 52.1382 113.062 52.2713 113.387 52.1711C114.696 51.7712 114.845 51.4707 114.387 50.1593C114.106 49.358 113.653 48.6132 113.546 47.5435C115.186 47.9311 116.615 49.9292 118.416 48.1483C119.03 49.8221 116.91 51.5571 118.689 53.3227C117.172 53.2676 116.611 54.3106 115.954 55.8904Z" fill="#F6F6AE"/>
<path d="M34.6419 56.6581C33.0208 57.5971 31.399 58.2402 31.4449 60.4523C30.1549 58.5942 30.1694 58.6294 28.2417 58.4741C29.7481 56.9685 27.9053 55.7665 27.9772 54.1409C29.5248 55.0026 30.983 55.9829 32.6163 54.2586C32.9474 55.4247 33.3947 56.2827 34.6419 56.6581Z" fill="#F6F6AE"/>
<path d="M43.5003 12.5117C43.2511 14.2911 43.8421 15.4885 45.4984 16.2318C43.794 17.1417 41.9565 17.446 41.2377 19.4112C40.5931 17.6815 40.5931 17.6815 38.1348 16.6883C38.7625 16.2386 39.7107 16.1408 39.7161 15.201C39.7206 14.4126 39.2045 13.6824 39.4553 12.7037C40.7797 12.9789 42.1882 14.405 43.5003 12.5117Z" fill="#F6F6AE"/>
<path d="M59.0234 119.138C60.0389 119.548 60.7102 119.08 61.439 118.057C62.9025 116.003 66.2005 115.285 68.4906 116.263C69.0962 116.522 69.5664 116.866 69.4143 117.586C69.2568 118.33 68.6695 118.436 68.0173 118.352C67.3597 118.268 66.7028 118.112 66.046 118.115C65.1039 118.118 64.2055 118.345 63.4783 119.022C62.6012 119.84 62.5928 120.214 63.5402 121.058C64.139 121.592 64.7453 122.121 65.1269 122.83C65.4587 123.447 65.6002 124.138 64.8784 124.591C64.2384 124.993 63.7857 124.583 63.3491 124.108C60.4013 120.9 57.764 120.442 53.9668 122.502C51.7975 123.68 50.1168 125.32 49.3131 127.729C49.2298 127.978 49.1587 128.242 49.0202 128.46C48.7931 128.818 48.4376 129.018 48.0063 128.935C47.4894 128.835 47.2096 128.477 47.156 127.961C47.0849 127.274 47.3418 126.664 47.6156 126.051C49.4614 121.926 54.3223 118.926 59.0234 119.138Z" fill="black"/>
<path d="M88.1362 116.31C91.3386 116.431 94.3498 118.192 96.4579 121.517C96.6338 121.794 96.7951 122.093 96.8915 122.404C97.0574 122.94 97.0597 123.496 96.5115 123.816C95.8768 124.186 95.3324 123.923 94.9929 123.346C94.4851 122.485 93.9269 121.669 93.2265 120.954C90.8676 118.544 87.2248 117.812 84.2579 119.147C83.4015 119.532 82.6323 120.023 82.0565 120.795C81.665 121.32 81.132 121.625 80.5203 121.174C79.8428 120.675 79.9934 120.03 80.3773 119.412C80.7329 118.839 81.2391 118.409 81.7812 118.021C83.3556 116.899 85.3391 116.294 88.1362 116.31Z" fill="black"/>
<path d="M72.5143 66.8983C69.0779 66.8929 65.9551 65.9103 63.2222 63.8152C57.6181 59.5201 56.5094 51.9493 60.6163 46.216C65.569 39.3027 76.1036 37.7597 82.8394 42.9608C88.9153 47.652 89.6333 56.1006 84.4413 61.808C81.4531 65.0929 77.1366 66.9358 72.5143 66.8983ZM72.5319 42.0173C69.8197 42.0563 66.6387 43.2231 63.9815 45.6708C58.372 50.8391 59.3936 59.3145 66.0499 63.0192C71.5371 66.074 78.6346 64.9048 82.8371 60.2557C87.2881 55.3306 86.5158 48.2278 81.0975 44.4045C78.8028 42.7842 76.2359 41.9951 72.5319 42.0173Z" fill="black"/>
<path d="M72.5319 42.0175C76.2366 41.9961 78.8028 42.7852 81.0967 44.404C86.515 48.2273 87.2873 55.3301 82.8363 60.2552C78.6338 64.9051 71.5363 66.0735 66.0491 63.0187C59.3936 59.3139 58.3712 50.8385 63.9807 45.6703C66.6379 43.2226 69.8196 42.0565 72.5319 42.0175ZM72.84 62.4314C75.7419 62.3534 78.3463 61.5154 80.5316 59.5709C84.3924 56.1368 84.4665 50.6206 80.7136 47.0726C76.5119 43.1003 68.9663 43.2685 64.9511 47.4236C61.4505 51.0458 61.621 56.2706 65.3617 59.6519C67.4851 61.572 70.0322 62.3687 72.84 62.4314Z" fill="#4F45E2"/>
<path d="M72.8402 62.4312C70.0331 62.3685 67.4861 61.5717 65.3611 59.6517C61.6212 56.2704 61.4507 51.0455 64.9505 47.4234C68.9664 43.2683 76.5113 43.1008 80.713 47.0724C84.4667 50.6204 84.3918 56.1366 80.531 59.5706C78.3464 61.5152 75.7413 62.3532 72.8402 62.4312ZM73.3081 46.4003C70.4759 46.4072 68.0978 47.2659 66.2527 49.3136C64.0788 51.7261 64.0964 55.063 66.2313 57.4633C69.647 61.3041 76.6634 61.1267 79.8696 57.1176C81.8508 54.6409 81.7659 51.4516 79.6157 49.1224C77.8937 47.2582 75.6908 46.4798 73.3081 46.4003Z" fill="black"/>
<path d="M73.3079 46.4004C75.6906 46.4799 77.8935 47.2583 79.6155 49.1226C81.7665 51.4517 81.8506 54.641 79.8694 57.1178C76.6632 61.1261 69.6468 61.3035 66.2311 57.4634C64.0962 55.0631 64.0786 51.7262 66.2525 49.3137C68.0976 47.266 70.4757 46.4073 73.3079 46.4004Z" fill="#F6F6AE"/>
</g>
<defs>
<filter id="filter0_d_1_870" x="0.401367" y="0" width="153.197" height="158" filterUnits="userSpaceOnUse" color-interpolation-filters="sRGB">
<feFlood flood-opacity="0" result="BackgroundImageFix"/>
<feColorMatrix in="SourceAlpha" type="matrix" values="0 0 0 0 0 0 0 0 0 0 0 0 0 0 0 0 0 0 127 0" result="hardAlpha"/>
<feOffset dy="4"/>
<feGaussianBlur stdDeviation="2"/>
<feComposite in2="hardAlpha" operator="out"/>
<feColorMatrix type="matrix" values="0 0 0 0 0 0 0 0 0 0 0 0 0 0 0 0 0 0 0.25 0"/>
<feBlend mode="normal" in2="BackgroundImageFix" result="effect1_dropShadow_1_870"/>
<feBlend mode="normal" in="SourceGraphic" in2="effect1_dropShadow_1_870" result="shape"/>
</filter>
</defs>
</svg>
