<svg width="160" height="120" viewBox="0 0 160 120" fill="none" xmlns="http://www.w3.org/2000/svg">
<rect x="0.5" y="0.25" width="158.5" height="119.5" rx="10.4167" fill="white"/>
<rect x="0.5" y="0.25" width="158.5" height="119.5" rx="10.4167" stroke="#DEE2E6" stroke-width="0.5"/>
<path d="M68.6903 69.2415L81.8188 43.8102L75.3805 40.4897L60.2356 69.8558C59.9744 70.3622 60.4272 70.9419 60.9819 70.8113L67.5972 69.2532C67.8288 69.1986 68.0475 69.2591 68.2069 69.4193C68.2951 69.4555 68.3937 69.4574 68.4832 69.4245C68.5727 69.3915 68.6466 69.3262 68.6903 69.2415Z" fill="#EAB14D"/>
<path d="M81.4991 43.6455L68.2068 69.4196C68.2744 69.4833 68.3312 69.5602 68.3682 69.6511L70.9343 75.9444C71.1494 76.4721 71.8843 76.5047 72.1454 75.9983L87.2902 46.6322L81.4991 43.6455Z" fill="#E7A52E"/>
<path d="M78.5515 43.3613L72.21 46.6318L87.3548 75.9979C87.6161 76.5043 88.3507 76.4716 88.5659 75.944L91.132 69.6507C91.1791 69.5327 91.2594 69.4309 91.3633 69.3578C91.4672 69.2846 91.59 69.2433 91.717 69.2387L91.8264 69.1018L78.5515 43.3613Z" fill="#EAB14D"/>
<path d="M99.265 69.8558L84.1201 40.4897L78.4097 43.4347L91.7175 69.2388C91.7789 69.2357 91.8411 69.2387 91.9034 69.2533L98.5187 70.8116C99.0734 70.9421 99.5261 70.3624 99.265 69.8558Z" fill="#E7A52E"/>
<path d="M82.9186 21.517C83.4597 22.1893 84.2007 22.672 85.0343 22.8954C85.8679 23.1188 86.751 23.0712 87.5558 22.7595C89.977 21.8218 92.6452 23.3623 93.0438 25.9279C93.1763 26.7807 93.5766 27.5693 94.1869 28.1795C94.7971 28.7898 95.5856 29.1901 96.4384 29.3226C99.0042 29.7212 100.545 32.3893 99.6069 34.8106C99.2952 35.6154 99.2476 36.4984 99.471 37.3321C99.6943 38.1657 100.177 38.9066 100.849 39.4478C102.872 41.0759 102.872 44.1567 100.849 45.7848C100.177 46.3259 99.6943 47.0669 99.471 47.9005C99.2476 48.7341 99.2952 49.6172 99.6069 50.422C100.545 52.8432 99.0041 55.5114 96.4384 55.91C95.5856 56.0425 94.7971 56.4428 94.1869 57.0531C93.5766 57.6633 93.1763 58.4519 93.0438 59.3046C92.6452 61.8704 89.977 63.4107 87.5558 62.4731C86.751 62.1614 85.8679 62.1138 85.0343 62.3372C84.2007 62.5605 83.4597 63.0433 82.9186 63.7156C81.2905 65.7382 78.2097 65.7382 76.5816 63.7156C76.0404 63.0433 75.2995 62.5605 74.4658 62.3372C73.6322 62.1138 72.7492 62.1614 71.9444 62.4731C69.5231 63.4107 66.855 61.8703 66.4564 59.3046C66.3239 58.4519 65.9236 57.6633 65.3133 57.0531C64.703 56.4428 63.9145 56.0425 63.0617 55.91C60.4959 55.5114 58.9556 52.8432 59.8933 50.422C60.205 49.6172 60.2526 48.7341 60.0292 47.9005C59.8058 47.0669 59.3231 46.3259 58.6508 45.7848C56.6281 44.1567 56.6281 41.0759 58.6508 39.4478C59.3231 38.9066 59.8058 38.1657 60.0292 37.3321C60.2526 36.4984 60.205 35.6154 59.8933 34.8106C58.9556 32.3893 60.4961 29.7212 63.0617 29.3226C63.9145 29.1901 64.703 28.7898 65.3133 28.1795C65.9236 27.5693 66.3239 26.7807 66.4564 25.9279C66.855 23.3621 69.5231 21.8218 71.9444 22.7595C72.7492 23.0712 73.6322 23.1188 74.4658 22.8954C75.2995 22.672 76.0404 22.1893 76.5816 21.517C78.2098 19.4943 81.2905 19.4943 82.9186 21.517Z" fill="#F94E57"/>
<path d="M79.75 57.8697C88.1743 57.8697 95.0035 51.0405 95.0035 42.6162C95.0035 34.192 88.1743 27.3628 79.75 27.3628C71.3258 27.3628 64.4966 34.192 64.4966 42.6162C64.4966 51.0405 71.3258 57.8697 79.75 57.8697Z" fill="#FBE77B"/>
<path d="M79.7502 27.3628C78.0678 27.3612 76.3968 27.6384 74.8049 28.183C80.8018 30.2372 85.1132 35.923 85.1132 42.6164C85.1132 49.3098 80.8018 54.9956 74.8049 57.0498C76.3968 57.5944 78.0678 57.8716 79.7502 57.87C88.1745 57.87 95.0037 51.0408 95.0037 42.6165C95.0037 34.1923 88.1745 27.3628 79.7502 27.3628Z" fill="#FFD064"/>
<path d="M80.0471 47.4735L84.9001 50.6813C85.315 50.9555 85.8479 50.5683 85.7154 50.089L84.1643 44.4822C84.1362 44.3806 84.1386 44.2728 84.1712 44.1725C84.2038 44.0721 84.2652 43.9836 84.3478 43.9179L88.8982 40.2937C89.2873 39.9838 89.0837 39.3572 88.5868 39.3352L82.7753 39.0779C82.6699 39.0732 82.5682 39.0377 82.4828 38.9756C82.3975 38.9136 82.3323 38.8279 82.2953 38.7291L80.2546 33.2815C80.0801 32.8157 79.4214 32.8157 79.247 33.2815L77.2064 38.7291C77.1694 38.8279 77.1042 38.9137 77.0188 38.9757C76.9335 39.0377 76.8318 39.0732 76.7264 39.0779L70.9148 39.3352C70.4179 39.3572 70.2143 39.9838 70.6034 40.2937L75.1539 43.9179C75.2364 43.9836 75.2978 44.0721 75.3304 44.1725C75.3631 44.2728 75.3654 44.3806 75.3373 44.4822L73.7862 50.089C73.6535 50.5683 74.1865 50.9555 74.6015 50.6813L79.4545 47.4735C79.5424 47.4153 79.6454 47.3843 79.7508 47.3843C79.8562 47.3843 79.9593 47.4153 80.0471 47.4735Z" fill="#E7A52E"/>
<path d="M84.3233 82.3001L71.9572 80.8763C69.1046 80.4727 67.6791 79.5168 65.1924 78.0621C61.7972 76.076 57.9347 75.0293 54.0013 75.0293H49.5674V83.6755L65.731 89.692C67.1038 90.2029 68.5568 90.4646 70.0216 90.4646L89.365 89.9948L89.341 89.4882L89.365 87.5555C89.0961 84.8512 87.0139 82.6809 84.3233 82.3001Z" fill="#FFD4BF"/>
<path d="M109.648 80.5464C109.648 80.5464 89.6628 89.4877 89.3411 89.4877L70.0218 90.1019C68.557 90.1019 67.1039 89.8402 65.7311 89.3293L49.5674 83.3129V93.2107L65.731 99.2271C67.1038 99.738 68.5568 99.9997 70.0216 99.9997H86.6796C89.0107 99.9997 91.2939 99.3373 93.263 98.0896L114.12 86.3224C115.496 85.1005 115.751 83.0469 114.716 81.5257C113.583 79.8608 111.71 79.5714 109.648 80.5464Z" fill="#FFBD9F"/>
<path d="M52.0235 95.6644C52.0235 96.8402 51.0704 97.7932 49.8947 97.7932H46.2787C45.1029 97.7932 44.1499 96.8401 44.1499 95.6644V72.5721C44.1499 71.3963 45.103 70.4434 46.2787 70.4434H49.8946C51.0704 70.4434 52.0233 71.3965 52.0233 72.5721L52.0235 95.6644Z" fill="#7C8B96"/>
</svg>
