<svg width="165" height="61" viewBox="0 0 165 61" fill="none" xmlns="http://www.w3.org/2000/svg">
<path d="M70.6648 39.029L69.3164 35.5996H60.8748L59.5558 39.029H54.2798L62.7507 19.0974H67.4992L75.9408 39.029H70.6648ZM62.4869 31.4668H67.7043L65.0956 24.7545L62.4869 31.4668Z" fill="black"/>
<path d="M70.6648 39.029L69.3164 35.5996H60.8748L59.5558 39.029H54.2798L62.7507 19.0974H67.4992L75.9408 39.029H70.6648ZM62.4869 31.4668H67.7043L65.0956 24.7545L62.4869 31.4668Z" fill="url(#paint0_linear_1_534)"/>
<path d="M91.1151 19.0974H96.0394V39.029H91.1151V31.5547H82.9959V39.029H78.0423V19.0974H82.9959V27.0994H91.1151V19.0974Z" fill="black"/>
<path d="M91.1151 19.0974H96.0394V39.029H91.1151V31.5547H82.9959V39.029H78.0423V19.0974H82.9959V27.0994H91.1151V19.0974Z" fill="url(#paint1_linear_1_534)"/>
<path d="M113.227 19.0974H118.708L110.853 33.0202V39.029H105.87V33.0202L97.9849 19.0974H103.466L108.332 27.7735L113.227 19.0974Z" fill="black"/>
<path d="M113.227 19.0974H118.708L110.853 33.0202V39.029H105.87V33.0202L97.9849 19.0974H103.466L108.332 27.7735L113.227 19.0974Z" fill="url(#paint2_linear_1_534)"/>
<path d="M125.589 34.6031H135.437V39.029H120.635V19.0974H125.589V34.6031Z" fill="black"/>
<path d="M125.589 34.6031H135.437V39.029H120.635V19.0974H125.589V34.6031Z" fill="url(#paint3_linear_1_534)"/>
<path d="M137.781 19.0974H142.735V39.029H137.781V19.0974Z" fill="black"/>
<path d="M137.781 19.0974H142.735V39.029H137.781V19.0974Z" fill="url(#paint4_linear_1_534)"/>
<path d="M153.113 34.6617H162.756V39.029H145.492V36.6842L155.37 23.4648H145.99V19.0974H162.58V21.4423L153.113 34.6617Z" fill="black"/>
<path d="M153.113 34.6617H162.756V39.029H145.492V36.6842L155.37 23.4648H145.99V19.0974H162.58V21.4423L153.113 34.6617Z" fill="url(#paint5_linear_1_534)"/>
<path d="M57.4794 50.2481V46.2323L55.9502 46.2673C55.3548 46.279 55.1097 46.349 54.9579 46.5708C54.8529 46.7109 54.8062 46.8393 54.7828 46.9094C54.7595 46.9911 54.7361 47.0378 54.6661 47.0378C54.596 47.0378 54.5727 46.9794 54.5727 46.8744C54.5727 46.7109 54.7712 45.7537 54.7945 45.672C54.8178 45.5436 54.8529 45.4852 54.9112 45.4852C54.993 45.4852 55.098 45.5669 55.3548 45.6019C55.6584 45.6369 56.0436 45.6486 56.3821 45.6486H60.5496C60.8765 45.6486 61.0983 45.6253 61.2501 45.6019C61.4135 45.5786 61.4952 45.5552 61.5302 45.5552C61.6003 45.5552 61.6119 45.6136 61.6119 45.7654C61.6119 45.9755 61.5886 46.7109 61.5886 46.9677C61.5769 47.0728 61.5536 47.1312 61.4952 47.1312C61.4135 47.1312 61.3901 47.0845 61.3785 46.9327L61.3668 46.8277C61.3434 46.5708 61.0749 46.2673 60.1527 46.2557L58.8569 46.2323V50.2481C58.8569 51.1586 58.8686 51.9407 58.9153 52.3727C58.9503 52.6528 59.0087 52.8396 59.3122 52.8863C59.4523 52.9097 59.6858 52.9213 59.8375 52.9213C59.9543 52.9213 60.001 52.9797 60.001 53.0264C60.001 53.0964 59.9192 53.1315 59.8025 53.1315C59.1254 53.1315 58.4367 53.0964 58.1448 53.0964C57.9114 53.0964 57.211 53.1315 56.8024 53.1315C56.674 53.1315 56.6039 53.0964 56.6039 53.0264C56.6039 52.9797 56.6389 52.9213 56.7674 52.9213C56.9191 52.9213 57.0475 52.9097 57.1292 52.8863C57.3394 52.8396 57.3977 52.6528 57.4328 52.361C57.4794 51.9407 57.4794 51.1586 57.4794 50.2481ZM64.9017 50.2481V48.497C64.9017 46.9911 64.9017 46.7109 64.8901 46.3957C64.8667 46.0572 64.7733 45.9521 64.4465 45.8588C64.3647 45.8354 64.1896 45.8237 64.0379 45.8237C63.9328 45.8237 63.8628 45.7887 63.8628 45.7187C63.8628 45.6486 63.9445 45.6253 64.0962 45.6253C64.6332 45.6253 65.287 45.6486 65.5788 45.6486C65.9057 45.6486 68.182 45.6603 68.3805 45.6486C68.5673 45.6369 68.7307 45.6019 68.8124 45.5903C68.8708 45.5786 68.9291 45.5436 68.9758 45.5436C69.0342 45.5436 69.0459 45.5903 69.0459 45.6369C69.0459 45.707 68.9875 45.8237 68.9642 46.279C68.9525 46.3841 68.9291 46.816 68.9058 46.9327C68.8941 46.9794 68.8708 47.0962 68.7891 47.0962C68.719 47.0962 68.7073 47.0495 68.7073 46.9677C68.7073 46.8977 68.6957 46.7226 68.6373 46.6059C68.5556 46.4308 68.4739 46.2907 67.9602 46.244C67.7851 46.2206 66.5594 46.1973 66.3493 46.1973C66.3026 46.1973 66.2792 46.2323 66.2792 46.2907V48.7422C66.2792 48.8005 66.2909 48.8472 66.3493 48.8472C66.5827 48.8472 67.9135 48.8472 68.147 48.8239C68.3922 48.8005 68.5439 48.7772 68.6373 48.6721C68.719 48.6021 68.754 48.5437 68.8007 48.5437C68.8474 48.5437 68.8825 48.5904 68.8825 48.6488C68.8825 48.7071 68.8591 48.8706 68.8007 49.3725C68.7774 49.571 68.754 49.9679 68.754 50.0379C68.754 50.1196 68.7424 50.2597 68.649 50.2597C68.5789 50.2597 68.5556 50.2247 68.5556 50.178C68.5439 50.073 68.5439 49.9445 68.5206 49.8161C68.4622 49.6177 68.3338 49.4659 67.9486 49.4309C67.7618 49.4076 66.5944 49.3842 66.3376 49.3842C66.2909 49.3842 66.2792 49.4309 66.2792 49.4893V50.2831C66.2792 50.6216 66.2675 51.4621 66.2792 51.754C66.3026 52.431 66.6178 52.5828 67.6684 52.5828C67.9369 52.5828 68.3688 52.5711 68.6373 52.4544C68.8941 52.3376 69.0109 52.1275 69.0809 51.7189C69.1043 51.6139 69.1276 51.5672 69.1976 51.5672C69.2794 51.5672 69.291 51.6956 69.291 51.8007C69.291 52.0225 69.2093 52.6995 69.1509 52.898C69.0809 53.1548 68.9875 53.1548 68.6023 53.1548C67.8318 53.1548 67.2131 53.1431 66.7111 53.1198C66.2092 53.1081 65.8239 53.0964 65.5204 53.0964C65.4037 53.0964 65.1819 53.1081 64.9367 53.1081C64.6916 53.1198 64.4348 53.1315 64.2247 53.1315C64.0962 53.1315 64.0262 53.0964 64.0262 53.0264C64.0262 52.9797 64.0612 52.9213 64.1896 52.9213C64.3414 52.9213 64.4581 52.9097 64.5515 52.8863C64.7616 52.8396 64.82 52.6528 64.855 52.361C64.9017 51.9407 64.9017 51.1586 64.9017 50.2481ZM76.7175 53.2599C75.3167 53.2599 74.1259 52.968 73.192 52.1859C72.1764 51.3337 71.9079 50.213 71.9079 49.2558C71.9079 48.5787 72.1297 47.4114 73.1103 46.5358C73.8574 45.8821 74.838 45.4852 76.3673 45.4852C77.0093 45.4852 77.3946 45.5319 77.8615 45.5903C78.2468 45.6486 78.5853 45.7187 78.8888 45.7537C79.0055 45.7654 79.0406 45.8121 79.0406 45.8704C79.0406 45.9521 79.0172 46.0689 78.9939 46.4191C78.9705 46.746 78.9705 47.2946 78.9588 47.4931C78.9472 47.6332 78.9122 47.7382 78.8188 47.7382C78.737 47.7382 78.7137 47.6565 78.7137 47.5281C78.702 47.2129 78.5736 46.8627 78.3168 46.6059C77.9666 46.2673 77.2778 46.0222 76.3323 46.0222C75.4334 46.0222 74.8614 46.1856 74.3944 46.5825C73.6356 47.2362 73.4489 48.1935 73.4489 49.1624C73.4489 51.5205 75.27 52.6412 76.6475 52.6412C77.558 52.6412 78.06 52.5711 78.4686 52.1158C78.6437 51.9174 78.7837 51.6372 78.8188 51.4504C78.8421 51.2987 78.8655 51.252 78.9472 51.252C79.0172 51.252 79.0639 51.3454 79.0639 51.4271C79.0639 51.5438 78.9472 52.4077 78.8421 52.7462C78.7954 52.9213 78.7487 52.968 78.5736 53.0381C78.165 53.2015 77.3829 53.2599 76.7175 53.2599ZM84.1079 48.8589H87.9835C88.0069 48.8589 88.0419 48.8472 88.0419 48.7888V48.5787C88.0419 47.0728 88.0302 46.7109 88.0185 46.3957C87.9952 46.0572 87.9018 45.9521 87.5749 45.8588C87.4932 45.8354 87.3181 45.8237 87.178 45.8237C87.0613 45.8237 87.0029 45.7887 87.0029 45.7187C87.0029 45.6486 87.073 45.6253 87.2247 45.6253C87.7734 45.6253 88.4972 45.6486 88.7657 45.6486C89.0108 45.6486 89.6879 45.6253 90.0848 45.6253C90.2365 45.6253 90.3066 45.6486 90.3066 45.7187C90.3066 45.7887 90.2365 45.8237 90.1198 45.8237C90.0381 45.8237 89.9447 45.8354 89.8163 45.8588C89.5478 45.9054 89.4661 46.0455 89.4427 46.3957C89.4194 46.7109 89.4194 46.9911 89.4194 48.497V50.2481C89.4194 51.1586 89.4194 51.9407 89.4661 52.3727C89.5011 52.6528 89.5595 52.8396 89.8747 52.8863C90.0147 52.9097 90.2365 52.9213 90.4 52.9213C90.505 52.9213 90.5634 52.9797 90.5634 53.0264C90.5634 53.0964 90.4817 53.1315 90.3533 53.1315C89.6879 53.1315 89.0108 53.0964 88.7306 53.0964C88.4972 53.0964 87.7734 53.1315 87.3765 53.1315C87.2364 53.1315 87.1547 53.0964 87.1547 53.0264C87.1547 52.9797 87.2014 52.9213 87.3181 52.9213C87.4816 52.9213 87.5983 52.9097 87.6917 52.8863C87.9018 52.8396 87.9602 52.6528 87.9952 52.361C88.0419 51.9407 88.0419 51.182 88.0419 50.2714V49.5126C88.0419 49.4776 88.0069 49.4542 87.9835 49.4542H84.1079C84.0728 49.4542 84.0378 49.4659 84.0378 49.5126V50.2714C84.0378 51.182 84.0495 51.9407 84.0962 52.3727C84.1312 52.6528 84.1896 52.8396 84.4931 52.8863C84.6332 52.9097 84.8666 52.9213 85.0184 52.9213C85.1351 52.9213 85.1818 52.9797 85.1818 53.0264C85.1818 53.0964 85.1001 53.1315 84.9717 53.1315C84.3063 53.1315 83.5942 53.0964 83.3024 53.0964C83.0689 53.0964 82.3918 53.1315 81.9832 53.1315C81.8548 53.1315 81.7848 53.0964 81.7848 53.0264C81.7848 52.9797 81.8198 52.9213 81.9482 52.9213C82.1 52.9213 82.2167 52.9097 82.3101 52.8863C82.5202 52.8396 82.5786 52.6528 82.6136 52.361C82.6603 51.9407 82.6603 51.1586 82.6603 50.2481V48.497C82.6603 46.9911 82.6603 46.7109 82.6486 46.3957C82.6253 46.0572 82.5319 45.9521 82.205 45.8588C82.1233 45.8354 81.9482 45.8237 81.7965 45.8237C81.6914 45.8237 81.6214 45.7887 81.6214 45.7187C81.6214 45.6486 81.7031 45.6253 81.8432 45.6253C82.3918 45.6253 83.0689 45.6486 83.3491 45.6486C83.5942 45.6486 84.3063 45.6253 84.7149 45.6253C84.855 45.6253 84.925 45.6486 84.925 45.7187C84.925 45.7887 84.8666 45.8237 84.7382 45.8237C84.6565 45.8237 84.5631 45.8354 84.4464 45.8588C84.1662 45.9054 84.0845 46.0455 84.0612 46.3957C84.0378 46.7109 84.0378 47.0728 84.0378 48.5787V48.7888C84.0378 48.8472 84.0728 48.8589 84.1079 48.8589ZM94.7098 47.7265L94.8265 51.7773C94.8498 52.5478 94.9782 52.7812 95.1767 52.8513C95.3518 52.9097 95.5503 52.9213 95.7137 52.9213C95.8304 52.9213 95.8888 52.968 95.8888 53.0264C95.8888 53.1081 95.7954 53.1315 95.6553 53.1315C94.9899 53.1315 94.5113 53.0964 94.3245 53.0964C94.2311 53.0964 93.7408 53.1315 93.2155 53.1315C93.0754 53.1315 92.982 53.1198 92.982 53.0264C92.982 52.968 93.0521 52.9213 93.1455 52.9213C93.2856 52.9213 93.4723 52.9097 93.6124 52.8746C93.8809 52.8046 93.9159 52.5361 93.9276 51.6722L94.021 45.7887C94.021 45.5903 94.091 45.4502 94.1961 45.4502C94.3245 45.4502 94.4646 45.6019 94.6397 45.777C94.7681 45.9054 96.309 47.4814 97.8033 48.9406C98.5037 49.6294 99.8695 51.0302 100.021 51.1703H100.068L99.9629 46.7576C99.9512 46.1506 99.8578 45.9755 99.6127 45.8821C99.4609 45.8237 99.2158 45.8237 99.0757 45.8237C98.9473 45.8237 98.9123 45.777 98.9123 45.7187C98.9123 45.6369 99.0173 45.6253 99.1691 45.6253C99.7061 45.6253 100.255 45.6486 100.477 45.6486C100.593 45.6486 100.979 45.6253 101.48 45.6253C101.621 45.6253 101.714 45.6369 101.714 45.7187C101.714 45.777 101.656 45.8237 101.539 45.8237C101.434 45.8237 101.352 45.8237 101.224 45.8588C100.944 45.9405 100.862 46.1156 100.85 46.6759L100.733 52.933C100.733 53.1548 100.652 53.2482 100.57 53.2482C100.395 53.2482 100.255 53.1431 100.15 53.0381C99.5076 52.4427 98.2235 51.217 97.1496 50.178C96.0289 49.104 94.9432 47.9016 94.7448 47.7265H94.7098ZM108.369 53.2599C105.38 53.2599 104.166 51.1353 104.166 49.3725C104.166 47.6798 105.357 45.4852 108.474 45.4852C111.065 45.4852 112.676 46.9211 112.676 49.1974C112.676 51.4738 111.019 53.2599 108.369 53.2599ZM108.789 52.7229C109.513 52.7229 111.147 52.3843 111.147 49.5593C111.147 47.3647 109.828 46.0105 108.17 46.0105C107.026 46.0105 105.684 46.6175 105.684 49.069C105.684 51.1119 106.851 52.7229 108.789 52.7229ZM117.368 48.497V50.2481C117.368 51.5205 117.368 52.1509 117.589 52.3376C117.764 52.4894 118.161 52.5478 118.955 52.5478C119.504 52.5478 119.901 52.5361 120.158 52.2676C120.286 52.1392 120.391 51.859 120.414 51.6722C120.426 51.5789 120.449 51.5205 120.531 51.5205C120.601 51.5205 120.625 51.6256 120.625 51.7423C120.625 51.859 120.554 52.5945 120.473 52.8863C120.403 53.1081 120.356 53.1548 119.819 53.1548C119.084 53.1548 118.488 53.1431 117.975 53.1198C117.461 53.1081 117.029 53.0964 116.609 53.0964C116.492 53.0964 116.27 53.1081 116.025 53.1081C115.78 53.1198 115.523 53.1315 115.313 53.1315C115.185 53.1315 115.115 53.0964 115.115 53.0264C115.115 52.9797 115.15 52.9213 115.278 52.9213C115.43 52.9213 115.546 52.9097 115.64 52.8863C115.85 52.8396 115.908 52.6528 115.943 52.361C115.99 51.9407 115.99 51.1586 115.99 50.2481V48.497C115.99 46.9911 115.99 46.7109 115.978 46.3957C115.955 46.0572 115.862 45.9521 115.535 45.8588C115.453 45.8354 115.325 45.8237 115.196 45.8237C115.08 45.8237 115.021 45.7887 115.021 45.7187C115.021 45.6486 115.091 45.6253 115.243 45.6253C115.722 45.6253 116.375 45.6486 116.655 45.6486C116.901 45.6486 117.741 45.6253 118.138 45.6253C118.29 45.6253 118.36 45.6486 118.36 45.7187C118.36 45.7887 118.301 45.8237 118.173 45.8237C118.056 45.8237 117.893 45.8354 117.776 45.8588C117.496 45.9054 117.414 46.0455 117.391 46.3957C117.368 46.7109 117.368 46.9911 117.368 48.497ZM126.686 53.2599C123.697 53.2599 122.483 51.1353 122.483 49.3725C122.483 47.6798 123.674 45.4852 126.791 45.4852C129.382 45.4852 130.993 46.9211 130.993 49.1974C130.993 51.4738 129.336 53.2599 126.686 53.2599ZM127.106 52.7229C127.83 52.7229 129.464 52.3843 129.464 49.5593C129.464 47.3647 128.145 46.0105 126.487 46.0105C125.343 46.0105 124.001 46.6175 124.001 49.069C124.001 51.1119 125.168 52.7229 127.106 52.7229ZM140.929 51.3687V52.4661C140.929 52.7346 140.929 52.7462 140.801 52.8163C140.112 53.1548 139.097 53.2599 138.291 53.2599C135.77 53.2599 133.54 52.1158 133.54 49.3725C133.54 47.7849 134.392 46.6759 135.338 46.1272C136.318 45.5552 137.241 45.4852 138.104 45.4852C138.816 45.4852 139.715 45.6019 139.925 45.6486C140.136 45.6836 140.498 45.742 140.743 45.7537C140.859 45.7654 140.883 45.8004 140.883 45.8704C140.883 45.9872 140.813 46.2557 140.813 47.5047C140.813 47.6565 140.754 47.7265 140.673 47.7265C140.603 47.7265 140.579 47.6798 140.568 47.5981C140.544 47.3763 140.486 47.0611 140.217 46.781C139.914 46.4658 139.143 46.0222 137.988 46.0222C137.427 46.0222 136.715 46.0339 136.003 46.6059C135.431 47.0728 135.058 47.8083 135.058 49.0223C135.058 51.1586 136.435 52.7112 138.63 52.7112C138.898 52.7112 139.108 52.7112 139.353 52.6061C139.505 52.5361 139.552 52.431 139.552 52.2559V51.3454C139.552 50.8551 139.552 50.4815 139.54 50.178C139.529 49.8395 139.424 49.7344 139.097 49.641C139.015 49.6177 138.84 49.606 138.7 49.606C138.606 49.606 138.536 49.5593 138.536 49.5009C138.536 49.4192 138.618 49.4076 138.758 49.4076C139.295 49.4076 140.031 49.4309 140.334 49.4309C140.661 49.4309 141.198 49.4076 141.536 49.4076C141.677 49.4076 141.747 49.4192 141.747 49.5009C141.747 49.5593 141.688 49.606 141.618 49.606C141.536 49.606 141.455 49.6177 141.338 49.641C141.058 49.6877 140.953 49.8278 140.941 50.178C140.929 50.4815 140.929 50.8784 140.929 51.3687ZM145.204 50.2481V48.497C145.204 46.9911 145.204 46.7109 145.193 46.3957C145.169 46.0572 145.064 45.9405 144.842 45.8704C144.726 45.8354 144.597 45.8237 144.469 45.8237C144.364 45.8237 144.305 45.8004 144.305 45.707C144.305 45.6486 144.387 45.6253 144.551 45.6253C144.936 45.6253 145.636 45.6486 145.928 45.6486C146.185 45.6486 146.85 45.6253 147.247 45.6253C147.376 45.6253 147.457 45.6486 147.457 45.707C147.457 45.8004 147.399 45.8237 147.294 45.8237C147.189 45.8237 147.107 45.8354 146.99 45.8588C146.71 45.9054 146.629 46.0455 146.605 46.3957C146.582 46.7109 146.582 46.9911 146.582 48.497V50.2481C146.582 51.2053 146.582 51.9991 146.629 52.4194C146.664 52.6879 146.734 52.8396 147.037 52.8863C147.177 52.9097 147.411 52.9213 147.562 52.9213C147.679 52.9213 147.726 52.9797 147.726 53.0264C147.726 53.0964 147.644 53.1315 147.527 53.1315C146.85 53.1315 146.15 53.0964 145.87 53.0964C145.636 53.0964 144.936 53.1315 144.527 53.1315C144.399 53.1315 144.329 53.0964 144.329 53.0264C144.329 52.9797 144.364 52.9213 144.492 52.9213C144.644 52.9213 144.761 52.9097 144.854 52.8863C145.064 52.8396 145.123 52.6995 145.158 52.4077C145.204 51.9991 145.204 51.2053 145.204 50.2481ZM151.359 50.2481V48.497C151.359 46.9911 151.359 46.7109 151.347 46.3957C151.324 46.0572 151.231 45.9521 150.904 45.8588C150.822 45.8354 150.647 45.8237 150.495 45.8237C150.39 45.8237 150.32 45.7887 150.32 45.7187C150.32 45.6486 150.402 45.6253 150.554 45.6253C151.091 45.6253 151.744 45.6486 152.036 45.6486C152.363 45.6486 154.639 45.6603 154.838 45.6486C155.025 45.6369 155.188 45.6019 155.27 45.5903C155.328 45.5786 155.386 45.5436 155.433 45.5436C155.492 45.5436 155.503 45.5903 155.503 45.6369C155.503 45.707 155.445 45.8237 155.421 46.279C155.41 46.3841 155.386 46.816 155.363 46.9327C155.351 46.9794 155.328 47.0962 155.246 47.0962C155.176 47.0962 155.165 47.0495 155.165 46.9677C155.165 46.8977 155.153 46.7226 155.095 46.6059C155.013 46.4308 154.931 46.2907 154.418 46.244C154.242 46.2206 153.017 46.1973 152.807 46.1973C152.76 46.1973 152.737 46.2323 152.737 46.2907V48.7422C152.737 48.8005 152.748 48.8472 152.807 48.8472C153.04 48.8472 154.371 48.8472 154.604 48.8239C154.849 48.8005 155.001 48.7772 155.095 48.6721C155.176 48.6021 155.211 48.5437 155.258 48.5437C155.305 48.5437 155.34 48.5904 155.34 48.6488C155.34 48.7071 155.316 48.8706 155.258 49.3725C155.235 49.571 155.211 49.9679 155.211 50.0379C155.211 50.1196 155.2 50.2597 155.106 50.2597C155.036 50.2597 155.013 50.2247 155.013 50.178C155.001 50.073 155.001 49.9445 154.978 49.8161C154.92 49.6177 154.791 49.4659 154.406 49.4309C154.219 49.4076 153.052 49.3842 152.795 49.3842C152.748 49.3842 152.737 49.4309 152.737 49.4893V50.2831C152.737 50.6216 152.725 51.4621 152.737 51.754C152.76 52.431 153.075 52.5828 154.126 52.5828C154.394 52.5828 154.826 52.5711 155.095 52.4544C155.351 52.3376 155.468 52.1275 155.538 51.7189C155.562 51.6139 155.585 51.5672 155.655 51.5672C155.737 51.5672 155.748 51.6956 155.748 51.8007C155.748 52.0225 155.667 52.6995 155.608 52.898C155.538 53.1548 155.445 53.1548 155.06 53.1548C154.289 53.1548 153.67 53.1431 153.168 53.1198C152.667 53.1081 152.281 53.0964 151.978 53.0964C151.861 53.0964 151.639 53.1081 151.394 53.1081C151.149 53.1198 150.892 53.1315 150.682 53.1315C150.554 53.1315 150.484 53.0964 150.484 53.0264C150.484 52.9797 150.519 52.9213 150.647 52.9213C150.799 52.9213 150.915 52.9097 151.009 52.8863C151.219 52.8396 151.277 52.6528 151.312 52.361C151.359 51.9407 151.359 51.1586 151.359 50.2481ZM160.595 53.2599C160 53.2599 159.369 53.2015 158.926 53.003C158.762 52.933 158.727 52.8863 158.727 52.6645C158.727 52.1275 158.774 51.5088 158.786 51.3454C158.786 51.1936 158.832 51.0886 158.914 51.0886C159.007 51.0886 159.019 51.182 159.019 51.252C159.019 51.3804 159.054 51.5905 159.112 51.7656C159.334 52.5011 160.105 52.7462 160.747 52.7462C161.634 52.7462 162.171 52.1859 162.171 51.4855C162.171 51.0535 162.066 50.6216 161.155 50.0846L160.56 49.7344C159.346 49.0223 158.949 48.3569 158.949 47.4814C158.949 46.2673 160.116 45.4852 161.541 45.4852C162.206 45.4852 162.731 45.5786 163 45.6486C163.093 45.672 163.14 45.707 163.14 45.777C163.14 45.9054 163.105 46.1856 163.105 46.9677C163.105 47.1779 163.058 47.2829 162.976 47.2829C162.906 47.2829 162.871 47.2246 162.871 47.1078C162.871 47.0144 162.825 46.7109 162.603 46.4541C162.451 46.2673 162.124 45.9872 161.459 45.9872C160.723 45.9872 160.058 46.3724 160.058 47.0495C160.058 47.4931 160.221 47.8433 161.144 48.3569L161.564 48.5904C162.918 49.3375 163.338 50.0963 163.338 50.9952C163.338 51.7306 163.058 52.326 162.311 52.8513C161.821 53.2015 161.144 53.2599 160.595 53.2599Z" fill="#4F45E2"/>
<path fill-rule="evenodd" clip-rule="evenodd" d="M22.0654 42.6891L26.495 49.8779H18.0366L22.0654 42.6891Z" fill="#4F45E2"/>
<path fill-rule="evenodd" clip-rule="evenodd" d="M55.8574 25.009L62.4877 14.9004H54.5065C54.7044 15.2365 54.8953 15.5771 55.0797 15.9219C54.8491 15.5761 54.6117 15.2353 54.367 14.9004H28.7285L32.9841 25.009H36.7781V34.0186L47.896 60.4233H48.092V25.009H55.8574Z" fill="url(#paint6_linear_1_534)"/>
<path fill-rule="evenodd" clip-rule="evenodd" d="M4.61914 43.3981L11.8465 54.0823L22.1349 28.1545L22.1881 28.288L22.2659 28.0886L28.1131 43.1053L28.1579 43.2178L35.1447 60.6909H46.969L27.6887 14.9004H16.9101L4.61914 43.3981Z" fill="#4F45E2"/>
<path fill-rule="evenodd" clip-rule="evenodd" d="M10.6403 10.8993L10.9198 6.92218C4.78865 12.1993 0.906738 20.017 0.906738 28.7408C0.906738 34.6319 2.67668 40.1094 5.7139 44.6709C3.55664 40.6341 2.33319 36.0226 2.33319 31.1255C2.33319 23.2409 5.50429 16.0971 10.6403 10.8993Z" fill="#4F45E2"/>
<path fill-rule="evenodd" clip-rule="evenodd" d="M11.6032 6.96424L11.4502 10.725C16.6672 5.44568 22.3279 3.07455 31.11 3.07455C39.8918 3.07455 49.1331 7.73236 54.3669 14.9005C54.6116 15.2353 54.849 15.5761 55.0796 15.9219C54.8952 15.5771 54.7043 15.2365 54.5064 14.9005C46.0151 0.461095 24.7585 -4.35921 11.6032 6.96424Z" fill="black"/>
<path fill-rule="evenodd" clip-rule="evenodd" d="M11.6032 6.96424L11.4502 10.725C16.6672 5.44568 22.3279 3.07455 31.11 3.07455C39.8918 3.07455 49.1331 7.73236 54.3669 14.9005C54.6116 15.2353 54.849 15.5761 55.0796 15.9219C54.8952 15.5771 54.7043 15.2365 54.5064 14.9005C46.0151 0.461095 24.7585 -4.35921 11.6032 6.96424Z" fill="url(#paint7_linear_1_534)"/>
<defs>
<linearGradient id="paint0_linear_1_534" x1="161.189" y1="38.9854" x2="55.1521" y2="38.9854" gradientUnits="userSpaceOnUse">
<stop stop-color="#9C9D9F"/>
<stop offset="1" stop-color="#C6C7C9"/>
</linearGradient>
<linearGradient id="paint1_linear_1_534" x1="161.189" y1="38.9854" x2="55.1521" y2="38.9854" gradientUnits="userSpaceOnUse">
<stop stop-color="#9C9D9F"/>
<stop offset="1" stop-color="#C6C7C9"/>
</linearGradient>
<linearGradient id="paint2_linear_1_534" x1="161.189" y1="38.9854" x2="55.1521" y2="38.9854" gradientUnits="userSpaceOnUse">
<stop stop-color="#9C9D9F"/>
<stop offset="1" stop-color="#C6C7C9"/>
</linearGradient>
<linearGradient id="paint3_linear_1_534" x1="161.189" y1="38.9854" x2="55.1521" y2="38.9854" gradientUnits="userSpaceOnUse">
<stop stop-color="#9C9D9F"/>
<stop offset="1" stop-color="#C6C7C9"/>
</linearGradient>
<linearGradient id="paint4_linear_1_534" x1="161.189" y1="38.9854" x2="55.1521" y2="38.9854" gradientUnits="userSpaceOnUse">
<stop stop-color="#9C9D9F"/>
<stop offset="1" stop-color="#C6C7C9"/>
</linearGradient>
<linearGradient id="paint5_linear_1_534" x1="161.189" y1="38.9854" x2="55.1521" y2="38.9854" gradientUnits="userSpaceOnUse">
<stop stop-color="#9C9D9F"/>
<stop offset="1" stop-color="#C6C7C9"/>
</linearGradient>
<linearGradient id="paint6_linear_1_534" x1="62" y1="15.0001" x2="29" y2="15.0001" gradientUnits="userSpaceOnUse">
<stop stop-color="#9C9D9F"/>
<stop offset="1" stop-color="#C6C7C9"/>
</linearGradient>
<linearGradient id="paint7_linear_1_534" x1="54.4494" y1="0.724306" x2="11.8011" y2="0.724309" gradientUnits="userSpaceOnUse">
<stop stop-color="#9C9D9F"/>
<stop offset="1" stop-color="#C6C7C9"/>
</linearGradient>
</defs>
</svg>
