<svg width="91" height="93" viewBox="0 0 91 93" fill="none" xmlns="http://www.w3.org/2000/svg">
<path d="M10.9584 3.8125C10.9584 2.9837 11.2876 2.18884 11.8737 1.60279C12.4597 1.01674 13.2546 0.6875 14.0834 0.6875H87.5209C88.3497 0.6875 89.1445 1.01674 89.7306 1.60279C90.3166 2.18884 90.6459 2.9837 90.6459 3.8125V55.375C90.6459 56.2038 90.3166 56.9987 89.7306 57.5847C89.1445 58.1708 88.3497 58.5 87.5209 58.5H10.9584V3.8125Z" fill="#4F45E2"/>
<path d="M23.4584 30.375H31.2709V33.5H23.4584V30.375ZM65.6459 8.5H78.1459V11.625H65.6459V8.5ZM50.65 18.0254L61.0289 10.3797L62.882 12.8953L52.5031 20.5408L50.65 18.0254ZM35.5814 29.1236L46.1836 21.3137L48.0367 23.8293L37.4347 31.6393L35.5814 29.1236ZM81.2709 8.5H84.3959V11.625H81.2709V8.5ZM17.2084 30.375H20.3334V33.5H17.2084V30.375Z" fill="#C5DAFA"/>
<path d="M78.1459 85.0625L87.5209 64.75H64.0834L54.7084 85.0625H78.1459Z" fill="#8BE0E8"/>
<path d="M42.2084 85.0625H78.1459V88.1875C78.1459 89.0163 77.8166 89.8112 77.2306 90.3972C76.6445 90.9833 75.8497 91.3125 75.0209 91.3125H45.3334C44.5046 91.3125 43.7097 90.9833 43.1237 90.3972C42.5376 89.8112 42.2084 89.0163 42.2084 88.1875V85.0625Z" fill="#548AFF"/>
<path d="M7.83337 50.6875H18.5814V64.75H7.83337V50.6875Z" fill="#FFCEB6"/>
<path d="M18.5814 50.6875V61.625C17.7354 61.6275 16.8974 61.462 16.1159 61.1381C15.3343 60.8143 14.6249 60.3385 14.0287 59.7383L11.8744 57.584C11.2883 56.9982 10.9588 56.2036 10.9584 55.375V50.6875H18.5814Z" fill="#FFBFA1"/>
<path d="M21.8959 42.875V55.1855C21.8959 55.6208 21.8101 56.0518 21.6436 56.4539C21.477 56.8561 21.2329 57.2214 20.9251 57.5292C20.6173 57.837 20.2519 58.0811 19.8498 58.2477C19.4477 58.4143 19.0167 58.5 18.5814 58.5C18.1462 58.5 17.7151 58.4143 17.313 58.2478C16.9109 58.0812 16.5455 57.8371 16.2377 57.5293L14.0834 55.375V42.875H21.8959Z" fill="#FFCEB6"/>
<path d="M7.83337 55.375L4.19216 49.3063C3.50752 48.1652 3.14587 46.8596 3.14587 45.5289C3.14593 43.5818 3.91944 41.7145 5.29625 40.3377C6.67306 38.961 8.54039 38.1875 10.4875 38.1875H21.8959C22.7247 38.1875 23.5195 38.5167 24.1056 39.1028C24.6916 39.6888 25.0209 40.4837 25.0209 41.3125C25.0209 42.1413 24.6916 42.9362 24.1056 43.5222C23.5195 44.1083 22.7247 44.4375 21.8959 44.4375H17.2084L14.0834 49.125V55.375H7.83337Z" fill="#C47220"/>
<path d="M48.4584 88.1875H35.617C34.7408 88.1875 33.8745 88.0033 33.0742 87.6469C32.2738 87.2905 31.5574 86.7698 30.9713 86.1186L25.0209 79.507V92.875H0.020874V71C0.020874 68.5136 1.00859 66.129 2.76675 64.3709C4.5249 62.6127 6.90947 61.625 9.39587 61.625H19.8379C21.4579 61.625 23.0576 61.9849 24.5216 62.6787C25.9855 63.3724 27.2771 64.3827 28.3029 65.6365L39.0834 78.8125H48.4584V88.1875Z" fill="#FFB401"/>
<path d="M48.4584 88.1875V78.8125H51.5834L57.8334 77.25L64.7963 81.4277C65.0554 81.5832 65.2698 81.8031 65.4187 82.066C65.5676 82.329 65.6459 82.626 65.6459 82.9281C65.6459 83.187 65.5884 83.4427 65.4777 83.6767C65.3669 83.9107 65.2056 84.1172 65.0054 84.2813C64.8052 84.4455 64.5711 84.5631 64.3199 84.6258C64.0687 84.6885 63.8068 84.6947 63.5529 84.6439L57.8334 83.5L52.4168 87.5625C51.8758 87.9682 51.2179 88.1875 50.5418 88.1875H48.4584Z" fill="#FFCEB6"/>
<path d="M75.0209 91.3125H64.0834C63.2546 91.3125 62.4597 90.9833 61.8737 90.3972C61.2876 89.8112 60.9584 89.0163 60.9584 88.1875V85.0625H78.1459V88.1875C78.1459 89.0163 77.8166 89.8112 77.2306 90.3972C76.6445 90.9833 75.8497 91.3125 75.0209 91.3125Z" fill="#4367E0"/>
<path d="M32.8334 44.4375H42.2084V52.25H32.8334V44.4375Z" fill="#FFA100"/>
<path d="M42.2084 38.1875H51.5834V52.25H42.2084V38.1875Z" fill="#FFB401"/>
<path d="M51.5834 30.375H60.9584V52.25H51.5834V30.375Z" fill="#FFC431"/>
<path d="M60.9584 22.5625H70.3334V52.25H60.9584V22.5625Z" fill="#FFCC4D"/>
<path d="M70.3334 16.3125H79.7084V52.25H70.3334V16.3125Z" fill="#FFD873"/>
<path d="M28.1459 50.6875H84.3959V53.8125H28.1459V50.6875Z" fill="#7DAFFF"/>
<path d="M34.3959 35.0625C36.1218 35.0625 37.5209 33.6634 37.5209 31.9375C37.5209 30.2116 36.1218 28.8125 34.3959 28.8125C32.67 28.8125 31.2709 30.2116 31.2709 31.9375C31.2709 33.6634 32.67 35.0625 34.3959 35.0625Z" fill="#C5DAFA"/>
<path d="M34.3959 36.625C33.4688 36.625 32.5625 36.3501 31.7916 35.835C31.0208 35.3199 30.42 34.5879 30.0652 33.7313C29.7104 32.8748 29.6176 31.9323 29.7984 31.023C29.9793 30.1137 30.4258 29.2785 31.0813 28.6229C31.7369 27.9674 32.5721 27.5209 33.4814 27.3401C34.3907 27.1592 35.3332 27.252 36.1897 27.6068C37.0462 27.9616 37.7783 28.5624 38.2934 29.3333C38.8085 30.1041 39.0834 31.0104 39.0834 31.9375C39.082 33.1803 38.5877 34.3718 37.7089 35.2505C36.8301 36.1293 35.6387 36.6236 34.3959 36.625ZM34.3959 30.375C34.0868 30.375 33.7847 30.4666 33.5278 30.6383C33.2708 30.81 33.0706 31.0541 32.9523 31.3396C32.8341 31.6251 32.8031 31.9392 32.8634 32.2423C32.9237 32.5454 33.0725 32.8238 33.291 33.0424C33.5095 33.2609 33.788 33.4097 34.091 33.47C34.3941 33.5303 34.7083 33.4993 34.9938 33.3811C35.2793 33.2628 35.5234 33.0625 35.695 32.8056C35.8667 32.5486 35.9584 32.2465 35.9584 31.9375C35.9579 31.5233 35.7931 31.1261 35.5002 30.8332C35.2072 30.5403 34.8101 30.3755 34.3959 30.375Z" fill="#E0EDFF"/>
<path d="M50.0209 24.125C51.7468 24.125 53.1459 22.7259 53.1459 21C53.1459 19.2741 51.7468 17.875 50.0209 17.875C48.295 17.875 46.8959 19.2741 46.8959 21C46.8959 22.7259 48.295 24.125 50.0209 24.125Z" fill="#C5DAFA"/>
<path d="M50.0209 25.6875C49.0938 25.6875 48.1875 25.4126 47.4166 24.8975C46.6458 24.3824 46.045 23.6504 45.6902 22.7938C45.3354 21.9373 45.2426 20.9948 45.4234 20.0855C45.6043 19.1762 46.0508 18.341 46.7063 17.6854C47.3619 17.0299 48.1971 16.5834 49.1064 16.4026C50.0157 16.2217 50.9582 16.3145 51.8147 16.6693C52.6712 17.0241 53.4033 17.6249 53.9184 18.3958C54.4335 19.1666 54.7084 20.0729 54.7084 21C54.707 22.2428 54.2127 23.4343 53.3339 24.313C52.4551 25.1918 51.2637 25.6861 50.0209 25.6875ZM50.0209 19.4375C49.7118 19.4375 49.4098 19.5291 49.1528 19.7008C48.8958 19.8725 48.6956 20.1165 48.5773 20.4021C48.4591 20.6876 48.4281 21.0017 48.4884 21.3048C48.5487 21.6079 48.6975 21.8863 48.916 22.1049C49.1345 22.3234 49.413 22.4722 49.716 22.5325C50.0191 22.5928 50.3333 22.5618 50.6188 22.4436C50.9043 22.3253 51.1484 22.125 51.32 21.8681C51.4917 21.6111 51.5834 21.309 51.5834 21C51.5829 20.5858 51.4181 20.1886 51.1252 19.8957C50.8322 19.6028 50.4351 19.438 50.0209 19.4375Z" fill="#E0EDFF"/>
<path d="M64.0834 13.1875C65.8093 13.1875 67.2084 11.7884 67.2084 10.0625C67.2084 8.33661 65.8093 6.9375 64.0834 6.9375C62.3575 6.9375 60.9584 8.33661 60.9584 10.0625C60.9584 11.7884 62.3575 13.1875 64.0834 13.1875Z" fill="#C5DAFA"/>
<path d="M64.0834 14.75C63.1563 14.75 62.25 14.4751 61.4791 13.96C60.7083 13.4449 60.1075 12.7129 59.7527 11.8563C59.3979 10.9998 59.3051 10.0573 59.4859 9.14802C59.6668 8.23873 60.1133 7.4035 60.7688 6.74794C61.4244 6.09238 62.2596 5.64594 63.1689 5.46507C64.0782 5.2842 65.0207 5.37703 65.8772 5.73182C66.7337 6.0866 67.4658 6.68741 67.9809 7.45827C68.496 8.22912 68.7709 9.1354 68.7709 10.0625C68.7695 11.3053 68.2752 12.4967 67.3964 13.3755C66.5176 14.2543 65.3262 14.7486 64.0834 14.75ZM64.0834 8.5C63.7743 8.5 63.4723 8.59164 63.2153 8.76333C62.9583 8.93502 62.7581 9.17905 62.6398 9.46456C62.5216 9.75007 62.4906 10.0642 62.5509 10.3673C62.6112 10.6704 62.76 10.9488 62.9785 11.1674C63.197 11.3859 63.4755 11.5347 63.7785 11.595C64.0816 11.6553 64.3958 11.6243 64.6813 11.5061C64.9668 11.3878 65.2109 11.1875 65.3825 10.9306C65.5542 10.6736 65.6459 10.3715 65.6459 10.0625C65.6454 9.64826 65.4806 9.25113 65.1877 8.95822C64.8947 8.66531 64.4976 8.50052 64.0834 8.5Z" fill="#E0EDFF"/>
<path d="M15.6459 6.9375C16.5088 6.9375 17.2084 6.23795 17.2084 5.375C17.2084 4.51206 16.5088 3.8125 15.6459 3.8125C14.7829 3.8125 14.0834 4.51206 14.0834 5.375C14.0834 6.23795 14.7829 6.9375 15.6459 6.9375Z" fill="#F5714F"/>
<path d="M20.3334 6.9375C21.1963 6.9375 21.8959 6.23795 21.8959 5.375C21.8959 4.51206 21.1963 3.8125 20.3334 3.8125C19.4704 3.8125 18.7709 4.51206 18.7709 5.375C18.7709 6.23795 19.4704 6.9375 20.3334 6.9375Z" fill="#FFC431"/>
<path d="M25.0209 6.9375C25.8838 6.9375 26.5834 6.23795 26.5834 5.375C26.5834 4.51206 25.8838 3.8125 25.0209 3.8125C24.1579 3.8125 23.4584 4.51206 23.4584 5.375C23.4584 6.23795 24.1579 6.9375 25.0209 6.9375Z" fill="#3CDE8D"/>
<path d="M20.9712 72.6543C20.3937 72.0131 19.4057 71.9615 18.7645 72.539C18.1233 73.1165 18.0717 74.1045 18.6492 74.7457L22.8105 79.3657C23.3881 80.0069 24.3761 80.0585 25.0172 79.4809C25.6584 78.9034 25.71 77.9154 25.1325 77.2742L20.9712 72.6543Z" fill="#FFA100"/>
</svg>
