<svg width="30" height="30" viewBox="0 0 30 30" fill="none" xmlns="http://www.w3.org/2000/svg">
<path d="M26.1375 13.9001V8.41265C26.1375 7.38765 25.3625 6.22515 24.4 5.83765L17.4375 2.98765C15.875 2.35015 14.1125 2.35015 12.55 2.98765L5.58755 5.83765C4.63755 6.22515 3.86255 7.38765 3.86255 8.41265V13.9001C3.86255 20.0126 8.30005 25.7376 14.3625 27.4126C14.775 27.5251 15.225 27.5251 15.6375 27.4126C21.7 25.7376 26.1375 20.0126 26.1375 13.9001ZM15.9375 16.0876V19.3751C15.9375 19.8876 15.5125 20.3126 15 20.3126C14.4875 20.3126 14.0625 19.8876 14.0625 19.3751V16.0876C12.8 15.6876 11.875 14.5126 11.875 13.1251C11.875 11.4001 13.275 10.0001 15 10.0001C16.725 10.0001 18.125 11.4001 18.125 13.1251C18.125 14.5251 17.2 15.6876 15.9375 16.0876Z" fill="#4F45E2"/>
</svg>
