<svg width="101" height="96" viewBox="0 0 101 96" fill="none" xmlns="http://www.w3.org/2000/svg">
<path d="M65.0937 82.5628H86.0183C87.6362 82.5628 88.948 81.2511 88.948 79.6331C88.948 78.0151 87.6362 76.7034 86.0183 76.7034H65.0937C63.4757 76.7034 62.164 78.0151 62.164 79.6331C62.164 81.2511 63.4757 82.5628 65.0937 82.5628ZM70.6017 24.6956C72.2196 24.6956 73.5314 23.3839 73.5314 21.7659V12.5522H86.0183C87.6362 12.5522 88.948 11.2405 88.948 9.62256C88.948 8.00459 87.6362 6.69287 86.0183 6.69287H70.6017C68.9837 6.69287 67.672 8.00459 67.672 9.62256V21.7659C67.672 23.3839 68.9837 24.6956 70.6017 24.6956ZM83.0612 47.3835H97.737C99.355 47.3835 100.667 46.0718 100.667 44.4538C100.667 42.8358 99.355 41.5241 97.737 41.5241H83.0612C81.4433 41.5241 80.1315 42.8358 80.1315 44.4538C80.1315 46.0718 81.4433 47.3835 83.0612 47.3835ZM78.7485 61.2597H91.0749C92.6929 61.2597 94.0046 59.948 94.0046 58.33C94.0046 56.712 92.6929 55.4003 91.0749 55.4003H78.7485C77.1306 55.4003 75.8189 56.712 75.8189 58.33C75.8189 59.948 77.1306 61.2597 78.7485 61.2597Z" fill="#CFDBFD"/>
<path d="M91.8776 14.9471C94.8183 14.9471 97.2023 12.5632 97.2023 9.62246C97.2023 6.68176 94.8183 4.29785 91.8776 4.29785C88.9369 4.29785 86.553 6.68176 86.553 9.62246C86.553 12.5632 88.9369 14.9471 91.8776 14.9471Z" fill="#FFE370"/>
<path d="M91.8776 84.9578C94.8183 84.9578 97.2023 82.5739 97.2023 79.6332C97.2023 76.6925 94.8183 74.3086 91.8776 74.3086C88.9369 74.3086 86.553 76.6925 86.553 79.6332C86.553 82.5739 88.9369 84.9578 91.8776 84.9578Z" fill="#FFE370"/>
<path d="M83.0886 9.62256C83.0886 4.77627 87.0314 0.833496 91.8777 0.833496C96.7239 0.833496 100.667 4.77627 100.667 9.62256C100.667 14.4688 96.7239 18.4116 91.8777 18.4116C87.0314 18.4116 83.0886 14.469 83.0886 9.62256ZM88.948 9.62256C88.948 11.238 90.2622 12.5522 91.8777 12.5522C93.4931 12.5522 94.8073 11.238 94.8073 9.62256C94.8073 8.00713 93.4931 6.69287 91.8777 6.69287C90.2622 6.69287 88.948 8.00713 88.948 9.62256ZM83.0886 79.6331C83.0886 74.7868 87.0314 70.844 91.8777 70.844C96.7239 70.844 100.667 74.7868 100.667 79.6331C100.667 84.4794 96.7239 88.4222 91.8777 88.4222C87.0314 88.4222 83.0886 84.4794 83.0886 79.6331ZM88.948 79.6331C88.948 81.2485 90.2622 82.5628 91.8777 82.5628C93.4931 82.5628 94.8073 81.2485 94.8073 79.6331C94.8073 78.0177 93.4931 76.7034 91.8777 76.7034C90.2622 76.7034 88.948 78.0175 88.948 79.6331Z" fill="#FFB54C"/>
<path d="M36.2398 82.5628H15.3152C13.6972 82.5628 12.3855 81.2511 12.3855 79.6331C12.3855 78.0151 13.6972 76.7034 15.3152 76.7034H36.2398C37.8577 76.7034 39.1695 78.0151 39.1695 79.6331C39.1695 81.2511 37.8577 82.5628 36.2398 82.5628ZM30.7318 24.6956C29.1138 24.6956 27.8021 23.3839 27.8021 21.7659V12.5522H15.3152C13.6972 12.5522 12.3855 11.2405 12.3855 9.62256C12.3855 8.00459 13.6972 6.69287 15.3152 6.69287H30.7318C32.3497 6.69287 33.6614 8.00459 33.6614 9.62256V21.7659C33.6614 23.3839 32.3497 24.6956 30.7318 24.6956ZM18.2722 47.3835H3.59641C1.97844 47.3835 0.666718 46.0718 0.666718 44.4538C0.666718 42.8358 1.97844 41.5241 3.59641 41.5241H18.2722C19.8902 41.5241 21.2019 42.8358 21.2019 44.4538C21.2019 46.0718 19.8902 47.3835 18.2722 47.3835ZM22.5849 61.2597H10.2585C8.64055 61.2597 7.32883 59.948 7.32883 58.33C7.32883 56.712 8.64055 55.4003 10.2585 55.4003H22.5849C24.2029 55.4003 25.5146 56.712 25.5146 58.33C25.5146 59.948 24.2029 61.2597 22.5849 61.2597Z" fill="#E8F1FD"/>
<path d="M9.45577 14.9471C12.3965 14.9471 14.7804 12.5632 14.7804 9.62246C14.7804 6.68176 12.3965 4.29785 9.45577 4.29785C6.51507 4.29785 4.13116 6.68176 4.13116 9.62246C4.13116 12.5632 6.51507 14.9471 9.45577 14.9471Z" fill="#FFEFB2"/>
<path d="M9.45577 84.9578C12.3965 84.9578 14.7804 82.5739 14.7804 79.6332C14.7804 76.6925 12.3965 74.3086 9.45577 74.3086C6.51507 74.3086 4.13116 76.6925 4.13116 79.6332C4.13116 82.5739 6.51507 84.9578 9.45577 84.9578Z" fill="#FFEFB2"/>
<path d="M9.45578 18.4116C4.60949 18.4116 0.666718 14.4688 0.666718 9.62256C0.666718 4.77627 4.60949 0.833496 9.45578 0.833496C14.3021 0.833496 18.2448 4.77627 18.2448 9.62256C18.2448 14.4688 14.3021 18.4116 9.45578 18.4116ZM9.45578 6.69287C7.84035 6.69287 6.52609 8.00713 6.52609 9.62256C6.52609 11.238 7.84035 12.5522 9.45578 12.5522C11.0712 12.5522 12.3855 11.238 12.3855 9.62256C12.3855 8.00713 11.0712 6.69287 9.45578 6.69287ZM9.45578 88.4222C4.60949 88.4222 0.666718 84.4794 0.666718 79.6331C0.666718 74.7868 4.60949 70.844 9.45578 70.844C14.3021 70.844 18.2448 74.7868 18.2448 79.6331C18.2448 84.4794 14.3021 88.4222 9.45578 88.4222ZM9.45578 76.7034C7.84035 76.7034 6.52609 78.0177 6.52609 79.6331C6.52609 81.2485 7.84035 82.5628 9.45578 82.5628C11.0712 82.5628 12.3855 81.2485 12.3855 79.6331C12.3855 78.0177 11.0712 76.7034 9.45578 76.7034Z" fill="#FFE370"/>
<path d="M81.9948 48.4377C78.5573 60.7092 70.3308 78.1643 50.6667 92.5745C34.9206 81.0569 24.4148 66.3127 19.4167 48.7112C16.5417 38.5842 16.3874 30.2581 16.5085 26.5627C36.6804 20.135 46.5085 13.2698 50.6667 9.62329C54.8249 13.2698 64.653 20.137 84.8288 26.5627C84.9538 30.2112 84.8112 38.3792 81.9948 48.4377Z" fill="#44ADFD"/>
<path d="M81.9948 48.4377C78.5573 60.7092 70.3308 78.1643 50.6667 92.5745V9.62329C54.8249 13.2698 64.653 20.137 84.8288 26.5627C84.9538 30.2112 84.8112 38.3792 81.9948 48.4377Z" fill="#239FFD"/>
<path d="M52.4784 90.8233L50.6667 88.637C36.4167 78.2131 26.9069 64.8674 22.3835 48.9377C19.7819 39.7717 19.6433 32.2366 19.7526 28.8928C38.0085 23.0745 46.903 16.8616 50.6667 13.5608L52.4784 11.7598V9.17895L50.6667 6.44556C49.7292 6.44556 48.8874 6.89478 48.3366 7.65259C48.03 8.02368 40.9499 16.2932 16.0964 23.8967C14.9831 24.2366 14.1765 25.2053 14.0437 26.3635C13.9948 26.7834 12.903 36.8147 16.6706 50.2698C18.8722 58.1363 22.311 65.6027 26.8581 72.3889C32.5359 80.8694 39.9812 88.3557 48.9909 94.6389C49.4948 94.9905 50.0808 95.1663 50.6667 95.1663L52.4784 92.8094V90.8233Z" fill="#6D65E7"/>
<path d="M52.3571 28.5274L50.6667 26.1233C43.7507 26.1233 38.1237 31.7502 38.1237 38.6663V43.2034C38.1237 44.8206 39.4362 46.1331 41.0534 46.1331C42.6726 46.1331 43.9831 44.8206 43.9831 43.2034V38.6663C43.9831 34.9807 46.9812 31.9827 50.6667 31.9827L52.3571 30.1106V28.5274Z" fill="#404A80"/>
<path d="M84.6628 50.2698C82.4613 58.1363 79.0225 65.6027 74.4753 72.3889C68.7976 80.8694 61.3523 88.3557 52.3425 94.6389C51.8386 94.9905 51.2527 95.1663 50.6667 95.1663V88.637C68.4636 75.594 75.9089 59.7971 79.0202 48.6897C81.5691 39.5862 81.698 32.1936 81.5847 28.8928C63.3249 23.0764 54.4304 16.8616 50.6667 13.5608V6.44556C51.6042 6.44556 52.446 6.89478 52.9968 7.65259C53.3034 8.02368 60.3835 16.2932 85.237 23.8967C86.3503 24.2366 87.157 25.2053 87.2898 26.3635C87.3386 26.7834 88.4304 36.8147 84.6628 50.2698Z" fill="#4F45E2"/>
<path d="M63.2097 38.6663V43.2034C63.2097 44.8206 61.8972 46.1331 60.28 46.1331C58.6609 46.1331 57.3503 44.8206 57.3503 43.2034V38.6663C57.3503 34.9807 54.3523 31.9827 50.6667 31.9827V26.1233C57.5827 26.1233 63.2097 31.7502 63.2097 38.6663Z" fill="#283366"/>
<path d="M53.2882 46.1323L50.6667 40.2737H39.8855C36.9402 40.2737 34.5456 42.6682 34.5456 45.6135V62.3909C34.5456 65.3362 36.9402 67.7307 39.8855 67.7307H50.6667L53.2882 60.7385V46.1323Z" fill="#FFE370"/>
<path d="M66.7878 45.6135V62.3909C66.7878 65.3362 64.3933 67.7307 61.448 67.7307H50.6667V40.2737H61.448C64.3933 40.2737 66.7878 42.6682 66.7878 45.6135Z" fill="#FFB54C"/>
<path d="M53.5964 52.5784V55.426C53.5964 57.0452 52.2839 58.3557 50.6667 58.3557C49.0495 58.3557 47.737 57.0452 47.737 55.426V52.5784C47.737 50.9592 49.0495 49.6487 50.6667 49.6487C52.2839 49.6487 53.5964 50.959 53.5964 52.5784Z" fill="#404A80"/>
<path d="M53.5964 52.5784V55.426C53.5964 57.0452 52.2839 58.3557 50.6667 58.3557V49.6487C52.2839 49.6487 53.5964 50.959 53.5964 52.5784Z" fill="#283366"/>
</svg>
