<svg width="577" height="470" viewBox="0 0 577 470" fill="none" xmlns="http://www.w3.org/2000/svg">
<g clip-path="url(#clip0_1_4930)">
<g filter="url(#filter0_d_1_4930)">
<path d="M535.712 57.4021H424.238C410.671 57.4021 399.673 68.4004 399.673 81.9666V134.054C399.673 147.62 410.672 158.617 424.238 158.617H535.712C549.278 158.617 560.275 147.62 560.275 134.054V81.9666C560.275 68.4004 549.278 57.4021 535.712 57.4021Z" fill="white" fill-opacity="0.01"/>
</g>
<path d="M535.712 57.4021H424.238C410.671 57.4021 399.673 68.4004 399.673 81.9666V134.054C399.673 147.62 410.672 158.617 424.238 158.617H535.712C549.278 158.617 560.275 147.62 560.275 134.054V81.9666C560.275 68.4004 549.278 57.4021 535.712 57.4021Z" fill="white"/>
<path d="M540.687 79.0659H419.262C418.375 79.0659 417.525 79.4182 416.897 80.0452C416.27 80.6722 415.918 81.5226 415.918 82.4094C415.918 83.2961 416.27 84.1465 416.897 84.7736C417.525 85.4006 418.375 85.7528 419.262 85.7528H540.687C541.574 85.7528 542.424 85.4006 543.051 84.7736C543.678 84.1465 544.03 83.2961 544.03 82.4094C544.03 81.5226 543.678 80.6722 543.051 80.0452C542.424 79.4182 541.574 79.0659 540.687 79.0659Z" fill="#EFF0F7"/>
<g filter="url(#filter1_d_1_4930)">
<path d="M463.356 79.0659H419.262C418.375 79.0659 417.525 79.4182 416.897 80.0452C416.27 80.6722 415.918 81.5226 415.918 82.4094C415.918 83.2961 416.27 84.1465 416.897 84.7736C417.525 85.4006 418.375 85.7528 419.262 85.7528H463.356C464.243 85.7528 465.093 85.4006 465.72 84.7736C466.348 84.1465 466.7 83.2961 466.7 82.4094C466.7 81.5226 466.348 80.6722 465.72 80.0452C465.093 79.4182 464.243 79.0659 463.356 79.0659Z" fill="#3F80FD" fill-opacity="0.01"/>
</g>
<path d="M463.51 79.0659H419.416C418.529 79.0659 417.678 79.4182 417.051 80.0452C416.424 80.6722 416.072 81.5226 416.072 82.4094C416.072 83.2961 416.424 84.1465 417.051 84.7736C417.678 85.4006 418.529 85.7528 419.416 85.7528H463.51C464.397 85.7528 465.247 85.4006 465.874 84.7736C466.501 84.1465 466.854 83.2961 466.854 82.4094C466.854 81.5226 466.501 80.6722 465.874 80.0452C465.247 79.4182 464.397 79.0659 463.51 79.0659Z" fill="#4F45E2"/>
<path d="M540.687 91.8662H419.262C418.375 91.8664 417.525 92.2188 416.898 92.8458C416.271 93.4728 415.919 94.3231 415.919 95.2097C415.919 96.0963 416.271 96.9466 416.898 97.5736C417.525 98.2006 418.375 98.5529 419.262 98.5531H540.687C541.574 98.5531 542.424 98.2009 543.051 97.5739C543.678 96.9468 544.03 96.0964 544.03 95.2097C544.03 94.3229 543.678 93.4725 543.051 92.8455C542.424 92.2185 541.574 91.8662 540.687 91.8662Z" fill="#EFF0F7"/>
<g filter="url(#filter2_d_1_4930)">
<path d="M527.6 91.8662H419.262C418.375 91.8664 417.525 92.2188 416.898 92.8458C416.271 93.4728 415.919 94.3231 415.919 95.2097C415.919 96.0963 416.271 96.9466 416.898 97.5736C417.525 98.2006 418.375 98.5529 419.262 98.5531H527.6C528.487 98.5531 529.337 98.2009 529.964 97.5739C530.591 96.9468 530.944 96.0964 530.944 95.2097C530.944 94.3229 530.591 93.4725 529.964 92.8455C529.337 92.2185 528.487 91.8662 527.6 91.8662Z" fill="#3F80FD" fill-opacity="0.01"/>
</g>
<path d="M527.754 91.8662H419.416C418.529 91.8664 417.679 92.2188 417.052 92.8458C416.425 93.4728 416.073 94.3231 416.073 95.2097C416.073 96.0963 416.425 96.9466 417.052 97.5736C417.679 98.2006 418.529 98.5529 419.416 98.5531H527.754C528.641 98.5531 529.491 98.2009 530.118 97.5739C530.745 96.9468 531.098 96.0964 531.098 95.2097C531.098 94.3229 530.745 93.4725 530.118 92.8455C529.491 92.2185 528.641 91.8662 527.754 91.8662Z" fill="#4F45E2"/>
<path d="M540.687 104.667H419.262C418.375 104.667 417.525 105.019 416.898 105.646C416.271 106.273 415.919 107.123 415.919 108.01C415.919 108.897 416.271 109.747 416.898 110.374C417.525 111.001 418.375 111.353 419.262 111.353H540.687C541.565 111.34 542.402 110.981 543.018 110.356C543.633 109.73 543.979 108.888 543.979 108.01C543.979 107.132 543.633 106.29 543.018 105.664C542.402 105.039 541.565 104.681 540.687 104.667Z" fill="#EFF0F7"/>
<g filter="url(#filter3_d_1_4930)">
<path d="M456.642 104.583H419.416C418.529 104.583 417.679 104.936 417.052 105.563C416.425 106.19 416.073 107.04 416.073 107.927C416.073 108.813 416.425 109.664 417.052 110.291C417.679 110.918 418.529 111.27 419.416 111.27H456.642C457.529 111.27 458.379 110.918 459.006 110.291C459.633 109.664 459.986 108.813 459.986 107.927C459.986 107.04 459.633 106.19 459.006 105.563C458.379 104.936 457.529 104.583 456.642 104.583Z" fill="#3F80FD" fill-opacity="0.01"/>
</g>
<path d="M456.724 104.583H419.416C418.529 104.583 417.679 104.936 417.052 105.563C416.425 106.19 416.073 107.04 416.073 107.927C416.073 108.813 416.425 109.664 417.052 110.291C417.679 110.918 418.529 111.27 419.416 111.27H456.724C457.611 111.27 458.462 110.918 459.089 110.291C459.716 109.664 460.068 108.813 460.068 107.927C460.068 107.04 459.716 106.19 459.089 105.563C458.462 104.936 457.611 104.583 456.724 104.583Z" fill="#4F45E2"/>
<path d="M540.687 117.467H419.262C418.375 117.467 417.525 117.82 416.898 118.447C416.271 119.074 415.919 119.924 415.919 120.811C415.919 121.697 416.271 122.548 416.898 123.175C417.525 123.802 418.375 124.154 419.262 124.154H540.687C541.574 124.154 542.424 123.802 543.051 123.175C543.678 122.548 544.03 121.697 544.03 120.811C544.03 119.924 543.678 119.074 543.051 118.447C542.424 117.82 541.574 117.467 540.687 117.467Z" fill="#EFF0F7"/>
<g filter="url(#filter4_d_1_4930)">
<path d="M506.803 117.467H419.262C418.375 117.467 417.525 117.82 416.898 118.447C416.271 119.074 415.919 119.924 415.919 120.811C415.919 121.697 416.271 122.548 416.898 123.175C417.525 123.802 418.375 124.154 419.262 124.154H506.803C507.69 124.154 508.54 123.802 509.167 123.175C509.794 122.548 510.146 121.697 510.146 120.811C510.146 119.924 509.794 119.074 509.167 118.447C508.54 117.82 507.69 117.467 506.803 117.467Z" fill="#3F80FD" fill-opacity="0.01"/>
</g>
<path d="M506.803 117.301H419.262C418.375 117.301 417.525 117.653 416.898 118.28C416.271 118.907 415.919 119.757 415.919 120.644C415.919 121.531 416.271 122.381 416.898 123.008C417.525 123.635 418.375 123.987 419.262 123.987H506.803C507.69 123.987 508.54 123.635 509.167 123.008C509.794 122.381 510.146 121.531 510.146 120.644C510.146 119.757 509.794 118.907 509.167 118.28C508.54 117.653 507.69 117.301 506.803 117.301Z" fill="#4F45E2"/>
<path d="M540.687 130.268H419.262C418.384 130.282 417.547 130.64 416.931 131.265C416.315 131.891 415.97 132.733 415.97 133.611C415.97 134.489 416.315 135.332 416.931 135.957C417.547 136.583 418.384 136.941 419.262 136.954H540.687C541.13 136.961 541.571 136.88 541.982 136.715C542.394 136.55 542.768 136.305 543.084 135.994C543.4 135.683 543.651 135.312 543.822 134.903C543.994 134.494 544.082 134.055 544.082 133.611C544.082 133.168 543.994 132.729 543.822 132.32C543.651 131.911 543.4 131.54 543.084 131.229C542.768 130.918 542.394 130.673 541.982 130.508C541.571 130.343 541.13 130.261 540.687 130.268Z" fill="#EFF0F7"/>
<g filter="url(#filter5_d_1_4930)">
<path d="M473.883 130.268H419.262C418.384 130.282 417.547 130.64 416.931 131.265C416.315 131.891 415.97 132.733 415.97 133.611C415.97 134.489 416.315 135.332 416.931 135.957C417.547 136.583 418.384 136.941 419.262 136.954H473.883C474.326 136.961 474.767 136.88 475.178 136.715C475.59 136.55 475.965 136.305 476.281 135.994C476.596 135.683 476.847 135.312 477.019 134.903C477.19 134.494 477.278 134.055 477.278 133.611C477.278 133.168 477.19 132.729 477.019 132.32C476.847 131.911 476.596 131.54 476.281 131.229C475.965 130.918 475.59 130.673 475.178 130.508C474.767 130.343 474.326 130.261 473.883 130.268Z" fill="#3F80FD" fill-opacity="0.01"/>
</g>
<path d="M474.037 130.268H419.416C418.538 130.282 417.701 130.64 417.085 131.265C416.469 131.891 416.124 132.733 416.124 133.611C416.124 134.489 416.469 135.332 417.085 135.957C417.701 136.583 418.538 136.941 419.416 136.954H474.037C474.48 136.961 474.921 136.88 475.332 136.715C475.744 136.55 476.119 136.305 476.435 135.994C476.75 135.683 477.001 135.312 477.173 134.903C477.344 134.494 477.432 134.055 477.432 133.611C477.432 133.168 477.344 132.729 477.173 132.32C477.001 131.911 476.75 131.54 476.435 131.229C476.119 130.918 475.744 130.673 475.332 130.508C474.921 130.343 474.48 130.261 474.037 130.268Z" fill="#4F45E2"/>
<g filter="url(#filter6_d_1_4930)">
<path d="M231.028 123.675H160.725C146.623 123.675 135.19 135.108 135.19 149.21V223.635C135.19 237.738 146.623 249.17 160.725 249.17H231.028C245.13 249.17 256.563 237.738 256.563 223.635V149.21C256.563 135.108 245.13 123.675 231.028 123.675Z" fill="white" fill-opacity="0.01"/>
</g>
<path d="M231.028 123.675H160.725C146.623 123.675 135.19 135.108 135.19 149.21V223.635C135.19 237.738 146.623 249.17 160.725 249.17H231.028C245.13 249.17 256.563 237.738 256.563 223.635V149.21C256.563 135.108 245.13 123.675 231.028 123.675Z" fill="white"/>
<path d="M241.292 186.422C241.292 211.505 220.958 231.838 195.877 231.838C170.794 231.838 150.461 211.505 150.461 186.422C150.461 161.34 170.794 141.007 195.877 141.007C220.958 141.007 241.292 161.34 241.292 186.422ZM170.81 186.422C170.81 200.266 182.033 211.489 195.877 211.489C209.72 211.489 220.942 200.266 220.942 186.422C220.942 172.579 209.72 161.357 195.877 161.357C182.033 161.357 170.81 172.579 170.81 186.422Z" fill="#F5F7FC"/>
<g filter="url(#filter7_d_1_4930)">
<path d="M200.669 151.437C205.588 152.111 210.311 153.815 214.527 156.438C218.744 159.06 222.36 162.543 225.139 166.658C227.918 170.773 229.799 175.428 230.657 180.319C231.515 185.21 231.333 190.227 230.121 195.043" stroke="#FFC226" stroke-opacity="0.01" stroke-width="20.206" stroke-linecap="round"/>
</g>
<path d="M200.669 151.437C205.588 152.111 210.311 153.815 214.527 156.438C218.744 159.06 222.36 162.543 225.139 166.658C227.918 170.773 229.799 175.428 230.657 180.319C231.515 185.21 231.333 190.227 230.121 195.043" stroke="#FFC226" stroke-width="20.206" stroke-linecap="round"/>
<g filter="url(#filter8_d_1_4930)">
<path d="M167.275 165.711C172.594 158.366 180.536 153.349 189.454 151.699C198.372 150.05 207.583 151.895 215.178 156.852" stroke="#FF8139" stroke-opacity="0.01" stroke-width="20.206" stroke-linecap="round"/>
</g>
<path d="M167.275 165.711C172.594 158.366 180.536 153.349 189.454 151.699C198.372 150.05 207.583 151.895 215.178 156.852" stroke="#FF8139" stroke-width="20.206" stroke-linecap="round"/>
<g filter="url(#filter9_d_1_4930)">
<path d="M202.824 221.045C196.12 222.391 189.17 221.761 182.817 219.232C176.464 216.704 170.982 212.385 167.037 206.801C163.091 201.217 160.851 194.607 160.589 187.775C160.328 180.942 162.055 174.181 165.562 168.311" stroke="#FF3951" stroke-opacity="0.01" stroke-width="20.206" stroke-linecap="round"/>
</g>
<path d="M202.824 221.045C196.12 222.391 189.17 221.761 182.817 219.232C176.464 216.704 170.982 212.385 167.037 206.801C163.091 201.217 160.851 194.607 160.589 187.775C160.328 180.942 162.055 174.181 165.562 168.311" stroke="#FF3951" stroke-width="20.206" stroke-linecap="round"/>
<g filter="url(#filter10_d_1_4930)">
<path d="M345.729 11.1714H241.146C229.687 11.1714 220.399 20.4597 220.399 31.9184V74.7898C220.399 86.2477 229.687 95.5368 241.146 95.5368H345.729C357.187 95.5368 366.476 86.2477 366.476 74.7898V31.9184C366.476 20.4597 357.187 11.1714 345.729 11.1714Z" fill="white" fill-opacity="0.01"/>
</g>
<path d="M345.729 11.1714H241.146C229.687 11.1714 220.399 20.4597 220.399 31.9184V74.7898C220.399 86.2477 229.687 95.5368 241.146 95.5368H345.729C357.187 95.5368 366.476 86.2477 366.476 74.7898V31.9184C366.476 20.4597 357.187 11.1714 345.729 11.1714Z" fill="white"/>
<path opacity="0.1" d="M319.04 47.2392C300.332 36.6894 309.611 73.197 282.045 56.17C258.243 41.4676 254.754 70.8502 241.699 80.1568C239.641 81.6234 236.805 86.1694 234.183 86.1966L349.213 85.5925C350.144 85.5879 351.034 85.215 351.691 84.5553C352.347 83.8957 352.715 83.0031 352.715 82.0727V20.5115C342.214 24.2124 337.748 57.7899 319.04 47.2392Z" fill="#F4263E"/>
<g filter="url(#filter11_d_1_4930)">
<path d="M234.909 83.9544C254.031 83.9544 254.96 39.5597 282.34 55.5756C309.72 71.5907 299.889 35.7271 318.471 45.6514C337.052 55.5756 341.487 23.9923 351.918 20.5107" stroke="#F4263E" stroke-opacity="0.01" stroke-width="2.51438" stroke-linecap="round"/>
</g>
<path d="M234.909 83.9544C254.031 83.9544 254.96 39.5597 282.34 55.5756C309.72 71.5907 299.889 35.7271 318.471 45.6514C337.052 55.5756 341.487 23.9923 351.918 20.5107" stroke="#F4263E" stroke-width="2.51438" stroke-linecap="round"/>
<mask id="mask0_1_4930" style="mask-type:luminance" maskUnits="userSpaceOnUse" x="390" y="11" width="180" height="207">
<path d="M390.538 11.1714H569.282V217.766H390.538V11.1714Z" fill="white"/>
</mask>
<g mask="url(#mask0_1_4930)">
<path d="M569.282 39.1001C569.282 23.6755 556.778 11.1714 541.353 11.1714H418.467C403.042 11.1714 390.538 23.6755 390.538 39.1001V189.672C390.538 205.097 403.042 217.601 418.467 217.601H541.353C556.778 217.601 569.282 205.097 569.282 189.672V39.1001Z" fill="white"/>
<path d="M479.91 189.627C509.014 189.627 532.608 166.034 532.608 136.929C532.608 107.825 509.014 84.2305 479.91 84.2305C450.806 84.2305 427.212 107.825 427.212 136.929C427.212 166.034 450.806 189.627 479.91 189.627Z" stroke="#EFEFF5" stroke-width="17.2799"/>
<g filter="url(#filter12_d_1_4930)">
<path d="M497.397 87.2163C486.533 83.3955 474.718 83.2381 463.756 86.768C452.795 90.298 443.292 97.3211 436.7 106.763" stroke="#CAB7FF" stroke-opacity="0.01" stroke-width="17.2799" stroke-linecap="round"/>
</g>
<path d="M497.397 87.2163C486.533 83.3955 474.718 83.2381 463.756 86.768C452.795 90.298 443.292 97.3211 436.7 106.763" stroke="#CAB7FF" stroke-width="17.2799" stroke-linecap="round"/>
<g filter="url(#filter13_d_1_4930)">
<path d="M472.778 189.143C480.69 190.223 488.744 189.492 496.332 187.003C503.92 184.514 510.844 180.334 516.579 174.777C522.314 169.22 526.712 162.433 529.439 154.927C532.167 147.421 533.153 139.394 532.323 131.451" stroke="#3C16A8" stroke-opacity="0.01" stroke-width="17.2799" stroke-linecap="round"/>
</g>
<path d="M472.778 189.143C480.69 190.223 488.744 189.492 496.332 187.003C503.92 184.514 510.844 180.334 516.579 174.777C522.314 169.22 526.712 162.433 529.439 154.927C532.167 147.421 533.153 139.394 532.323 131.451" stroke="black" stroke-width="17.2799" stroke-linecap="round"/>
<g filter="url(#filter14_d_1_4930)">
<path d="M532.608 136.929C532.608 124.401 528.145 112.283 520.019 102.748C511.894 93.213 500.637 86.8845 488.268 84.8975" stroke="#7545FF" stroke-opacity="0.01" stroke-width="17.2799" stroke-linecap="round"/>
</g>
<path d="M532.608 136.929C532.608 124.401 528.145 112.283 520.019 102.748C511.894 93.213 500.637 86.8845 488.268 84.8975" stroke="#4F45E2" stroke-width="17.2799" stroke-linecap="round"/>
<path d="M501.965 132.819H457.856C456.266 132.845 454.751 133.494 453.636 134.628C452.521 135.761 451.896 137.287 451.896 138.876C451.896 140.466 452.521 141.992 453.636 143.125C454.751 144.258 456.266 144.908 457.856 144.934H501.965C503.571 144.934 505.112 144.296 506.248 143.16C507.384 142.024 508.022 140.483 508.022 138.876C508.022 137.27 507.384 135.729 506.248 134.593C505.112 133.457 503.571 132.819 501.965 132.819Z" fill="#DADAE3"/>
<path d="M451.217 33.8416H408.777C407.124 33.8416 405.538 34.4985 404.368 35.6678C403.199 36.8372 402.542 38.4231 402.542 40.0768C402.542 41.7305 403.199 43.3165 404.368 44.4858C405.538 45.6552 407.124 46.3121 408.777 46.3121H451.217C452.871 46.3121 454.457 45.6552 455.626 44.4858C456.795 43.3165 457.452 41.7305 457.452 40.0768C457.452 38.4231 456.795 36.8372 455.626 35.6678C454.457 34.4985 452.871 33.8416 451.217 33.8416Z" fill="#9292C8"/>
<path d="M478.854 51.2825H407.428C406.132 51.2825 404.889 51.7972 403.973 52.7135C403.057 53.6298 402.542 54.8726 402.542 56.1684C402.542 57.4642 403.057 58.707 403.973 59.6233C404.889 60.5396 406.132 61.0543 407.428 61.0543H478.854C479.495 61.0543 480.131 60.9279 480.723 60.6824C481.316 60.4369 481.855 60.077 482.308 59.6233C482.762 59.1696 483.122 58.6309 483.368 58.0382C483.613 57.4454 483.739 56.81 483.739 56.1684C483.739 55.5268 483.613 54.8914 483.368 54.2986C483.122 53.7058 482.762 53.1672 482.308 52.7135C481.855 52.2598 481.316 51.8999 480.723 51.6544C480.131 51.4089 479.495 51.2825 478.854 51.2825Z" fill="#E8E8F3"/>
<g filter="url(#filter15_d_1_4930)">
<path d="M512.425 53.9078C513.274 53.9078 514.114 53.7407 514.898 53.416C515.681 53.0913 516.393 52.6155 516.993 52.0156C517.593 51.4157 518.069 50.7035 518.393 49.9197C518.718 49.1359 518.885 48.2958 518.885 47.4475C518.885 46.1699 518.506 44.9211 517.796 43.859C517.086 42.7968 516.077 41.969 514.897 41.4802C513.716 40.9915 512.418 40.8637 511.165 41.113C509.912 41.3623 508.761 41.9776 507.858 42.881C506.954 43.7844 506.339 44.9354 506.09 46.1884C505.841 47.4414 505.969 48.7401 506.458 49.9204C506.947 51.1007 507.774 52.1095 508.837 52.8192C509.899 53.529 511.148 53.9078 512.425 53.9078Z" fill="#7545FF" fill-opacity="0.01"/>
</g>
<path d="M512.425 53.9078C513.274 53.9078 514.114 53.7407 514.898 53.416C515.681 53.0913 516.393 52.6155 516.993 52.0156C517.593 51.4157 518.069 50.7035 518.393 49.9197C518.718 49.1359 518.885 48.2958 518.885 47.4475C518.885 46.1699 518.506 44.9211 517.796 43.859C517.086 42.7968 516.077 41.969 514.897 41.4802C513.716 40.9915 512.418 40.8637 511.165 41.113C509.912 41.3623 508.761 41.9776 507.858 42.881C506.954 43.7844 506.339 44.9354 506.09 46.1884C505.841 47.4414 505.969 48.7401 506.458 49.9204C506.947 51.1007 507.774 52.1095 508.837 52.8192C509.899 53.529 511.148 53.9078 512.425 53.9078Z" fill="#7545FF"/>
<path d="M530.333 53.9078C531.611 53.9078 532.86 53.529 533.922 52.8192C534.984 52.1095 535.812 51.1007 536.301 49.9204C536.79 48.7401 536.918 47.4414 536.669 46.1884C536.42 44.9354 535.804 43.7844 534.901 42.881C533.998 41.9776 532.847 41.3623 531.594 41.113C530.341 40.8637 529.042 40.9915 527.862 41.4802C526.682 41.969 525.673 42.7968 524.963 43.859C524.253 44.9211 523.874 46.1699 523.874 47.4475C523.874 48.2958 524.041 49.1359 524.365 49.9197C524.69 50.7035 525.166 51.4157 525.765 52.0156C526.365 52.6155 527.077 53.0913 527.861 53.416C528.645 53.7407 529.485 53.9078 530.333 53.9078Z" fill="#CAB7FF"/>
<path d="M548.242 53.9079C549.955 53.9079 551.599 53.2273 552.81 52.0157C554.022 50.8042 554.702 49.161 554.702 47.4476C554.702 45.7342 554.022 44.091 552.81 42.8795C551.599 41.6679 549.955 40.9873 548.242 40.9873C546.529 40.9873 544.885 41.6679 543.674 42.8795C542.462 44.091 541.782 45.7342 541.782 47.4476C541.782 49.161 542.462 50.8042 543.674 52.0157C544.885 53.2273 546.529 53.9079 548.242 53.9079Z" fill="#4F45E2"/>
</g>
<path d="M276.722 392.218H252.784V396.424H276.722V392.218Z" fill="#4E4B66"/>
<path d="M289.7 453.801H287.121L266.032 355.379L264.832 349.771L261.04 332.103L259.638 325.507L254.332 300.784L252.481 292.136H261.691L263.183 300.784L264.17 306.471L264.832 310.252L268.612 332.103L269.823 339.125L289.7 453.801Z" fill="#4E4B66"/>
<path d="M261.691 292.136L263.183 300.784H254.332L252.481 292.136H261.691ZM269.823 339.125L266.032 355.379L264.832 349.771L261.04 332.103L259.638 325.507L264.17 306.471L264.832 310.252L268.612 332.103L269.823 339.125Z" fill="black"/>
<path d="M277.171 292.136L275.32 300.784L268.612 332.103L264.832 349.771L242.531 453.801H239.963L261.04 332.103L264.832 310.252L266.469 300.784L267.973 292.136H277.171Z" fill="#4E4B66"/>
<path d="M277.171 292.136L275.32 300.784H266.469L267.973 292.136H277.171Z" fill="black"/>
<path d="M436.677 392.218H412.739V396.424H436.677V392.218Z" fill="#4E4B66"/>
<path d="M449.655 453.801H447.075L425.987 355.379L424.787 349.771L420.995 332.103L419.593 325.507L414.287 300.784L412.436 292.136H421.645L423.137 300.784L424.125 306.471L424.787 310.252L428.567 332.103L429.778 339.125L449.655 453.801Z" fill="#4E4B66"/>
<path d="M421.645 292.136L423.137 300.784H414.287L412.436 292.136H421.645ZM429.778 339.125L425.987 355.379L424.787 349.771L420.995 332.103L419.593 325.507L424.125 306.471L424.787 310.252L428.567 332.103L429.778 339.125Z" fill="black"/>
<path d="M437.126 292.136L435.274 300.784L428.567 332.103L424.787 349.771L402.497 453.801H399.917L420.995 332.103L424.787 310.252L426.424 300.784L427.928 292.136H437.126Z" fill="#4E4B66"/>
<path d="M437.126 292.136L435.274 300.784H426.424L427.928 292.136H437.126Z" fill="black"/>
<path d="M451.474 280.29H229.815C229.18 280.29 228.571 280.542 228.122 280.991C227.673 281.44 227.421 282.049 227.421 282.684V289.742C227.421 291.063 228.493 292.136 229.815 292.136H451.474C452.109 292.136 452.718 291.883 453.166 291.434C453.615 290.985 453.868 290.377 453.868 289.742V282.684C453.868 282.049 453.615 281.44 453.166 280.991C452.718 280.542 452.109 280.29 451.474 280.29Z" fill="#4E4B66"/>
<path d="M282.903 280.29H225.708C225.093 280.29 224.499 280.063 224.041 279.654C223.582 279.244 223.29 278.68 223.22 278.069L219.191 242.705C219.151 242.355 219.186 242 219.292 241.663C219.399 241.327 219.576 241.017 219.811 240.754C220.046 240.491 220.334 240.281 220.655 240.136C220.977 239.992 221.326 239.918 221.679 239.918H276.069C276.684 239.918 277.277 240.144 277.736 240.554C278.195 240.963 278.487 241.527 278.557 242.138L282.903 280.29Z" fill="#D9DBE9"/>
<path d="M279.672 277.575H228.321C227.706 277.575 227.113 277.348 226.654 276.939C226.195 276.529 225.903 275.965 225.834 275.355L222.104 242.621H275.69L279.672 277.575Z" fill="white"/>
<path d="M300.346 277.574H223.888V280.278H300.346V277.574Z" fill="#D9DBE9"/>
<path d="M316.948 277.574H240.489V280.278H316.948V277.574Z" fill="#EFF0F7"/>
<path d="M275.881 244.326L275.69 242.621H222.104L222.306 244.326H275.881ZM357.088 247.947L358.222 249.702L359.44 251.628C360.233 252.929 361.009 254.241 361.768 255.563C363.279 258.221 364.742 260.914 366.094 263.644C368.813 269.019 371.091 274.607 372.906 280.351C373.345 281.765 373.735 283.179 374.125 284.592L374.624 286.725L374.832 287.784L374.941 288.321C374.941 288.491 375.015 288.723 375.015 288.674C375.015 288.625 375.112 288.674 375.234 288.357C375.365 288.076 375.566 287.832 375.819 287.651C376.026 287.529 376.062 287.651 375.953 287.76C375.701 287.99 375.418 288.182 375.112 288.333C374.071 288.845 372.97 289.221 371.834 289.454C370.455 289.776 369.06 290.024 367.654 290.197C364.754 290.576 361.561 290.758 358.563 290.916H358.258C357.271 290.968 356.333 291.36 355.602 292.026C354.871 292.691 354.393 293.589 354.248 294.567C354.105 295.545 354.304 296.543 354.813 297.39C355.322 298.238 356.109 298.883 357.04 299.216C360.404 300.423 363.883 301.284 367.422 301.787C371.379 302.432 375.422 302.329 379.34 301.482C380.607 301.172 381.833 300.718 382.997 300.13C384.467 299.383 385.795 298.385 386.921 297.18C388.236 295.751 389.211 294.043 389.772 292.184C390.249 290.506 390.418 288.755 390.272 287.017C390.272 286.554 390.272 286.383 390.199 286.152L390.114 285.481L389.955 284.117C389.821 283.227 389.7 282.325 389.553 281.436C389.249 279.656 388.907 277.89 388.48 276.159C386.812 269.31 384.469 262.644 381.485 256.258C380.011 253.114 378.439 250.019 376.721 247.009C375.862 245.498 374.968 244.006 374.04 242.537C373.573 241.789 373.094 241.049 372.602 240.318C372.083 239.545 371.551 238.781 371.005 238.027C369.693 236.262 367.749 235.071 365.58 234.705C363.412 234.339 361.185 234.825 359.366 236.061C357.546 237.297 356.274 239.188 355.815 241.339C355.357 243.491 355.748 245.736 356.906 247.606L357.088 247.947Z" fill="white"/>
<path d="M324.502 198.763C324.38 199.592 323.844 200.189 323.284 200.115C322.723 200.043 322.406 199.299 322.528 198.483C322.65 197.666 323.186 197.057 323.746 197.13C324.307 197.203 324.624 197.947 324.502 198.763Z" fill="black"/>
<path d="M323.916 200.201C322.562 202.567 318.777 205.964 318.944 206.647C319.112 207.331 320.047 207.5 320.706 207.728C321.365 207.955 322.065 208.036 322.758 207.963L323.916 200.201Z" fill="#FF97B8"/>
<path d="M328.097 194.644C327.993 194.636 327.897 194.588 327.829 194.51C327.403 194.068 326.878 193.734 326.297 193.537C325.716 193.34 325.096 193.285 324.489 193.377C324.362 193.402 324.23 193.377 324.12 193.306C324.011 193.236 323.934 193.126 323.904 192.999C323.88 192.873 323.905 192.742 323.976 192.635C324.047 192.528 324.157 192.453 324.283 192.426C325.047 192.299 325.831 192.36 326.567 192.602C327.304 192.843 327.971 193.26 328.511 193.816C328.601 193.909 328.651 194.033 328.651 194.163C328.651 194.292 328.601 194.417 328.511 194.51C328.456 194.562 328.391 194.6 328.319 194.624C328.247 194.647 328.171 194.654 328.097 194.644Z" fill="black"/>
<path d="M348.644 207.842C348.29 215.519 348.875 229.387 354.834 233.591C354.834 233.591 353.92 241.452 340.064 243.524C324.843 245.79 331.656 237.04 331.656 237.04C339.674 233.823 338.541 227.681 336.226 222.112L348.644 207.842Z" fill="#FFD5BD"/>
<path d="M357.222 236.663C357.819 233.189 358.441 229.229 355.82 228.619C352.945 227.949 338.053 229.936 333.349 233.494C328.645 237.052 331.058 243.244 331.058 243.244L357.222 236.663Z" fill="white"/>
<path d="M317.068 249.605C316.507 261.889 317.068 286.249 325.404 323.125H380.51C380.852 315.46 372.942 282.411 373.625 246.095C373.659 244.275 373.33 242.466 372.658 240.774C371.986 239.082 370.984 237.54 369.711 236.239C368.437 234.938 366.917 233.904 365.239 233.196C363.562 232.488 361.76 232.122 359.94 232.117C358.855 232.117 357.71 232.117 356.527 232.251C348.731 232.794 340.975 233.803 333.3 235.274C331.009 235.798 328.779 236.407 326.756 237.028C324.043 237.872 321.656 239.532 319.922 241.783C318.188 244.035 317.191 246.766 317.068 249.605Z" fill="#4F45E2"/>
<path opacity="0.2" d="M325.392 271.711C326.269 277.95 328.292 288.772 320.993 300.739C320.217 296.106 319.535 291.458 318.945 286.798L325.392 271.711Z" fill="black"/>
<path d="M282.446 286.81L273.172 283.617L276.95 273.868C279.057 274.173 281.043 275.046 282.693 276.392C284.344 277.737 285.598 279.506 286.321 281.509L282.446 286.81Z" fill="#FFD5BD"/>
<path d="M268.482 280.982C267.993 279.884 266.508 273.674 267.495 273.11C268.482 272.546 277.171 273.914 277.171 273.914L273.392 283.7C273.392 283.7 268.97 282.08 268.482 280.982Z" fill="#FFD5BD"/>
<path d="M317.129 248.471C316.567 250.42 315.982 252.362 315.374 254.296C314.764 256.247 314.156 258.245 313.449 260.207C312.133 264.131 310.682 267.994 309.159 271.772C307.635 275.55 305.929 279.218 304.089 282.642C302.408 285.882 300.364 288.92 297.996 291.697L306.928 290.32C305.21 289.577 303.444 288.809 301.664 287.883C299.885 286.956 298.069 286.128 296.278 285.153L290.794 282.264C288.966 281.302 287.138 280.254 285.273 279.352L285.079 279.254C284.208 278.818 283.216 278.689 282.263 278.889C281.31 279.088 280.452 279.603 279.829 280.351C279.206 281.1 278.854 282.037 278.832 283.01C278.809 283.984 279.117 284.937 279.704 285.713C281.068 287.514 282.524 289.243 284.067 290.892C285.59 292.538 287.187 294.098 288.844 295.633C290.519 297.175 292.268 298.635 294.084 300.008C295.954 301.435 297.899 302.761 299.91 303.981C301.229 304.768 302.769 305.102 304.296 304.933C305.823 304.763 307.253 304.099 308.367 303.042L308.842 302.591C312.453 299.09 315.588 295.128 318.165 290.807C320.611 286.834 322.789 282.702 324.685 278.438C326.597 274.258 328.243 270.017 329.742 265.752C330.485 263.619 331.204 261.475 331.85 259.317C332.496 257.16 333.069 255.04 333.691 252.652C334.273 250.465 333.964 248.137 332.83 246.178C331.697 244.22 329.832 242.792 327.646 242.208C326.563 241.919 325.434 241.846 324.324 241.993C323.213 242.141 322.142 242.505 321.172 243.066C320.202 243.628 319.353 244.374 318.671 245.264C317.99 246.154 317.491 247.169 317.202 248.252L317.129 248.471Z" fill="white"/>
<path d="M352.177 201.126C350.045 211.12 349.313 217.079 343.439 221.502C334.604 228.157 322.832 221.673 321.93 211.229C321.126 201.833 324.733 187.064 335.214 184.517C337.523 183.946 339.94 183.975 342.234 184.601C344.529 185.227 346.626 186.429 348.325 188.093C350.025 189.757 351.271 191.828 351.945 194.109C352.619 196.39 352.699 198.806 352.177 201.126Z" fill="#FFD5BD"/>
<path d="M330.644 202.175C325.867 201.81 326.147 199.604 327.219 197.983C328.292 196.363 331.209 191.97 329.595 190.537C327.982 189.105 322.954 192.292 324.318 185.931C325.684 179.57 334.653 171.514 342.489 176.449C358.099 173.878 363.206 180.178 360.769 186.003C373.163 191.488 364.217 202.59 359.282 202.59C363.681 206.514 348.02 219.444 346.462 218.517C344.904 217.591 327.158 211.644 330.644 202.175Z" fill="black"/>
<path d="M340.296 179.642C340.458 179.639 340.618 179.605 340.766 179.54C340.915 179.475 341.049 179.381 341.161 179.265C342.977 177.438 345.24 176.119 347.725 175.441C350.21 174.763 352.83 174.749 355.322 175.401C355.635 175.475 355.965 175.422 356.24 175.253C356.514 175.083 356.71 174.813 356.784 174.499C356.857 174.186 356.803 173.857 356.634 173.583C356.465 173.309 356.195 173.113 355.883 173.037C352.975 172.295 349.925 172.323 347.032 173.118C344.138 173.913 341.502 175.447 339.382 177.57C339.155 177.799 339.028 178.108 339.028 178.43C339.028 178.751 339.155 179.06 339.382 179.289C339.501 179.408 339.644 179.501 339.802 179.562C339.959 179.623 340.127 179.65 340.296 179.642ZM356.443 213.691C356.603 213.692 356.762 213.661 356.911 213.6C357.059 213.54 357.194 213.45 357.308 213.338C360.745 209.877 362.183 207.172 361.744 204.807C361.539 203.914 361.115 203.086 360.511 202.397C359.907 201.707 359.142 201.179 358.283 200.858C358.065 200.755 357.821 200.719 357.582 200.754C357.343 200.789 357.12 200.894 356.941 201.056C356.762 201.218 356.635 201.429 356.575 201.663C356.516 201.897 356.528 202.144 356.608 202.371C356.717 202.676 356.942 202.926 357.234 203.065C358.514 203.674 359.197 204.38 359.343 205.222C359.489 206.063 359.002 208.171 355.577 211.608C355.463 211.721 355.372 211.855 355.311 212.004C355.248 212.152 355.216 212.312 355.216 212.473C355.216 212.633 355.248 212.793 355.311 212.941C355.403 213.165 355.56 213.355 355.762 213.489C355.964 213.623 356.201 213.693 356.443 213.691Z" fill="black"/>
<path d="M336.517 201.395C335.699 203.801 334.115 205.873 332.008 207.293C329.217 209.133 327.328 207.05 327.694 204.04C328.023 201.322 329.875 197.093 332.873 196.447C335.871 195.802 337.455 198.483 336.517 201.395Z" fill="#FFD5BD"/>
<path d="M241.231 459.066C239.916 459.066 238.636 458.883 238.21 458.298C238.1 458.14 238.042 457.953 238.042 457.762C238.042 457.57 238.1 457.383 238.21 457.225C238.292 457.083 238.403 456.959 238.534 456.86C238.666 456.762 238.817 456.691 238.977 456.652C240.695 456.19 244.291 458.237 244.449 458.335C244.491 458.358 244.525 458.394 244.545 458.438C244.565 458.482 244.57 458.531 244.559 458.578C244.553 458.627 244.532 458.673 244.499 458.71C244.466 458.747 244.423 458.773 244.375 458.785C243.337 458.964 242.285 459.058 241.231 459.066ZM239.599 457.067C239.442 457.067 239.287 457.087 239.136 457.128C239.035 457.147 238.94 457.188 238.856 457.247C238.771 457.305 238.701 457.381 238.648 457.47C238.478 457.774 238.538 457.92 238.648 458.006C239.136 458.675 241.744 458.688 243.656 458.42C242.389 457.705 240.994 457.246 239.55 457.067H239.599Z" fill="#4F45E2"/>
<path d="M244.351 458.785H244.254C243.035 458.237 240.537 456.007 240.732 454.837C240.732 454.569 240.963 454.227 241.634 454.155C241.875 454.129 242.12 454.153 242.352 454.224C242.584 454.295 242.8 454.412 242.986 454.569C244.303 455.653 244.583 458.432 244.595 458.542C244.597 458.585 244.588 458.627 244.569 458.665C244.549 458.704 244.521 458.736 244.485 458.761C244.446 458.786 244.398 458.795 244.351 458.785ZM241.828 454.606H241.682C241.243 454.606 241.219 454.825 241.207 454.874C241.097 455.58 242.767 457.311 244.047 458.09C243.93 456.915 243.453 455.805 242.682 454.91C242.443 454.711 242.14 454.602 241.828 454.606Z" fill="#4F45E2"/>
<path d="M256.062 458.542H245.753L247.715 434.68H258.024L256.062 458.542Z" fill="#FFD5BD"/>
<path d="M245.741 457.347H256.989C257.185 457.34 257.377 457.41 257.523 457.542C257.669 457.674 257.757 457.857 257.769 458.054L258.439 467.17C258.447 467.406 258.408 467.642 258.323 467.863C258.239 468.085 258.111 468.287 257.948 468.458C257.785 468.63 257.589 468.767 257.372 468.862C257.155 468.956 256.921 469.007 256.684 469.01C252.638 468.936 246.813 468.705 241.707 468.705C235.748 468.705 235.126 469.022 228.131 469.022C223.903 469.022 223.367 464.745 225.195 464.366C233.506 462.6 235.541 462.404 243.145 458.115C243.931 457.642 244.824 457.378 245.741 457.347Z" fill="black"/>
<path opacity="0.2" d="M247.727 434.692L246.703 446.989H257.013L258.024 434.692H247.727Z" fill="black"/>
<path d="M305.357 459.065C304.489 459.166 303.615 458.926 302.92 458.395C302.791 458.218 302.722 458.005 302.722 457.786C302.722 457.567 302.791 457.354 302.92 457.177C303 457.034 303.11 456.91 303.243 456.813C303.375 456.716 303.527 456.649 303.687 456.616C305.187 456.262 308.038 458.212 308.16 458.298C308.197 458.326 308.225 458.363 308.242 458.406C308.26 458.449 308.265 458.496 308.257 458.541C308.25 458.587 308.228 458.629 308.196 458.662C308.163 458.695 308.12 458.717 308.074 458.724C307.184 458.937 306.273 459.052 305.357 459.065ZM304.065 457.103C303.964 457.09 303.862 457.09 303.761 457.103C303.666 457.122 303.577 457.161 303.499 457.218C303.421 457.275 303.357 457.348 303.31 457.432C303.09 457.834 303.224 458.005 303.31 458.053C303.749 458.638 305.857 458.638 307.392 458.383C306.416 457.719 305.305 457.282 304.138 457.103H304.065Z" fill="#4F45E2"/>
<path d="M308.014 458.785H307.904C306.831 458.2 304.772 455.945 304.991 454.8C305.027 454.62 305.125 454.457 305.267 454.339C305.409 454.221 305.587 454.156 305.771 454.154C305.957 454.131 306.145 454.148 306.323 454.202C306.502 454.257 306.667 454.349 306.807 454.472C308.026 455.446 308.257 458.42 308.257 458.541C308.263 458.586 308.255 458.632 308.236 458.673C308.217 458.714 308.186 458.749 308.148 458.773C308.105 458.79 308.059 458.794 308.014 458.785ZM305.942 454.606H305.832C305.515 454.606 305.479 454.788 305.467 454.849C305.345 455.531 306.685 457.286 307.721 458.042C307.647 456.868 307.222 455.743 306.502 454.812C306.346 454.68 306.147 454.607 305.942 454.606Z" fill="#4F45E2"/>
<path d="M317.446 458.542H307.148L301.969 434.68H312.266L317.446 458.542Z" fill="#FFD5BD"/>
<path d="M306.417 457.347H317.982C318.187 457.345 318.387 457.415 318.547 457.544C318.707 457.672 318.817 457.853 318.859 458.054L320.894 467.169C320.944 467.392 320.942 467.624 320.889 467.846C320.837 468.068 320.734 468.275 320.59 468.452C320.446 468.63 320.263 468.772 320.056 468.868C319.85 468.965 319.623 469.013 319.395 469.01C315.349 468.936 313.387 468.705 308.294 468.705C305.162 468.705 301.152 469.022 296.826 469.022C292.5 469.022 291.952 464.744 293.706 464.366C301.64 462.623 302.236 460.235 304.735 457.944C305.203 457.546 305.802 457.333 306.417 457.347Z" fill="black"/>
<path d="M341.916 323.125C341.916 323.125 284.762 340.467 283.348 363.426C280.752 405.713 301.494 441.748 301.494 441.748H316.946C316.946 441.748 311.072 423.883 308.964 385.581C306.32 337.445 397.34 386.702 380.51 323.125H341.916Z" fill="black"/>
<path opacity="0.2" d="M312.279 434.692H301.969L304.638 446.989H314.948L312.279 434.692Z" fill="black"/>
<path d="M325.404 323.125C325.404 323.125 251.492 328 248.568 367.228C245.216 412.318 244.241 441.748 244.241 441.748H259.548C259.548 441.748 267.421 414.097 274.171 374.345C276.207 362.439 301.457 360.392 325.355 358.978C345.95 357.759 361.768 356.541 363.498 333.728L363.23 323.125H325.404Z" fill="black"/>
<path d="M240.501 437.654C240.416 437.654 241.488 444.966 241.488 444.966H262.705L263.278 438.495L240.501 437.654ZM296.826 437.654C296.741 437.654 298.776 444.966 298.776 444.966H319.98L319.591 438.495L296.826 437.654Z" fill="#4F45E2"/>
<path d="M328.73 355.737L339.077 285.458C339.354 283.555 340.308 281.816 341.763 280.559C343.217 279.301 345.075 278.609 346.998 278.609H408.04C409.19 278.609 410.327 278.857 411.373 279.335C412.419 279.814 413.349 280.513 414.101 281.383C414.853 282.254 415.408 283.277 415.729 284.382C416.05 285.486 416.129 286.647 415.961 287.785L405.968 355.737C405.968 356.519 405.814 357.293 405.514 358.015C405.215 358.737 404.776 359.393 404.222 359.946C403.669 360.498 403.012 360.936 402.289 361.234C401.566 361.532 400.791 361.685 400.009 361.684H288.734C288.735 360.105 289.364 358.591 290.481 357.474C291.034 356.922 291.691 356.484 292.414 356.185C293.137 355.887 293.911 355.735 294.693 355.737H328.73Z" fill="#4F45E2"/>
<path opacity="0.5" d="M328.73 355.737L339.077 285.458C339.354 283.555 340.308 281.816 341.763 280.559C343.217 279.301 345.075 278.609 346.998 278.609H408.04C409.19 278.609 410.327 278.857 411.373 279.335C412.419 279.814 413.349 280.513 414.101 281.383C414.853 282.254 415.408 283.277 415.729 284.382C416.05 285.486 416.129 286.647 415.961 287.785L405.968 355.737C405.968 356.519 405.814 357.293 405.514 358.015C405.215 358.737 404.776 359.393 404.222 359.946C403.669 360.498 403.012 360.936 402.289 361.234C401.566 361.532 400.791 361.685 400.009 361.684H288.734C288.735 360.105 289.364 358.591 290.481 357.474C291.034 356.922 291.691 356.484 292.414 356.185C293.137 355.887 293.911 355.735 294.693 355.737H328.73Z" fill="white"/>
<path opacity="0.3" d="M346.998 278.609H408.04C409.19 278.609 410.327 278.857 411.373 279.335C412.419 279.814 413.349 280.513 414.101 281.383C414.853 282.254 415.408 283.277 415.729 284.382C416.05 285.486 416.129 286.647 415.961 287.785L405.968 355.737C405.968 356.519 405.814 357.293 405.514 358.015C405.215 358.737 404.776 359.393 404.222 359.946C403.669 360.498 403.012 360.936 402.289 361.234C401.566 361.532 400.791 361.685 400.009 361.684H335.286L346.998 278.609Z" fill="#4F45E2"/>
<path d="M405.188 469.899H408.637L400.009 361.684H396.548L405.188 469.899Z" fill="#4F45E2"/>
<path opacity="0.6" d="M405.188 469.899H408.637L400.009 361.684H396.548L405.188 469.899Z" fill="white"/>
<path d="M346.511 469.899H349.959L341.319 361.684H337.87L346.511 469.899Z" fill="#4F45E2"/>
<path opacity="0.6" d="M346.511 469.899H349.959L341.319 361.684H337.87L346.511 469.899Z" fill="white"/>
<path d="M341.197 469.899H344.658L353.286 361.684H349.837L341.197 469.899Z" fill="#4F45E2"/>
<path opacity="0.7" d="M341.197 469.899H344.658L353.286 361.684H349.837L341.197 469.899Z" fill="white"/>
<path d="M282.52 469.899H285.968L294.608 361.684H291.16L282.52 469.899Z" fill="#4F45E2"/>
<path opacity="0.7" d="M282.52 469.899H285.968L294.608 361.684H291.16L282.52 469.899Z" fill="white"/>
<path d="M82.2134 124.896C82.2134 124.896 98.2014 117.884 102.894 137.652C106.697 153.571 115.052 156.249 114.69 159.532C114.33 162.815 86.4274 170.449 70.6685 157.648L82.2134 124.896Z" fill="black"/>
<path d="M100.793 191.45C101.337 192.913 101.923 194.36 102.552 195.789C103.165 197.181 103.8 198.563 104.459 199.934C105.772 202.675 107.257 205.325 108.764 207.928C111.82 213.243 115.364 218.263 119.35 222.922L120.115 223.789C120.39 224.098 120.526 224.292 121.097 224.875C122.158 225.942 123.469 226.728 124.912 227.158C126.23 227.529 127.613 227.607 128.965 227.387C130.043 227.217 131.095 226.91 132.094 226.473C133.721 225.746 135.255 224.826 136.662 223.733C137.945 222.747 139.173 221.691 140.339 220.57C144.663 216.259 148.472 211.461 151.69 206.273L147.636 203.212C143.774 207.311 139.621 211.127 135.212 214.631C133.314 216.182 131.188 217.43 128.909 218.331C127.995 218.639 127.367 218.502 127.526 218.457C127.686 218.411 127.675 218.457 127.641 218.457C127.606 218.457 127.389 218.125 127.207 217.874L126.579 217.052C123.239 212.585 120.224 207.883 117.558 202.983C116.21 200.517 114.954 197.993 113.731 195.458C113.125 194.194 112.535 192.922 111.961 191.643C111.403 190.399 110.87 189.142 110.363 187.875L100.793 191.45Z" fill="#FFD5BD"/>
<path d="M104.048 177.712C108.319 177.551 115.733 188.709 115.833 193.082C115.933 197.455 104.722 206.546 104.722 206.546C104.722 206.546 91.7722 190.296 93.5421 185.043C95.4372 179.573 97.8359 177.929 104.048 177.712Z" fill="black"/>
<path opacity="0.2" d="M104.756 181.458L110.534 199.558L105.326 205.85L104.756 181.458Z" fill="black"/>
<path d="M148.55 208.133L160.361 205.129L152.375 198.827C152.375 198.827 146.437 201.327 146.06 205.484L148.55 208.133Z" fill="#FFD5BD"/>
<path d="M165.718 200.166C165.653 198.703 161.219 195.795 159.585 195.598C157.953 195.402 152.231 198.922 152.231 198.922L160.351 205.134C160.351 205.134 165.783 201.629 165.718 200.166ZM73.8891 456.451H83.9155L83.4247 433.224H73.3983L73.8891 456.451Z" fill="#FFD5BD"/>
<path d="M84.8858 455.286H73.581C73.3874 455.285 73.1998 455.353 73.0528 455.479C72.9058 455.605 72.8094 455.78 72.7815 455.972L71.5023 464.89C71.4782 465.116 71.5019 465.344 71.5719 465.559C71.642 465.775 71.7568 465.973 71.9088 466.141C72.0608 466.31 72.2466 466.444 72.4541 466.535C72.6615 466.626 72.886 466.673 73.1126 466.671C77.041 466.603 78.937 466.375 83.8923 466.375C86.9413 466.375 95.6894 466.695 99.8803 466.695C104.071 466.695 104.311 462.526 102.564 462.127C94.7071 460.437 89.1573 458.107 86.508 455.881C86.0496 455.506 85.478 455.296 84.8858 455.286Z" fill="black"/>
<path opacity="0.2" d="M83.4239 433.224L83.6752 445.203H73.6488L73.3855 433.224H83.4239Z" fill="black"/>
<path d="M108.079 182.679C108.296 189.028 107.2 203.839 100.531 238.315L59.809 237.105C60.9501 220.558 51.1407 178.262 54.3956 176.09C57.6513 173.918 65.9325 174.493 71.7537 174.32C77.9255 174.065 84.1077 174.252 90.2528 174.88C94.9576 175.45 100.04 176.421 103.374 177.164C104.66 177.429 105.821 178.115 106.673 179.114C107.525 180.113 108.019 181.367 108.079 182.679Z" fill="black"/>
<path d="M74.2091 153.571C75.2025 159.555 76.0364 170.494 71.7537 174.332C74.9726 179.399 80.0397 183.012 85.8793 184.404C95.2665 179.641 90.2529 174.88 90.2529 174.88C83.6641 173.098 83.9841 168.176 85.2744 163.585L74.2091 153.571Z" fill="#FFD5BD"/>
<path d="M85.8792 184.404L84.6687 182.029L78.1478 183.502L85.8792 184.404Z" fill="#A0A3BD"/>
<path d="M84.6688 182.028C82.5677 181.069 73.202 173.021 72.507 172.79C71.8128 172.558 67.9475 173.021 67.6426 173.874C67.337 174.727 73.0018 192.63 74.8482 193.391C76.6947 194.151 81.1745 184.312 84.6688 182.028Z" fill="white"/>
<path d="M85.8793 184.404L86.4275 182.029L90.4245 182.314L85.8793 184.404Z" fill="#A0A3BD"/>
<path d="M86.4274 182.029C89.6592 179.881 87.9268 174.012 88.5516 173.43C89.1764 172.848 93.1981 174.156 93.4168 174.503C93.6346 174.849 95.687 193.988 94.4557 193.391C93.2245 192.794 89.9217 184.312 86.4274 182.029Z" fill="white"/>
<path opacity="0.2" d="M78.7192 157.648L85.2624 163.586C84.9499 164.654 84.7283 165.746 84.6001 166.851C82.0762 166.406 78.6737 163.518 78.4909 160.856C78.3716 159.782 78.4489 158.695 78.7192 157.648Z" fill="black"/>
<path d="M70.9542 139.868C71.0794 149.825 70.9542 154.039 75.6821 159.372C82.8534 167.365 95.0949 165.082 97.9045 155.284C100.462 146.48 99.834 131.68 90.3103 127.249C87.1462 125.76 83.53 125.55 80.2144 126.66C76.8989 127.771 74.1396 130.118 72.511 133.213C71.4334 135.262 70.897 137.553 70.9542 139.868Z" fill="#FFD5BD"/>
<path d="M71.7648 144.652L84.2689 144.035C84.3446 144.032 84.4159 143.999 84.4672 143.944C84.5185 143.888 84.5456 143.814 84.5426 143.738C84.5416 143.7 84.5326 143.662 84.5163 143.627C84.5001 143.592 84.4768 143.56 84.4479 143.535C84.4191 143.509 84.3853 143.489 84.3486 143.477C84.3119 143.465 84.2731 143.461 84.2346 143.464L71.7305 144.081C71.6739 144.085 71.6196 144.105 71.5751 144.141C71.5305 144.176 71.4976 144.224 71.4808 144.278C71.4693 144.314 71.4649 144.351 71.468 144.389C71.4693 144.426 71.4781 144.462 71.4939 144.496C71.5097 144.53 71.5321 144.56 71.5599 144.584C71.5877 144.609 71.6202 144.628 71.6554 144.639C71.6906 144.651 71.7279 144.655 71.7648 144.652Z" fill="white"/>
<path d="M100.531 238.315C100.531 238.315 95.3806 312.828 92.5367 343.283C89.5563 374.973 85.6854 442.885 85.6854 442.885H72.1304C72.1304 442.885 69.2976 373.819 70.3717 342.564C71.5135 308.499 70.7946 237.436 70.7946 237.436L100.531 238.315Z" fill="black"/>
<path d="M70.8744 443.365H86.7818L87.958 438.295L70.1315 437.666L70.8744 443.365Z" fill="#4F45E2"/>
<path opacity="0.2" d="M70.8967 264.043C72.5405 262.216 74.3223 263.164 76.3547 268.372C83.1271 286.141 75.9095 314.495 70.6453 330.825C70.9996 310.498 70.9885 283.754 70.8967 264.043Z" fill="black"/>
<path d="M87.2836 144.161C87.2836 144.972 87.6491 145.646 88.175 145.669C88.7 145.691 89.1565 145.063 89.2027 144.252C89.2482 143.442 88.8484 142.768 88.3114 142.745C87.7752 142.722 87.2836 143.35 87.2836 144.161ZM96.4195 144.435C96.4195 145.246 96.785 145.919 97.31 145.942C97.8359 145.966 98.2923 145.337 98.3378 144.526C98.3841 143.715 97.9843 143.042 97.4473 143.019C96.9103 142.996 96.4195 143.567 96.4195 144.435Z" fill="black"/>
<path d="M97.2303 142.996L99.1949 142.528C99.1949 142.528 98.1216 144.001 97.2303 142.996Z" fill="black"/>
<path d="M92.9029 145.041C93.5296 146.92 94.4134 148.703 95.529 150.339C95.1036 150.617 94.6217 150.798 94.1181 150.867C93.6145 150.936 93.1019 150.892 92.6172 150.739L92.9029 145.041Z" fill="#FF97B8"/>
<path d="M88.0601 153.685C88.4367 153.763 88.8182 153.814 89.202 153.833C89.2494 153.836 89.2964 153.824 89.3371 153.799C89.3779 153.775 89.4105 153.739 89.431 153.696C89.4443 153.668 89.4519 153.637 89.4533 153.605C89.451 153.544 89.4266 153.486 89.3846 153.442C89.3426 153.398 89.2859 153.37 89.2251 153.365C88.2182 153.339 87.2317 153.076 86.3464 152.595C85.4611 152.115 84.7021 151.432 84.1317 150.602C84.0983 150.547 84.0451 150.508 83.9833 150.492C83.9524 150.485 83.9203 150.484 83.8889 150.489C83.8576 150.494 83.8275 150.505 83.8006 150.522C83.7603 150.545 83.728 150.579 83.708 150.621C83.688 150.663 83.6813 150.71 83.6888 150.756C83.6936 150.786 83.7048 150.816 83.7208 150.841C84.2154 151.583 84.8546 152.217 85.6003 152.706C86.3459 153.194 87.1826 153.528 88.0601 153.685Z" fill="black"/>
<path d="M67.8708 148.843C68.1605 149.751 68.6263 150.592 69.2417 151.319C69.857 152.046 70.6098 152.645 71.4569 153.08C73.7406 154.222 75.3621 152.315 75.145 149.905C74.9511 147.748 73.5348 144.527 71.0451 144.379C70.5011 144.355 69.9598 144.468 69.4707 144.707C68.9815 144.946 68.5599 145.304 68.2444 145.748C67.9289 146.192 67.7294 146.707 67.6641 147.248C67.5989 147.789 67.6699 148.337 67.8708 148.843Z" fill="#FFD5BD"/>
<path d="M83.7096 141.375C83.8068 141.396 83.9084 141.386 83.999 141.345C84.0897 141.303 84.1645 141.234 84.2123 141.147C85.2967 139.24 88.1175 138.943 88.1407 138.931C88.2023 138.925 88.2622 138.907 88.3169 138.878C88.3716 138.849 88.42 138.81 88.4593 138.762C88.4986 138.714 88.5279 138.659 88.5457 138.6C88.5635 138.541 88.5693 138.478 88.5628 138.417C88.5536 138.324 88.5173 138.237 88.4583 138.165C88.3994 138.093 88.3205 138.04 88.2316 138.013C88.1726 137.995 88.1104 137.988 88.0489 137.995C87.9125 137.995 84.715 138.337 83.3896 140.678C83.3575 140.732 83.3365 140.792 83.3277 140.854C83.319 140.916 83.3227 140.979 83.3387 141.04C83.3547 141.1 83.3826 141.157 83.4208 141.207C83.459 141.257 83.5067 141.298 83.5612 141.329L83.7096 141.375ZM99.3656 139.776C99.4463 139.795 99.5308 139.792 99.6095 139.765C99.6883 139.739 99.758 139.691 99.8109 139.627C99.8563 139.584 99.8924 139.531 99.917 139.474C99.9417 139.416 99.9544 139.353 99.9544 139.291C99.9544 139.228 99.9417 139.165 99.917 139.108C99.8924 139.05 99.8563 138.997 99.8109 138.954C99.2646 138.436 98.6023 138.055 97.8793 137.845C97.1563 137.634 96.3935 137.599 95.6543 137.743C95.5317 137.775 95.4268 137.855 95.3626 137.964C95.2984 138.073 95.2802 138.203 95.312 138.326C95.3464 138.447 95.426 138.55 95.5343 138.613C95.6426 138.677 95.7713 138.697 95.8937 138.668C96.4797 138.557 97.0839 138.589 97.6547 138.762C98.2255 138.935 98.7459 139.244 99.1717 139.662C99.2265 139.714 99.2929 139.754 99.3656 139.776Z" fill="black"/>
<path d="M49.3709 187.601C48.0267 192.983 46.6411 198.354 45.2143 203.714C43.7867 209.058 42.2219 214.392 40.4983 219.553C38.7739 224.715 36.6386 229.831 34.6628 235.084C32.6871 240.337 30.677 245.635 28.8616 250.991L33.4292 253.149C36.3984 248.307 39.1394 243.386 41.8461 238.384C43.1787 235.886 44.4794 233.359 45.7513 230.801C47.078 228.196 48.2785 225.528 49.3485 222.808C51.5294 217.394 53.3455 211.947 54.9662 206.466C56.5884 200.984 58.0727 195.503 59.3286 189.862L49.3709 187.601Z" fill="#FFD5BD"/>
<path d="M54.3956 176.09C50.2845 177.232 45.3866 187.449 44.9637 191.106C44.5392 194.765 60.4594 202.892 60.4594 202.892C60.4594 202.892 66.5797 191.347 65.0269 186.014C63.3943 180.475 59.1004 174.811 54.3956 176.09Z" fill="black"/>
<path d="M88.6546 457.045C89.5117 457.119 90.3687 456.902 91.0868 456.428C91.2441 456.286 91.3654 456.108 91.4408 455.909C91.5162 455.711 91.5437 455.497 91.5209 455.286C91.5105 455.155 91.4675 455.029 91.3957 454.92C91.3238 454.81 91.2256 454.72 91.1099 454.658C89.8874 453.985 85.8904 456.028 85.3997 456.257C85.3561 456.281 85.3209 456.318 85.2985 456.363C85.2762 456.408 85.2678 456.458 85.2744 456.508C85.2795 456.558 85.3015 456.604 85.3368 456.64C85.3721 456.675 85.4186 456.697 85.4683 456.703C86.5168 456.918 87.5837 457.033 88.6546 457.045ZM90.4476 454.966C90.596 454.957 90.7452 454.985 90.8809 455.047C90.9292 455.071 90.9695 455.109 90.9974 455.155C91.0261 455.202 91.0413 455.255 91.0413 455.309C91.0634 455.45 91.0499 455.593 91.0019 455.727C90.9539 455.86 90.8731 455.98 90.7668 456.074C90.1619 456.622 88.483 456.714 86.2902 456.348C87.5861 455.652 88.9926 455.184 90.4476 454.966Z" fill="#4F45E2"/>
<path d="M85.5481 456.691H85.639C86.8384 456.143 89.2019 453.985 89.0655 452.854C89.0655 452.58 88.8253 452.249 88.1742 452.18C87.9369 452.153 87.6965 452.175 87.4684 452.246C87.2403 452.317 87.0295 452.435 86.8495 452.592C85.5935 453.642 85.3653 456.337 85.3542 456.451C85.3503 456.493 85.3581 456.536 85.3765 456.574C85.3942 456.612 85.4217 456.645 85.4563 456.669C85.4851 456.682 85.5163 456.689 85.5481 456.691ZM87.9348 452.626H88.072C88.5053 452.626 88.5396 452.842 88.5516 452.9C88.6537 453.585 87.0554 455.286 85.8337 456.029C85.9287 454.889 86.3758 453.808 87.1129 452.934C87.3387 452.732 87.6315 452.622 87.9348 452.626Z" fill="#4F45E2"/>
<path d="M15.0329 456.451H25.0585L31.1342 433.224H21.0958L15.0329 456.451Z" fill="#FFD5BD"/>
<path d="M14.9412 455.286H26.2124C26.3029 455.278 26.3941 455.291 26.479 455.323C26.5639 455.355 26.6403 455.407 26.7023 455.473C26.765 455.538 26.8121 455.617 26.84 455.704C26.8679 455.79 26.876 455.882 26.8635 455.972L26.1781 464.89C26.1036 465.373 25.8635 465.815 25.4989 466.14C25.1343 466.465 24.668 466.653 24.18 466.671C20.2628 466.603 18.4698 466.375 13.4681 466.375C10.4191 466.375 7.38127 466.695 3.19037 466.695C-1.00053 466.695 -0.32625 462.526 1.51226 462.127C9.74564 460.437 10.0193 458.107 13.1601 455.881C13.6805 455.508 14.3012 455.301 14.9412 455.286Z" fill="black"/>
<path opacity="0.2" d="M31.1231 433.224L28.0054 445.203H17.967L21.0967 433.224H31.1231Z" fill="black"/>
<path d="M59.8082 237.105C48.2178 252.635 41.1598 309.665 36.0329 340.155C30.7001 371.867 17.5904 442.931 17.5904 442.931H31.1454C31.1454 442.931 49.5879 370.645 59.2488 340.041C69.9256 306.25 85.8792 237.15 85.8792 237.15L59.8082 237.105Z" fill="black"/>
<path d="M16.62 443.365H32.5394L33.7036 438.295L15.8771 437.666L16.62 443.365Z" fill="#4F45E2"/>
<path d="M13.6046 455.572C12.7966 455.271 12.1157 454.703 11.6751 453.962C11.5924 453.762 11.5595 453.546 11.5794 453.331C11.5993 453.116 11.6713 452.909 11.7892 452.728C11.8525 452.615 11.9433 452.521 12.0531 452.453C12.163 452.385 12.2883 452.346 12.4172 452.34C13.8216 452.26 16.5507 455.823 16.8595 456.234C16.8875 456.274 16.9025 456.322 16.9025 456.371C16.9025 456.42 16.8875 456.468 16.8595 456.508C16.834 456.549 16.7953 456.581 16.7497 456.597C16.7041 456.614 16.6542 456.615 16.6081 456.6C15.577 456.353 14.5716 456.009 13.6054 455.572H13.6046ZM12.8864 452.923C12.7516 452.853 12.6031 452.814 12.4515 452.809C12.3977 452.81 12.3455 452.827 12.3009 452.857C12.2564 452.888 12.2214 452.93 12.2002 452.979C12.1201 453.095 12.0698 453.228 12.054 453.368C12.0381 453.507 12.0571 453.648 12.1092 453.779C12.4284 454.533 13.8791 455.332 16.0376 455.96C15.1655 454.777 14.1007 453.75 12.8864 452.923Z" fill="#4F45E2"/>
<path d="M16.5626 456.588C16.5319 456.576 16.5045 456.556 16.4828 456.531C15.6378 455.526 14.4392 452.557 15.0896 451.609C15.2492 451.381 15.5692 451.164 16.2315 451.392C16.4556 451.471 16.6613 451.595 16.8361 451.756C17.0109 451.917 17.151 452.111 17.2481 452.328C17.9335 453.813 16.9744 456.348 16.9401 456.463C16.9248 456.501 16.8999 456.535 16.8677 456.561C16.8356 456.587 16.7973 456.604 16.7565 456.611C16.7247 456.623 16.6905 456.627 16.6568 456.623C16.623 456.619 16.5908 456.607 16.5626 456.588ZM16.1636 451.895L16.0264 451.838C15.6154 451.689 15.5125 451.838 15.4894 451.838C15.0904 452.397 15.8085 454.624 16.6312 455.823C17.0387 454.754 17.1029 453.584 16.8148 452.477C16.6776 452.208 16.4459 452.001 16.1636 451.895Z" fill="#4F45E2"/>
<path d="M88.0952 142.779L90.059 142.311C90.059 142.311 88.9857 143.784 88.0952 142.779Z" fill="black"/>
<path d="M59.272 234.65L58.1301 238.27C57.9817 238.544 58.3128 238.841 58.7812 238.864L100.69 240.109C101.056 240.109 101.364 239.948 101.399 239.72L101.867 236.077C101.867 235.826 101.593 235.609 101.193 235.598L59.9574 234.364C59.8283 234.349 59.6975 234.368 59.5776 234.418C59.4576 234.468 59.3524 234.548 59.272 234.65Z" fill="#4F45E2"/>
<path d="M64.6742 239.48H63.5315C63.3144 239.48 63.1548 239.354 63.166 239.217L63.8283 234.49C63.8283 234.353 64.0454 234.25 64.2624 234.25H65.4043C65.6213 234.25 65.7809 234.375 65.7698 234.512L65.1075 239.24C65.0843 239.377 64.8912 239.48 64.6742 239.48ZM97.5614 240.451H96.4195C96.2025 240.451 96.0429 240.325 96.0541 240.188L96.7164 235.471C96.7164 235.335 96.9334 235.22 97.1505 235.232H98.2923C98.5094 235.232 98.669 235.357 98.6578 235.495L97.9955 240.211C97.9724 240.359 97.7785 240.462 97.5614 240.451ZM81.1178 239.959H79.9751C79.7589 239.959 79.5985 239.834 79.6096 239.685L80.2719 234.97C80.2719 234.832 80.489 234.729 80.706 234.729H81.8479C82.065 234.729 82.2254 234.855 82.2134 234.992L81.5511 239.709C81.5742 239.868 81.334 239.971 81.1178 239.959Z" fill="black"/>
<path d="M30.0147 249.187L22.0215 256.507L32.1397 257.808C32.1397 257.808 35.93 252.613 34.1266 248.856L30.0147 249.187Z" fill="#FFD5BD"/>
<path d="M20.6617 264.832C21.6775 266.5 28.1945 265.747 29.1919 265.46C30.191 265.172 32.1612 257.808 32.1612 257.808L22.0438 256.518C22.0438 256.518 19.6467 263.164 20.6617 264.832Z" fill="#FFD5BD"/>
<path d="M81.0037 125.936C81.0037 125.936 89.4198 122.075 98.7033 133.781C87.5239 137.104 80.0103 134.797 80.0103 134.797L81.0037 125.936Z" fill="black"/>
<path d="M82.2134 124.896C82.2134 124.896 85.5298 166.227 82.2134 168.987C78.8979 171.747 59.3781 155.091 59.1124 153.559C58.8459 152.027 60.7674 121.345 82.2134 124.896Z" fill="black"/>
<path d="M88.2093 150.978C90.8586 150.978 93.2907 147.701 93.645 143.67C93.7948 142.588 93.7267 141.487 93.4447 140.432C93.162 139.377 92.6709 138.389 92.0004 137.526C91.6836 137.153 91.2903 136.851 90.8471 136.642C90.4038 136.434 89.9209 136.322 89.431 136.316C86.7818 136.316 84.3376 139.593 83.9841 143.624C83.8321 144.707 83.9004 145.81 84.1849 146.865C84.4695 147.921 84.9643 148.908 85.6399 149.768C85.9567 150.142 86.35 150.443 86.7932 150.652C87.2365 150.861 87.7194 150.972 88.2093 150.978ZM89.431 136.887C89.84 136.897 90.2424 136.992 90.612 137.167C90.9822 137.342 91.311 137.593 91.5775 137.903C92.1938 138.708 92.6435 139.627 92.9004 140.608C93.1573 141.588 93.2162 142.61 93.0737 143.613C92.7537 147.347 90.5617 150.396 88.2093 150.396C87.7985 150.39 87.3939 150.294 87.0233 150.117C86.6526 149.94 86.3247 149.684 86.062 149.368C85.4424 148.565 84.9897 147.647 84.7309 146.666C84.472 145.685 84.4121 144.663 84.5546 143.659C84.8858 139.924 87.0674 136.887 89.431 136.887ZM98.1559 150.978C100.302 150.978 102.267 147.77 102.621 143.67C102.861 140.918 102.289 138.417 101.136 137.161C100.92 136.903 100.651 136.695 100.348 136.549C100.045 136.403 99.7139 136.324 99.3776 136.316C97.2311 136.316 95.2777 139.525 94.9122 143.624C94.684 146.377 95.2553 148.866 96.4084 150.133C96.6237 150.389 96.8907 150.597 97.1919 150.743C97.493 150.888 97.8215 150.969 98.1559 150.978ZM99.3776 136.887C99.6352 136.893 99.8883 136.956 100.119 137.07C100.35 137.184 100.553 137.348 100.713 137.55C101.753 138.691 102.278 141.066 102.05 143.624C101.741 147.301 99.9489 150.408 98.1559 150.408C97.9007 150.398 97.6505 150.334 97.422 150.22C97.1936 150.106 96.9922 149.944 96.8313 149.746C95.7916 148.604 95.2665 146.228 95.4835 143.67C95.8035 139.993 97.5622 136.887 99.3776 136.887Z" fill="white"/>
<path d="M93.3593 143.932H93.4846C93.7257 143.805 93.9943 143.738 94.267 143.738C94.5398 143.738 94.8084 143.805 95.0494 143.932C95.113 143.971 95.1894 143.984 95.262 143.967C95.3346 143.95 95.3976 143.905 95.4372 143.841C95.4587 143.811 95.4734 143.777 95.4803 143.74C95.492 143.685 95.4864 143.628 95.4644 143.577C95.4424 143.526 95.405 143.482 95.3574 143.453C95.0314 143.283 94.6691 143.194 94.3013 143.194C93.9336 143.194 93.5713 143.283 93.2452 143.453C93.1772 143.485 93.1241 143.542 93.0965 143.612C93.069 143.682 93.0691 143.76 93.0968 143.83C93.1296 143.867 93.1704 143.895 93.216 143.912C93.2615 143.93 93.3107 143.937 93.3593 143.932Z" fill="white"/>
</g>
<defs>
<filter id="filter0_d_1_4930" x="383.714" y="46.2306" width="192.52" height="133.134" filterUnits="userSpaceOnUse" color-interpolation-filters="sRGB">
<feFlood flood-opacity="0" result="BackgroundImageFix"/>
<feColorMatrix in="SourceAlpha" type="matrix" values="0 0 0 0 0 0 0 0 0 0 0 0 0 0 0 0 0 0 127 0" result="hardAlpha"/>
<feOffset dy="4.78778"/>
<feGaussianBlur stdDeviation="7.97963"/>
<feColorMatrix type="matrix" values="0 0 0 0 0.247059 0 0 0 0 0.501961 0 0 0 0 0.992157 0 0 0 0.05 0"/>
<feBlend mode="normal" in2="BackgroundImageFix" result="effect1_dropShadow_1_4930"/>
<feBlend mode="normal" in="SourceGraphic" in2="effect1_dropShadow_1_4930" result="shape"/>
</filter>
<filter id="filter1_d_1_4930" x="408.693" y="74.7314" width="65.231" height="21.1365" filterUnits="userSpaceOnUse" color-interpolation-filters="sRGB">
<feFlood flood-opacity="0" result="BackgroundImageFix"/>
<feColorMatrix in="SourceAlpha" type="matrix" values="0 0 0 0 0 0 0 0 0 0 0 0 0 0 0 0 0 0 127 0" result="hardAlpha"/>
<feOffset dy="2.89022"/>
<feGaussianBlur stdDeviation="3.61238"/>
<feColorMatrix type="matrix" values="0 0 0 0 0.247059 0 0 0 0 0.501961 0 0 0 0 0.992157 0 0 0 0.29 0"/>
<feBlend mode="normal" in2="BackgroundImageFix" result="effect1_dropShadow_1_4930"/>
<feBlend mode="normal" in="SourceGraphic" in2="effect1_dropShadow_1_4930" result="shape"/>
</filter>
<filter id="filter2_d_1_4930" x="408.694" y="87.5317" width="129.474" height="21.1365" filterUnits="userSpaceOnUse" color-interpolation-filters="sRGB">
<feFlood flood-opacity="0" result="BackgroundImageFix"/>
<feColorMatrix in="SourceAlpha" type="matrix" values="0 0 0 0 0 0 0 0 0 0 0 0 0 0 0 0 0 0 127 0" result="hardAlpha"/>
<feOffset dy="2.89022"/>
<feGaussianBlur stdDeviation="3.61238"/>
<feColorMatrix type="matrix" values="0 0 0 0 0.247059 0 0 0 0 0.501961 0 0 0 0 0.992157 0 0 0 0.29 0"/>
<feBlend mode="normal" in2="BackgroundImageFix" result="effect1_dropShadow_1_4930"/>
<feBlend mode="normal" in="SourceGraphic" in2="effect1_dropShadow_1_4930" result="shape"/>
</filter>
<filter id="filter3_d_1_4930" x="408.848" y="100.249" width="58.3622" height="21.1365" filterUnits="userSpaceOnUse" color-interpolation-filters="sRGB">
<feFlood flood-opacity="0" result="BackgroundImageFix"/>
<feColorMatrix in="SourceAlpha" type="matrix" values="0 0 0 0 0 0 0 0 0 0 0 0 0 0 0 0 0 0 127 0" result="hardAlpha"/>
<feOffset dy="2.89022"/>
<feGaussianBlur stdDeviation="3.61238"/>
<feColorMatrix type="matrix" values="0 0 0 0 0.247059 0 0 0 0 0.501961 0 0 0 0 0.992157 0 0 0 0.29 0"/>
<feBlend mode="normal" in2="BackgroundImageFix" result="effect1_dropShadow_1_4930"/>
<feBlend mode="normal" in="SourceGraphic" in2="effect1_dropShadow_1_4930" result="shape"/>
</filter>
<filter id="filter4_d_1_4930" x="408.694" y="113.133" width="108.677" height="21.1365" filterUnits="userSpaceOnUse" color-interpolation-filters="sRGB">
<feFlood flood-opacity="0" result="BackgroundImageFix"/>
<feColorMatrix in="SourceAlpha" type="matrix" values="0 0 0 0 0 0 0 0 0 0 0 0 0 0 0 0 0 0 127 0" result="hardAlpha"/>
<feOffset dy="2.89022"/>
<feGaussianBlur stdDeviation="3.61238"/>
<feColorMatrix type="matrix" values="0 0 0 0 0.247059 0 0 0 0 0.501961 0 0 0 0 0.992157 0 0 0 0.29 0"/>
<feBlend mode="normal" in2="BackgroundImageFix" result="effect1_dropShadow_1_4930"/>
<feBlend mode="normal" in="SourceGraphic" in2="effect1_dropShadow_1_4930" result="shape"/>
</filter>
<filter id="filter5_d_1_4930" x="408.745" y="125.933" width="75.7578" height="21.1365" filterUnits="userSpaceOnUse" color-interpolation-filters="sRGB">
<feFlood flood-opacity="0" result="BackgroundImageFix"/>
<feColorMatrix in="SourceAlpha" type="matrix" values="0 0 0 0 0 0 0 0 0 0 0 0 0 0 0 0 0 0 127 0" result="hardAlpha"/>
<feOffset dy="2.89022"/>
<feGaussianBlur stdDeviation="3.61238"/>
<feColorMatrix type="matrix" values="0 0 0 0 0.247059 0 0 0 0 0.501961 0 0 0 0 0.992157 0 0 0 0.29 0"/>
<feBlend mode="normal" in2="BackgroundImageFix" result="effect1_dropShadow_1_4930"/>
<feBlend mode="normal" in="SourceGraphic" in2="effect1_dropShadow_1_4930" result="shape"/>
</filter>
<filter id="filter6_d_1_4930" x="119.231" y="112.504" width="153.291" height="157.413" filterUnits="userSpaceOnUse" color-interpolation-filters="sRGB">
<feFlood flood-opacity="0" result="BackgroundImageFix"/>
<feColorMatrix in="SourceAlpha" type="matrix" values="0 0 0 0 0 0 0 0 0 0 0 0 0 0 0 0 0 0 127 0" result="hardAlpha"/>
<feOffset dy="4.78778"/>
<feGaussianBlur stdDeviation="7.97963"/>
<feColorMatrix type="matrix" values="0 0 0 0 1 0 0 0 0 0.505882 0 0 0 0 0.223529 0 0 0 0.1 0"/>
<feBlend mode="normal" in2="BackgroundImageFix" result="effect1_dropShadow_1_4930"/>
<feBlend mode="normal" in="SourceGraphic" in2="effect1_dropShadow_1_4930" result="shape"/>
</filter>
<filter id="filter7_d_1_4930" x="184.347" y="138.223" width="63.1627" height="76.2514" filterUnits="userSpaceOnUse" color-interpolation-filters="sRGB">
<feFlood flood-opacity="0" result="BackgroundImageFix"/>
<feColorMatrix in="SourceAlpha" type="matrix" values="0 0 0 0 0 0 0 0 0 0 0 0 0 0 0 0 0 0 127 0" result="hardAlpha"/>
<feOffset dy="3.10886"/>
<feGaussianBlur stdDeviation="3.10886"/>
<feColorMatrix type="matrix" values="0 0 0 0 1 0 0 0 0 0.760784 0 0 0 0 0.14902 0 0 0 0.21 0"/>
<feBlend mode="normal" in2="BackgroundImageFix" result="effect1_dropShadow_1_4930"/>
<feBlend mode="normal" in="SourceGraphic" in2="effect1_dropShadow_1_4930" result="shape"/>
</filter>
<filter id="filter8_d_1_4930" x="150.953" y="137.898" width="80.5467" height="47.2433" filterUnits="userSpaceOnUse" color-interpolation-filters="sRGB">
<feFlood flood-opacity="0" result="BackgroundImageFix"/>
<feColorMatrix in="SourceAlpha" type="matrix" values="0 0 0 0 0 0 0 0 0 0 0 0 0 0 0 0 0 0 127 0" result="hardAlpha"/>
<feOffset dy="3.10886"/>
<feGaussianBlur stdDeviation="3.10886"/>
<feColorMatrix type="matrix" values="0 0 0 0 1 0 0 0 0 0.505882 0 0 0 0 0.223529 0 0 0 0.16 0"/>
<feBlend mode="normal" in2="BackgroundImageFix" result="effect1_dropShadow_1_4930"/>
<feBlend mode="normal" in="SourceGraphic" in2="effect1_dropShadow_1_4930" result="shape"/>
</filter>
<filter id="filter9_d_1_4930" x="138.027" y="150.435" width="87.3361" height="98.4998" filterUnits="userSpaceOnUse" color-interpolation-filters="sRGB">
<feFlood flood-opacity="0" result="BackgroundImageFix"/>
<feColorMatrix in="SourceAlpha" type="matrix" values="0 0 0 0 0 0 0 0 0 0 0 0 0 0 0 0 0 0 127 0" result="hardAlpha"/>
<feOffset dy="4.6625"/>
<feGaussianBlur stdDeviation="6.21693"/>
<feColorMatrix type="matrix" values="0 0 0 0 1 0 0 0 0 0.223529 0 0 0 0 0.317647 0 0 0 0.34 0"/>
<feBlend mode="normal" in2="BackgroundImageFix" result="effect1_dropShadow_1_4930"/>
<feBlend mode="normal" in="SourceGraphic" in2="effect1_dropShadow_1_4930" result="shape"/>
</filter>
<filter id="filter10_d_1_4930" x="204.44" y="-9.05991e-05" width="177.995" height="116.284" filterUnits="userSpaceOnUse" color-interpolation-filters="sRGB">
<feFlood flood-opacity="0" result="BackgroundImageFix"/>
<feColorMatrix in="SourceAlpha" type="matrix" values="0 0 0 0 0 0 0 0 0 0 0 0 0 0 0 0 0 0 127 0" result="hardAlpha"/>
<feOffset dy="4.78778"/>
<feGaussianBlur stdDeviation="7.97963"/>
<feColorMatrix type="matrix" values="0 0 0 0 0.956863 0 0 0 0 0.14902 0 0 0 0 0.243137 0 0 0 0.1 0"/>
<feBlend mode="normal" in2="BackgroundImageFix" result="effect1_dropShadow_1_4930"/>
<feBlend mode="normal" in="SourceGraphic" in2="effect1_dropShadow_1_4930" result="shape"/>
</filter>
<filter id="filter11_d_1_4930" x="231.138" y="17.745" width="124.55" height="70.9854" filterUnits="userSpaceOnUse" color-interpolation-filters="sRGB">
<feFlood flood-opacity="0" result="BackgroundImageFix"/>
<feColorMatrix in="SourceAlpha" type="matrix" values="0 0 0 0 0 0 0 0 0 0 0 0 0 0 0 0 0 0 127 0" result="hardAlpha"/>
<feOffset dy="1.00543"/>
<feGaussianBlur stdDeviation="1.25679"/>
<feColorMatrix type="matrix" values="0 0 0 0 0.956863 0 0 0 0 0.14902 0 0 0 0 0.243137 0 0 0 0.33 0"/>
<feBlend mode="normal" in2="BackgroundImageFix" result="effect1_dropShadow_1_4930"/>
<feBlend mode="normal" in="SourceGraphic" in2="effect1_dropShadow_1_4930" result="shape"/>
</filter>
<filter id="filter12_d_1_4930" x="421.693" y="75.5911" width="90.7123" height="52.545" filterUnits="userSpaceOnUse" color-interpolation-filters="sRGB">
<feFlood flood-opacity="0" result="BackgroundImageFix"/>
<feColorMatrix in="SourceAlpha" type="matrix" values="0 0 0 0 0 0 0 0 0 0 0 0 0 0 0 0 0 0 127 0" result="hardAlpha"/>
<feOffset dy="6.36615"/>
<feGaussianBlur stdDeviation="3.18307"/>
<feColorMatrix type="matrix" values="0 0 0 0 0.460416 0 0 0 0 0.270833 0 0 0 0 1 0 0 0 0.09 0"/>
<feBlend mode="normal" in2="BackgroundImageFix" result="effect1_dropShadow_1_4930"/>
<feBlend mode="normal" in="SourceGraphic" in2="effect1_dropShadow_1_4930" result="shape"/>
</filter>
<filter id="filter13_d_1_4930" x="457.771" y="122.811" width="89.8434" height="88.1888" filterUnits="userSpaceOnUse" color-interpolation-filters="sRGB">
<feFlood flood-opacity="0" result="BackgroundImageFix"/>
<feColorMatrix in="SourceAlpha" type="matrix" values="0 0 0 0 0 0 0 0 0 0 0 0 0 0 0 0 0 0 127 0" result="hardAlpha"/>
<feOffset dy="6.36615"/>
<feGaussianBlur stdDeviation="3.18307"/>
<feColorMatrix type="matrix" values="0 0 0 0 0.460416 0 0 0 0 0.270833 0 0 0 0 1 0 0 0 0.09 0"/>
<feBlend mode="normal" in2="BackgroundImageFix" result="effect1_dropShadow_1_4930"/>
<feBlend mode="normal" in="SourceGraphic" in2="effect1_dropShadow_1_4930" result="shape"/>
</filter>
<filter id="filter14_d_1_4930" x="473.261" y="76.2563" width="74.3539" height="82.0445" filterUnits="userSpaceOnUse" color-interpolation-filters="sRGB">
<feFlood flood-opacity="0" result="BackgroundImageFix"/>
<feColorMatrix in="SourceAlpha" type="matrix" values="0 0 0 0 0 0 0 0 0 0 0 0 0 0 0 0 0 0 127 0" result="hardAlpha"/>
<feOffset dy="6.36615"/>
<feGaussianBlur stdDeviation="3.18307"/>
<feColorMatrix type="matrix" values="0 0 0 0 0.460416 0 0 0 0 0.270833 0 0 0 0 1 0 0 0 0.09 0"/>
<feBlend mode="normal" in2="BackgroundImageFix" result="effect1_dropShadow_1_4930"/>
<feBlend mode="normal" in="SourceGraphic" in2="effect1_dropShadow_1_4930" result="shape"/>
</filter>
<filter id="filter15_d_1_4930" x="501.808" y="39.7416" width="21.2338" height="21.2337" filterUnits="userSpaceOnUse" color-interpolation-filters="sRGB">
<feFlood flood-opacity="0" result="BackgroundImageFix"/>
<feColorMatrix in="SourceAlpha" type="matrix" values="0 0 0 0 0 0 0 0 0 0 0 0 0 0 0 0 0 0 127 0" result="hardAlpha"/>
<feOffset dy="2.91017"/>
<feGaussianBlur stdDeviation="2.07869"/>
<feColorMatrix type="matrix" values="0 0 0 0 0.460416 0 0 0 0 0.270833 0 0 0 0 1 0 0 0 0.18 0"/>
<feBlend mode="normal" in2="BackgroundImageFix" result="effect1_dropShadow_1_4930"/>
<feBlend mode="normal" in="SourceGraphic" in2="effect1_dropShadow_1_4930" result="shape"/>
</filter>
<clipPath id="clip0_1_4930">
<rect width="577" height="470" fill="white"/>
</clipPath>
</defs>
</svg>
