<svg width="507" height="320" viewBox="0 0 507 320" fill="none" xmlns="http://www.w3.org/2000/svg">
<g filter="url(#filter0_d_1_913)">
<circle cx="254" cy="160" r="79" fill="#4F45E2"/>
<path d="M244.993 165.667L244.027 163.209H237.977L237.032 165.667H233.25L239.321 151.382H242.724L248.774 165.667H244.993ZM239.132 160.247H242.871L241.002 155.436L239.132 160.247Z" fill="black"/>
<path d="M244.993 165.667L244.027 163.209H237.977L237.032 165.667H233.25L239.321 151.382H242.724L248.774 165.667H244.993ZM239.132 160.247H242.871L241.002 155.436L239.132 160.247Z" fill="url(#paint0_linear_1_913)"/>
<path d="M259.649 151.382H263.178V165.667H259.649V160.31H253.83V165.667H250.28V151.382H253.83V157.117H259.649V151.382Z" fill="black"/>
<path d="M259.649 151.382H263.178V165.667H259.649V160.31H253.83V165.667H250.28V151.382H253.83V157.117H259.649V151.382Z" fill="url(#paint1_linear_1_913)"/>
<path d="M275.496 151.382H279.424L273.794 161.36V165.667H270.223V161.36L264.573 151.382H268.501L271.988 157.6L275.496 151.382Z" fill="black"/>
<path d="M275.496 151.382H279.424L273.794 161.36V165.667H270.223V161.36L264.573 151.382H268.501L271.988 157.6L275.496 151.382Z" fill="url(#paint2_linear_1_913)"/>
<path d="M284.355 162.495H291.413V165.667H280.805V151.382H284.355V162.495Z" fill="black"/>
<path d="M284.355 162.495H291.413V165.667H280.805V151.382H284.355V162.495Z" fill="url(#paint3_linear_1_913)"/>
<path d="M293.093 151.382H296.643V165.667H293.093V151.382Z" fill="black"/>
<path d="M293.093 151.382H296.643V165.667H293.093V151.382Z" fill="url(#paint4_linear_1_913)"/>
<path d="M304.081 162.537H310.992V165.667H298.619V163.986L305.698 154.512H298.976V151.382H310.866V153.063L304.081 162.537Z" fill="black"/>
<path d="M304.081 162.537H310.992V165.667H298.619V163.986L305.698 154.512H298.976V151.382H310.866V153.063L304.081 162.537Z" fill="url(#paint5_linear_1_913)"/>
<path d="M235.544 173.54V170.662L234.448 170.687C234.021 170.696 233.845 170.746 233.737 170.905C233.661 171.005 233.628 171.097 233.611 171.147C233.594 171.206 233.578 171.24 233.527 171.24C233.477 171.24 233.461 171.198 233.461 171.122C233.461 171.005 233.603 170.319 233.619 170.261C233.636 170.169 233.661 170.127 233.703 170.127C233.762 170.127 233.837 170.185 234.021 170.21C234.239 170.236 234.515 170.244 234.757 170.244H237.744C237.978 170.244 238.137 170.227 238.246 170.21C238.363 170.194 238.422 170.177 238.447 170.177C238.497 170.177 238.505 170.219 238.505 170.328C238.505 170.478 238.489 171.005 238.489 171.189C238.48 171.265 238.463 171.306 238.422 171.306C238.363 171.306 238.346 171.273 238.338 171.164L238.33 171.089C238.313 170.905 238.12 170.687 237.46 170.679L236.531 170.662V173.54C236.531 174.193 236.539 174.753 236.573 175.063C236.598 175.264 236.64 175.397 236.857 175.431C236.958 175.448 237.125 175.456 237.234 175.456C237.317 175.456 237.351 175.498 237.351 175.531C237.351 175.582 237.292 175.607 237.209 175.607C236.723 175.607 236.23 175.582 236.021 175.582C235.853 175.582 235.351 175.607 235.058 175.607C234.966 175.607 234.916 175.582 234.916 175.531C234.916 175.498 234.941 175.456 235.033 175.456C235.142 175.456 235.234 175.448 235.293 175.431C235.443 175.397 235.485 175.264 235.51 175.054C235.544 174.753 235.544 174.193 235.544 173.54ZM240.863 173.54V172.285C240.863 171.206 240.863 171.005 240.855 170.779C240.838 170.537 240.771 170.461 240.537 170.395C240.478 170.378 240.353 170.369 240.244 170.369C240.169 170.369 240.118 170.344 240.118 170.294C240.118 170.244 240.177 170.227 240.286 170.227C240.671 170.227 241.139 170.244 241.348 170.244C241.582 170.244 243.214 170.252 243.356 170.244C243.49 170.236 243.607 170.21 243.666 170.202C243.707 170.194 243.749 170.169 243.783 170.169C243.825 170.169 243.833 170.202 243.833 170.236C243.833 170.286 243.791 170.369 243.774 170.696C243.766 170.771 243.749 171.081 243.733 171.164C243.724 171.198 243.707 171.281 243.649 171.281C243.599 171.281 243.59 171.248 243.59 171.189C243.59 171.139 243.582 171.014 243.54 170.93C243.482 170.804 243.423 170.704 243.055 170.671C242.929 170.654 242.051 170.637 241.9 170.637C241.867 170.637 241.85 170.662 241.85 170.704V172.461C241.85 172.503 241.859 172.536 241.9 172.536C242.068 172.536 243.021 172.536 243.189 172.52C243.364 172.503 243.473 172.486 243.54 172.411C243.599 172.361 243.624 172.319 243.657 172.319C243.691 172.319 243.716 172.352 243.716 172.394C243.716 172.436 243.699 172.553 243.657 172.913C243.641 173.055 243.624 173.339 243.624 173.39C243.624 173.448 243.615 173.549 243.549 173.549C243.498 173.549 243.482 173.523 243.482 173.49C243.473 173.415 243.473 173.323 243.456 173.231C243.415 173.088 243.323 172.98 243.047 172.955C242.913 172.938 242.076 172.921 241.892 172.921C241.859 172.921 241.85 172.955 241.85 172.996V173.565C241.85 173.808 241.842 174.41 241.85 174.619C241.867 175.105 242.093 175.213 242.846 175.213C243.038 175.213 243.348 175.205 243.54 175.121C243.724 175.038 243.808 174.887 243.858 174.594C243.875 174.519 243.892 174.486 243.942 174.486C244 174.486 244.009 174.578 244.009 174.653C244.009 174.812 243.95 175.297 243.908 175.439C243.858 175.623 243.791 175.623 243.515 175.623C242.963 175.623 242.519 175.615 242.16 175.598C241.8 175.59 241.524 175.582 241.306 175.582C241.223 175.582 241.064 175.59 240.888 175.59C240.712 175.598 240.528 175.607 240.378 175.607C240.286 175.607 240.236 175.582 240.236 175.531C240.236 175.498 240.261 175.456 240.353 175.456C240.461 175.456 240.545 175.448 240.612 175.431C240.763 175.397 240.804 175.264 240.83 175.054C240.863 174.753 240.863 174.193 240.863 173.54ZM249.331 175.699C248.327 175.699 247.474 175.49 246.804 174.929C246.077 174.318 245.884 173.515 245.884 172.829C245.884 172.344 246.043 171.507 246.746 170.88C247.281 170.411 247.984 170.127 249.08 170.127C249.54 170.127 249.816 170.16 250.151 170.202C250.427 170.244 250.67 170.294 250.887 170.319C250.971 170.328 250.996 170.361 250.996 170.403C250.996 170.461 250.979 170.545 250.962 170.796C250.946 171.03 250.946 171.424 250.937 171.566C250.929 171.666 250.904 171.741 250.837 171.741C250.778 171.741 250.762 171.683 250.762 171.591C250.753 171.365 250.661 171.114 250.477 170.93C250.226 170.687 249.733 170.512 249.055 170.512C248.411 170.512 248.001 170.629 247.666 170.913C247.122 171.382 246.988 172.068 246.988 172.762C246.988 174.452 248.294 175.255 249.281 175.255C249.933 175.255 250.293 175.205 250.586 174.879C250.711 174.737 250.812 174.536 250.837 174.402C250.854 174.293 250.87 174.26 250.929 174.26C250.979 174.26 251.013 174.327 251.013 174.385C251.013 174.469 250.929 175.088 250.854 175.331C250.82 175.456 250.787 175.49 250.661 175.54C250.368 175.657 249.808 175.699 249.331 175.699ZM254.627 172.545H257.405C257.422 172.545 257.447 172.536 257.447 172.494V172.344C257.447 171.265 257.438 171.005 257.43 170.779C257.413 170.537 257.346 170.461 257.112 170.395C257.054 170.378 256.928 170.369 256.828 170.369C256.744 170.369 256.702 170.344 256.702 170.294C256.702 170.244 256.752 170.227 256.861 170.227C257.254 170.227 257.773 170.244 257.965 170.244C258.141 170.244 258.626 170.227 258.911 170.227C259.02 170.227 259.07 170.244 259.07 170.294C259.07 170.344 259.02 170.369 258.936 170.369C258.877 170.369 258.81 170.378 258.718 170.395C258.526 170.428 258.467 170.528 258.451 170.779C258.434 171.005 258.434 171.206 258.434 172.285V173.54C258.434 174.193 258.434 174.753 258.467 175.063C258.493 175.264 258.534 175.397 258.76 175.431C258.861 175.448 259.02 175.456 259.137 175.456C259.212 175.456 259.254 175.498 259.254 175.531C259.254 175.582 259.195 175.607 259.103 175.607C258.626 175.607 258.141 175.582 257.94 175.582C257.773 175.582 257.254 175.607 256.97 175.607C256.87 175.607 256.811 175.582 256.811 175.531C256.811 175.498 256.844 175.456 256.928 175.456C257.045 175.456 257.129 175.448 257.196 175.431C257.346 175.397 257.388 175.264 257.413 175.054C257.447 174.753 257.447 174.209 257.447 173.557V173.013C257.447 172.988 257.422 172.971 257.405 172.971H254.627C254.602 172.971 254.577 172.98 254.577 173.013V173.557C254.577 174.209 254.586 174.753 254.619 175.063C254.644 175.264 254.686 175.397 254.903 175.431C255.004 175.448 255.171 175.456 255.28 175.456C255.364 175.456 255.397 175.498 255.397 175.531C255.397 175.582 255.339 175.607 255.246 175.607C254.77 175.607 254.259 175.582 254.05 175.582C253.883 175.582 253.398 175.607 253.105 175.607C253.013 175.607 252.963 175.582 252.963 175.531C252.963 175.498 252.988 175.456 253.08 175.456C253.188 175.456 253.272 175.448 253.339 175.431C253.49 175.397 253.531 175.264 253.557 175.054C253.59 174.753 253.59 174.193 253.59 173.54V172.285C253.59 171.206 253.59 171.005 253.582 170.779C253.565 170.537 253.498 170.461 253.264 170.395C253.205 170.378 253.08 170.369 252.971 170.369C252.896 170.369 252.845 170.344 252.845 170.294C252.845 170.244 252.904 170.227 253.004 170.227C253.398 170.227 253.883 170.244 254.084 170.244C254.259 170.244 254.77 170.227 255.062 170.227C255.163 170.227 255.213 170.244 255.213 170.294C255.213 170.344 255.171 170.369 255.079 170.369C255.021 170.369 254.954 170.378 254.87 170.395C254.669 170.428 254.611 170.528 254.594 170.779C254.577 171.005 254.577 171.265 254.577 172.344V172.494C254.577 172.536 254.602 172.545 254.627 172.545ZM262.225 171.733L262.309 174.636C262.326 175.188 262.418 175.356 262.56 175.406C262.686 175.448 262.828 175.456 262.945 175.456C263.029 175.456 263.07 175.49 263.07 175.531C263.07 175.59 263.003 175.607 262.903 175.607C262.426 175.607 262.083 175.582 261.949 175.582C261.882 175.582 261.531 175.607 261.155 175.607C261.054 175.607 260.987 175.598 260.987 175.531C260.987 175.49 261.037 175.456 261.104 175.456C261.205 175.456 261.339 175.448 261.439 175.423C261.631 175.372 261.657 175.18 261.665 174.561L261.732 170.344C261.732 170.202 261.782 170.102 261.857 170.102C261.949 170.102 262.05 170.21 262.175 170.336C262.267 170.428 263.372 171.557 264.442 172.603C264.944 173.097 265.923 174.101 266.032 174.201H266.065L265.99 171.039C265.982 170.604 265.915 170.478 265.739 170.411C265.63 170.369 265.455 170.369 265.354 170.369C265.262 170.369 265.237 170.336 265.237 170.294C265.237 170.236 265.313 170.227 265.421 170.227C265.806 170.227 266.199 170.244 266.358 170.244C266.442 170.244 266.718 170.227 267.078 170.227C267.178 170.227 267.245 170.236 267.245 170.294C267.245 170.336 267.203 170.369 267.12 170.369C267.044 170.369 266.986 170.369 266.894 170.395C266.693 170.453 266.634 170.579 266.626 170.98L266.542 175.464C266.542 175.623 266.484 175.69 266.425 175.69C266.3 175.69 266.199 175.615 266.124 175.54C265.664 175.113 264.744 174.235 263.974 173.49C263.171 172.72 262.393 171.859 262.251 171.733H262.225ZM272.014 175.699C269.873 175.699 269.002 174.176 269.002 172.913C269.002 171.7 269.856 170.127 272.09 170.127C273.947 170.127 275.101 171.156 275.101 172.787C275.101 174.419 273.913 175.699 272.014 175.699ZM272.315 175.314C272.834 175.314 274.005 175.071 274.005 173.047C274.005 171.474 273.06 170.503 271.872 170.503C271.052 170.503 270.09 170.938 270.09 172.695C270.09 174.159 270.927 175.314 272.315 175.314ZM278.464 172.285V173.54C278.464 174.452 278.464 174.904 278.622 175.038C278.748 175.147 279.032 175.188 279.601 175.188C279.995 175.188 280.279 175.18 280.463 174.988C280.555 174.896 280.63 174.695 280.647 174.561C280.655 174.494 280.672 174.452 280.731 174.452C280.781 174.452 280.798 174.527 280.798 174.611C280.798 174.695 280.747 175.222 280.689 175.431C280.639 175.59 280.605 175.623 280.22 175.623C279.693 175.623 279.267 175.615 278.899 175.598C278.53 175.59 278.221 175.582 277.92 175.582C277.836 175.582 277.677 175.59 277.501 175.59C277.326 175.598 277.142 175.607 276.991 175.607C276.899 175.607 276.849 175.582 276.849 175.531C276.849 175.498 276.874 175.456 276.966 175.456C277.075 175.456 277.158 175.448 277.225 175.431C277.376 175.397 277.418 175.264 277.443 175.054C277.476 174.753 277.476 174.193 277.476 173.54V172.285C277.476 171.206 277.476 171.005 277.468 170.779C277.451 170.537 277.384 170.461 277.15 170.395C277.091 170.378 276.999 170.369 276.907 170.369C276.824 170.369 276.782 170.344 276.782 170.294C276.782 170.244 276.832 170.227 276.941 170.227C277.284 170.227 277.752 170.244 277.953 170.244C278.129 170.244 278.731 170.227 279.016 170.227C279.124 170.227 279.175 170.244 279.175 170.294C279.175 170.344 279.133 170.369 279.041 170.369C278.957 170.369 278.84 170.378 278.756 170.395C278.556 170.428 278.497 170.528 278.48 170.779C278.464 171.005 278.464 171.206 278.464 172.285ZM285.142 175.699C283 175.699 282.13 174.176 282.13 172.913C282.13 171.7 282.983 170.127 285.217 170.127C287.074 170.127 288.229 171.156 288.229 172.787C288.229 174.419 287.041 175.699 285.142 175.699ZM285.443 175.314C285.961 175.314 287.133 175.071 287.133 173.047C287.133 171.474 286.187 170.503 284.999 170.503C284.179 170.503 283.217 170.938 283.217 172.695C283.217 174.159 284.054 175.314 285.443 175.314ZM295.35 174.343V175.13C295.35 175.322 295.35 175.331 295.258 175.381C294.764 175.623 294.036 175.699 293.459 175.699C291.652 175.699 290.054 174.879 290.054 172.913C290.054 171.775 290.664 170.98 291.342 170.587C292.045 170.177 292.706 170.127 293.325 170.127C293.835 170.127 294.479 170.21 294.63 170.244C294.781 170.269 295.04 170.311 295.216 170.319C295.299 170.328 295.316 170.353 295.316 170.403C295.316 170.487 295.266 170.679 295.266 171.574C295.266 171.683 295.224 171.733 295.165 171.733C295.115 171.733 295.099 171.7 295.09 171.641C295.073 171.482 295.032 171.256 294.839 171.055C294.622 170.83 294.07 170.512 293.241 170.512C292.84 170.512 292.329 170.52 291.819 170.93C291.409 171.265 291.141 171.792 291.141 172.662C291.141 174.193 292.129 175.305 293.701 175.305C293.894 175.305 294.044 175.305 294.22 175.23C294.329 175.18 294.362 175.105 294.362 174.979V174.327C294.362 173.975 294.362 173.708 294.354 173.49C294.346 173.247 294.27 173.172 294.036 173.105C293.977 173.088 293.852 173.08 293.752 173.08C293.685 173.08 293.634 173.047 293.634 173.005C293.634 172.946 293.693 172.938 293.793 172.938C294.178 172.938 294.705 172.955 294.923 172.955C295.157 172.955 295.542 172.938 295.785 172.938C295.885 172.938 295.935 172.946 295.935 173.005C295.935 173.047 295.893 173.08 295.843 173.08C295.785 173.08 295.726 173.088 295.642 173.105C295.442 173.139 295.366 173.239 295.358 173.49C295.35 173.708 295.35 173.992 295.35 174.343ZM298.413 173.54V172.285C298.413 171.206 298.413 171.005 298.405 170.779C298.388 170.537 298.313 170.453 298.154 170.403C298.07 170.378 297.978 170.369 297.886 170.369C297.811 170.369 297.769 170.353 297.769 170.286C297.769 170.244 297.828 170.227 297.945 170.227C298.221 170.227 298.723 170.244 298.932 170.244C299.116 170.244 299.593 170.227 299.877 170.227C299.969 170.227 300.028 170.244 300.028 170.286C300.028 170.353 299.986 170.369 299.911 170.369C299.835 170.369 299.777 170.378 299.693 170.395C299.492 170.428 299.434 170.528 299.417 170.779C299.4 171.005 299.4 171.206 299.4 172.285V173.54C299.4 174.226 299.4 174.795 299.434 175.096C299.459 175.289 299.509 175.397 299.727 175.431C299.827 175.448 299.994 175.456 300.103 175.456C300.187 175.456 300.22 175.498 300.22 175.531C300.22 175.582 300.162 175.607 300.078 175.607C299.593 175.607 299.091 175.582 298.89 175.582C298.723 175.582 298.221 175.607 297.928 175.607C297.836 175.607 297.786 175.582 297.786 175.531C297.786 175.498 297.811 175.456 297.903 175.456C298.012 175.456 298.095 175.448 298.162 175.431C298.313 175.397 298.355 175.297 298.38 175.088C298.413 174.795 298.413 174.226 298.413 173.54ZM302.824 173.54V172.285C302.824 171.206 302.824 171.005 302.816 170.779C302.799 170.537 302.732 170.461 302.498 170.395C302.439 170.378 302.314 170.369 302.205 170.369C302.13 170.369 302.08 170.344 302.08 170.294C302.08 170.244 302.138 170.227 302.247 170.227C302.632 170.227 303.1 170.244 303.309 170.244C303.544 170.244 305.175 170.252 305.317 170.244C305.451 170.236 305.568 170.21 305.627 170.202C305.669 170.194 305.71 170.169 305.744 170.169C305.786 170.169 305.794 170.202 305.794 170.236C305.794 170.286 305.752 170.369 305.736 170.696C305.727 170.771 305.71 171.081 305.694 171.164C305.685 171.198 305.669 171.281 305.61 171.281C305.56 171.281 305.551 171.248 305.551 171.189C305.551 171.139 305.543 171.014 305.501 170.93C305.443 170.804 305.384 170.704 305.016 170.671C304.891 170.654 304.012 170.637 303.862 170.637C303.828 170.637 303.811 170.662 303.811 170.704V172.461C303.811 172.503 303.82 172.536 303.862 172.536C304.029 172.536 304.983 172.536 305.15 172.52C305.326 172.503 305.434 172.486 305.501 172.411C305.56 172.361 305.585 172.319 305.618 172.319C305.652 172.319 305.677 172.352 305.677 172.394C305.677 172.436 305.66 172.553 305.618 172.913C305.602 173.055 305.585 173.339 305.585 173.39C305.585 173.448 305.577 173.549 305.51 173.549C305.459 173.549 305.443 173.523 305.443 173.49C305.434 173.415 305.434 173.323 305.418 173.231C305.376 173.088 305.284 172.98 305.008 172.955C304.874 172.938 304.037 172.921 303.853 172.921C303.82 172.921 303.811 172.955 303.811 172.996V173.565C303.811 173.808 303.803 174.41 303.811 174.619C303.828 175.105 304.054 175.213 304.807 175.213C304.999 175.213 305.309 175.205 305.501 175.121C305.685 175.038 305.769 174.887 305.819 174.594C305.836 174.519 305.853 174.486 305.903 174.486C305.961 174.486 305.97 174.578 305.97 174.653C305.97 174.812 305.911 175.297 305.869 175.439C305.819 175.623 305.752 175.623 305.476 175.623C304.924 175.623 304.481 175.615 304.121 175.598C303.761 175.59 303.485 175.582 303.268 175.582C303.184 175.582 303.025 175.59 302.849 175.59C302.674 175.598 302.489 175.607 302.339 175.607C302.247 175.607 302.197 175.582 302.197 175.531C302.197 175.498 302.222 175.456 302.314 175.456C302.423 175.456 302.506 175.448 302.573 175.431C302.724 175.397 302.766 175.264 302.791 175.054C302.824 174.753 302.824 174.193 302.824 173.54ZM309.443 175.699C309.016 175.699 308.565 175.657 308.247 175.515C308.13 175.464 308.105 175.431 308.105 175.272C308.105 174.887 308.138 174.444 308.146 174.327C308.146 174.218 308.18 174.143 308.238 174.143C308.305 174.143 308.314 174.209 308.314 174.26C308.314 174.352 308.339 174.502 308.381 174.628C308.54 175.155 309.092 175.331 309.552 175.331C310.188 175.331 310.573 174.929 310.573 174.427C310.573 174.117 310.497 173.808 309.845 173.423L309.418 173.172C308.548 172.662 308.264 172.185 308.264 171.557C308.264 170.687 309.1 170.127 310.121 170.127C310.598 170.127 310.974 170.194 311.167 170.244C311.234 170.261 311.267 170.286 311.267 170.336C311.267 170.428 311.242 170.629 311.242 171.189C311.242 171.34 311.208 171.415 311.15 171.415C311.1 171.415 311.075 171.373 311.075 171.29C311.075 171.223 311.041 171.005 310.882 170.821C310.773 170.687 310.539 170.487 310.062 170.487C309.535 170.487 309.058 170.763 309.058 171.248C309.058 171.566 309.175 171.817 309.836 172.185L310.138 172.352C311.108 172.888 311.409 173.431 311.409 174.076C311.409 174.603 311.208 175.029 310.673 175.406C310.322 175.657 309.836 175.699 309.443 175.699Z" fill="white"/>
<path fill-rule="evenodd" clip-rule="evenodd" d="M210.164 168.29L213.338 173.442H207.277L210.164 168.29Z" fill="white"/>
<path fill-rule="evenodd" clip-rule="evenodd" d="M234.381 155.619L239.133 148.374H233.413C233.555 148.615 233.692 148.859 233.824 149.106C233.659 148.859 233.489 148.614 233.313 148.374H214.939L217.989 155.619H220.708V162.076L228.676 180.999H228.816V155.619H234.381Z" fill="url(#paint6_linear_1_913)"/>
<path fill-rule="evenodd" clip-rule="evenodd" d="M197.66 168.798L202.84 176.455L210.213 157.873L210.252 157.969L210.307 157.826L214.498 168.588L214.53 168.669L219.537 181.191H228.011L214.194 148.374H206.469L197.66 168.798Z" fill="white"/>
<path fill-rule="evenodd" clip-rule="evenodd" d="M201.976 145.507L202.176 142.657C197.782 146.439 195 152.041 195 158.293C195 162.515 196.268 166.441 198.445 169.71C196.899 166.817 196.022 163.512 196.022 160.002C196.022 154.352 198.295 149.232 201.976 145.507Z" fill="white"/>
<path fill-rule="evenodd" clip-rule="evenodd" d="M202.666 142.687L202.556 145.382C206.295 141.599 210.352 139.899 216.646 139.899C222.94 139.899 229.562 143.237 233.313 148.374C233.489 148.614 233.659 148.859 233.824 149.106C233.692 148.859 233.555 148.615 233.413 148.374C227.328 138.026 212.094 134.572 202.666 142.687Z" fill="black"/>
<path fill-rule="evenodd" clip-rule="evenodd" d="M202.666 142.687L202.556 145.382C206.295 141.599 210.352 139.899 216.646 139.899C222.94 139.899 229.562 143.237 233.313 148.374C233.489 148.614 233.659 148.859 233.824 149.106C233.692 148.859 233.555 148.615 233.413 148.374C227.328 138.026 212.094 134.572 202.666 142.687Z" fill="url(#paint7_linear_1_913)"/>
<circle cx="254" cy="160" r="130" stroke="#4F45E2" stroke-width="2" stroke-dasharray="2 2"/>
<path d="M191.504 196.508C190.022 193.963 186.757 193.1 184.211 194.582C181.666 196.064 180.803 199.329 182.285 201.875C183.767 204.42 187.032 205.283 189.578 203.801C192.123 202.319 192.986 199.054 191.504 196.508ZM186.391 198.327L184.706 199.309L185.712 201.037L187.398 200.056L186.391 198.327ZM181.334 201.271L177.962 203.234L178.968 204.963L182.34 203L181.334 201.271ZM174.59 205.197L171.219 207.16L172.225 208.888L175.597 206.925L174.59 205.197ZM167.847 209.122L164.475 211.085L165.482 212.814L168.853 210.851L167.847 209.122ZM161.104 213.048L157.732 215.011L158.738 216.739L162.11 214.776L161.104 213.048ZM154.36 216.973L150.989 218.936L151.995 220.665L155.366 218.702L154.36 216.973ZM147.617 220.899L144.245 222.862L145.251 224.59L148.623 222.627L147.617 220.899ZM140.873 224.824L137.502 226.787L138.508 228.516L141.88 226.553L140.873 224.824ZM134.13 228.75L130.758 230.713L131.765 232.441L135.136 230.478L134.13 228.75ZM127.387 232.675L124.015 234.638L125.021 236.367L128.393 234.404L127.387 232.675ZM120.643 236.601L117.272 238.564L118.278 240.292L121.649 238.329L120.643 236.601ZM113.9 240.526L110.528 242.489L111.534 244.218L114.906 242.255L113.9 240.526ZM107.156 244.452L103.785 246.415L104.791 248.143L108.163 246.18L107.156 244.452ZM100.413 248.377L97.0413 250.34L98.0475 252.069L101.419 250.106L100.413 248.377ZM93.6696 252.303L90.2979 254.266L91.3041 255.994L94.6758 254.031L93.6696 252.303ZM86.9262 256.228L83.5545 258.191L84.5607 259.92L87.9324 257.957L86.9262 256.228ZM80.1828 260.154L78.4969 261.135L79.5031 262.864L81.189 261.882L80.1828 260.154Z" fill="#4F45E2"/>
<path d="M317.391 196.317C318.873 193.771 322.138 192.909 324.683 194.391C327.229 195.873 328.091 199.138 326.609 201.683C325.127 204.229 321.862 205.091 319.317 203.609C316.771 202.127 315.909 198.862 317.391 196.317ZM322.503 198.136L324.189 199.117L323.183 200.846L321.497 199.864L322.503 198.136ZM327.561 201.08L330.932 203.043L329.926 204.771L326.554 202.808L327.561 201.08ZM334.304 205.005L337.676 206.968L336.67 208.697L333.298 206.734L334.304 205.005ZM341.047 208.931L344.419 210.894L343.413 212.622L340.041 210.659L341.047 208.931ZM347.791 212.856L351.163 214.819L350.156 216.548L346.785 214.585L347.791 212.856ZM354.534 216.782L357.906 218.745L356.9 220.473L353.528 218.51L354.534 216.782ZM361.278 220.707L364.649 222.67L363.643 224.399L360.272 222.436L361.278 220.707ZM368.021 224.633L371.393 226.596L370.387 228.324L367.015 226.361L368.021 224.633ZM374.764 228.558L378.136 230.521L377.13 232.25L373.758 230.287L374.764 228.558ZM381.508 232.484L384.88 234.447L383.873 236.175L380.502 234.212L381.508 232.484ZM388.251 236.409L391.623 238.372L390.617 240.101L387.245 238.138L388.251 236.409ZM394.995 240.335L398.366 242.298L397.36 244.026L393.989 242.063L394.995 240.335ZM401.738 244.26L405.11 246.223L404.104 247.952L400.732 245.989L401.738 244.26ZM408.482 248.186L411.853 250.149L410.847 251.877L407.475 249.914L408.482 248.186ZM415.225 252.111L418.597 254.074L417.59 255.803L414.219 253.84L415.225 252.111ZM421.968 256.037L425.34 258L424.334 259.728L420.962 257.765L421.968 256.037ZM428.712 259.962L430.398 260.944L429.391 262.672L427.706 261.691L428.712 259.962Z" fill="#4F45E2"/>
<circle cx="42" cy="277" r="38" fill="#F4F9FF"/>
<g clip-path="url(#clip0_1_913)">
<path d="M39.9219 272.25H23.5938C23.2375 272.25 23 271.953 23 271.656V267.856C23 266.194 24.3656 264.769 26.0875 264.769H41.9406C42.2969 264.769 42.5344 265.066 42.5344 265.363C42.5344 265.659 42.2375 265.956 41.9406 265.956H26.0281C25.0187 265.956 24.1875 266.788 24.1875 267.797V271.003H39.9219C40.2781 271.003 40.5156 271.3 40.5156 271.597C40.5156 271.894 40.2781 272.25 39.9219 272.25Z" fill="#4F45E2"/>
<path d="M26.0281 294.219C25.1969 294.219 24.425 293.922 23.8906 293.328C23.2969 292.734 23 291.963 23 291.131V271.597C23 271.241 23.2969 271.003 23.5938 271.003H39.9219C40.2781 271.003 40.5156 271.3 40.5156 271.597C40.5156 271.894 40.2188 272.191 39.9219 272.191H24.1875V291.072C24.1875 291.547 24.3656 292.022 24.7219 292.378C25.0781 292.734 25.5531 292.913 26.0281 292.913H53.875C54.8844 292.913 55.7156 292.081 55.7156 291.072V279.197C55.7156 278.841 56.0125 278.603 56.3094 278.603C56.6063 278.603 56.9031 278.9 56.9031 279.197V291.072C56.9031 292.734 55.5375 294.159 53.8156 294.159H26.0281V294.219ZM28.3438 269.103H27.0375C26.6813 269.103 26.4438 268.806 26.4438 268.509C26.4438 268.213 26.7406 267.916 27.0375 267.916H28.3438C28.7 267.916 28.9375 268.213 28.9375 268.509C28.9375 268.806 28.7 269.103 28.3438 269.103ZM31.2531 269.103H29.9469C29.5906 269.103 29.3531 268.806 29.3531 268.509C29.3531 268.213 29.65 267.916 29.9469 267.916H31.2531C31.6094 267.916 31.8469 268.213 31.8469 268.509C31.8469 268.806 31.6094 269.103 31.2531 269.103ZM34.1625 269.103H32.8562C32.5 269.103 32.2625 268.806 32.2625 268.509C32.2625 268.213 32.5594 267.916 32.8562 267.916H34.1625C34.5187 267.916 34.7562 268.213 34.7562 268.509C34.7562 268.806 34.5187 269.103 34.1625 269.103Z" fill="#4F45E2"/>
<path d="M37.6061 282.997H28.9373C27.9279 282.997 27.0967 282.166 27.0967 281.156V275.991C27.0967 274.981 27.9279 274.15 28.9373 274.15H37.6061C38.6154 274.15 39.4467 274.981 39.4467 275.991V281.156C39.4467 282.166 38.6154 282.997 37.6061 282.997ZM37.6061 275.338H28.9373C28.5811 275.338 28.3436 275.634 28.3436 275.931V281.156C28.3436 281.513 28.6404 281.75 28.9373 281.75H37.6061C37.9623 281.75 38.1998 281.453 38.1998 281.156V275.991C38.1998 275.634 37.9029 275.338 37.6061 275.338ZM43.8404 279.316H43.1873C42.8311 279.316 42.5936 279.019 42.5936 278.722C42.5936 278.425 42.8904 278.128 43.1873 278.128H43.8404C44.1967 278.128 44.4342 278.425 44.4342 278.722C44.4342 279.019 44.1373 279.316 43.8404 279.316ZM52.5686 283.234H43.1873C42.8311 283.234 42.5936 282.938 42.5936 282.641C42.5936 282.344 42.8904 282.047 43.1873 282.047H52.5686C52.9248 282.047 53.1623 282.344 53.1623 282.641C53.1623 282.938 52.8654 283.234 52.5686 283.234ZM52.5686 287.153H27.3936C27.0373 287.153 26.7998 286.856 26.7998 286.559C26.7998 286.262 27.0967 285.966 27.3936 285.966H52.5686C52.9248 285.966 53.1623 286.262 53.1623 286.559C53.1623 286.856 52.8654 287.153 52.5686 287.153ZM52.5686 291.072H27.3936C27.0373 291.072 26.7998 290.775 26.7998 290.478C26.7998 290.181 27.0967 289.884 27.3936 289.884H52.5686C52.9248 289.884 53.1623 290.181 53.1623 290.478C53.1623 290.775 52.8654 291.072 52.5686 291.072ZM51.7373 279.553H50.7873C50.0154 279.553 49.3623 278.959 49.2436 278.247L49.0061 276.763C49.0061 276.644 48.8873 276.584 48.8279 276.525C48.5904 276.466 48.4123 276.347 48.1748 276.288C48.0561 276.228 47.9967 276.228 47.8779 276.288L46.6904 277.178C46.0967 277.594 45.2061 277.534 44.6717 277L43.9592 276.288C43.4248 275.753 43.3654 274.922 43.7811 274.269L44.6717 273.081C44.7311 272.962 44.7311 272.844 44.6717 272.784C44.5529 272.606 44.4936 272.369 44.3748 272.131C44.3154 272.012 44.2561 271.953 44.1373 271.953L42.7123 271.716C41.9404 271.597 41.4061 270.944 41.4061 270.172V269.162C41.4061 268.391 41.9404 267.738 42.7123 267.619L44.1373 267.381C44.2561 267.381 44.3154 267.262 44.3748 267.203C44.4342 266.966 44.5529 266.787 44.6717 266.55C44.7311 266.431 44.7311 266.312 44.6717 266.253L43.7811 265.066C43.3061 264.472 43.4248 263.641 43.8998 263.047L44.6123 262.334C45.1467 261.8 46.0373 261.741 46.6311 262.216L47.7592 263.106C47.8779 263.225 47.9967 263.166 48.0561 263.106C48.2936 262.988 48.4717 262.928 48.7092 262.809C48.8279 262.75 48.8873 262.691 48.9467 262.572L49.1842 261.087C49.3623 260.375 50.0154 259.781 50.7873 259.781H51.7373C52.5092 259.781 53.1623 260.375 53.2811 261.087L53.5186 262.572C53.5186 262.691 53.6373 262.75 53.6967 262.809C53.9342 262.869 54.1123 262.987 54.3498 263.047C54.4686 263.106 54.5279 263.106 54.6467 263.047L55.8342 262.156C56.4279 261.681 57.3186 261.8 57.8529 262.334L58.5654 263.047C59.0998 263.581 59.1592 264.412 58.7436 265.066L57.8529 266.253C57.7936 266.372 57.7936 266.491 57.8529 266.55C57.9717 266.728 58.0311 266.966 58.1498 267.203C58.2092 267.322 58.2686 267.381 58.3873 267.381L59.8123 267.619C60.5842 267.738 61.1186 268.391 61.1186 269.162V270.172C61.1186 270.944 60.5842 271.597 59.8123 271.716L58.3873 271.953C58.2686 271.953 58.2092 272.072 58.1498 272.131C58.0904 272.369 57.9717 272.547 57.9123 272.784C57.8529 272.903 57.8529 273.022 57.9123 273.141L58.8029 274.328C59.2186 274.922 59.1592 275.753 58.6842 276.347L57.7936 277C57.2592 277.534 56.3686 277.594 55.7748 277.119L54.6467 276.228C54.5279 276.109 54.4092 276.169 54.3498 276.228C54.1123 276.347 53.9342 276.406 53.6967 276.525C53.5779 276.584 53.5186 276.644 53.5186 276.763L53.2811 278.247C53.1623 278.959 52.5092 279.553 51.7373 279.553ZM47.9967 274.981C48.2342 274.981 48.4717 275.041 48.6498 275.159C48.8279 275.219 49.0061 275.337 49.1842 275.397C49.7186 275.575 50.0748 276.05 50.1936 276.584L50.4311 278.069C50.4311 278.247 50.6092 278.366 50.7279 278.366H51.6779C51.8561 278.366 51.9748 278.247 51.9748 278.128L52.2123 276.644C52.2717 276.109 52.6873 275.634 53.2217 275.456C53.3998 275.397 53.5779 275.337 53.7561 275.219C54.2311 274.981 54.8842 275.041 55.3592 275.397L56.5467 276.288C56.7248 276.406 56.8436 276.347 56.9623 276.228L57.6748 275.516C57.7936 275.397 57.7936 275.219 57.6748 275.1L56.7842 273.912C56.4279 273.438 56.3686 272.844 56.6061 272.369C56.6654 272.191 56.7842 272.012 56.8436 271.834C57.0217 271.3 57.4967 270.884 58.0311 270.825L59.4561 270.588C59.6342 270.588 59.6936 270.409 59.6936 270.291V269.281C59.6936 269.103 59.5748 268.984 59.4561 268.984L58.0311 268.747C57.4967 268.688 57.0217 268.272 56.8436 267.737C56.7842 267.559 56.7248 267.381 56.6061 267.203C56.3686 266.669 56.4279 266.075 56.7248 265.6L57.6154 264.412C57.7342 264.294 57.6748 264.116 57.6154 263.997L56.9029 263.284C56.8436 263.225 56.7248 263.166 56.6654 263.166C56.6061 263.166 56.5467 263.166 56.4873 263.225L55.3592 264.116C54.9436 264.472 54.2904 264.531 53.7561 264.294C53.5779 264.234 53.3998 264.116 53.2217 264.056C52.6873 263.878 52.3311 263.403 52.2123 262.869L51.9748 261.384C51.9748 261.206 51.7967 261.087 51.6779 261.087H50.7279C50.5498 261.087 50.4311 261.206 50.4311 261.325L50.2529 262.75C50.1936 263.284 49.7779 263.759 49.2436 263.938C49.0654 263.997 48.8873 264.056 48.7092 264.175C48.2342 264.412 47.5811 264.353 47.1061 263.997L45.9186 263.106C45.7404 262.928 45.6217 263.047 45.5029 263.166L44.7904 263.878C44.6717 263.997 44.6717 264.175 44.7904 264.294L45.6811 265.481C45.9779 265.956 46.0373 266.55 45.7998 267.025C45.7404 267.203 45.6217 267.381 45.5623 267.559C45.3842 268.094 44.9092 268.509 44.3748 268.569L42.9498 268.806C42.7717 268.806 42.7123 268.984 42.7123 269.103V270.113C42.7123 270.291 42.8311 270.409 42.9498 270.409L44.3748 270.647C44.9092 270.706 45.3842 271.122 45.5623 271.656C45.6217 271.834 45.6811 272.012 45.7998 272.191C46.0373 272.725 45.9779 273.319 45.6217 273.794L44.7311 274.981C44.6123 275.1 44.6717 275.278 44.7311 275.397L45.4436 276.109C45.5623 276.228 45.6811 276.288 45.8592 276.169L47.0467 275.278C47.3436 275.1 47.6998 274.981 47.9967 274.981Z" fill="#4F45E2"/>
<path d="M51.2623 273.616C50.7399 273.616 50.2226 273.513 49.7399 273.313C49.2573 273.113 48.8187 272.82 48.4493 272.451C48.0799 272.081 47.7869 271.643 47.587 271.16C47.3871 270.677 47.2842 270.16 47.2842 269.638C47.2842 269.115 47.3871 268.598 47.587 268.115C47.7869 267.633 48.0799 267.194 48.4493 266.825C48.8187 266.455 49.2573 266.162 49.7399 265.962C50.2226 265.762 50.7399 265.659 51.2623 265.659C52.3174 265.659 53.3292 266.079 54.0753 266.825C54.8213 267.571 55.2404 268.582 55.2404 269.638C55.2404 270.693 54.8213 271.704 54.0753 272.451C53.3292 273.197 52.3174 273.616 51.2623 273.616ZM51.2623 266.906C49.7186 266.906 48.5311 268.153 48.5311 269.638C48.5311 271.181 49.7779 272.369 51.2623 272.369C52.7467 272.369 53.9936 271.122 53.9936 269.638C53.9936 268.153 52.7467 266.906 51.2623 266.906Z" fill="#4F45E2"/>
</g>
<circle cx="465" cy="282" r="38" fill="#F4F9FF"/>
<path d="M448.371 282C448.407 282 448.443 281.997 448.478 281.993C454.294 281.203 459.966 279.583 465.32 277.18C470.728 274.747 475.751 271.539 480.234 267.658L479.269 271.516C479.219 271.72 479.251 271.935 479.359 272.115C479.467 272.295 479.642 272.425 479.845 272.476C479.908 272.491 479.973 272.499 480.037 272.5C480.214 272.499 480.385 272.44 480.524 272.332C480.663 272.223 480.762 272.071 480.804 271.9L482.388 265.566C482.417 265.45 482.419 265.328 482.394 265.21C482.369 265.093 482.318 264.982 482.244 264.888C482.17 264.793 482.075 264.716 481.967 264.663C481.859 264.611 481.741 264.583 481.621 264.583H475.287C475.077 264.583 474.876 264.666 474.728 264.815C474.579 264.963 474.496 265.165 474.496 265.375C474.496 265.585 474.579 265.786 474.728 265.934C474.876 266.083 475.077 266.166 475.287 266.166H479.538C475.086 270.078 470.075 273.304 464.671 275.736C459.455 278.077 453.929 279.655 448.264 280.423C448.065 280.45 447.883 280.552 447.756 280.708C447.629 280.863 447.566 281.061 447.58 281.262C447.594 281.462 447.683 281.65 447.83 281.787C447.976 281.924 448.17 282 448.371 282ZM481.621 297.833H480.829V276.458C480.829 276.248 480.746 276.047 480.597 275.898C480.449 275.75 480.247 275.666 480.037 275.666H472.121C471.911 275.666 471.709 275.75 471.561 275.898C471.412 276.047 471.329 276.248 471.329 276.458V297.833H469.746V281.208C469.746 280.998 469.662 280.797 469.514 280.648C469.365 280.5 469.164 280.416 468.954 280.416H461.037C460.827 280.416 460.626 280.5 460.478 280.648C460.329 280.797 460.246 280.998 460.246 281.208V297.833H458.662V285.958C458.662 285.748 458.579 285.547 458.43 285.398C458.282 285.25 458.081 285.166 457.871 285.166H449.954C449.744 285.166 449.543 285.25 449.394 285.398C449.246 285.547 449.162 285.748 449.162 285.958V297.833H448.371C448.161 297.833 447.959 297.916 447.811 298.065C447.662 298.213 447.579 298.415 447.579 298.625C447.579 298.835 447.662 299.036 447.811 299.184C447.959 299.333 448.161 299.416 448.371 299.416H481.621C481.831 299.416 482.032 299.333 482.18 299.184C482.329 299.036 482.412 298.835 482.412 298.625C482.412 298.415 482.329 298.213 482.18 298.065C482.032 297.916 481.831 297.833 481.621 297.833ZM472.912 277.25H479.246V297.833H472.912V277.25ZM461.829 282H468.162V297.833H461.829V282ZM450.746 286.75H457.079V297.833H450.746V286.75Z" fill="#4F45E2"/>
<path d="M191.504 123.492C190.022 126.037 186.757 126.9 184.211 125.418C181.666 123.936 180.803 120.671 182.285 118.125C183.767 115.58 187.032 114.717 189.578 116.199C192.123 117.681 192.986 120.946 191.504 123.492ZM186.391 121.673L184.706 120.691L185.712 118.963L187.398 119.944L186.391 121.673ZM181.334 118.729L177.962 116.766L178.968 115.037L182.34 117L181.334 118.729ZM174.59 114.803L171.219 112.84L172.225 111.112L175.597 113.075L174.59 114.803ZM167.847 110.878L164.475 108.915L165.482 107.186L168.853 109.149L167.847 110.878ZM161.104 106.952L157.732 104.989L158.738 103.261L162.11 105.224L161.104 106.952ZM154.36 103.027L150.989 101.064L151.995 99.3354L155.366 101.298L154.36 103.027ZM147.617 99.1012L144.245 97.1384L145.251 95.4099L148.623 97.3727L147.617 99.1012ZM140.873 95.1757L137.502 93.2129L138.508 91.4844L141.88 93.4472L140.873 95.1757ZM134.13 91.2502L130.758 89.2874L131.765 87.5589L135.136 89.5217L134.13 91.2502ZM127.387 87.3246L124.015 85.3619L125.021 83.6334L128.393 85.5962L127.387 87.3246ZM120.643 83.3991L117.272 81.4364L118.278 79.7079L121.649 81.6707L120.643 83.3991ZM113.9 79.4736L110.528 77.5109L111.534 75.7824L114.906 77.7452L113.9 79.4736ZM107.156 75.5481L103.785 73.5854L104.791 71.8569L108.163 73.8197L107.156 75.5481ZM100.413 71.6226L97.0413 69.6599L98.0475 67.9314L101.419 69.8942L100.413 71.6226ZM93.6696 67.6971L90.2979 65.7344L91.3041 64.0059L94.6758 65.9686L93.6696 67.6971ZM86.9262 63.7716L83.5545 61.8089L84.5607 60.0804L87.9324 62.0431L86.9262 63.7716ZM80.1828 59.8461L78.4969 58.8647L79.5031 57.1363L81.189 58.1176L80.1828 59.8461Z" fill="#4F45E2"/>
<path d="M317.391 123.683C318.873 126.229 322.138 127.091 324.683 125.609C327.229 124.127 328.091 120.862 326.609 118.317C325.127 115.771 321.862 114.909 319.317 116.391C316.771 117.873 315.909 121.138 317.391 123.683ZM322.503 121.864L324.189 120.883L323.183 119.154L321.497 120.136L322.503 121.864ZM327.561 118.92L330.932 116.957L329.926 115.229L326.554 117.192L327.561 118.92ZM334.304 114.995L337.676 113.032L336.67 111.303L333.298 113.266L334.304 114.995ZM341.047 111.069L344.419 109.106L343.413 107.378L340.041 109.341L341.047 111.069ZM347.791 107.144L351.163 105.181L350.156 103.452L346.785 105.415L347.791 107.144ZM354.534 103.218L357.906 101.255L356.9 99.5269L353.528 101.49L354.534 103.218ZM361.278 99.2926L364.649 97.3298L363.643 95.6014L360.272 97.5641L361.278 99.2926ZM368.021 95.3671L371.393 93.4043L370.387 91.6758L367.015 93.6386L368.021 95.3671ZM374.764 91.4416L378.136 89.4788L377.13 87.7503L373.758 89.7131L374.764 91.4416ZM381.508 87.516L384.88 85.5533L383.873 83.8248L380.502 85.7876L381.508 87.516ZM388.251 83.5905L391.623 81.6278L390.617 79.8993L387.245 81.8621L388.251 83.5905ZM394.995 79.665L398.366 77.7023L397.36 75.9738L393.989 77.9366L394.995 79.665ZM401.738 75.7395L405.11 73.7768L404.104 72.0483L400.732 74.0111L401.738 75.7395ZM408.482 71.814L411.853 69.8513L410.847 68.1228L407.475 70.0856L408.482 71.814ZM415.225 67.8885L418.597 65.9258L417.59 64.1973L414.219 66.1601L415.225 67.8885ZM421.968 63.963L425.34 62.0003L424.334 60.2718L420.962 62.2345L421.968 63.963ZM428.712 60.0375L430.398 59.0561L429.391 57.3277L427.706 58.309L428.712 60.0375Z" fill="#4F45E2"/>
<circle cx="38" cy="38" r="38" transform="matrix(1 0 0 -1 4 81)" fill="#F4F9FF"/>
<path d="M60.0258 31.2055L59.2892 30.922C59.1733 30.5312 59.0168 30.1537 58.8222 29.7956L59.1427 29.0738C59.1915 28.9641 59.2058 28.8423 59.1839 28.7243C59.162 28.6064 59.1048 28.4978 59.02 28.4129L57.8433 27.2363C57.7585 27.1514 57.6499 27.0943 57.532 27.0724C57.414 27.0504 57.2921 27.0648 57.1825 27.1135L56.4605 27.4341C56.1024 27.2396 55.725 27.0831 55.3343 26.9672L55.0507 26.2305C55.0076 26.1186 54.9316 26.0223 54.8327 25.9543C54.7338 25.8864 54.6166 25.8501 54.4966 25.8501H52.8326C52.7126 25.8501 52.5954 25.8864 52.4965 25.9544C52.3976 26.0223 52.3216 26.1186 52.2785 26.2305L51.9949 26.9672C51.6042 27.0831 51.2267 27.2396 50.8687 27.4341L50.1467 27.1135C50.037 27.0648 49.9152 27.0504 49.7972 27.0724C49.6793 27.0943 49.5707 27.1514 49.4859 27.2363L48.3092 28.4129C48.2243 28.4978 48.1672 28.6063 48.1453 28.7243C48.1233 28.8423 48.1377 28.9641 48.1864 29.0738L48.5069 29.7955C48.3123 30.1537 48.1557 30.5313 48.0398 30.9221L47.3034 31.2056C47.1914 31.2487 47.0951 31.3247 47.0272 31.4236C46.9593 31.5225 46.9229 31.6397 46.9229 31.7597V31.998H29.8767C28.2925 31.998 27.0038 33.2867 27.0038 34.8709V44.8311L26.8175 44.7483C26.7079 44.6996 26.586 44.6853 26.468 44.7072C26.3501 44.7292 26.2415 44.7863 26.1567 44.8712L24.98 46.0478C24.8952 46.1327 24.838 46.2412 24.8161 46.3592C24.7941 46.4772 24.8085 46.599 24.8572 46.7087L25.1777 47.4304C24.9831 47.7886 24.8265 48.1662 24.7107 48.557L23.9742 48.8405C23.8622 48.8835 23.7659 48.9595 23.698 49.0584C23.6301 49.1573 23.5937 49.2745 23.5938 49.3944V51.0585C23.5937 51.1785 23.6301 51.2957 23.698 51.3946C23.7659 51.4935 23.8622 51.5695 23.9742 51.6126L24.7109 51.8962C24.8267 52.2869 24.9832 52.6644 25.1779 53.0224L24.8572 53.7445C24.8085 53.8541 24.7941 53.976 24.8161 54.0939C24.838 54.2119 24.8952 54.3205 24.98 54.4053L26.1567 55.582C26.2415 55.6668 26.3501 55.7239 26.468 55.7459C26.586 55.7678 26.7078 55.7535 26.8175 55.7048L27.5392 55.3843C27.8974 55.5789 28.275 55.7354 28.6659 55.8513L28.9493 56.5878C28.9924 56.6998 29.0684 56.7961 29.1673 56.864C29.2662 56.9319 29.3834 56.9683 29.5034 56.9682H31.1675C31.2875 56.9682 31.4046 56.9319 31.5036 56.864C31.6025 56.7961 31.6785 56.6998 31.7216 56.5878L32.0052 55.8511C32.3959 55.7352 32.7733 55.5787 33.1314 55.3841L33.8534 55.7048C33.963 55.7535 34.0849 55.7679 34.2028 55.746C34.3208 55.7241 34.4294 55.6669 34.5142 55.5821L35.6909 54.4054C35.7757 54.3205 35.8329 54.212 35.8548 54.094C35.8767 53.976 35.8624 53.8542 35.8136 53.7445L35.6709 53.4231H37.1685V55.8567H34.2931C32.894 55.8567 31.7557 56.8196 31.7557 58.0033V59.5562C31.7557 59.7137 31.8182 59.8647 31.9296 59.9761C32.0409 60.0874 32.1919 60.15 32.3494 60.15H52.4926C52.6501 60.15 52.8011 60.0874 52.9124 59.9761C53.0238 59.8647 53.0864 59.7137 53.0864 59.5562V58.0033C53.0864 56.8196 51.9481 55.8567 50.549 55.8567H47.6735V53.4231H54.9653C56.5494 53.4231 57.8381 52.1343 57.8381 50.5502V37.9515C57.8398 37.9499 57.8416 37.9487 57.8432 37.9471L59.0198 36.7704C59.1047 36.6856 59.1618 36.577 59.1838 36.4591C59.2057 36.3411 59.1914 36.2192 59.1427 36.1096L58.8221 35.3879C59.0168 35.0297 59.1733 34.6521 59.2891 34.2612L60.0256 33.9778C60.1376 33.9347 60.2339 33.8587 60.3018 33.7598C60.3697 33.6608 60.406 33.5437 60.406 33.4237V31.7596C60.4061 31.6396 60.3698 31.5225 60.3019 31.4235C60.2341 31.3246 60.1378 31.2486 60.0258 31.2055ZM35.9078 48.3963C35.799 48.0625 35.6601 47.7393 35.493 47.4305L35.8136 46.7086C35.8623 46.5989 35.8766 46.4771 35.8547 46.3591C35.8328 46.2412 35.7757 46.1326 35.6908 46.0478L34.5141 44.8711C34.4293 44.7863 34.3207 44.7292 34.2028 44.7072C34.0848 44.6853 33.963 44.6996 33.8533 44.7483L33.1312 45.069C32.7732 44.8744 32.3957 44.7179 32.005 44.602L31.7214 43.8652C31.6783 43.7532 31.6023 43.657 31.5034 43.589C31.4045 43.5211 31.2873 43.4848 31.1673 43.4848H30.0971V35.0912H48.3574C48.4044 35.1914 48.4543 35.2902 48.5069 35.3875L48.1862 36.1095C48.1375 36.2192 48.1232 36.341 48.1451 36.459C48.167 36.5769 48.2242 36.6855 48.309 36.7703L49.4857 37.947C49.5705 38.0319 49.6791 38.089 49.7971 38.1109C49.915 38.1329 50.0369 38.1185 50.1465 38.0698L50.8682 37.7493C51.2264 37.944 51.604 38.1005 51.9949 38.2164L52.2783 38.9528C52.3214 39.0648 52.3974 39.1611 52.4964 39.229C52.5953 39.2969 52.7125 39.3333 52.8324 39.3333H54.4964C54.5822 39.3331 54.6669 39.3142 54.7447 39.278V48.3963H35.9078ZM29.8767 33.1854H46.9229V33.4236C46.9231 33.5175 46.9456 33.6099 46.9885 33.6934C47.0314 33.7769 47.0936 33.849 47.1698 33.9037H29.8195C29.3179 33.9037 28.9097 34.3119 28.9097 34.8136V43.9682L28.6658 44.602C28.5053 44.6502 28.347 44.7053 28.1913 44.7671V34.8708C28.1913 33.9415 28.9474 33.1854 29.8767 33.1854ZM34.285 53.2284L34.5628 53.8539L33.9628 54.4539L33.337 54.176C33.2488 54.1368 33.1525 54.1197 33.0563 54.1262C32.96 54.1326 32.8668 54.1624 32.7847 54.213C32.3635 54.4726 31.9035 54.6634 31.4222 54.778C31.3284 54.8003 31.2414 54.8451 31.1688 54.9086C31.0962 54.9721 31.0402 55.0523 31.0055 55.1423L30.7598 55.7807H29.9111L29.6654 55.1425C29.6308 55.0525 29.5748 54.9723 29.5022 54.9088C29.4296 54.8454 29.3426 54.8005 29.2488 54.7782C28.7673 54.6637 28.3072 54.4729 27.8859 54.2132C27.8038 54.1627 27.7106 54.1328 27.6143 54.1264C27.5181 54.1199 27.4217 54.137 27.3336 54.1761L26.708 54.4539L26.1079 53.8538L26.3859 53.228C26.425 53.1398 26.4421 53.0435 26.4356 52.9473C26.4292 52.851 26.3993 52.7578 26.3487 52.6757C26.0891 52.2545 25.8984 51.7946 25.7839 51.3132C25.7615 51.2194 25.7167 51.1324 25.6532 51.0598C25.5897 50.9872 25.5095 50.9312 25.4195 50.8965L24.7812 50.6508V49.8021L25.4194 49.5565C25.5094 49.5218 25.5896 49.4658 25.6531 49.3932C25.7166 49.3206 25.7614 49.2336 25.7837 49.1398C25.8982 48.6583 26.0889 48.1982 26.3487 47.7768C26.3992 47.6947 26.429 47.6015 26.4355 47.5053C26.442 47.409 26.4249 47.3127 26.3858 47.2245L26.108 46.5991L26.7081 45.999L27.3339 46.277C27.422 46.3161 27.5183 46.3331 27.6146 46.3267C27.7108 46.3202 27.804 46.2904 27.8861 46.2399C28.3073 45.9803 28.7673 45.7896 29.2487 45.675C29.3425 45.6526 29.4295 45.6078 29.5021 45.5443C29.5747 45.4808 29.6307 45.4006 29.6654 45.3106L29.9111 44.6723H30.7598L31.0055 45.3106C31.0402 45.4006 31.0962 45.4808 31.1688 45.5443C31.2414 45.6078 31.3283 45.6526 31.4221 45.675C31.9035 45.7895 32.3635 45.9802 32.7847 46.2399C32.8668 46.2904 32.96 46.3202 33.0563 46.3267C33.1525 46.3331 33.2488 46.3161 33.337 46.277L33.9628 45.999L34.5628 46.5991L34.285 47.2248C34.2458 47.313 34.2287 47.4093 34.2352 47.5055C34.2416 47.6018 34.2714 47.695 34.322 47.7771C34.5816 48.1984 34.7724 48.6583 34.8869 49.1397C34.9093 49.2335 34.9541 49.3205 35.0176 49.3931C35.0811 49.4657 35.1613 49.5217 35.2513 49.5564L35.8896 49.802V50.6507L35.2514 50.8964C35.1614 50.931 35.0812 50.9871 35.0177 51.0597C34.9543 51.1323 34.9094 51.2192 34.8871 51.3131C34.7726 51.7946 34.5819 52.2547 34.3221 52.6759C34.2715 52.7581 34.2417 52.8513 34.2353 52.9476C34.2288 53.0438 34.2459 53.1402 34.285 53.2284ZM51.8989 58.0032V58.9624H32.9432V58.0032C32.9432 57.4833 33.5613 57.0441 34.2931 57.0441H50.549C51.2807 57.0441 51.8989 57.4833 51.8989 58.0032ZM46.486 55.8566H38.3559V53.423H46.486V55.8566ZM54.9653 52.2355H35.8469C35.8881 52.1236 35.9258 52.0104 35.9601 51.8961L36.6966 51.6127C36.8085 51.5696 36.9048 51.4936 36.9728 51.3947C37.0407 51.2957 37.077 51.1786 37.077 51.0586V49.5839H55.3386C55.4961 49.5839 55.6471 49.5214 55.7584 49.41C55.8698 49.2987 55.9323 49.1476 55.9323 48.9902V38.0021C56.1125 37.9267 56.2888 37.8423 56.4605 37.7492L56.6507 37.8338V50.5502C56.6507 51.4795 55.8946 52.2355 54.9653 52.2355ZM59.2188 33.016L58.5806 33.2617C58.4906 33.2963 58.4104 33.3523 58.3469 33.4249C58.2834 33.4975 58.2386 33.5845 58.2163 33.6783C58.1018 34.1598 57.911 34.6199 57.6512 35.0412C57.6007 35.1233 57.5709 35.2165 57.5644 35.3128C57.558 35.409 57.575 35.5054 57.6141 35.5935L57.8919 36.2191L57.2918 36.8192L56.666 36.5412C56.5778 36.5021 56.4815 36.485 56.3852 36.4915C56.289 36.498 56.1958 36.5278 56.1137 36.5783C55.6925 36.838 55.2326 37.0287 54.7512 37.1432C54.6574 37.1655 54.5704 37.2104 54.4978 37.2739C54.4252 37.3374 54.3692 37.4176 54.3346 37.5076L54.0888 38.1459H53.2401L52.9945 37.5078C52.9598 37.4178 52.9038 37.3376 52.8312 37.2741C52.7586 37.2106 52.6716 37.1658 52.5778 37.1434C52.0963 37.0289 51.6362 36.8382 51.2149 36.5785C51.1328 36.528 51.0396 36.4982 50.9433 36.4917C50.8471 36.4852 50.7508 36.5023 50.6626 36.5414L50.0371 36.8192L49.4371 36.2191L49.715 35.5933C49.7542 35.5052 49.7712 35.4088 49.7648 35.3126C49.7583 35.2164 49.7285 35.1232 49.678 35.041C49.4184 34.6198 49.2276 34.1598 49.1131 33.6785C49.0907 33.5847 49.0459 33.4977 48.9824 33.4251C48.9189 33.3525 48.8387 33.2965 48.7487 33.2619L48.1104 33.0161V32.1674L48.7484 31.9218C48.8384 31.8872 48.9186 31.8311 48.9821 31.7585C49.0456 31.686 49.0904 31.599 49.1128 31.5052C49.2273 31.0237 49.4181 30.5636 49.6778 30.1422C49.7283 30.0601 49.7581 29.9669 49.7646 29.8707C49.7711 29.7744 49.754 29.6781 49.7149 29.5899L49.4371 28.9644L50.0372 28.3643L50.663 28.6423C50.7512 28.6814 50.8475 28.6985 50.9438 28.6921C51.04 28.6856 51.1332 28.6558 51.2154 28.6052C51.6365 28.3456 52.0965 28.1549 52.5778 28.0404C52.6716 28.018 52.7586 27.9732 52.8312 27.9097C52.9038 27.8462 52.9598 27.766 52.9945 27.676L53.2402 27.0377H54.0889L54.3346 27.676C54.3693 27.766 54.4253 27.8462 54.4979 27.9097C54.5705 27.9732 54.6575 28.018 54.7513 28.0404C55.2327 28.1549 55.6926 28.3456 56.1138 28.6052C56.1959 28.6558 56.2892 28.6856 56.3854 28.6921C56.4816 28.6985 56.578 28.6814 56.6661 28.6423L57.2919 28.3643L57.892 28.9645L57.6141 29.5901C57.575 29.6783 57.5579 29.7746 57.5644 29.8709C57.5708 29.9671 57.6006 30.0603 57.6512 30.1425C57.9108 30.5637 58.1015 31.0237 58.2161 31.505C58.2384 31.5989 58.2833 31.6858 58.3468 31.7584C58.4102 31.831 58.4905 31.8871 58.5805 31.9217L59.2188 32.1674V33.016ZM53.6646 28.8422C51.5972 28.8422 49.9151 30.5242 49.9151 32.5917C49.9151 34.6592 51.5972 36.3411 53.6646 36.3411C55.732 36.3411 57.4141 34.6591 57.4141 32.5917C57.4141 30.5242 55.732 28.8422 53.6646 28.8422ZM53.6646 35.1536C52.2519 35.1536 51.1026 34.0044 51.1026 32.5917C51.1026 31.179 52.2519 30.0297 53.6646 30.0297C55.0773 30.0297 56.2266 31.1789 56.2266 32.5917C56.2265 34.0043 55.0773 35.1536 53.6646 35.1536ZM30.3354 46.477C28.268 46.477 26.586 48.1591 26.586 50.2266C26.586 52.2941 28.268 53.976 30.3354 53.976C32.4028 53.976 34.0849 52.294 34.0849 50.2266C34.0849 48.1591 32.4028 46.477 30.3354 46.477ZM30.3354 52.7885C28.9227 52.7885 27.7735 51.6392 27.7735 50.2265C27.7735 48.8138 28.9227 47.6645 30.3354 47.6645C31.7481 47.6645 32.8974 48.8137 32.8974 50.2265C32.8974 51.6392 31.7481 52.7885 30.3354 52.7885ZM43.9738 38.2429L42.0153 45.552C41.9815 45.6782 41.907 45.7897 41.8034 45.8693C41.6997 45.9489 41.5728 45.9921 41.4421 45.9922C41.351 45.9923 41.2611 45.9714 41.1793 45.9311C41.0976 45.8909 41.0262 45.8323 40.9708 45.7601C40.9153 45.6878 40.8772 45.6037 40.8594 45.5143C40.8416 45.425 40.8446 45.3327 40.8682 45.2447L42.8267 37.9357C42.8467 37.8601 42.8813 37.7892 42.9287 37.7271C42.9761 37.6649 43.0354 37.6128 43.103 37.5736C43.1706 37.5344 43.2453 37.5089 43.3227 37.4986C43.4002 37.4883 43.4789 37.4935 43.5544 37.5137C43.6299 37.5339 43.7007 37.5688 43.7627 37.6165C43.8246 37.6641 43.8766 37.7235 43.9155 37.7912C43.9545 37.859 43.9797 37.9338 43.9897 38.0113C43.9997 38.0888 43.9943 38.1675 43.9738 38.2429ZM39.9073 39.5087L37.255 41.7438L39.9073 43.9789C40.0278 44.0804 40.1029 44.2256 40.1163 44.3825C40.1297 44.5394 40.0802 44.6952 39.9788 44.8156C39.8773 44.936 39.7321 45.0112 39.5752 45.0246C39.4183 45.038 39.2625 44.9885 39.1421 44.8871L35.9509 42.1979C35.8847 42.1422 35.8315 42.0726 35.7951 41.9942C35.7586 41.9158 35.7397 41.8303 35.7397 41.7438C35.7397 41.6573 35.7586 41.5719 35.7951 41.4934C35.8315 41.415 35.8847 41.3455 35.9509 41.2897L39.1421 38.6007C39.2628 38.5018 39.4176 38.4545 39.5729 38.4688C39.7283 38.4832 39.8718 38.5582 39.9723 38.6775C40.0728 38.7968 40.1224 38.9509 40.1102 39.1064C40.0981 39.262 40.0252 39.4065 39.9073 39.5087ZM49.1021 41.7438C49.1021 41.8303 49.0833 41.9158 49.0468 41.9942C49.0103 42.0726 48.9571 42.1422 48.891 42.1979L45.6998 44.8871C45.5929 44.9774 45.4575 45.0269 45.3175 45.0267C45.1957 45.0268 45.0769 44.9895 44.977 44.9197C44.8772 44.85 44.8012 44.7512 44.7594 44.6368C44.7176 44.5224 44.712 44.398 44.7433 44.2803C44.7747 44.1626 44.8414 44.0574 44.9345 43.9789L47.5869 41.7438L44.9345 39.5087C44.8749 39.4585 44.8258 39.397 44.7899 39.3277C44.7541 39.2585 44.7322 39.1829 44.7256 39.1052C44.7189 39.0275 44.7277 38.9492 44.7513 38.8749C44.7749 38.8006 44.8129 38.7317 44.8631 38.6721C44.9134 38.6124 44.9749 38.5633 45.0441 38.5274C45.1134 38.4916 45.189 38.4697 45.2667 38.4631C45.3444 38.4564 45.4226 38.4652 45.4969 38.4888C45.5712 38.5124 45.6402 38.5504 45.6998 38.6007L48.891 41.2897C48.9571 41.3455 49.0103 41.415 49.0468 41.4934C49.0832 41.5719 49.1021 41.6573 49.1021 41.7438Z" fill="#4F45E2"/>
<circle cx="38" cy="38" r="38" transform="matrix(1 0 0 -1 427 76)" fill="#F4F9FF"/>
<g clip-path="url(#clip1_1_913)">
<path d="M483.256 54.0314H469.972C469.562 54.0314 469.23 54.3637 469.23 54.7736C469.23 55.1834 469.562 55.5157 469.972 55.5157H483.256C483.666 55.5157 483.998 55.1834 483.998 54.7736C483.998 54.3637 483.666 54.0314 483.256 54.0314ZM459.953 54.0314H446.744C446.334 54.0314 446.001 54.3637 446.001 54.7736C446.001 55.1834 446.334 55.5157 446.744 55.5157H459.953C460.363 55.5157 460.696 55.1834 460.696 54.7736C460.696 54.3637 460.363 54.0314 459.953 54.0314ZM465.293 34.1818H459.542C459.132 34.1818 458.8 34.5141 458.8 34.9239C458.8 35.3338 459.132 35.666 459.542 35.666H465.293C465.703 35.666 466.035 35.3337 466.035 34.9239C466.035 34.5141 465.703 34.1818 465.293 34.1818ZM471.07 34.3991C470.93 34.2604 470.742 34.1823 470.545 34.1816C470.349 34.1816 470.158 34.2611 470.021 34.3991C469.882 34.5384 469.803 34.727 469.803 34.9238C469.803 35.1189 469.882 35.3104 470.021 35.4484C470.159 35.5865 470.349 35.6659 470.545 35.6659C470.74 35.6659 470.932 35.5865 471.07 35.4484C471.208 35.3104 471.287 35.1189 471.287 34.9238C471.287 34.7286 471.208 34.5371 471.07 34.3991ZM468.478 34.3991C468.338 34.2604 468.149 34.1823 467.952 34.1816C467.757 34.1816 467.565 34.2611 467.427 34.3991C467.289 34.5386 467.211 34.7271 467.21 34.9238C467.21 35.1197 467.289 35.3104 467.427 35.4484C467.566 35.5865 467.757 35.6659 467.952 35.6659C468.147 35.6659 468.339 35.5865 468.478 35.4484C468.616 35.3104 468.694 35.1189 468.694 34.9238C468.694 34.7286 468.616 34.5371 468.478 34.3991ZM465.293 40.1188H459.542C459.132 40.1188 458.8 40.4511 458.8 40.861C458.8 41.2708 459.132 41.6031 459.542 41.6031H465.293C465.703 41.6031 466.035 41.2708 466.035 40.861C466.035 40.4511 465.703 40.1188 465.293 40.1188ZM471.07 40.3362C470.93 40.1975 470.742 40.1194 470.545 40.1187C470.349 40.1187 470.158 40.1981 470.021 40.3362C469.882 40.4754 469.803 40.6641 469.803 40.8608C469.803 41.0567 469.882 41.2475 470.021 41.3855C470.159 41.5235 470.349 41.6029 470.545 41.6029C470.74 41.6029 470.932 41.5235 471.07 41.3855C471.208 41.2474 471.287 41.0559 471.287 40.8608C471.287 40.6657 471.208 40.4742 471.07 40.3362ZM468.478 40.3362C468.338 40.1975 468.149 40.1194 467.952 40.1187C467.757 40.1187 467.565 40.1981 467.427 40.3362C467.289 40.4742 467.21 40.6657 467.21 40.8608C467.21 41.0559 467.289 41.2475 467.427 41.3855C467.566 41.5235 467.757 41.6029 467.952 41.6029C468.148 41.6029 468.339 41.5235 468.478 41.3855C468.616 41.2474 468.694 41.0559 468.694 40.8608C468.694 40.6657 468.616 40.4742 468.478 40.3362ZM465.293 46.0559H459.542C459.132 46.0559 458.8 46.3882 458.8 46.798C458.8 47.2078 459.132 47.5401 459.542 47.5401H465.293C465.703 47.5401 466.035 47.2078 466.035 46.798C466.035 46.3882 465.703 46.0559 465.293 46.0559ZM471.07 46.2732C470.93 46.1347 470.742 46.0566 470.545 46.0557C470.349 46.0557 470.158 46.1352 470.02 46.2732C469.882 46.4113 469.803 46.6027 469.803 46.7979C469.803 46.993 469.882 47.1845 470.02 47.3225C470.159 47.4606 470.349 47.54 470.545 47.54C470.74 47.54 470.932 47.4606 471.07 47.3225C471.208 47.1845 471.287 46.993 471.287 46.7979C471.287 46.6027 471.208 46.4113 471.07 46.2732ZM468.477 46.2732C468.337 46.1344 468.149 46.0563 467.952 46.0557C467.757 46.0557 467.565 46.1352 467.427 46.2732C467.289 46.4113 467.21 46.6027 467.21 46.7979C467.21 46.993 467.289 47.1845 467.427 47.3225C467.566 47.4606 467.757 47.54 467.952 47.54C468.148 47.54 468.339 47.4606 468.477 47.3225C468.616 47.1845 468.694 46.993 468.694 46.7979C468.694 46.6027 468.616 46.4113 468.477 46.2732Z" fill="#4F45E2"/>
<path d="M474.657 40.967C474.657 39.7544 474.073 38.676 473.17 37.9985C474.073 37.321 474.657 36.2426 474.657 35.03C474.657 32.9839 472.993 31.3193 470.947 31.3193H459.072C457.026 31.3193 455.362 32.9839 455.362 35.03C455.362 36.2426 455.946 37.321 456.849 37.9985C455.947 38.676 455.362 39.7544 455.362 40.967C455.362 42.1796 455.946 43.258 456.849 43.9356C455.947 44.6131 455.362 45.6915 455.362 46.9041C455.362 48.9501 457.026 50.6147 459.072 50.6147H464.258V52.6748C463.394 52.9812 462.774 53.8061 462.774 54.7736C462.774 56.0012 463.772 57 465 57C466.228 57 467.226 56.0012 467.226 54.7736C467.226 53.8061 466.606 52.9812 465.742 52.6748V50.6147H470.947C472.993 50.6147 474.657 48.9501 474.657 46.9041C474.657 45.6915 474.073 44.6131 473.17 43.9356C474.073 43.258 474.657 42.1796 474.657 40.967ZM456.846 35.0301C456.846 33.8024 457.845 32.8036 459.072 32.8036H470.946C472.174 32.8036 473.173 33.8024 473.173 35.0301C473.173 36.2577 472.174 37.2565 470.946 37.2565H459.072C457.845 37.2564 456.846 36.2576 456.846 35.0301ZM465 55.5158C464.591 55.5158 464.258 55.1828 464.258 54.7736C464.258 54.3644 464.591 54.0315 465 54.0315C465.409 54.0315 465.742 54.3645 465.742 54.7736C465.742 55.1828 465.409 55.5158 465 55.5158ZM473.173 46.9041C473.173 48.1317 472.174 49.1305 470.946 49.1305H459.072C457.845 49.1305 456.846 48.1317 456.846 46.9041C456.846 45.6764 457.845 44.6777 459.072 44.6777H470.946C472.174 44.6777 473.173 45.6765 473.173 46.9041ZM470.946 43.1934H459.072C457.845 43.1934 456.846 42.1947 456.846 40.967C456.846 39.7394 457.845 38.7406 459.072 38.7406H470.946C472.174 38.7406 473.173 39.7394 473.173 40.967C473.173 42.1947 472.174 43.1934 470.946 43.1934Z" fill="#4F45E2"/>
<path d="M482.405 30.4917C481.452 29.1084 480.151 28.0274 478.627 27.349C476.759 22.3414 471.966 19 466.596 19C463.471 19 460.459 20.1361 458.116 22.1988C455.974 24.0848 454.526 26.6191 453.99 29.3962C453.875 29.391 453.76 29.3884 453.645 29.3884C449.431 29.3884 446.001 32.8175 446.001 37.0323C446.001 38.8665 446.661 40.6403 447.858 42.0267C449.043 43.3985 450.677 44.307 452.46 44.5848C452.498 44.5908 452.537 44.5937 452.575 44.5937C452.934 44.5937 453.25 44.332 453.307 43.9659C453.37 43.5608 453.093 43.1814 452.688 43.1183C449.674 42.6484 447.486 40.089 447.486 37.0324C447.486 33.6359 450.249 30.8727 453.645 30.8727C453.931 30.8727 454.221 30.893 454.507 30.933C454.604 30.9466 454.703 30.9409 454.797 30.9162C454.892 30.8916 454.981 30.8485 455.058 30.7895C455.136 30.7305 455.202 30.6567 455.251 30.5723C455.3 30.488 455.332 30.3947 455.346 30.2979C456.104 24.7032 460.941 20.4843 466.596 20.4843C471.445 20.4843 475.761 23.5636 477.336 28.1468C477.371 28.2476 477.427 28.3397 477.5 28.4169C477.574 28.4942 477.663 28.5547 477.762 28.5943C480.649 29.7528 482.514 32.5114 482.514 35.6223C482.514 39.2028 479.973 42.3216 476.471 43.0382C476.069 43.1204 475.81 43.5125 475.893 43.914C475.975 44.3156 476.367 44.5744 476.768 44.4923C480.958 43.6351 483.999 39.9047 483.999 35.6223C483.999 33.7787 483.448 32.0045 482.405 30.4917Z" fill="#4F45E2"/>
</g>
</g>
<defs>
<filter id="filter0_d_1_913" x="0" y="0" width="507" height="328" filterUnits="userSpaceOnUse" color-interpolation-filters="sRGB">
<feFlood flood-opacity="0" result="BackgroundImageFix"/>
<feColorMatrix in="SourceAlpha" type="matrix" values="0 0 0 0 0 0 0 0 0 0 0 0 0 0 0 0 0 0 127 0" result="hardAlpha"/>
<feOffset dy="4"/>
<feGaussianBlur stdDeviation="2"/>
<feComposite in2="hardAlpha" operator="out"/>
<feColorMatrix type="matrix" values="0 0 0 0 0 0 0 0 0 0 0 0 0 0 0 0 0 0 0.25 0"/>
<feBlend mode="normal" in2="BackgroundImageFix" result="effect1_dropShadow_1_913"/>
<feBlend mode="normal" in="SourceGraphic" in2="effect1_dropShadow_1_913" result="shape"/>
</filter>
<linearGradient id="paint0_linear_1_913" x1="309.869" y1="165.635" x2="233.876" y2="165.635" gradientUnits="userSpaceOnUse">
<stop stop-color="#9C9D9F"/>
<stop offset="1" stop-color="#C6C7C9"/>
</linearGradient>
<linearGradient id="paint1_linear_1_913" x1="309.869" y1="165.635" x2="233.876" y2="165.635" gradientUnits="userSpaceOnUse">
<stop stop-color="#9C9D9F"/>
<stop offset="1" stop-color="#C6C7C9"/>
</linearGradient>
<linearGradient id="paint2_linear_1_913" x1="309.869" y1="165.635" x2="233.876" y2="165.635" gradientUnits="userSpaceOnUse">
<stop stop-color="#9C9D9F"/>
<stop offset="1" stop-color="#C6C7C9"/>
</linearGradient>
<linearGradient id="paint3_linear_1_913" x1="309.869" y1="165.635" x2="233.876" y2="165.635" gradientUnits="userSpaceOnUse">
<stop stop-color="#9C9D9F"/>
<stop offset="1" stop-color="#C6C7C9"/>
</linearGradient>
<linearGradient id="paint4_linear_1_913" x1="309.869" y1="165.635" x2="233.876" y2="165.635" gradientUnits="userSpaceOnUse">
<stop stop-color="#9C9D9F"/>
<stop offset="1" stop-color="#C6C7C9"/>
</linearGradient>
<linearGradient id="paint5_linear_1_913" x1="309.869" y1="165.635" x2="233.876" y2="165.635" gradientUnits="userSpaceOnUse">
<stop stop-color="#9C9D9F"/>
<stop offset="1" stop-color="#C6C7C9"/>
</linearGradient>
<linearGradient id="paint6_linear_1_913" x1="238.784" y1="148.446" x2="215.134" y2="148.446" gradientUnits="userSpaceOnUse">
<stop stop-color="#9C9D9F"/>
<stop offset="1" stop-color="#C6C7C9"/>
</linearGradient>
<linearGradient id="paint7_linear_1_913" x1="233.372" y1="138.215" x2="202.808" y2="138.215" gradientUnits="userSpaceOnUse">
<stop stop-color="#9C9D9F"/>
<stop offset="1" stop-color="#C6C7C9"/>
</linearGradient>
<clipPath id="clip0_1_913">
<rect width="38" height="38" fill="white" transform="translate(23 258)"/>
</clipPath>
<clipPath id="clip1_1_913">
<rect width="38" height="38" fill="white" transform="translate(446 19)"/>
</clipPath>
</defs>
</svg>
