<svg width="101" height="100" viewBox="0 0 101 100" fill="none" xmlns="http://www.w3.org/2000/svg">
<g clip-path="url(#clip0_1_6685)">
<path d="M19.2931 61.1152C19.2931 61.1152 28.096 37.3289 28.0206 37.3037C27.9452 37.2785 27.1667 34.1084 27.1667 34.1084C26.8575 34.139 26.5454 34.1005 26.2528 33.9959C25.9602 33.8913 25.6945 33.723 25.4747 33.5033L21.6859 29.7145C20.8646 28.8932 19.5329 28.8932 18.7116 29.7145L11.6743 36.7518C10.8531 37.573 10.8531 38.9047 11.6743 39.726L15.4632 43.5148C15.7857 43.8378 15.9945 44.2568 16.058 44.7087C16.1216 45.1606 16.0366 45.6209 15.8157 46.0203C14.7197 48.0077 13.8476 50.1107 13.2157 52.2906C13.0892 52.7285 12.8239 53.1134 12.4597 53.3874C12.0954 53.6614 11.652 53.8096 11.1962 53.8098H5.84055C4.67903 53.8098 3.73743 54.7514 3.73743 55.9129V65.865C3.73743 67.0266 4.67903 67.9682 5.84055 67.9682H11.196C12.1325 67.9682 12.955 68.5877 13.2156 69.4873C13.8473 71.6672 14.7193 73.7701 15.8156 75.7574C16.0364 76.1568 16.1214 76.6171 16.0578 77.069C15.9943 77.521 15.7855 77.94 15.463 78.2629L11.6741 82.0518C10.8529 82.8731 10.8529 84.2047 11.6741 85.026L18.7115 92.0633C19.5327 92.8846 20.8644 92.8846 21.6857 92.0633L25.4745 88.2744C25.6903 88.0588 25.9504 87.8929 26.2368 87.788C26.5232 87.6832 26.829 87.642 27.1329 87.6674L28.0208 82.5004L19.2931 61.1152Z" fill="#4F45E2"/>
<path d="M79.8566 53.8098H71.6343C71.5025 53.8097 71.372 53.8357 71.2503 53.8861C71.1285 53.9365 71.0179 54.0104 70.9247 54.1036C70.8315 54.1967 70.7576 54.3073 70.7072 54.4291C70.6567 54.5508 70.6308 54.6813 70.6308 54.8131V59.8854C70.6308 60.4395 70.1816 60.8889 69.6275 60.8889H64.1507C63.6107 60.8889 63.1736 61.3166 63.1482 61.8562C62.6388 72.726 53.5902 81.3625 42.5593 81.209C31.6138 81.0566 22.6808 72.1238 22.5286 61.1783C22.3706 49.8221 31.5288 40.5668 42.8488 40.5668C44.8593 40.5668 46.8013 40.8594 48.6351 41.4033C49.2802 41.5947 49.9281 41.117 49.9281 40.4439V23.8809C49.9281 22.7193 48.9865 21.7777 47.8249 21.7777H37.8728C36.7113 21.7777 35.7697 22.7193 35.7697 23.8809V29.2363C35.7697 30.1729 35.1501 30.9953 34.2507 31.2559C32.0708 31.8878 29.9678 32.7598 27.9804 33.8559C27.7292 33.9945 27.4524 34.0804 27.1669 34.1084C21.0831 41.3682 17.4142 50.7166 17.4142 60.9072C17.4142 71.0797 21.0695 80.4131 27.1333 87.6672C27.424 87.691 27.7128 87.7742 27.9804 87.9219C29.9678 89.018 32.0708 89.8899 34.2507 90.5217C34.6886 90.6482 35.0735 90.9135 35.3474 91.2778C35.6214 91.642 35.7696 92.0854 35.7697 92.5412V97.8967C35.7697 99.0582 36.7113 99.9998 37.8728 99.9998H47.8249C48.9865 99.9998 49.9281 99.0582 49.9281 97.8967V92.5412C49.9281 91.6047 50.5476 90.7822 51.447 90.5217C53.6268 89.8898 55.7297 89.0178 57.7171 87.9219C58.1164 87.7009 58.5768 87.6158 59.0287 87.6794C59.4807 87.7429 59.8997 87.9517 60.2226 88.2742L64.0115 92.0631C64.8327 92.8844 66.1644 92.8844 66.9857 92.0631L74.023 85.0258C74.8443 84.2045 74.8443 82.8729 74.023 82.0514L70.2341 78.2625C69.9116 77.9395 69.7029 77.5205 69.6393 77.0685C69.5757 76.6166 69.6608 76.1562 69.8818 75.7568C70.9779 73.7695 71.8498 71.6666 72.4816 69.4867C72.6081 69.0488 72.8735 68.6639 73.2377 68.39C73.6019 68.116 74.0453 67.9677 74.5011 67.9676H79.8564C81.0179 67.9676 81.9595 67.026 81.9595 65.8645V55.9123C81.9597 54.7514 81.0181 53.8098 79.8566 53.8098Z" fill="#6B7ED9"/>
<path d="M64.1491 45.3248H56.4989C56.2561 45.3248 56.0232 45.4213 55.8515 45.593C55.6798 45.7647 55.5833 45.9976 55.5833 46.2404V53.8906C55.5833 54.1335 55.6798 54.3664 55.8515 54.5381C56.0232 54.7098 56.2561 54.8063 56.4989 54.8063H64.1491C64.392 54.8063 64.6249 54.7098 64.7966 54.5381C64.9683 54.3664 65.0648 54.1335 65.0648 53.8906V46.2404C65.0648 45.9976 64.9683 45.7647 64.7966 45.593C64.6249 45.4213 64.392 45.3248 64.1491 45.3248ZM76.0323 2.08419e-08H68.3821C68.1393 2.08419e-08 67.9064 0.0964674 67.7347 0.26818C67.563 0.439893 67.4665 0.672786 67.4665 0.915625V8.56582C67.4665 8.80866 67.563 9.04155 67.7347 9.21327C67.9064 9.38498 68.1393 9.48145 68.3821 9.48145H76.0323C76.2752 9.48145 76.5081 9.38498 76.6798 9.21327C76.8515 9.04155 76.948 8.80866 76.948 8.56582V0.915625C76.948 0.795376 76.9243 0.6763 76.8783 0.5652C76.8323 0.4541 76.7649 0.353152 76.6798 0.268123C76.5948 0.183094 76.4939 0.115651 76.3828 0.0696456C76.2717 0.0236402 76.1526 -2.56377e-05 76.0323 2.08419e-08ZM92.2435 36.2457H84.5933C84.3504 36.2457 84.1175 36.3422 83.9458 36.5139C83.7741 36.6856 83.6777 36.9185 83.6777 37.1613V44.8115C83.6777 45.0544 83.7741 45.2873 83.9458 45.459C84.1175 45.6307 84.3504 45.7271 84.5933 45.7271H92.2435C92.4863 45.7271 92.7192 45.6307 92.8909 45.459C93.0626 45.2873 93.1591 45.0544 93.1591 44.8115V37.1613C93.1591 36.9185 93.0626 36.6856 92.8909 36.5139C92.7192 36.3422 92.4863 36.2457 92.2435 36.2457ZM96.6802 12.1525H83.3642C83.1213 12.1525 82.8884 12.249 82.7167 12.4207C82.545 12.5924 82.4486 12.8253 82.4486 13.0682V26.3842C82.4486 26.627 82.545 26.8599 82.7167 27.0316C82.8884 27.2033 83.1213 27.2998 83.3642 27.2998H96.6802C96.923 27.2998 97.1559 27.2033 97.3276 27.0316C97.4994 26.8599 97.5958 26.627 97.5958 26.3842V13.0684C97.5958 12.9481 97.5722 12.829 97.5262 12.7179C97.4802 12.6068 97.4127 12.5058 97.3277 12.4208C97.2427 12.3357 97.1417 12.2683 97.0306 12.2223C96.9195 12.1762 96.8004 12.1525 96.6802 12.1525ZM74.9585 21.2012H60.0325C59.7897 21.2012 59.5568 21.2976 59.3851 21.4694C59.2134 21.6411 59.1169 21.874 59.1169 22.1168V37.0428C59.1169 37.2856 59.2134 37.5185 59.3851 37.6902C59.5568 37.8619 59.7897 37.9584 60.0325 37.9584H74.9585C75.2014 37.9584 75.4342 37.8619 75.606 37.6902C75.7777 37.5185 75.8741 37.2856 75.8741 37.0428V22.1168C75.8741 21.874 75.7777 21.6411 75.606 21.4694C75.4342 21.2976 75.2014 21.2012 74.9585 21.2012ZM42.8486 52.6791C38.3111 52.6791 34.6198 56.3705 34.6198 60.9076C34.6198 65.4451 38.3112 69.1363 42.8486 69.1363C47.3859 69.1363 51.0771 65.4449 51.0771 60.9076C51.0773 56.3705 47.3859 52.6791 42.8486 52.6791Z" fill="#239FFD"/>
</g>
<defs>
<clipPath id="clip0_1_6685">
<rect width="100" height="100" fill="white" transform="translate(0.666718)"/>
</clipPath>
</defs>
</svg>
