<svg width="164" height="158" viewBox="0 0 164 158" fill="none" xmlns="http://www.w3.org/2000/svg">
<g filter="url(#filter0_d_1_807)">
<path d="M64.0337 9.28643C56.1256 11.0164 48.8086 14.792 41.9485 19.0885C33.3152 24.4971 25.142 30.894 19.0381 39.0507C10.2542 50.788 6.26195 65.5293 5.04881 80.1396C4.34115 88.6688 4.62687 97.6982 8.87802 105.127C14.3702 114.726 25.241 119.7 35.5259 123.763C50.422 129.649 66.1557 134.976 82.1081 133.54C90.2338 132.808 98.0935 130.34 105.816 127.71C121.317 122.431 137.581 115.653 146.526 101.936C155.179 88.6677 155.131 71.3403 151.06 56.0326C149.259 49.2603 146.781 41.4213 142.49 35.761C137.878 29.6777 130.581 24.7014 124.873 19.5682C122.678 17.5938 120.465 15.6069 117.936 14.0854C115.439 12.5844 112.683 11.5662 109.901 10.7069C95.5248 6.26286 78.7172 6.07305 64.0337 9.28643Z" fill="#DCE2FC"/>
<path d="M86.8216 99.6138C86.4585 98.4378 85.332 98.3325 84.4665 97.9385C81.967 96.8006 79.4396 95.7226 76.9225 94.624C75.7383 94.1072 74.6541 93.4769 75.077 91.9202C75.4659 90.4905 76.5925 90.1067 77.9366 90.2181C80.5775 90.4368 83.2245 90.6111 85.853 90.932C88.2978 91.2301 90.6477 90.769 93.0977 90.5833C93.1122 89.3753 92.2663 89.2722 91.7165 89.0266C88.7218 87.6918 85.496 87.143 82.3517 86.3074C81.1004 85.9752 79.2622 86.2651 78.9445 84.3278C78.7598 83.2013 80.0823 82.3554 82.7633 82.0573C86.8123 81.6075 90.8768 81.2939 94.9371 80.94C96.5659 80.7977 98.1246 80.4707 99.7112 79.5382C98.6312 77.9124 97.1189 77.8639 95.6427 77.8071C90.7489 77.6194 85.8601 77.834 80.9715 78.0506C80.0606 78.0908 79.1405 78.1197 78.2347 78.0361C77.362 77.9547 76.674 77.4646 76.5099 76.5558C76.3408 75.6181 76.8978 75.0023 77.6952 74.6412C80.3814 73.425 83.0759 72.2252 85.7797 71.0472C87.6438 70.2353 89.5398 69.4946 91.3998 68.6725C92.1487 68.3413 92.9843 67.8689 92.7388 66.8909C92.5087 65.9749 91.5514 65.8222 90.754 65.7583C88.7919 65.6004 86.9196 66.1162 85.069 66.7032C79.5283 68.461 74.2436 70.8501 68.9474 73.2125C68.3893 73.4611 67.8632 73.8056 67.2845 73.9769C65.3823 74.538 63.7998 73.4498 63.5976 71.4722C63.4563 70.0899 63.9504 68.8705 64.6447 67.7131C65.6391 66.0554 66.6893 64.4275 67.6022 62.7275C67.9612 62.059 68.4089 61.2214 67.6806 60.4632C66.9368 59.6874 66.0156 59.7885 65.1181 60.0938C63.9194 60.5024 63.0653 61.404 62.2504 62.3128C60.6143 64.1387 59.2257 66.1523 57.9125 68.2186C56.097 71.075 53.8728 73.5973 51.4208 75.9101C49.7104 77.5235 49.434 77.3718 47.7442 75.7512C44.2895 72.4377 40.7676 69.1924 37.2118 65.9873C32.6697 61.8939 28.0668 57.8687 23.4917 53.8115C23.1874 53.5412 22.8532 53.2895 22.6046 52.9728C21.4698 51.5307 20.1308 50.1081 21.1108 48.0553C22.0661 46.055 23.9487 45.4773 25.9252 45.4031C27.8512 45.3308 29.7875 45.6032 31.7217 45.663C40.9884 45.9477 50.2706 45.2865 59.527 46.0612C61.3642 46.2149 62.1358 45.5145 62.8672 43.8774C68.183 31.9781 73.0118 19.8838 77.59 7.68634C77.9789 6.6496 78.3575 5.62007 79.0868 4.70816C82.491 0.451845 87.2631 1.03161 89.349 6.09049C90.8221 9.66389 92.1786 13.2909 93.4454 16.9438C96.3143 25.214 99.3904 33.4058 102.486 41.5934C103.335 43.8402 104.601 44.6087 106.965 44.7955C118.136 45.6795 129.293 46.7648 140.45 47.8118C143.055 48.0563 144.523 51.1273 143.369 53.8961C142.606 55.724 141.289 57.1373 139.727 58.3371C129.874 65.9109 120.053 73.5271 110.146 81.0308C108.36 82.3832 107.649 83.5799 108.052 86.0031C109.304 93.5347 109.804 101.181 111.171 108.704C112.045 113.513 113.015 118.304 113.94 123.104C114.347 125.216 114.443 127.353 114.414 129.496C114.399 130.616 114.251 131.717 113.774 132.77C112.088 136.485 108.801 137.46 105.712 134.863C102.91 132.507 100.338 129.87 97.7264 127.295C92.2095 121.855 86.8422 116.272 81.7637 110.414C81.1035 109.653 80.3814 108.946 79.5572 108.077C74.7614 111.99 70.046 115.847 65.3193 119.691C59.6281 124.32 53.8894 128.89 48.258 133.589C46.7096 134.882 45.2757 134.677 43.7499 133.923C42.0406 133.078 40.6335 131.892 40.6418 129.767C40.6459 128.755 40.7501 127.715 41.0028 126.737C43.4714 117.178 45.4397 107.49 48.293 98.0282C48.4694 97.4433 48.65 96.8543 48.8986 96.2983C49.9353 93.9803 50.7874 93.6337 53.1436 94.5281C57.6598 96.2425 62.4165 96.8347 67.1555 97.4866C72.9066 98.2779 78.6618 99.033 84.4191 99.7726C85.1897 99.8717 85.9994 100.071 86.8216 99.6138ZM68.5905 69.4812C70.0254 69.245 71.254 68.4858 72.5466 67.8998C76.9091 65.9223 81.3718 64.2181 85.9829 62.9111C87.979 62.3458 90.0174 62.2829 92.0445 62.5614C94.2738 62.8678 96.079 64.4646 96.3421 66.3555C96.6247 68.3877 95.6396 69.9403 94.0066 70.9956C92.8193 71.7621 91.4678 72.2737 90.1908 72.9009C89.546 73.2166 88.6898 73.2445 88.3081 74.1935C91.6236 74.4163 94.7926 73.9748 97.9194 74.6598C99.5606 75.0198 101.043 75.6027 102.198 76.8344C103.614 78.3436 103.634 79.8796 102.352 81.493C101.121 83.0414 99.3502 83.5283 97.5511 83.9244C95.5488 84.3659 93.4959 84.5351 91.4317 84.8147C92.68 85.7111 93.9695 86.2805 95.1506 87.0223C96.5216 87.8826 97.415 89.1391 97.1519 90.8505C96.8837 92.598 95.6045 93.4387 94.0004 93.742C92.5046 94.0257 90.981 94.1784 89.4635 94.3259C88.3453 94.4342 87.2167 94.4414 85.691 94.5116C87.2621 95.4854 88.4412 96.1012 89.4852 96.8945C90.5931 97.7363 91.2275 98.9154 90.9552 100.369C90.6756 101.861 89.578 102.59 88.2163 102.91C87.3343 103.117 86.3935 103.307 85.5064 103.22C81.9608 102.873 78.4121 102.5 74.8893 101.977C67.6486 100.902 60.3161 100.326 53.2766 98.1242C52.2646 97.8075 51.7416 98.2552 51.4692 99.1753C51.266 99.8582 51.0298 100.533 50.8576 101.224C48.7294 109.716 46.6095 118.209 44.4937 126.704C44.3462 127.295 44.1822 127.897 44.1523 128.5C44.111 129.322 44.209 130.165 44.9765 130.681C45.8998 131.302 46.4888 130.542 47.1047 130.06C57.2162 122.157 67.0761 113.947 76.8999 105.692C79.321 103.658 79.9317 103.571 82.2239 105.937C84.0663 107.839 85.7962 109.849 87.5644 111.822C93.7601 118.731 100.397 125.205 107.091 131.621C109.067 133.515 110.471 133.012 110.974 130.282C111.174 129.199 111.134 128.042 111.024 126.936C110.841 125.115 110.587 123.293 110.233 121.498C108.58 113.107 106.886 104.725 105.953 96.2116C105.511 92.1657 105.363 88.059 104.254 84.1287C103.743 82.3141 104.209 81.2341 105.614 80.2262C116.464 72.4491 126.654 63.8117 137.353 55.8365C138.08 55.2939 138.799 54.6842 139.354 53.9755C140.872 52.0341 140.495 51.149 138.06 50.921C127.112 49.8956 116.166 48.8454 105.209 47.9294C102.802 47.7282 101.125 46.8287 100.21 44.617C99.1583 42.0772 98.0927 39.5416 97.1447 36.9637C93.8405 27.9827 90.5972 18.9801 87.2962 9.99914C86.8412 8.7633 86.3027 7.52851 85.6033 6.41852C84.6625 4.92686 83.6206 4.88663 82.358 6.09461C81.1273 7.27165 80.6579 8.8737 80.1153 10.3901C75.6857 22.766 70.4452 34.8097 65.1986 46.8504C64.1165 49.3334 63.6976 49.6171 61.0619 49.4923C59.2309 49.4056 57.4029 49.2024 55.5729 49.1838C45.8946 49.0837 36.2153 49.0208 26.5359 48.9641C25.8695 48.96 25.1144 48.7547 24.6007 49.4015C24.4305 50.1783 24.9772 50.561 25.4063 50.9509C33.0184 57.8728 40.9399 64.4523 48.3467 71.6001C49.436 72.6513 50.188 72.4914 51.1061 71.4381C52.5823 69.7463 53.9791 68.004 55.2366 66.141C56.49 64.2862 57.7918 62.4582 59.1649 60.6911C60.2945 59.2376 61.6396 57.9708 63.3098 57.1342C65.7938 55.8891 68.3253 56.2275 70.0914 57.9873C71.7398 59.6296 71.9534 61.4576 70.6443 64.1665C69.851 65.8088 68.8844 67.3675 68.0004 68.9644C67.8446 69.179 67.6043 69.4255 67.8766 69.6587C68.1231 69.866 68.3893 69.6999 68.5905 69.4812Z" fill="black"/>
<path d="M47.5658 25.8763C46.2618 25.6823 45.9338 24.7776 45.7863 23.7027C45.2643 19.8982 43.4209 16.8551 40.451 14.4577C40.059 14.141 39.6545 13.8078 39.3616 13.4055C38.5477 12.2852 38.7148 11.1442 40.026 10.7027C43.6324 9.48957 44.7001 6.47528 45.6347 3.31245C45.8059 2.7327 45.8193 2.1055 45.9833 1.52265C46.301 0.394101 47.0139 -0.148513 48.2487 0.035109C49.3721 0.202225 50.1715 0.648907 50.2974 1.88577C50.3902 2.79357 50.4387 3.70961 50.5873 4.60915C51.0474 7.38102 51.8407 9.95687 54.6352 11.3536C55.0644 11.5682 55.4326 11.987 55.7153 12.3904C56.3528 13.3002 56.23 14.3803 55.2407 14.6949C52.7495 15.4882 52.0614 17.6566 51.0639 19.6104C50.3253 21.0567 49.7858 22.5876 49.3824 24.1669C49.139 25.1211 48.6087 25.8133 47.5658 25.8763ZM50.9731 13.1734C49.6754 11.6786 48.6087 10.0528 47.8226 7.84935C46.4486 9.86093 45.3562 11.4908 43.7572 12.802C45.4964 14.5258 46.5981 16.3259 47.8959 18.3261C48.7655 16.3568 49.8528 14.8125 50.9731 13.1734Z" fill="black"/>
<path d="M33.4185 115.952C33.2834 116.844 32.7965 117.324 32.2188 117.784C29.2313 120.165 26.6967 122.893 25.4877 126.638C25.2226 127.458 24.6985 128.074 23.7123 128.01C22.723 127.946 22.2475 127.237 22.1165 126.414C21.4944 122.507 18.7535 120.038 16.1612 117.46C15.9456 117.246 15.6681 117.092 15.4618 116.871C13.9845 115.288 14.2558 114.023 16.3035 113.222C17.2567 112.85 18.1872 112.464 19.0207 111.868C20.8445 110.563 21.9586 108.769 22.4229 106.612C22.655 105.535 22.9211 104.537 24.1817 104.493C25.4815 104.448 25.9416 105.5 26.0097 106.542C26.2439 110.143 28.3339 112.269 31.4317 113.635C32.5324 114.121 33.3091 114.81 33.4185 115.952ZM23.9744 111.733C22.6581 113.41 20.9549 114.466 19.5179 115.819C21.1086 117.758 22.558 119.525 24.0641 121.362C25.627 119.589 27.0805 117.941 28.6866 116.12C26.7473 115.012 25.3051 113.529 23.9744 111.733Z" fill="black"/>
<path d="M129.363 82.0181C130.368 81.9943 130.87 82.3182 131.161 82.9021C131.431 83.4437 131.627 84.0235 131.841 84.5919C132.838 87.2533 134.378 89.3733 137.116 90.5565C138.786 91.2776 139.046 92.2235 137.971 93.3294C135.658 95.7072 134.316 98.6523 132.836 101.529C132.652 101.889 132.533 102.294 132.301 102.617C131.262 104.061 129.751 103.941 128.986 102.353C128.768 101.901 128.708 101.375 128.508 100.912C127.385 98.3099 125.947 96.0435 122.767 95.6999C121.942 95.6112 121.481 95.1192 121.395 94.3218C121.291 93.3562 121.455 92.3886 122.48 92.0461C126.186 90.8082 127.407 87.8733 127.899 84.3876C127.969 83.8924 128.085 83.3942 128.251 82.9227C128.481 82.2667 129.03 82.0325 129.363 82.0181ZM130.272 89.3846C129.244 90.7277 128.212 92.076 127.144 93.4717C128.371 94.7818 129.596 96.0909 131.005 97.595C131.956 95.9517 133.349 94.5332 133.495 92.9962C133.621 91.6489 131.494 90.9423 130.651 89.692C130.596 89.6115 130.495 89.5631 130.272 89.3846Z" fill="black"/>
<path d="M159.25 80.6193C159.088 81.5508 158.875 82.3204 158.184 82.8734C155.713 84.8488 153.309 86.8728 152.102 89.951C151.818 90.6762 151.121 90.9558 150.333 90.8299C149.518 90.7 149.121 90.1543 148.999 89.3775C148.936 88.9762 148.9 88.5708 148.843 88.1685C148.525 85.9124 147.467 84.2846 145.349 83.1746C142.872 81.8748 142.874 80.8184 145.181 79.3278C147.265 77.9826 148.673 76.264 148.972 73.7438C149.02 73.3426 149.069 72.9268 149.214 72.5544C149.53 71.7343 150.131 71.2082 151.041 71.1773C151.827 71.1504 152.441 71.561 152.755 72.2398C153.221 73.2507 153.557 74.3215 153.977 75.3552C154.714 77.1687 155.434 78.9688 157.89 79.0049C158.896 79.0225 159.139 79.8828 159.25 80.6193ZM154.174 81.6819C153.11 80.3934 152.213 79.3061 151.246 78.1353C150.374 79.1689 149.549 80.1469 148.764 81.0773C149.691 82.21 150.515 83.2158 151.36 84.2484C152.466 83.6604 153.202 82.6815 154.174 81.6819Z" fill="black"/>
<path d="M63.3446 141.655C63.1425 142.072 63.0249 142.618 62.6917 142.949C61.0153 144.621 59.7816 146.592 58.6241 148.629C58.1537 149.457 57.5265 150.159 56.4537 149.968C55.5376 149.805 55.1456 149.069 54.9517 148.238C54.4473 146.081 53.4177 144.308 51.5114 143.06C50.6149 142.473 50.4777 141.601 51.1472 140.686C51.6228 140.037 51.9725 139.308 52.6905 138.832C54.4792 137.644 55.4242 135.88 55.9111 133.836C55.9585 133.638 56.006 133.441 56.0483 133.242C56.237 132.347 56.7662 131.726 57.6874 131.718C58.6117 131.709 59.2235 132.301 59.3122 133.224C59.5381 135.582 60.7214 137.427 62.3203 139.06C63.0156 139.77 63.0476 140.707 63.3446 141.655ZM57.217 144.249C58.097 143.142 58.8387 142.209 59.568 141.291C58.9583 140.338 58.4488 139.502 57.5853 138.981C55.0394 141.428 55.0394 141.428 57.217 144.249Z" fill="black"/>
<path d="M67.9953 68.9594C68.8835 67.3635 69.8491 65.8048 70.6434 64.1625C71.9525 61.4546 71.7389 59.6256 70.0905 57.9833C68.3244 56.2245 65.7929 55.8861 63.3089 57.1302C61.6387 57.9668 60.2935 59.2336 59.164 60.6871C57.7909 62.4542 56.489 64.2822 55.2357 66.137C53.9771 68 52.5804 69.7424 51.1052 71.4342C50.1871 72.4864 49.4351 72.6463 48.3458 71.5961C40.939 64.4473 33.0175 57.8689 25.4054 50.9469C24.9763 50.557 24.4295 50.1743 24.5997 49.3975C25.1124 48.7496 25.8686 48.956 26.535 48.9601C36.2143 49.0168 45.8937 49.0798 55.572 49.1798C57.402 49.1984 59.23 49.4016 61.061 49.4883C63.6967 49.6131 64.1156 49.3294 65.1977 46.8464C70.4443 34.8058 75.6847 22.763 80.1143 10.3861C80.6569 8.86969 81.1274 7.26663 82.357 6.09062C83.6197 4.88264 84.6616 4.92287 85.6024 6.41453C86.3018 7.52452 86.8403 8.75931 87.2952 9.99515C90.5962 18.9771 93.8395 27.9798 97.1437 36.9597C98.0917 39.5376 99.1584 42.0732 100.209 44.613C101.124 46.8247 102.801 47.7243 105.208 47.9254C116.165 48.8415 127.111 49.8916 138.059 50.917C140.495 51.145 140.873 52.0301 139.353 53.9715C138.798 54.6812 138.08 55.2899 137.352 55.8325C126.653 63.8077 116.462 72.4451 105.613 80.2222C104.208 81.2301 103.742 82.3101 104.253 84.1247C105.362 88.055 105.51 92.1618 105.952 96.2076C106.885 104.721 108.579 113.103 110.232 121.494C110.586 123.29 110.84 125.112 111.023 126.932C111.133 128.037 111.173 129.195 110.973 130.278C110.47 133.008 109.066 133.511 107.09 131.617C100.396 125.201 93.7581 118.727 87.5634 111.818C85.7953 109.845 84.0643 107.835 82.2229 105.933C79.9307 103.567 79.32 103.653 76.8989 105.688C67.0751 113.943 57.2153 122.153 47.1037 130.056C46.4878 130.538 45.8998 131.298 44.9755 130.677C44.2091 130.161 44.1111 129.317 44.1513 128.496C44.1812 127.893 44.3452 127.291 44.4927 126.7C46.6085 118.205 48.7284 109.712 50.8566 101.22C51.0299 100.53 51.2661 99.8553 51.4683 99.1713C51.7417 98.2522 52.2637 97.8035 53.2757 98.1202C60.3152 100.322 67.6487 100.899 74.8884 101.973C78.4122 102.496 81.9599 102.869 85.5054 103.216C86.3926 103.303 87.3334 103.113 88.2154 102.906C89.5771 102.586 90.6747 101.857 90.9542 100.365C91.2265 98.9104 90.5921 97.7323 89.4842 96.8905C88.4403 96.0972 87.2622 95.4814 85.6901 94.5076C87.2168 94.4374 88.3443 94.4302 89.4626 94.3219C90.98 94.1744 92.5037 94.0217 93.9995 93.738C95.6036 93.4347 96.8827 92.594 97.1509 90.8465C97.414 89.1351 96.5206 87.8786 95.1497 87.0183C93.9685 86.2766 92.6791 85.7071 91.4308 84.8107C93.495 84.5311 95.5469 84.362 97.5502 83.9204C99.3493 83.5243 101.12 83.0374 102.351 81.489C103.633 79.8756 103.612 78.3396 102.197 76.8304C101.042 75.5987 99.5597 75.0148 97.9185 74.6558C94.7917 73.9708 91.6217 74.4124 88.3072 74.1895C88.6889 73.2405 89.5461 73.2126 90.1898 72.8969C91.4669 72.2697 92.8183 71.7581 94.0056 70.9916C95.6386 69.9363 96.6238 68.3838 96.3412 66.3515C96.0781 64.4607 94.2728 62.8638 92.0436 62.5574C90.0165 62.2789 87.9781 62.3418 85.982 62.9071C81.3709 64.2141 76.9092 65.9183 72.5456 67.8958C71.252 68.4818 70.0234 69.241 68.5895 69.4772C68.3925 69.307 68.1934 69.1337 67.9953 68.9594Z" fill="#4F45E2"/>
<path d="M68.5902 69.4811C68.388 69.6998 68.1219 69.8659 67.8753 69.6555C67.602 69.4223 67.8423 69.1758 67.997 68.9602C68.193 69.1335 68.3921 69.3068 68.5902 69.4811Z" fill="#4F45E2"/>
<path d="M50.9728 13.1734C49.8525 14.8126 48.7651 16.3568 47.8955 18.3261C46.5967 16.3249 45.4951 14.5258 43.7568 12.802C45.3558 11.4909 46.4482 9.86095 47.8223 7.84937C48.6094 10.0528 49.675 11.6786 50.9728 13.1734Z" fill="#F6F6AE"/>
<path d="M23.9744 111.733C25.3042 113.529 26.7473 115.012 28.6877 116.12C27.0816 117.942 25.6281 119.589 24.0652 121.362C22.5591 119.526 21.1097 117.758 19.519 115.819C20.955 114.467 22.6592 113.41 23.9744 111.733Z" fill="#F6F6AE"/>
<path d="M130.272 89.3848C130.495 89.5632 130.596 89.6117 130.65 89.6922C131.494 90.9425 133.621 91.6491 133.494 92.9963C133.349 94.5334 131.956 95.9518 131.005 97.5951C129.596 96.0901 128.372 94.782 127.144 93.4719C128.212 92.0772 129.244 90.7279 130.272 89.3848Z" fill="#F6F6AE"/>
<path d="M154.173 81.6818C153.201 82.6814 152.465 83.6603 151.36 84.2494C150.514 83.2157 149.691 82.211 148.764 81.0783C149.549 80.1478 150.374 79.1699 151.246 78.1362C152.212 79.306 153.111 80.3933 154.173 81.6818Z" fill="#F6F6AE"/>
<path d="M57.2169 144.249C55.0392 141.427 55.0392 141.427 57.5851 138.981C58.4496 139.502 58.9582 140.338 59.5678 141.291C58.8385 142.209 58.0968 143.142 57.2169 144.249Z" fill="#F6F6AE"/>
</g>
<defs>
<filter id="filter0_d_1_807" x="0.750488" y="0" width="162.5" height="158" filterUnits="userSpaceOnUse" color-interpolation-filters="sRGB">
<feFlood flood-opacity="0" result="BackgroundImageFix"/>
<feColorMatrix in="SourceAlpha" type="matrix" values="0 0 0 0 0 0 0 0 0 0 0 0 0 0 0 0 0 0 127 0" result="hardAlpha"/>
<feOffset dy="4"/>
<feGaussianBlur stdDeviation="2"/>
<feComposite in2="hardAlpha" operator="out"/>
<feColorMatrix type="matrix" values="0 0 0 0 0 0 0 0 0 0 0 0 0 0 0 0 0 0 0.25 0"/>
<feBlend mode="normal" in2="BackgroundImageFix" result="effect1_dropShadow_1_807"/>
<feBlend mode="normal" in="SourceGraphic" in2="effect1_dropShadow_1_807" result="shape"/>
</filter>
</defs>
</svg>
