<svg width="30" height="30" viewBox="0 0 30 30" fill="none" xmlns="http://www.w3.org/2000/svg">
<path d="M19.2373 6.5126L20.9998 10.0376C21.2373 10.5251 21.8748 10.9876 22.4123 11.0876L25.5998 11.6126C27.6373 11.9501 28.1123 13.4251 26.6498 14.9001L24.1623 17.3876C23.7498 17.8001 23.5123 18.6126 23.6498 19.2001L24.3623 22.2751C24.9248 24.7001 23.6248 25.6501 21.4873 24.3751L18.4998 22.6001C17.9623 22.2751 17.0623 22.2751 16.5248 22.6001L13.5373 24.3751C11.3998 25.6376 10.0998 24.7001 10.6623 22.2751L11.3748 19.2001C11.4873 18.6001 11.2498 17.7876 10.8373 17.3751L8.34981 14.8876C6.88731 13.4251 7.36231 11.9501 9.39981 11.6001L12.5873 11.0751C13.1248 10.9876 13.7623 10.5126 13.9998 10.0251L15.7623 6.5001C16.7248 4.6001 18.2748 4.6001 19.2373 6.5126Z" fill="#4F45E2"/>
<path d="M10 7.1875H2.5C1.9875 7.1875 1.5625 6.7625 1.5625 6.25C1.5625 5.7375 1.9875 5.3125 2.5 5.3125H10C10.5125 5.3125 10.9375 5.7375 10.9375 6.25C10.9375 6.7625 10.5125 7.1875 10 7.1875Z" fill="#4F45E2"/>
<path d="M6.25 24.6875H2.5C1.9875 24.6875 1.5625 24.2625 1.5625 23.75C1.5625 23.2375 1.9875 22.8125 2.5 22.8125H6.25C6.7625 22.8125 7.1875 23.2375 7.1875 23.75C7.1875 24.2625 6.7625 24.6875 6.25 24.6875Z" fill="#4F45E2"/>
<path d="M3.75 15.9375H2.5C1.9875 15.9375 1.5625 15.5125 1.5625 15C1.5625 14.4875 1.9875 14.0625 2.5 14.0625H3.75C4.2625 14.0625 4.6875 14.4875 4.6875 15C4.6875 15.5125 4.2625 15.9375 3.75 15.9375Z" fill="#4F45E2"/>
</svg>
