<svg width="100" height="100" viewBox="0 0 100 100" fill="none" xmlns="http://www.w3.org/2000/svg">
<path d="M96.7002 60.0193C96.7002 60.0193 94.1225 64.5898 93.7705 65.117C93.0092 66.5236 91.1928 66.992 89.7861 66.2303C89.2004 65.8787 85.2746 63.6521 84.8058 63.3006C83.2236 64.6484 81.4072 65.7617 79.298 66.5234V70.5078C79.298 72.1482 78.0092 73.4375 76.3684 73.4375H70.509C68.8682 73.4375 67.5793 72.1482 67.5793 70.5078V66.5234C65.4699 65.7617 63.6537 64.6484 62.0715 63.3006L52.9309 68.2227L44.4348 69.5701L47.0129 58.1445L56.1535 53.2225C55.9779 52.1678 55.8605 51.1131 55.8605 49.9998C55.8605 48.8865 55.9779 47.8318 56.2121 46.7771L47.0715 41.8551L44.0832 31.0736L52.9896 31.7771L62.0717 36.6988C63.7125 35.2926 65.5289 34.2381 67.5795 33.4762V29.4922C67.5795 27.8514 68.8683 26.5625 70.5092 26.5625H76.3685C78.0094 26.5625 79.2982 27.8514 79.2982 29.4922V33.4766C81.4076 34.2383 83.1652 35.3516 84.7475 36.6992H84.806C85.3918 36.3477 89.318 34.1211 89.7863 33.7695C91.193 33.0078 92.9506 33.4766 93.7707 34.8242C93.7707 34.8242 96.3488 39.3947 96.7004 39.9219C97.5207 41.3281 97.0523 43.1445 95.6457 43.9648C95.0012 44.2578 91.1342 46.426 90.6654 46.7775C90.8996 47.8322 91.017 48.8869 91.017 50.0002C91.017 51.1135 90.8996 52.1682 90.724 53.2229C91.3685 53.5158 95.1771 55.6836 95.6457 56.0352C97.0521 56.8553 97.5205 58.6131 96.7002 60.0193Z" fill="#979FEF"/>
<path d="M96.7002 60.0193C96.7002 60.0193 94.1224 64.5898 93.7705 65.117C93.0092 66.5236 91.1928 66.992 89.7861 66.2303C89.2004 65.8787 85.2746 63.6521 84.8058 63.3006C83.2236 64.6484 81.4072 65.7617 79.298 66.5234V70.5078C79.298 72.1482 78.0092 73.4375 76.3683 73.4375H73.4387V26.5625H76.3683C78.0092 26.5625 79.298 27.8514 79.298 29.4922V33.4766C81.4074 34.2383 83.165 35.3516 84.7473 36.6992H84.8058C85.3916 36.3477 89.3178 34.1211 89.7861 33.7695C91.1928 33.0078 92.9504 33.4766 93.7705 34.8242C93.7705 34.8242 96.3486 39.3947 96.7002 39.9219C97.5205 41.3281 97.0521 43.1445 95.6455 43.9648C95.001 44.2578 91.134 46.426 90.6652 46.7775C90.8994 47.8322 91.0168 48.8869 91.0168 50.0002C91.0168 51.1135 90.8994 52.1682 90.7238 53.2229C91.3683 53.5158 95.1769 55.6836 95.6455 56.0352C97.0521 56.8553 97.5205 58.6131 96.7002 60.0193Z" fill="#737EE6"/>
<path d="M49.8252 86.3865C49.8252 86.3865 47.2474 90.957 46.8955 91.4842C46.1341 92.8908 44.3177 93.3592 42.9111 92.5975C42.3254 92.2459 38.3996 90.0193 37.9308 89.6678C36.3486 91.0156 34.5322 92.0703 32.423 92.8906V97.0703C32.423 98.7107 31.1341 100 29.4933 100H23.634C21.9931 100 20.7043 98.7107 20.7043 97.0703V92.8906C18.5949 92.0703 16.7787 91.0156 15.1965 89.6678C14.6107 90.0193 10.6845 92.2459 10.2162 92.5975C8.80954 93.3592 6.99333 92.8906 6.23181 91.4842C5.87985 90.8984 3.65368 86.9141 3.30212 86.4451C2.48181 85.0389 2.95017 83.2813 4.29802 82.4607C4.35661 82.4607 8.75114 79.9412 9.27829 79.5896C9.1027 78.4764 8.98532 77.4803 8.98532 76.367C8.98532 75.2537 9.1027 74.199 9.33688 73.1443C8.69235 72.8512 4.82497 70.6832 4.35661 70.3316C2.94997 69.5113 2.48161 67.6949 3.30192 66.2887C3.65349 65.7029 5.87966 61.7186 6.23161 61.2496C6.99294 59.8434 8.75114 59.3746 10.1572 60.1363C10.1572 60.1363 14.6687 62.7145 15.1963 63.066C16.8371 61.6598 18.6535 60.6053 20.7041 59.8434V49.9996L26.5634 44.1402L32.4228 49.9996V59.8434C34.4734 60.6051 36.2898 61.6598 37.9306 63.066L47.0127 58.1443L52.9306 68.2223L43.79 73.1443C44.0242 74.199 44.1416 75.2537 44.1416 76.367C44.1416 77.4803 44.0242 78.535 43.8486 79.5896C44.4931 79.8826 48.3017 82.0504 48.7703 82.402C50.1771 83.2225 50.6455 84.9803 49.8252 86.3865Z" fill="#FF641A"/>
<path d="M49.8252 86.3865C49.8252 86.3865 47.2474 90.957 46.8955 91.4842C46.1342 92.8908 44.3178 93.3592 42.9111 92.5975C42.3254 92.2459 38.3996 90.0193 37.9308 89.6678C36.3486 91.0156 34.5322 92.0703 32.423 92.8906V97.0703C32.423 98.7107 31.1342 100 29.4933 100H26.5637V44.1406L32.423 50V59.8437C34.4736 60.6055 36.29 61.6602 37.9308 63.0664L47.0129 58.1447L52.9309 68.2227L43.7902 73.1447C44.0244 74.1994 44.1418 75.2541 44.1418 76.3674C44.1418 77.4807 44.0244 78.5354 43.8488 79.59C44.4933 79.883 48.3019 82.0508 48.7705 82.4023C50.1771 83.2225 50.6455 84.9803 49.8252 86.3865Z" fill="#F03800"/>
<path d="M52.9894 31.7773L47.0715 41.8553L37.9308 36.9332C37.1105 37.6367 36.2318 38.2225 35.3527 38.8082C34.4154 39.3357 33.4189 39.8045 32.423 40.1561V49.9998H20.7043V40.1561C18.5949 39.3943 16.7787 38.2811 15.1965 36.9332C14.6107 37.2848 10.6845 39.5113 10.2162 39.8629C8.80954 40.6246 6.99333 40.1561 6.23181 38.7496C5.87985 38.1639 3.65368 34.1795 3.30212 33.7105C2.48181 32.3043 2.95017 30.5467 4.29802 29.7262C4.35661 29.7262 8.75114 27.2066 9.27829 26.8551C9.1027 25.8004 8.98532 24.7457 8.98532 23.6324C8.98532 22.5191 9.1027 21.4645 9.33688 20.4098C8.69235 20.1166 4.82497 17.9486 4.35661 17.5971C2.94997 16.7768 2.48161 14.9604 3.30192 13.5541C3.65349 12.9684 5.87966 8.98398 6.23161 8.51504C6.99294 7.10879 8.75114 6.64004 10.1572 7.40176C10.1572 7.40176 14.6687 9.97988 15.1963 10.3314C16.8371 8.9252 18.6535 7.8707 20.7041 7.10879V2.92969C20.7041 1.28887 21.9929 0 23.6338 0H29.4931C31.134 0 32.4228 1.28887 32.4228 2.92969V7.10938C34.4734 7.87109 36.2316 8.92578 37.872 10.332H37.9306C38.5164 9.98047 42.4425 7.75391 42.9109 7.40234C44.3175 6.64063 46.0752 7.10938 46.8953 8.45703C46.8953 8.45703 49.4734 13.0275 49.825 13.5547C50.6453 14.9609 50.1769 16.7773 48.7703 17.5977C48.1257 17.8906 44.2588 20.0588 43.79 20.4104C44.0242 21.465 44.1416 22.5197 44.1416 23.633C44.1416 24.7463 44.0242 25.801 43.8486 26.8557L52.9894 31.7773Z" fill="#FFDA2D"/>
<path d="M52.9894 31.7773L47.0715 41.8553L37.9308 36.9332C37.1105 37.6367 36.2318 38.2225 35.3527 38.8082C34.4154 39.3357 33.4189 39.8045 32.423 40.1561V49.9998H26.5637V0H29.4933C31.1342 0 32.423 1.28887 32.423 2.92969V7.10938C34.4736 7.87109 36.2318 8.92578 37.8723 10.332H37.9308C38.5166 9.98047 42.4428 7.75391 42.9111 7.40234C44.3178 6.64063 46.0754 7.10938 46.8955 8.45703C46.8955 8.45703 49.4736 13.0275 49.8252 13.5547C50.6455 14.9609 50.1771 16.7773 48.7705 17.5977C48.126 17.8906 44.259 20.0588 43.7902 20.4104C44.0244 21.465 44.1418 22.5197 44.1418 23.633C44.1418 24.7463 44.0244 25.801 43.8488 26.8557L52.9894 31.7773Z" fill="#FDBF00"/>
<path d="M84.2783 42.0896C83.165 40.918 81.2904 40.918 80.177 42.0896L73.4385 48.7693L70.5088 51.699L66.7 47.949C65.5867 46.7773 63.7121 46.7773 62.5986 47.949C61.4268 49.0623 61.4268 50.9373 62.5986 52.0506L68.458 57.91C68.9852 58.4961 69.7469 58.7891 70.5086 58.7891C71.2703 58.7891 72.032 58.4961 72.5592 57.91L73.4383 57.0312L84.2779 46.1912C85.4502 45.0779 85.4502 43.2029 84.2783 42.0896ZM37.4033 68.4568C36.29 67.2852 34.4154 67.2852 33.302 68.4568L26.5635 75.1365L23.6338 78.0662L19.825 74.3162C18.7117 73.1445 16.8371 73.1445 15.7236 74.3162C14.5518 75.4295 14.5518 77.3045 15.7236 78.4178L21.583 84.2771C22.1102 84.8633 22.8719 85.1562 23.6336 85.1562C24.3953 85.1562 25.157 84.8633 25.6842 84.2771L26.5633 83.3984L37.4029 72.5584C38.5752 71.4451 38.5752 69.5701 37.4033 68.4568ZM37.4033 15.7225C36.29 14.5508 34.4154 14.5508 33.302 15.7225L26.5635 22.4021L23.6338 25.3318L19.825 21.5818C18.7117 20.4102 16.8371 20.4102 15.7236 21.5818C14.5518 22.6951 14.5518 24.5701 15.7236 25.6834L21.583 31.5428C22.1102 32.1289 22.8719 32.4219 23.6336 32.4219C24.3953 32.4219 25.157 32.1289 25.6842 31.5428L26.5633 30.6641L37.4029 19.824C38.5752 18.7107 38.5752 16.8357 37.4033 15.7225Z" fill="#47568C"/>
<path d="M37.4033 19.824L26.5637 30.6641V22.4021L33.3021 15.7225C34.4154 14.5508 36.29 14.5508 37.4035 15.7225C38.5752 16.8357 38.5752 18.7107 37.4033 19.824ZM37.4033 72.5584L26.5637 83.3984V75.1365L33.3021 68.4568C34.4154 67.2852 36.29 67.2852 37.4035 68.4568C38.5752 69.5701 38.5752 71.4451 37.4033 72.5584ZM84.2783 46.1912L73.4387 57.0312V48.7693L80.1771 42.0896C81.2904 40.918 83.165 40.918 84.2785 42.0896C85.4502 43.2029 85.4502 45.0779 84.2783 46.1912Z" fill="#2C3B73"/>
</svg>
