<svg width="30" height="30" viewBox="0 0 30 30" fill="none" xmlns="http://www.w3.org/2000/svg">
<path d="M26.3625 8.7249C25.3 7.5499 23.525 6.9624 20.95 6.9624H20.65V6.9124C20.65 4.8124 20.65 2.2124 15.95 2.2124H14.05C9.35 2.2124 9.35 4.8249 9.35 6.9124V6.9749H9.05C6.4625 6.9749 4.7 7.5624 3.6375 8.7374C2.4 10.1124 2.4375 11.9624 2.5625 13.2249L2.575 13.3124L2.67182 14.329C2.68965 14.5162 2.79048 14.6853 2.94785 14.7883C3.2476 14.9845 3.74928 15.3078 4.05 15.4749C4.225 15.5874 4.4125 15.6874 4.6 15.7874C6.7375 16.9624 9.0875 17.7499 11.475 18.1374C11.5875 19.3124 12.1 20.6874 14.8375 20.6874C17.575 20.6874 18.1125 19.3249 18.2 18.1124C20.75 17.6999 23.2125 16.8124 25.4375 15.5124C25.5125 15.4749 25.5625 15.4374 25.625 15.3999C26.1209 15.1196 26.6354 14.7742 27.1043 14.436C27.2456 14.334 27.3359 14.1765 27.3552 14.0033L27.375 13.8249L27.4375 13.2374C27.45 13.1624 27.45 13.0999 27.4625 13.0124C27.5625 11.7499 27.5375 10.0249 26.3625 8.7249ZM16.3625 17.2874C16.3625 18.6124 16.3625 18.8124 14.825 18.8124C13.2875 18.8124 13.2875 18.5749 13.2875 17.2999V15.7249H16.3625V17.2874ZM11.1375 6.9624V6.9124C11.1375 4.7874 11.1375 3.9999 14.05 3.9999H15.95C18.8625 3.9999 18.8625 4.7999 18.8625 6.9124V6.9749H11.1375V6.9624Z" fill="#4F45E2"/>
<path d="M26.0918 17.1676C26.5338 16.9573 27.0429 17.3076 26.9987 17.7951L26.55 22.7374C26.2875 25.2374 25.2625 27.7874 19.7625 27.7874H10.2375C4.73749 27.7874 3.7125 25.2374 3.45 22.7499L3.02411 18.0651C2.9803 17.5833 3.47775 17.2333 3.91854 17.4328C5.34281 18.0771 7.97174 19.2204 9.59571 19.6457C9.80109 19.6995 9.96721 19.8465 10.0571 20.0389C10.8159 21.6615 12.4614 22.5249 14.8375 22.5249C17.1901 22.5249 18.8564 21.6282 19.6177 20.0016C19.7077 19.8092 19.874 19.6622 20.0795 19.6081C21.804 19.1544 24.6022 17.8765 26.0918 17.1676Z" fill="#4F45E2"/>
</svg>
