<svg width="48" height="48" viewBox="0 0 48 48" fill="none" xmlns="http://www.w3.org/2000/svg">
<rect width="48" height="48" rx="8" fill="#EE0B0C"/>
<g clip-path="url(#clip0_1_6335)">
<g clip-path="url(#clip1_1_6335)">
<path d="M7.00543 26.6018L9.35466 26.9868C9.72583 28.7857 10.4361 30.4974 11.4476 32.0306L10.0564 33.9723C9.91587 34.1636 9.84111 34.3953 9.84331 34.6327C9.84552 34.8701 9.92457 35.1004 10.0686 35.289C10.4194 35.7178 10.7921 36.1282 11.1853 36.5186C11.5819 36.9158 11.9907 37.2819 12.4118 37.6358C12.6006 37.7802 12.8311 37.8594 13.0688 37.8616C13.3064 37.8638 13.5384 37.7889 13.7298 37.648L15.6702 36.2562C17.2019 37.2683 18.9125 37.979 20.7104 38.3504L21.0948 40.7014C21.1305 40.9355 21.2415 41.1515 21.4111 41.3167C21.5807 41.4819 21.7996 41.5873 22.0345 41.6167C22.3689 41.6546 22.7057 41.6777 23.0499 41.6948C23.1326 41.6989 23.2153 41.6862 23.2929 41.6574C23.3706 41.6287 23.4417 41.5846 23.5019 41.5277C23.562 41.4708 23.6101 41.4024 23.6432 41.3264C23.6762 41.2505 23.6936 41.1687 23.6942 41.0859V36.1958C23.6934 36.0372 23.6311 35.885 23.5206 35.7713C23.41 35.6575 23.2597 35.591 23.1011 35.5856C16.9349 35.266 12.0991 30.173 12.0991 23.9985C12.0991 17.8239 16.9349 12.731 23.1011 12.4113C23.2597 12.4059 23.41 12.3394 23.5206 12.2257C23.6311 12.1119 23.6934 11.9597 23.6942 11.8011V6.91532C23.6938 6.83254 23.6766 6.75071 23.6438 6.67473C23.6109 6.59876 23.5631 6.53021 23.503 6.47321C23.443 6.41621 23.3721 6.37194 23.2945 6.34305C23.2169 6.31416 23.1343 6.30126 23.0516 6.30511C22.7119 6.31913 22.3727 6.34314 22.0344 6.3771C21.7993 6.40913 21.5808 6.51625 21.4115 6.68249C21.2422 6.84873 21.1311 7.06521 21.0948 7.2997L20.7103 9.65077C18.9125 10.0226 17.2019 10.7335 15.6702 11.7455L13.7298 10.3531C13.5383 10.2123 13.3064 10.1373 13.0687 10.1395C12.831 10.1417 12.6005 10.221 12.4117 10.3653C11.9841 10.7166 11.5747 11.0895 11.1852 11.4826C10.7891 11.8701 10.4163 12.2806 10.0686 12.7121C9.92392 12.901 9.84452 13.1317 9.84231 13.3696C9.84011 13.6076 9.91522 13.8397 10.0563 14.0313L11.4475 15.9729C10.4363 17.5056 9.726 19.2167 9.35461 21.0149L7.00537 21.3994C6.77125 21.4351 6.55519 21.5463 6.39 21.716C6.22481 21.8857 6.11951 22.1047 6.09009 22.3397C5.96997 23.4347 5.96997 24.5396 6.09009 25.6347C6.1165 25.8736 6.2202 26.0973 6.38542 26.2719C6.55064 26.4464 6.76834 26.5623 7.00543 26.6018Z" fill="white"/>
<path d="M23.1107 14.8659C18.29 15.1713 14.5365 19.1702 14.5365 24.0005C14.5365 28.8307 18.2901 32.8296 23.1107 33.135C23.1866 33.1381 23.2624 33.1258 23.3334 33.0988C23.4044 33.0718 23.4691 33.0306 23.5237 32.9777C23.5783 32.9248 23.6215 32.8614 23.6508 32.7913C23.6801 32.7212 23.6948 32.6459 23.694 32.5699V15.431C23.6948 15.355 23.6801 15.2797 23.6508 15.2096C23.6215 15.1395 23.5783 15.0761 23.5237 15.0232C23.4691 14.9703 23.4044 14.9291 23.3334 14.9021C23.2624 14.8751 23.1866 14.8628 23.1107 14.8659ZM27.9654 15.4578H24.9145V16.6782H27.9654C28.9751 16.6752 29.7929 15.8574 29.7959 14.8476V11.0742C30.6365 10.7771 31.1407 9.91755 30.99 9.03882C30.8392 8.1601 30.0773 7.51782 29.1857 7.51782C28.2942 7.51782 27.5323 8.1601 27.3815 9.03882C27.2307 9.91755 27.7349 10.7771 28.5755 11.0742V14.8476C28.5755 15.1847 28.3023 15.4578 27.9654 15.4578ZM24.9144 19.119H31.0163C31.3533 19.119 31.6265 18.8458 31.6265 18.5088C31.6265 18.1717 31.3533 17.8986 31.0163 17.8986H24.9144V19.119ZM24.9144 32.5431H27.9653C28.3023 32.5431 28.5755 32.8162 28.5755 33.1533V36.9267C27.7349 37.2238 27.2307 38.0834 27.3815 38.9621C27.5323 39.8408 28.2941 40.4831 29.1857 40.4831C30.0773 40.4831 30.8392 39.8408 30.99 38.9621C31.1407 38.0834 30.6365 37.2238 29.7959 36.9267V33.1533C29.7929 32.1435 28.9751 31.3257 27.9654 31.3227H24.9145V32.5431H24.9144ZM34.0672 26.4412H24.9144V27.6616H34.0672C34.4042 27.6616 34.6774 27.9348 34.6774 28.2718V31.435C33.8368 31.7322 33.3326 32.5917 33.4834 33.4704C33.6342 34.3492 34.396 34.9915 35.2876 34.9915C36.1792 34.9915 36.9411 34.3492 37.0919 33.4704C37.2426 32.5917 36.7384 31.7322 35.8978 31.435V28.2718C35.8948 27.262 35.077 26.4442 34.0672 26.4412ZM40.1691 22.1699C39.7919 22.1715 39.4243 22.2895 39.1167 22.508C38.8091 22.7264 38.5766 23.0346 38.4508 23.3902H24.9144V24.6106H38.4508C38.7626 25.486 39.6817 25.988 40.5867 25.7773C41.4918 25.5666 42.0946 24.7103 41.9877 23.7872C41.8809 22.8642 41.0983 22.1682 40.1691 22.1699Z" fill="white"/>
<path d="M31.6265 29.4922C31.6265 29.1551 31.3533 28.8819 31.0163 28.8819H24.9144V30.1023H31.0163C31.3533 30.1024 31.6265 29.8292 31.6265 29.4922ZM35.8977 19.7292V16.5659C36.7383 16.2688 37.2425 15.4092 37.0918 14.5305C36.941 13.6518 36.1791 13.0095 35.2875 13.0095C34.396 13.0095 33.6341 13.6518 33.4833 14.5305C33.3325 15.4092 33.8368 16.2688 34.6773 16.5659V19.7292C34.6773 20.0662 34.4041 20.3394 34.0671 20.3394H24.9143V21.5598H34.0671C35.077 21.5567 35.8947 20.7389 35.8977 19.7292Z" fill="white"/>
</g>
</g>
<defs>
<clipPath id="clip0_1_6335">
<rect width="36" height="36" fill="white" transform="translate(6 6)"/>
</clipPath>
<clipPath id="clip1_1_6335">
<rect width="36" height="36" fill="white" transform="translate(6 6)"/>
</clipPath>
</defs>
</svg>
