<svg width="100" height="100" viewBox="0 0 100 100" fill="none" xmlns="http://www.w3.org/2000/svg">
<path d="M27.5586 90.9719V97.0719C27.5586 98.6891 28.8703 100 30.4883 100H50L56.9404 84.7364L50 71.1336C50 71.1336 48.0293 68.6076 47.0703 68.7326C42.0449 69.3865 37.541 71.7035 34.1309 75.1119C30.0703 79.1699 27.5586 84.7781 27.5586 90.9719Z" fill="#239FFD"/>
<path d="M72.4414 90.9719V97.0719C72.4414 98.6891 71.1297 100 69.5117 100H50V71.1336C50 71.1336 51.9707 68.6076 52.9297 68.7326C57.9551 69.3865 62.459 71.7035 65.8691 75.1119C69.9297 79.1699 72.4414 84.7781 72.4414 90.9719Z" fill="#4F45E2"/>
<path d="M99.1601 32.468L93.8945 37.8205L95.0058 45.2439C95.0683 45.6605 95.04 46.0857 94.9231 46.4903C94.8062 46.895 94.6033 47.2697 94.3284 47.5888C94.0534 47.9079 93.7128 48.1639 93.3298 48.3393C92.9469 48.5147 92.5306 48.6054 92.1094 48.6053C91.6621 48.6053 91.2148 48.5037 90.8008 48.2969L84.082 44.9473L77.3613 48.2969C76.8818 48.536 76.3458 48.6392 75.8118 48.5952C75.2777 48.5511 74.7659 48.3616 74.332 48.0471C73.8982 47.7322 73.5591 47.3044 73.3518 46.8101C73.1445 46.3158 73.0768 45.774 73.1562 45.2439L74.2676 37.8205L69.0019 32.468C68.6266 32.0858 68.3631 31.6081 68.2402 31.0868C68.1173 30.5654 68.1396 30.0203 68.3047 29.5107C68.471 29.0012 68.7737 28.5469 69.18 28.1973C69.5863 27.8476 70.0807 27.616 70.6094 27.5275L78.0156 26.2898L81.4824 19.6334C81.7297 19.1576 82.103 18.7589 82.5614 18.4808C83.0198 18.2027 83.5458 18.0558 84.082 18.0562C85.1738 18.0562 86.1758 18.6633 86.6797 19.6334L90.1465 26.2898L97.5527 27.5275C98.0814 27.616 98.5757 27.8476 98.982 28.1973C99.3884 28.5469 99.6911 29.0012 99.8574 29.5107C100.022 30.0203 100.045 30.5654 99.9218 31.0867C99.7989 31.6081 99.5355 32.0858 99.1601 32.468Z" fill="#FF9922"/>
<path d="M30.998 32.468L25.7324 37.8205L26.8437 45.2439C26.9061 45.6605 26.8779 46.0857 26.761 46.4903C26.6441 46.895 26.4412 47.2697 26.1663 47.5888C25.8913 47.9079 25.5507 48.1639 25.1677 48.3393C24.7848 48.5147 24.3685 48.6055 23.9472 48.6053C23.5 48.6053 23.0527 48.5037 22.6387 48.2969L15.918 44.9473L9.1992 48.2969C8.71965 48.536 8.18372 48.6392 7.64965 48.5952C7.11559 48.5511 6.6038 48.3616 6.1699 48.0471C5.73608 47.7323 5.39702 47.3044 5.18969 46.8101C4.98235 46.3158 4.91471 45.774 4.99412 45.2439L6.10545 37.8205L0.839827 32.468C0.46448 32.0858 0.201033 31.6081 0.0781055 31.0868C-0.0448222 30.5654 -0.0225297 30.0203 0.142561 29.5107C0.308868 29.0012 0.611615 28.5469 1.01792 28.1973C1.42423 27.8476 1.91857 27.616 2.44725 27.5275L9.8535 26.2898L13.3203 19.6334C13.5674 19.1579 13.9403 18.7593 14.3984 18.4812C14.8564 18.2031 15.3821 18.0561 15.918 18.0562C17.0117 18.0562 18.0137 18.6633 18.5176 19.6334L21.9844 26.2898L29.3906 27.5275C29.9193 27.616 30.4136 27.8476 30.8199 28.1973C31.2262 28.5469 31.529 29.0012 31.6953 29.5107C31.8604 30.0203 31.8826 30.5654 31.7597 31.0867C31.6368 31.6081 31.3734 32.0858 30.998 32.468ZM50 0L60.7422 15.3326L50 28.3627L42.709 31.9973C42.2294 32.2364 41.6935 32.3396 41.1594 32.2956C40.6254 32.2515 40.1136 32.062 39.6797 31.7475C39.2458 31.4326 38.9068 31.0048 38.6995 30.5105C38.4921 30.0162 38.4245 29.4744 38.5039 28.9443L39.709 20.8902L33.998 15.083C33.2305 14.3041 32.9629 13.1641 33.3008 12.1258C33.6387 11.0875 34.5254 10.3221 35.6035 10.1426L43.6406 8.79961L47.4004 1.57715C47.6481 1.1017 48.0214 0.703274 48.4797 0.425204C48.9381 0.147133 49.4639 6.67806e-05 50 0Z" fill="#FFBB17"/>
<path d="M50 46.54L56.9404 57.9922L50 68.5432C42.334 68.5432 36.1191 62.3318 36.1191 54.6701C36.1191 52.4018 36.6641 50.2625 37.627 48.3729C40.8359 51.4572 50 46.54 50 46.54Z" fill="#FFCCBD"/>
<path d="M63.8809 54.6701C63.8809 62.3318 57.666 68.5432 50 68.5432V46.54C50 46.54 59.1641 51.4572 62.373 48.373C63.3359 50.2625 63.8809 52.402 63.8809 54.6701Z" fill="#FFBDA9"/>
<path d="M50 40.7973L55.2098 46.54L50 53.3545C45.1953 53.3545 40.8359 51.4572 37.627 48.3731C39.9258 43.8756 44.6035 40.7973 50 40.7973Z" fill="#8C4D4D"/>
<path d="M62.373 48.373C59.1641 51.4572 54.8047 53.3545 50 53.3545V40.7971C55.3965 40.7973 60.0742 43.8756 62.373 48.373Z" fill="#733333"/>
<path d="M50 68.5432L51.8715 74.0844L50 81.5943C48.3828 81.5943 47.0703 80.2826 47.0703 78.6664V68.7326C48.0293 68.6076 49.0078 68.5432 50 68.5432Z" fill="#E6F2FF"/>
<path d="M52.9297 68.7326V78.6664C52.9297 80.2826 51.6172 81.5943 50 81.5943V68.5432C50.9922 68.5432 51.9707 68.6076 52.9297 68.7326Z" fill="#CCE6FF"/>
<path d="M66.002 15.0832L60.291 20.8904L61.4961 28.9445C61.5585 29.3613 61.5303 29.7866 61.4132 30.1914C61.2962 30.5962 61.0932 30.971 60.818 31.2901C60.5428 31.6092 60.202 31.8652 59.8188 32.0405C59.4356 32.2158 59.019 32.3063 58.5977 32.3059C58.1523 32.3059 57.7051 32.2043 57.291 31.9975L50 28.3629V0C50.5361 6.67806e-05 51.0619 0.147133 51.5203 0.425204C51.9786 0.703274 52.3519 1.1017 52.5996 1.57715L56.3594 8.79961L64.3965 10.1426C65.4746 10.3223 66.3613 11.0873 66.6992 12.1258C67.0371 13.1643 66.7695 14.3045 66.002 15.0832Z" fill="#FF9922"/>
</svg>
