<svg width="95" height="93" viewBox="0 0 95 93" fill="none" xmlns="http://www.w3.org/2000/svg">
<path d="M85.1667 50.125H14.8542C13.611 50.125 12.4187 49.6311 11.5397 48.7521C10.6606 47.873 10.1667 46.6807 10.1667 45.4375H89.8542C89.8542 46.6807 89.3604 47.873 88.4813 48.7521C87.6022 49.6311 86.4099 50.125 85.1667 50.125Z" fill="#E8E5DF"/>
<path d="M21.1042 47H39.8542C41.9262 47 43.9134 46.1768 45.3785 44.7117C46.8436 43.2466 47.6667 41.2595 47.6667 39.1875V34.3953C47.6667 26.6875 41.487 15.75 39.6464 15.75H21.312C19.4714 15.75 13.2917 26.6875 13.2917 34.3953V39.1875C13.2917 41.2595 14.1148 43.2466 15.5799 44.7117C17.0451 46.1768 19.0322 47 21.1042 47ZM42.6198 3.68901L39.3542 5.32183C39.1141 5.44208 38.8395 5.47416 38.5781 5.41247C38.3168 5.35079 38.0855 5.19925 37.9245 4.98433L35.8542 2.22339C35.7557 2.09221 35.6301 1.9837 35.486 1.90519C35.342 1.82668 35.1827 1.78 35.0191 1.7683C34.8554 1.7566 34.6911 1.78015 34.5374 1.83737C34.3836 1.89458 34.2439 1.98412 34.1277 2.09995L31.412 4.81558C31.2961 4.93188 31.1564 5.02185 31.0026 5.07936C30.8487 5.13688 30.6843 5.16058 30.5205 5.14887C30.3567 5.13716 30.1973 5.0903 30.0532 5.01149C29.9091 4.93268 29.7837 4.82376 29.6855 4.69214L27.8339 2.22339C27.7354 2.09221 27.6098 1.9837 27.4657 1.90519C27.3217 1.82668 27.1624 1.78 26.9987 1.7683C26.8351 1.7566 26.6708 1.78015 26.517 1.83737C26.3633 1.89458 26.2236 1.98412 26.1073 2.09995L22.9355 5.27183C22.791 5.41634 22.6105 5.51962 22.4127 5.57099C22.2149 5.62236 22.007 5.61995 21.8105 5.56401L17.0683 4.20933C16.8511 4.14772 16.6205 4.15159 16.4055 4.22048C16.1904 4.28936 16.0005 4.42018 15.8595 4.59654C15.7185 4.7729 15.6327 4.98696 15.6129 5.21188C15.5931 5.43679 15.64 5.66256 15.748 5.86089L21.1042 15.75H39.8542L44.1902 5.15464C44.5995 4.17495 43.5698 3.21558 42.6198 3.68901Z" fill="#FEBE07"/>
<path d="M39.8542 47C41.9262 47 43.9133 46.1769 45.3785 44.7118C46.8436 43.2467 47.6667 41.2595 47.6667 39.1875V34.3953C47.6667 26.6875 41.487 15.75 39.6464 15.75H21.312C20.2683 15.75 31.2495 16.4235 36.7292 25.125C40.912 31.7672 39.8542 47 39.8542 47ZM42.6198 3.68909L40.4105 4.79377C36.1074 9.1118 30.7086 12.1752 24.7948 13.6547L20.5448 14.7172L21.1042 15.75H39.8542L44.1901 5.15471C44.5995 4.17502 43.5698 3.21565 42.6198 3.68909Z" fill="#E3A800"/>
<path d="M42.9792 43.875H24.2292C22.1572 43.875 20.1701 43.0519 18.7049 41.5868C17.2398 40.1216 16.4167 38.1345 16.4167 36.0625V31.2703C16.4167 26.1266 19.1667 19.5594 21.5448 15.75H21.312C19.4714 15.75 13.2917 26.6875 13.2917 34.3953V39.1875C13.2917 41.2595 14.1148 43.2466 15.5799 44.7118C17.0451 46.1769 19.0322 47 21.1042 47H39.8542C42.8183 47 45.3652 45.3297 46.6902 42.8984C45.5548 43.5305 44.2786 43.8664 42.9792 43.875Z" fill="#E3A800"/>
<path d="M52.3542 3.25H67.9792V47H52.3542V3.25Z" fill="#CBE6FE"/>
<path d="M67.9792 22L61.7292 28.25L55.4792 34.5H58.6042V47H67.9792V22Z" fill="#A9C6EB"/>
<path d="M43.448 22H38.2917V47H52.3542V22H43.448Z" fill="#CBE6FE"/>
<path d="M71.1042 39.1875H77.3542V47H71.1042V39.1875Z" fill="#A9C6EB"/>
<path d="M87.8339 43.875C87.0323 43.875 86.2465 44.0983 85.5646 44.5197C84.8827 44.9411 84.3316 45.544 83.973 46.2609L83.6042 47L78.9167 56.375L67.9792 61.0625C67.9792 59.4049 67.3207 57.8152 66.1486 56.6431C64.9765 55.471 63.3868 54.8125 61.7292 54.8125H39.2323C30.4907 54.8123 21.9674 57.5437 14.8542 62.625V86.0625H51.7386C59.2886 86.0625 66.6855 83.9406 73.087 79.9391C77.8731 76.9486 81.9772 72.9856 85.1333 68.3071C88.2894 63.6286 90.4269 58.339 91.4073 52.7813L92.0855 48.9406C92.1947 48.3199 92.1668 47.6827 92.0035 47.074C91.8403 46.4652 91.5457 45.8995 91.1405 45.4168C90.7353 44.934 90.2293 44.5458 89.6581 44.2794C89.0868 44.0131 88.4642 43.875 87.8339 43.875Z" fill="#FFE5CF"/>
<path d="M83.6042 34.5H64.8542V47H71.1042V39.1875H77.3542V47H83.6042V34.5Z" fill="#CBE6FE"/>
<path d="M86.7292 34.5L74.2292 22L67.9792 28.25L61.7292 34.5H86.7292Z" fill="#E3A800"/>
<path d="M47.6667 22H52.3542V47H47.6667V22Z" fill="#A9C6EB"/>
<path d="M18.1027 60.5453C16.9948 61.1922 15.9042 61.875 14.8542 62.625V86.0625H51.7386L42.8714 85.2422C29.6433 84.0172 19.3323 73.5297 18.1027 60.5453Z" fill="#F5DCC7"/>
<path d="M33.6042 28.25V26.6875C33.6042 26.2731 33.4396 25.8757 33.1466 25.5826C32.8535 25.2896 32.4561 25.125 32.0417 25.125H30.4792V23.5625H27.3542V25.125H25.7917C25.3773 25.125 24.9799 25.2896 24.6869 25.5826C24.3938 25.8757 24.2292 26.2731 24.2292 26.6875V31.375C24.2292 31.7894 24.3938 32.1868 24.6869 32.4799C24.9799 32.7729 25.3773 32.9375 25.7917 32.9375H30.4792V34.5H24.2292V36.0625C24.2292 36.4769 24.3938 36.8743 24.6869 37.1674C24.9799 37.4604 25.3773 37.625 25.7917 37.625H27.3542V39.1875H30.4792V37.625H32.0417C32.4561 37.625 32.8535 37.4604 33.1466 37.1674C33.4396 36.8743 33.6042 36.4769 33.6042 36.0625V31.375C33.6042 30.9606 33.4396 30.5632 33.1466 30.2701C32.8535 29.9771 32.4561 29.8125 32.0417 29.8125H27.3542V28.25H33.6042Z" fill="#FEFEFE"/>
<path d="M61.7292 70.4375H36.7292V67.3125H61.7292C64.3136 67.3125 67.9792 63.6469 67.9792 61.0625L69.5417 62.625C69.5417 66.9328 66.037 70.4375 61.7292 70.4375Z" fill="#F5DCC7"/>
<path d="M57.0417 7.9375H58.6042V11.0625H57.0417V7.9375ZM61.7292 7.9375H63.2917V11.0625H61.7292V7.9375ZM57.0417 14.1875H58.6042V17.3125H57.0417V14.1875ZM61.7292 14.1875H63.2917V17.3125H61.7292V14.1875ZM57.0417 20.4375H58.6042V23.5625H57.0417V20.4375ZM61.7292 20.4375H63.2917V23.5625H61.7292V20.4375ZM42.9792 26.6875H44.5417V29.8125H42.9792V26.6875ZM47.6667 26.6875H49.2292V29.8125H47.6667V26.6875ZM42.9792 32.9375H44.5417V36.0625H42.9792V32.9375ZM47.6667 32.9375H49.2292V36.0625H47.6667V32.9375ZM42.9792 39.1875H44.5417V42.3125H42.9792V39.1875ZM47.6667 39.1875H49.2292V42.3125H47.6667V39.1875ZM57.0417 26.6875H58.6042V29.8125H57.0417V26.6875ZM61.7292 26.6875H63.2917V29.8125H61.7292V26.6875Z" fill="#4F45E2"/>
<path d="M80.4792 3.25H83.6042V6.375H80.4792V3.25ZM83.6042 0.125H86.7292V3.25H83.6042V0.125ZM86.7292 3.25H89.8542V6.375H86.7292V3.25ZM83.6042 6.375H86.7292V9.5H83.6042V6.375ZM91.4167 11.0625H94.5417V14.1875H91.4167V11.0625ZM80.4792 15.75H83.6042V18.875H80.4792V15.75ZM0.791718 14.1875H3.91672V17.3125H0.791718V14.1875ZM3.91672 11.0625H7.04172V14.1875H3.91672V11.0625ZM7.04172 14.1875H10.1667V17.3125H7.04172V14.1875ZM3.91672 17.3125H7.04172V20.4375H3.91672V17.3125ZM0.791718 26.6875H3.91672V29.8125H0.791718V26.6875ZM7.04172 0.125H10.1667V3.25H7.04172V0.125Z" fill="#FEBE07"/>
<path d="M13.2917 54.8125H3.91672C3.50232 54.8125 3.10489 54.9771 2.81186 55.2701C2.51884 55.5632 2.35422 55.9606 2.35422 56.375V90.75C2.35422 91.1644 2.51884 91.5618 2.81186 91.8549C3.10489 92.1479 3.50232 92.3125 3.91672 92.3125H13.2917C13.7061 92.3125 14.1035 92.1479 14.3966 91.8549C14.6896 91.5618 14.8542 91.1644 14.8542 90.75V56.375C14.8542 55.9606 14.6896 55.5632 14.3966 55.2701C14.1035 54.9771 13.7061 54.8125 13.2917 54.8125Z" fill="#4F45E2"/>
<path d="M8.60422 65.75C8.18982 65.75 7.79239 65.5854 7.49936 65.2924C7.20634 64.9993 7.04172 64.6019 7.04172 64.1875V62.625C7.04172 62.2106 7.20634 61.8132 7.49936 61.5201C7.79239 61.2271 8.18982 61.0625 8.60422 61.0625C9.01862 61.0625 9.41605 61.2271 9.70907 61.5201C10.0021 61.8132 10.1667 62.2106 10.1667 62.625V64.1875C10.1667 64.6019 10.0021 64.9993 9.70907 65.2924C9.41605 65.5854 9.01862 65.75 8.60422 65.75Z" fill="#FEFEFE"/>
</svg>
