<svg width="160" height="120" viewBox="0 0 160 120" fill="none" xmlns="http://www.w3.org/2000/svg">
<rect x="1" y="0.25" width="158.5" height="119.5" rx="10.4167" fill="white"/>
<rect x="1" y="0.25" width="158.5" height="119.5" rx="10.4167" stroke="#DEE2E6" stroke-width="0.5"/>
<path d="M78.1699 58.56H82.4899V74.88H78.1699V58.56ZM110.01 86.72H105.69V70.56C108.09 70.56 110.01 72.48 110.01 74.88V86.72Z" fill="#4D5471"/>
<path d="M82.49 86.72H78.17V70.56C80.57 70.56 82.49 72.48 82.49 74.88V86.72ZM54.97 86.72H50.49V74.88C50.49 72.48 52.41 70.56 54.81 70.56V86.72H54.97Z" fill="#4D5471"/>
<path d="M50.49 74.88C50.49 72.48 52.41 70.56 54.81 70.56H105.53C107.93 70.56 109.85 72.48 109.85 74.88H50.49Z" fill="#4D5471"/>
<path d="M107.77 77.12C110.244 77.12 112.25 75.1142 112.25 72.64C112.25 70.1658 110.244 68.16 107.77 68.16C105.296 68.16 103.29 70.1658 103.29 72.64C103.29 75.1142 105.296 77.12 107.77 77.12Z" fill="#63C558"/>
<path d="M109.53 68.64V70.88C109.53 72.32 108.41 73.44 106.97 73.44C104.89 73.44 104.41 76.32 106.33 77.12C107.13 77.44 108.09 77.44 109.05 77.12C110.49 76.64 111.61 75.52 112.09 74.08C112.73 71.68 111.61 69.44 109.53 68.64Z" fill="#58B44F"/>
<path d="M80.25 77.12C82.7243 77.12 84.73 75.1142 84.73 72.64C84.73 70.1658 82.7243 68.16 80.25 68.16C77.7758 68.16 75.77 70.1658 75.77 72.64C75.77 75.1142 77.7758 77.12 80.25 77.12Z" fill="#63C558"/>
<path d="M82.01 68.64V70.88C82.01 72.32 80.89 73.44 79.45 73.44C77.37 73.44 76.89 76.32 78.81 77.12C79.61 77.44 80.57 77.44 81.53 77.12C82.97 76.64 84.09 75.52 84.57 74.08C85.37 71.68 84.09 69.44 82.01 68.64Z" fill="#58B44F"/>
<path d="M52.73 77.12C55.2042 77.12 57.21 75.1142 57.21 72.64C57.21 70.1658 55.2042 68.16 52.73 68.16C50.2558 68.16 48.25 70.1658 48.25 72.64C48.25 75.1142 50.2558 77.12 52.73 77.12Z" fill="#63C558"/>
<path d="M54.4899 68.64V70.88C54.4899 72.32 53.3699 73.44 51.9299 73.44C49.8499 73.44 49.3699 76.32 51.2899 77.12C52.0899 77.44 53.0499 77.44 54.0099 77.12C55.4499 76.64 56.5699 75.52 57.0499 74.08C57.6899 71.68 56.4099 69.44 54.4899 68.64ZM100.89 42.72C100.89 54.08 91.6099 63.36 80.2499 63.36C67.6099 63.36 58.1699 52.16 59.7699 40.16C61.0499 30.08 69.6899 22.08 80.2499 22.08C91.6099 22.08 100.89 31.36 100.89 42.72Z" fill="#58B44F"/>
<path d="M99.1299 49.92C98.6499 49.44 98.3299 48.8 98.4899 48.16C98.4899 47.68 98.3299 47.2 98.0099 46.72C97.6899 46.4 97.3699 45.92 97.0499 45.44C96.8899 45.12 96.8899 44.64 97.0499 44.32C97.2099 44.16 97.2099 44 97.3699 43.84C97.5299 43.36 97.5299 43.04 97.2099 42.72C96.7299 42.4 96.4099 41.92 96.2499 41.44C96.0899 41.12 95.9299 40.64 95.9299 40.32C95.9299 39.84 95.7699 39.68 95.2899 39.68C94.9699 39.68 94.6499 39.68 94.4899 39.52C94.1699 39.52 94.0099 39.52 94.0099 39.84V40C94.0099 40.32 93.8499 40.32 93.6899 40.32H93.2099C92.8899 40.32 92.5699 40.32 92.4099 40.8C92.4099 40.8 92.4099 40.96 92.2499 40.96C91.9299 41.28 91.6099 41.28 91.2899 41.12C91.1299 40.96 90.9699 40.8 90.9699 40.64C90.6499 40.32 90.3299 40 90.0099 39.84C89.8499 39.84 89.6899 39.68 89.5299 39.52L89.0499 39.04L88.5699 38.08C87.9299 37.28 87.9299 36.32 88.2499 35.52C88.5699 34.88 88.7299 34.08 89.0499 33.44C89.2099 32.96 89.0499 32.64 88.7299 32.32L88.4099 32.64C88.2499 32.8 88.2499 32.8 88.0899 32.8C87.9299 32.8 87.9299 32.64 87.7699 32.64C87.6099 32.48 87.4499 32.32 87.2899 32C86.9699 31.52 86.9699 31.2 87.6099 31.04C87.7699 31.04 87.9299 30.88 88.0899 30.88C88.4099 30.72 88.4099 30.24 88.0899 30.08H87.9299C87.7699 30.08 87.6099 29.92 87.6099 29.92C87.4499 29.92 87.2899 29.92 87.1299 29.76C87.2899 29.6 87.4499 29.6 87.4499 29.6C88.0899 28.96 88.2499 28.48 88.4099 28C88.4099 27.68 88.5699 27.52 88.7299 27.2V26.88C88.5699 26.88 88.4099 26.72 88.2499 26.72C88.0899 26.72 87.9299 26.56 87.9299 26.4C87.7699 26.08 87.7699 26.08 87.4499 26.08C86.9699 26.08 86.8099 25.92 86.6499 25.6C86.6499 25.44 86.6499 25.28 86.8099 25.28C87.2899 24.96 87.2899 24.8 87.1299 24.32C86.9699 23.84 87.1299 23.68 87.6099 23.68C85.2099 22.72 82.8099 22.24 80.0899 22.24C71.9299 22.24 64.8899 27.04 61.5299 33.92C61.6899 33.76 61.8499 33.6 62.1699 33.6H62.8099C63.2899 33.6 63.9299 33.6 64.4099 33.28C64.7299 33.12 65.0499 32.96 65.5299 32.8C65.6899 32.8 65.6899 32.64 65.8499 32.48C65.8499 32.48 65.6899 32.48 65.6899 32.64C65.2099 32.64 64.7299 32.8 64.2499 32.64C64.0899 32.64 63.9299 32.64 63.7699 32.32C63.7699 32.32 63.7699 32.16 63.6099 32.16C63.4499 32.32 63.4499 32.48 63.2899 32.64C63.4499 32.8 63.2899 32.96 63.1299 32.8C62.9699 32.8 62.8099 32.64 62.8099 32.48C62.8099 32.32 62.9699 32.16 63.1299 32.16C63.4499 32.16 63.7699 32 64.0899 32C64.5699 32 65.0499 31.84 65.3699 31.52C65.5299 31.36 65.6899 31.2 65.6899 31.04C65.6899 31.04 65.6899 30.88 65.8499 30.88C66.0099 30.88 66.1699 30.88 66.1699 31.04C66.1699 31.2 66.3299 31.36 66.3299 31.36V31.68C66.6499 31.68 66.9699 31.52 67.2899 31.52C67.6099 31.52 67.9299 31.52 68.2499 31.68V30.72C68.2499 30.24 68.4099 30.08 68.7299 30.08C68.8899 29.92 68.8899 29.76 69.0499 29.6H68.7299C68.5699 29.28 68.7299 29.28 68.8899 29.28C69.0499 29.28 69.2099 29.28 69.3699 29.44C69.8499 29.6 70.1699 29.6 70.6499 29.44C70.9699 29.28 71.1299 29.28 71.4499 29.12C71.7699 28.96 72.0899 29.12 72.2499 29.28C72.7299 29.6 73.2099 29.76 73.8499 29.6C74.0099 29.6 74.3299 29.6 74.6499 29.76C74.0099 29.6 73.8499 29.6 73.8499 29.6H73.3699L73.2099 29.76C73.2099 29.76 73.2099 29.92 73.3699 29.92H73.6899C73.6899 30.24 73.5299 30.56 73.5299 30.88H72.5699C72.2499 30.88 71.9299 30.72 71.6099 30.72C71.7699 30.56 71.7699 30.24 71.9299 30.08C71.7699 30.08 71.4499 30.24 71.2899 30.24C70.9699 29.92 70.6499 30.08 70.3299 30.08C70.3299 30.4 70.4899 30.72 70.4899 31.04L70.6499 31.2C70.8099 31.36 70.8099 31.36 70.6499 31.52L70.1699 32H69.6899C69.5299 32 69.5299 31.84 69.3699 31.84C69.2099 32.16 69.0499 32.64 68.7299 32.96C68.7299 33.12 68.5699 33.28 68.5699 33.28C68.5699 33.6 68.5699 33.76 68.8899 33.6C69.6899 33.6 70.3299 33.44 71.1299 33.44H71.4499C71.7699 33.28 71.9299 32.96 71.6099 32.64C71.2899 32.32 71.2899 31.84 71.6099 31.36C71.9299 31.04 72.4099 30.88 72.8899 31.2C73.0499 31.2 73.0499 31.36 73.2099 31.36C73.5299 31.52 73.8499 31.36 74.0099 31.04C74.0099 30.88 74.1699 30.72 74.3299 30.88L74.4899 31.04L74.9699 31.52C75.2899 31.52 75.4499 31.68 75.7699 31.68C76.2499 31.84 76.5699 32.16 76.7299 32.64C76.7299 32.8 76.8899 32.8 76.8899 32.8C77.2099 32.8 77.3699 32.8 77.3699 33.12C77.5299 33.28 77.3699 33.44 77.2099 33.44H76.5699C76.2499 33.44 76.0899 33.28 75.9299 32.96C75.9299 32.8 75.7699 32.8 75.6099 32.8C75.4499 32.8 75.2899 32.96 75.1299 32.96H74.6499C74.4899 32.96 74.3299 32.96 74.3299 33.12C74.1699 33.44 74.0099 33.92 73.6899 34.4C74.0099 34.4 74.3299 33.92 74.6499 34.08C74.6499 34.24 74.6499 34.4 74.8099 34.4H75.6099C75.4499 34.72 75.2899 34.88 75.1299 35.04H74.8099C74.4899 34.72 74.1699 34.88 74.0099 35.2V36C74.0099 36.32 73.8499 36.48 73.6899 36.64C73.5299 36.8 73.5299 36.96 73.5299 37.12C73.5299 37.28 73.3699 37.28 73.3699 37.44L73.2099 37.6C73.0499 37.6 73.0499 37.76 73.2099 37.76C73.3699 37.92 73.3699 38.08 73.3699 38.4C73.3699 38.56 73.2099 38.72 73.2099 38.72C73.0499 39.2 73.0499 39.52 73.2099 40C73.3699 40.32 73.3699 40.64 73.5299 40.96V41.28C73.3699 41.12 73.2099 41.12 73.2099 41.12L73.0499 40.96C72.5699 40.32 72.2499 40.32 71.6099 40.8C71.6099 40.8 71.4499 40.96 71.4499 41.12C71.2899 41.12 71.1299 41.28 70.8099 41.28C70.1699 41.44 69.8499 41.92 69.6899 42.56V43.52C69.6899 44.16 70.6499 44.8 71.2899 44.48C71.6099 44.32 71.6099 44.16 71.6099 43.84C71.9299 43.68 72.0899 43.68 72.2499 44C72.2499 44.16 72.2499 44.16 72.4099 44.32C72.5699 44.8 72.8899 45.12 73.3699 44.96H73.6899C73.6899 45.28 74.0099 45.44 74.1699 45.76C74.3299 45.76 74.3299 45.92 74.4899 45.92C74.8099 46.08 75.1299 46.24 75.2899 45.92C75.4499 45.76 75.6099 45.76 75.7699 45.92C75.9299 46.08 76.0899 46.08 76.2499 46.08V45.44C76.2499 45.12 76.4099 44.96 76.7299 44.96C77.3699 44.96 78.0099 44.8 78.6499 44.8H79.2899C79.6099 44.8 80.0899 44.8 80.4099 45.12C80.5699 45.28 80.8899 45.28 81.0499 45.28H81.6899C81.8499 45.28 82.0099 45.44 82.1699 45.44C83.1299 45.92 84.0899 45.92 85.0499 45.76C85.3699 45.76 85.8499 45.76 86.1699 45.92C86.4899 45.92 86.6499 46.08 86.4899 46.56C86.3299 47.2 86.4899 47.84 86.6499 48.48C86.8099 48.8 86.9699 49.12 86.9699 49.44C87.1299 49.76 86.9699 50.08 86.6499 50.4L86.1699 50.88C85.8499 51.2 85.6899 51.52 85.5299 52C85.5299 52.32 85.3699 52.64 85.2099 52.96C85.0499 53.44 84.8899 53.76 85.0499 54.24V55.36C85.0499 55.68 84.8899 55.84 84.5699 55.84C84.5699 55.68 84.4099 55.68 84.4099 55.52C84.2499 55.52 84.0899 55.36 84.0899 55.36C83.9299 55.36 83.9299 55.52 83.9299 55.68C83.9299 55.84 84.0899 56.16 84.0899 56.32C84.0899 56.48 84.2499 56.64 84.4099 56.64C84.5699 56.96 84.5699 57.12 84.4099 57.28L84.2499 57.44C84.2499 57.6 84.4099 57.6 84.4099 57.76L84.2499 57.92C84.0899 57.92 83.7699 58.08 83.6099 58.08L83.4499 58.24C83.4499 58.72 83.6099 59.36 83.6099 59.84C83.6099 60.16 83.7699 60.48 83.9299 60.8C84.5699 62.56 82.9699 61.44 82.8099 61.12C82.4899 60.64 82.3299 60 82.0099 59.52L81.5299 58.56C81.2099 58.08 81.2099 57.6 81.2099 56.96C81.3699 56.16 81.2099 55.52 80.8899 54.88C80.5699 54.24 80.2499 53.6 80.0899 52.96C80.0899 52.96 80.0899 52.8 79.9299 52.8C79.7699 52.48 79.6099 52.32 79.1299 52.32C78.8099 52.32 78.4899 52.16 78.3299 52L77.8499 51.52C77.5299 51.2 77.3699 50.88 76.8899 50.72C76.4099 50.56 76.2499 50.08 76.2499 49.6V48.32C76.2499 48 76.2499 47.68 76.0899 47.36C76.0899 47.2 75.9299 47.04 75.7699 46.88C75.6099 46.72 75.4499 46.72 75.2899 46.72H74.9699C74.4899 46.56 74.1699 46.4 73.6899 46.24C73.5299 46.24 73.2099 46.08 73.0499 45.92C72.7299 45.76 72.5699 45.6 72.2499 45.6C71.6099 45.6 70.8099 45.6 70.1699 45.76C69.2099 45.92 68.4099 45.6 67.6099 44.96C67.1299 44.32 66.3299 44 65.6899 43.68H65.5299C65.3699 44 65.5299 44.16 65.6899 44.32L66.3299 44.96L66.8099 45.44C66.3299 45.44 66.1699 45.44 66.0099 45.12C65.8499 44.96 65.6899 44.64 65.6899 44.32C65.5299 43.68 65.0499 43.2 64.4099 43.04C63.7699 42.88 63.4499 42.4 63.1299 41.92C62.9699 41.6 62.9699 41.28 62.8099 40.96C62.6499 40.32 62.4899 39.84 62.1699 39.36C62.0099 39.2 61.8499 38.88 61.6899 38.56C61.6899 38.72 61.6899 38.88 61.5299 39.04C61.5299 39.2 61.3699 39.2 61.2099 39.2C60.8899 39.04 60.8899 38.72 61.0499 38.4C61.2099 38.08 61.3699 37.6 61.3699 37.28C61.5299 36.48 61.5299 35.84 61.6899 35.04C61.6899 34.72 61.8499 34.56 61.8499 34.24C60.5699 36.96 59.9299 39.84 59.9299 43.04C59.9299 54.56 69.2099 63.68 80.5699 63.68C87.9299 63.68 95.9299 59.36 99.4499 51.36C99.6099 51.04 99.6099 50.88 99.7699 50.56C99.9299 50.24 99.9299 50.08 100.09 49.76C99.6099 49.6 99.2899 49.76 99.1299 49.92ZM65.3699 30.08C65.5299 30.4 65.3699 30.4 65.2099 30.56C65.0499 30.72 65.0499 30.72 64.8899 30.56L65.3699 30.08ZM66.0099 30.72C65.6899 30.88 65.5299 31.04 65.3699 31.2C65.3699 31.36 65.0499 31.36 64.8899 31.36H64.5699C64.4099 31.36 64.2499 31.36 64.0899 31.52C63.9299 31.52 63.7699 31.68 63.6099 31.68H63.4499V31.52C63.6099 31.36 63.9299 31.2 64.0899 31.04H64.2499C64.4099 31.04 64.5699 31.04 64.5699 30.88C64.5699 30.72 64.7299 30.72 64.8899 30.88C65.2099 31.04 65.3699 31.04 65.5299 30.72C65.6899 30.56 65.6899 30.4 65.8499 30.56C66.0099 30.4 66.0099 30.4 66.0099 30.72C66.0099 30.56 66.0099 30.56 66.0099 30.72ZM67.2899 29.44H66.6499V29.28C66.8099 29.28 66.8099 29.12 66.9699 29.12C66.9699 29.28 67.1299 29.28 67.2899 29.44ZM74.9699 42.72C74.6499 42.72 74.3299 42.88 74.0099 42.56C73.6899 42.24 73.3699 42.4 73.0499 42.56C72.8899 42.72 72.7299 42.72 72.5699 42.72V42.56L72.7299 42.4C73.0499 42.24 73.5299 42.08 73.8499 42.08H74.0099C74.1699 42.24 74.4899 42.24 74.6499 42.08H74.8099C74.8099 42.08 74.9699 42.24 74.9699 42.4C75.1299 42.56 75.1299 42.72 74.9699 42.72ZM76.4099 42.88C76.2499 43.04 75.7699 43.2 75.6099 43.2C75.4499 43.2 75.2899 42.72 75.6099 42.72C75.7699 42.56 75.9299 42.56 76.2499 42.56H76.8899C76.7299 42.56 76.5699 42.72 76.4099 42.88ZM85.6899 28.16C85.8499 28 85.8499 27.84 85.6899 27.68V27.52C85.6899 27.36 85.8499 27.2 85.8499 26.88C86.0099 27.04 86.1699 27.04 86.3299 27.2C86.8099 27.68 87.2899 28 87.9299 28.16C87.9299 28.64 87.6099 28.96 87.1299 28.96C86.9699 28.96 86.6499 28.8 86.6499 28.48V28.32L86.4899 28.16L86.3299 28.32C86.1699 28.8 86.1699 28.96 85.6899 28.64L85.5299 28.48C85.3699 28.32 85.5299 28.32 85.6899 28.16ZM71.6099 26.08C71.2899 26.24 71.1299 26.4 71.1299 26.72C71.1299 27.04 70.8099 27.36 70.4899 27.52L70.0099 28C70.0099 28 69.8499 28.16 70.0099 28.32C70.0099 28.32 70.1699 28.48 70.3299 28.48H70.4899C70.4899 28.64 70.4899 28.8 70.1699 28.96H69.0499C69.0499 28.48 69.0499 28.48 68.4099 28.48C68.2499 28.48 67.9299 28.64 67.7699 28.48C67.6099 28.32 67.6099 28.16 67.7699 28.16C68.0899 28 68.4099 28 68.7299 27.84H68.8899C68.7299 27.2 69.2099 26.88 69.6899 26.88C70.1699 26.72 70.6499 26.4 71.1299 26.08C71.2899 25.92 71.6099 25.76 71.9299 25.76C71.9299 25.92 71.7699 26.08 71.6099 26.08ZM80.5699 26.24C79.9299 26.56 79.4499 27.04 78.9699 27.36C78.8099 27.52 78.4899 27.68 78.3299 27.68C78.1699 27.84 78.0099 28 78.0099 28.16V28.8C78.0099 29.44 77.5299 29.76 76.8899 29.44C76.5699 29.28 76.2499 28.96 75.9299 28.64C75.7699 28.48 75.7699 28.16 75.6099 27.84V27.52C75.1299 28 74.6499 27.68 74.1699 27.52C74.0099 27.36 73.8499 27.36 73.6899 27.2C73.3699 26.88 73.0499 26.88 72.5699 27.04H72.4099C72.0899 27.04 71.9299 27.04 72.0899 26.72C72.2499 26.4 72.4099 25.92 73.0499 25.6C73.3699 25.44 73.5299 25.28 73.6899 24.96C74.0099 24.64 74.4899 24.48 74.9699 24.48C75.4499 24.48 75.7699 24.32 76.0899 23.84C76.2499 23.52 76.5699 23.52 76.8899 23.68C77.0499 23.68 77.2099 23.84 77.3699 23.84C77.5299 23.84 77.5299 23.84 77.6899 23.68C77.6899 23.2 77.8499 23.04 78.1699 23.2C78.6499 23.2 78.9699 23.2 79.2899 23.04C79.4499 23.04 79.6099 22.88 79.7699 23.04C79.9299 23.2 79.7699 23.36 79.7699 23.52C79.6099 23.84 79.6099 24 79.4499 24.32C79.4499 24.48 79.4499 24.64 79.7699 24.48C80.0899 24.32 80.5699 24.16 80.8899 24.16C81.0499 24.16 81.2099 24 81.3699 23.84C81.6899 23.68 81.8499 23.52 82.1699 23.36H82.4899V23.68C82.4899 23.84 82.3299 23.84 82.1699 23.84C82.0099 24 81.8499 24 81.6899 24.32C81.5299 24.64 81.5299 24.64 81.2099 24.64H80.8899C80.7299 24.64 80.5699 24.8 80.5699 24.96C80.5699 25.12 80.7299 25.44 80.7299 25.6C80.8899 25.92 80.8899 26.08 80.5699 26.24ZM81.0499 26.72C81.2099 26.72 81.3699 26.56 81.5299 26.56C81.6899 26.56 81.8499 26.56 82.0099 26.4C82.1699 26.24 82.3299 26.24 82.4899 26.24H82.9699C82.9699 26.4 82.8099 26.56 82.6499 26.72C82.4899 26.72 82.4899 26.88 82.3299 26.88C82.0099 26.88 81.8499 27.04 81.6899 27.36C81.3699 27.2 81.2099 27.2 80.8899 27.04C80.8899 26.88 80.8899 26.72 81.0499 26.72Z" fill="#63AFFA"/>
<path d="M94.8099 30.88L95.1299 31.2C94.9699 31.36 94.8099 31.36 94.8099 31.52C94.6499 31.68 94.4899 31.68 94.3299 31.68C94.1699 31.68 94.0099 31.52 93.8499 31.52C93.5299 31.36 93.2099 31.2 92.8899 31.52C92.7299 31.52 92.5699 31.68 92.4099 31.68V31.52C92.5699 30.88 92.4099 30.72 91.7699 30.88C90.9699 31.04 90.3299 31.36 89.6899 32.16H89.0499C89.3699 31.84 89.5299 31.36 89.2099 31.04C89.2099 30.88 89.0499 30.72 89.0499 30.56C89.0499 30.56 89.0499 30.4 89.2099 30.4L89.3699 30.24C90.1699 29.6 90.6499 29.44 91.4499 29.6H91.7699C92.0899 29.76 92.4099 29.76 92.7299 29.92V30.24C92.7299 30.4 92.8899 30.4 92.8899 30.4C93.0499 30.4 93.2099 30.24 93.2099 30.08C93.2099 29.92 93.2099 29.76 93.0499 29.6H92.7299C92.4099 29.44 92.0899 29.44 91.7699 29.28C91.6099 29.28 91.6099 29.12 91.6099 29.12L91.7699 28.96H92.2499C93.2099 29.28 94.1699 29.76 94.9699 30.4H95.1299C95.1299 30.08 95.2899 29.92 95.2899 29.76C95.2899 29.28 95.4499 29.12 95.9299 29.44C95.9299 29.44 95.9299 29.6 96.0899 29.6C96.4099 29.92 96.5699 30.24 96.8899 30.56C96.2499 30.56 95.6099 30.72 94.8099 30.88ZM91.2899 25.28C91.1299 25.28 91.1299 25.28 91.2899 25.28C90.6499 24.96 90.1699 24.64 89.5299 24.32C89.5299 24.48 89.3699 24.64 89.3699 24.8C89.2099 25.12 89.5299 25.28 89.8499 25.44C90.1699 25.44 90.3299 25.76 90.0099 25.92C90.0099 26.08 89.8499 26.08 89.6899 26.08C89.6899 26.08 89.5299 26.24 89.3699 26.24C89.5299 26.24 89.8499 26.08 90.0099 26.08C90.3299 25.92 90.6499 25.92 90.9699 26.08H91.4499C91.6099 26.08 91.7699 25.92 91.7699 25.76L91.2899 25.28ZM69.5299 31.2C69.3699 30.72 69.0499 30.56 68.5699 30.56C68.5699 30.4 68.5699 30.08 68.4099 29.92C68.7299 30.08 69.0499 30.24 69.2099 30.4C69.3699 30.4 69.3699 30.56 69.5299 30.56C69.8499 30.88 69.8499 31.04 69.5299 31.2Z" fill="#63AFFA"/>
<path d="M88.0899 30.08C88.0899 41.28 79.1299 50.24 67.9299 50.24C64.5699 50.24 62.6499 54.4 65.0499 56.8C69.3699 61.44 75.6099 64 82.4899 63.36C92.0899 62.4 99.7699 54.56 100.73 45.12C101.53 38.08 98.6499 31.68 93.8499 27.52C91.7699 25.28 88.0899 26.88 88.0899 30.08Z" fill="#4B9B43"/>
<path d="M88.0898 30.4V29.44H88.2498C88.5698 29.92 88.5698 30.24 88.0898 30.4Z" fill="#58B44F"/>
<path d="M99.7698 49.6C99.6098 49.92 99.6098 50.08 99.4498 50.4C96.4098 58.08 88.8898 63.52 80.2498 63.52C74.8098 63.52 69.2098 61.28 65.0498 56.8C64.4098 56 64.0898 55.04 64.0898 54.24C64.0898 52.16 65.6898 50.24 68.0898 50.24C70.9698 50.24 73.6898 49.6 76.0898 48.64V49.6C76.0898 50.08 76.2498 50.56 76.7298 50.72C77.0498 50.88 77.3698 51.2 77.6898 51.52L78.1698 52C78.3298 52.32 78.6498 52.32 78.9698 52.32C79.4498 52.32 79.6098 52.48 79.7698 52.8C79.7698 52.8 79.7698 52.96 79.9298 52.96C80.2498 53.6 80.5698 54.24 80.7298 54.88C81.0498 55.52 81.2098 56.32 81.0498 56.96C80.8898 57.44 81.0498 58.08 81.3698 58.56L81.8498 59.52C82.1698 60 82.3298 60.64 82.6498 61.12L83.1298 61.6C83.6098 61.76 84.0898 61.76 84.5698 61.6L84.7298 61.44C84.7298 61.44 84.7298 61.28 84.5698 61.28H84.2498C83.9298 61.28 83.7698 61.28 83.7698 60.96C83.6098 60.64 83.6098 60.32 83.4498 60C83.2898 59.52 83.2898 58.88 83.2898 58.4C83.2898 58.4 83.2898 58.24 83.4498 58.24C83.6098 58.08 83.9298 58.08 84.0898 58.08L84.2498 57.92C84.2498 57.92 84.2498 57.76 84.0898 57.6C84.0898 57.6 84.0898 57.44 84.2498 57.44C84.4098 57.12 84.4098 56.96 84.2498 56.8L83.9298 56.48C83.7698 56.32 83.7698 56 83.7698 55.84C83.7698 55.68 83.9298 55.52 83.9298 55.52C84.0898 55.52 84.2498 55.52 84.2498 55.68C84.4098 55.68 84.4098 55.84 84.4098 56C84.7298 56 84.8898 55.84 84.8898 55.52V54.4C84.8898 53.92 84.8898 53.44 85.0498 53.12C85.2098 52.8 85.2098 52.48 85.3698 52.16C85.5298 51.68 85.6898 51.36 86.0098 51.04L86.4898 50.56C86.8098 50.24 86.8098 49.92 86.8098 49.6C86.6498 49.28 86.6498 48.96 86.4898 48.64C86.1698 48 86.1698 47.36 86.3298 46.72C86.4898 46.4 86.3298 46.24 86.0098 46.08C85.6898 46.08 85.2098 45.92 84.8898 45.92C83.9298 46.08 82.9698 45.92 82.0098 45.6C81.8498 45.44 81.6898 45.44 81.5298 45.44C85.2098 42.24 87.7698 37.76 88.4098 32.64C88.5698 32.64 88.7298 32.8 88.7298 32.48C88.7298 32.32 88.8898 32.32 89.0498 32.16C89.3698 32.48 89.5298 32.8 89.3698 33.28C89.0498 33.92 88.8898 34.72 88.5698 35.36C88.2498 36.32 88.2498 37.12 88.8898 37.92C89.0498 38.24 89.3698 38.56 89.3698 38.88C89.3698 39.04 89.6898 39.2 89.8498 39.36C90.0098 39.52 90.1698 39.52 90.3298 39.68C90.6498 39.84 90.9698 40.16 91.2898 40.48C91.4498 40.64 91.6098 40.8 91.6098 40.96C91.9298 41.28 92.2498 41.12 92.5698 40.8C92.5698 40.8 92.5698 40.64 92.7298 40.64C92.8898 40.32 93.2098 40.16 93.5298 40.16H94.0098C94.3298 40.16 94.3298 40.16 94.3298 39.84V39.68C94.3298 39.36 94.4898 39.36 94.8098 39.36C95.1298 39.36 95.2898 39.36 95.6098 39.52C96.0898 39.52 96.2498 39.68 96.2498 40.16C96.2498 40.64 96.2498 40.96 96.5698 41.28C96.8898 41.76 97.2098 42.24 97.5298 42.56C98.0098 42.88 98.0098 43.2 97.6898 43.68C97.5298 43.84 97.5298 44 97.3698 44.16C97.2098 44.48 97.2098 44.96 97.3698 45.28C97.6898 45.76 98.0098 46.24 98.3298 46.56C98.6498 46.88 98.9698 47.36 98.8098 48C98.8098 48.64 98.9698 49.12 99.2898 49.6L99.4498 49.76C99.2898 49.76 99.6098 49.6 99.7698 49.6Z" fill="#529FFB"/>
<path d="M88.25 60C87.77 60 87.29 59.68 87.13 59.36C86.81 58.72 86.97 57.92 87.61 57.6C88.41 57.12 89.21 56.64 90.01 56C90.81 55.36 91.45 54.72 92.09 54.08C92.57 53.6 93.37 53.6 94.01 54.08C94.49 54.56 94.49 55.36 94.01 56C93.37 56.8 92.41 57.44 91.61 58.08C90.81 58.72 89.85 59.36 88.89 59.84C88.73 59.84 88.41 60 88.25 60Z" fill="#63AFFA"/>
<path d="M60.7299 89.76C60.7299 91.84 59.9299 93.92 58.4899 95.36C57.0499 96.96 54.9699 97.92 52.5699 97.92C50.3299 97.92 48.2499 96.96 46.6499 95.36C45.2099 93.92 44.4099 92 44.4099 89.76C44.4099 85.28 48.0899 81.76 52.4099 81.76C57.2099 81.76 60.7299 85.44 60.7299 89.76Z" fill="#58B44F"/>
<path d="M60.73 89.76C60.73 91.84 59.93 93.92 58.49 95.36C57.05 96.96 54.97 97.92 52.57 97.92C50.17 97.92 48.25 96.96 46.65 95.36C45.69 94.08 46.65 92 48.41 92H50.17C53.05 91.68 55.29 89.92 56.25 87.36C56.57 86.56 56.73 85.76 56.73 84.8V83.04C59.13 84.32 60.73 86.88 60.73 89.76Z" fill="#4B9B43"/>
<path d="M88.25 89.76C88.25 92 87.45 93.92 86.01 95.36C84.57 96.8 82.49 97.76 80.25 97.76C78.01 97.76 75.93 96.8 74.49 95.36C73.05 94.08 72.25 92 72.25 89.76C72.25 85.28 75.93 81.76 80.25 81.76C84.73 81.76 88.25 85.44 88.25 89.76Z" fill="#FC4A32"/>
<path d="M88.2498 89.76C88.2498 94.4 84.5698 97.76 80.2498 97.76C78.0098 97.76 75.9298 96.8 74.4898 95.36C73.8498 94.72 73.3698 94.08 73.0498 93.28H76.0898C76.8898 93.28 77.5298 93.12 78.1698 92.96C81.2098 92 83.2898 89.28 83.2898 85.92C83.2898 84.32 85.5298 83.52 86.4898 84.96C87.7698 86.24 88.2498 88 88.2498 89.76Z" fill="#E23E2D"/>
<path d="M86.01 95.52C84.57 96.96 82.49 97.92 80.25 97.92C78.01 97.92 75.93 96.96 74.49 95.52C74.81 95.2 75.29 94.88 75.77 94.88H76.25L78.49 94.56V93.12L78.33 92.96L78.17 92.8L78.01 92.64C77.69 92 77.37 91.36 77.21 90.72C76.73 90.72 76.25 90.24 76.41 89.6C76.41 89.44 76.57 89.28 76.73 89.12C76.57 88.64 76.41 88.32 76.41 87.84C75.77 87.52 75.61 86.4 75.61 86.4C76.25 86.72 76.73 86.24 76.73 86.24C75.29 85.6 75.13 84.8 75.13 84.8C75.29 84.8 75.45 84.8 75.61 84.96H78.49C79.77 84.32 81.37 84.32 82.49 85.28L82.81 85.6L82.97 85.76C82.97 85.76 83.13 85.76 83.13 85.92C83.29 86.08 83.45 86.24 83.61 86.56C83.77 86.88 83.77 87.36 83.77 87.68V88.48C83.77 88.8 83.61 88.96 83.45 89.28C83.61 89.28 83.77 89.44 83.93 89.76C84.09 90.4 83.77 90.88 83.29 90.88C83.13 91.52 82.81 92.32 82.33 92.8C82.33 92.96 82.17 92.96 82.01 93.12L81.85 93.28C81.85 93.28 81.69 93.28 81.69 93.44V94.56L83.93 94.88H84.41C84.73 94.88 85.05 95.04 85.37 95.2C85.85 95.2 85.85 95.36 86.01 95.52Z" fill="#E7E7E7"/>
<path d="M86.01 95.52C84.57 96.96 82.49 97.92 80.25 97.92C78.01 97.92 75.93 96.96 74.49 95.52C74.81 95.2 75.29 94.88 75.77 94.88H76.25L78.49 94.56V93.6H78.65V93.12L78.49 92.96L78.33 92.8C81.37 91.84 83.45 89.12 83.45 85.76C83.61 85.92 83.61 86.08 83.61 86.24C83.77 86.56 83.77 87.04 83.77 87.36V88.16C83.77 88.48 83.61 88.64 83.45 88.96C83.61 88.96 83.77 89.12 83.93 89.44C84.09 90.08 83.77 90.56 83.29 90.56C83.13 91.2 82.81 92 82.33 92.48C82.33 92.64 82.17 92.64 82.01 92.8C82.01 92.8 82.01 92.96 81.85 92.96C81.85 92.96 81.69 92.96 81.69 93.12V94.24L83.93 94.56H84.41C84.73 94.56 85.05 94.72 85.37 94.88C85.85 95.2 85.85 95.36 86.01 95.52Z" fill="#D5D3D4"/>
<path d="M58.4899 95.36C57.0499 96.96 54.9699 97.92 52.5699 97.92C50.3299 97.92 48.2499 96.96 46.6499 95.36C46.9699 95.04 47.6099 94.72 48.0899 94.56H48.5699L50.8099 94.24V93.12C50.8099 92.96 50.6499 92.96 50.6499 92.96L50.4899 92.8L50.3299 92.64C50.0099 92 49.6899 91.36 49.5299 90.72C49.0499 90.72 48.5699 90.24 48.7299 89.6C48.7299 89.44 48.8899 89.28 49.0499 89.12C49.0499 88.96 48.8899 88.8 48.8899 88.64C48.8899 88.48 48.7299 88.16 48.7299 88V87.2C48.7299 87.04 48.7299 87.04 48.8899 86.88C49.0499 86.56 49.3699 86.08 49.6899 85.76C50.9699 84.48 53.2099 83.84 54.8099 84.96C54.8099 84.96 54.9699 84.96 54.9699 85.12L55.1299 85.28C55.2899 85.28 55.2899 85.44 55.4499 85.6L55.6099 85.76H55.7699C55.7699 85.76 55.9299 85.76 55.9299 85.92V87.84C55.9299 88.16 55.7699 88.32 55.6099 88.64C55.7699 88.64 55.9299 88.8 56.0899 89.12C56.2499 89.76 55.9299 90.24 55.4499 90.24C55.2899 90.88 54.9699 91.68 54.4899 92.16L54.0099 92.64C54.0099 92.64 53.8499 92.64 53.8499 92.8V93.92L56.0899 94.24H56.4099C56.7299 94.24 57.0499 94.4 57.3699 94.56C57.5299 94.56 57.5299 94.72 57.6899 94.72C58.4899 95.2 58.4899 95.36 58.4899 95.36Z" fill="#E7E7E7"/>
<path d="M58.6498 95.36C57.2098 96.96 55.1298 97.92 52.7298 97.92C50.3298 97.92 48.4098 96.96 46.8098 95.36C47.1298 95.04 47.7698 94.72 48.2498 94.56H48.7298L50.9698 94.24V92.96C50.9698 92.8 50.8098 92.8 50.8098 92.8L50.6498 92.64L50.4898 92.48C50.3298 92.32 50.3298 92.16 50.1698 92C53.0498 91.68 55.2898 89.92 56.2498 87.36V88C56.2498 88.32 56.0898 88.48 55.9298 88.8C56.0898 88.8 56.2498 88.96 56.4098 89.28C56.5698 89.92 56.2498 90.4 55.7698 90.4C55.6098 91.04 55.2898 91.84 54.8098 92.32L54.3298 92.8C54.3298 92.8 54.1698 92.8 54.1698 92.96V94.08L56.4098 94.4H56.7298C57.0498 94.4 57.3698 94.56 57.6898 94.88C57.8498 94.88 57.8498 95.04 58.0098 95.04C58.4898 95.2 58.4898 95.36 58.6498 95.36Z" fill="#D5D3D4"/>
<path d="M115.77 89.76C115.77 91.84 114.97 93.92 113.53 95.36C112.09 96.96 110.01 97.92 107.61 97.92C105.37 97.92 103.29 96.96 101.69 95.36C100.25 93.92 99.45 92 99.45 89.76C99.45 85.28 103.13 81.76 107.45 81.76C112.25 81.76 115.77 85.44 115.77 89.76Z" fill="#F7CC6D"/>
<path d="M115.77 89.76C115.77 94.08 112.25 97.76 107.77 97.76C105.53 97.76 103.45 96.8 101.85 95.2C100.73 94.08 101.69 92.32 103.13 92.32H105.37C108.57 92 110.97 89.44 110.97 86.08C110.97 84.48 113.21 83.68 114.17 85.12C115.29 86.4 115.77 88 115.77 89.76Z" fill="#F4BC5F"/>
<path d="M113.69 95.36C112.25 96.96 110.17 97.92 107.77 97.92C105.53 97.92 103.45 96.96 101.85 95.36C102.17 95.04 102.81 94.72 103.29 94.56H103.77L106.01 94.24V93.12C106.01 92.96 105.85 92.96 105.85 92.96L105.69 92.8L105.53 92.64C105.21 92 104.89 91.36 104.73 90.72C104.25 90.72 103.77 90.24 103.93 89.6C103.93 89.44 104.09 89.28 104.25 89.12C104.25 88.96 104.09 88.8 104.09 88.64C104.09 88.48 103.93 88.16 103.93 88V87.2C103.93 87.04 103.93 87.04 104.09 86.88C104.25 86.56 104.57 86.08 104.89 85.76C106.17 84.48 108.41 83.84 110.01 84.96C110.01 84.96 110.17 84.96 110.17 85.12L110.33 85.28C110.49 85.28 110.49 85.44 110.65 85.6L110.81 85.76H110.97C110.97 85.76 111.13 85.76 111.13 85.92V87.84C111.13 88.16 110.97 88.32 110.81 88.64C110.97 88.64 111.13 88.8 111.29 89.12C111.45 89.76 111.13 90.24 110.65 90.24C110.49 90.88 110.17 91.68 109.69 92.16L109.21 92.64C109.21 92.64 109.05 92.64 109.05 92.8V93.92L111.29 94.24H111.61C111.93 94.24 112.25 94.4 112.57 94.56C112.73 94.56 112.73 94.72 112.89 94.72C113.53 95.2 113.53 95.36 113.69 95.36Z" fill="#E7E7E7"/>
<path d="M113.69 95.36C112.25 96.96 110.17 97.92 107.77 97.92C105.37 97.92 103.45 96.96 101.85 95.36C102.17 95.04 102.81 94.72 103.29 94.56H103.77L106.01 94.24V92.96L105.85 92.8L105.69 92.64L105.53 92.48C108.73 92.16 111.13 89.6 111.13 86.24V87.84C111.13 88.16 110.97 88.32 110.81 88.64C110.97 88.64 111.13 88.8 111.29 89.12C111.45 89.76 111.13 90.24 110.65 90.24C110.49 90.88 110.17 91.68 109.69 92.16L109.21 92.64L109.05 92.8V93.28H109.21V93.92L111.45 94.24H111.77C112.09 94.24 112.41 94.4 112.73 94.72C112.89 94.72 112.89 94.88 113.05 94.88C113.53 95.2 113.53 95.36 113.69 95.36Z" fill="#D5D3D4"/>
</svg>
